%TF.GenerationSoftware,KiCad,Pcbnew,9.0.6*%
%TF.CreationDate,2026-02-15T15:53:08-05:00*%
%TF.ProjectId,Darkroom Timer,4461726b-726f-46f6-9d20-54696d65722e,rev?*%
%TF.SameCoordinates,Original*%
%TF.FileFunction,Legend,Top*%
%TF.FilePolarity,Positive*%
%FSLAX46Y46*%
G04 Gerber Fmt 4.6, Leading zero omitted, Abs format (unit mm)*
G04 Created by KiCad (PCBNEW 9.0.6) date 2026-02-15 15:53:08*
%MOMM*%
%LPD*%
G01*
G04 APERTURE LIST*
%ADD10C,0.150000*%
%ADD11C,0.120000*%
%ADD12C,0.152400*%
%ADD13C,0.508000*%
%ADD14C,0.127000*%
%ADD15C,0.200000*%
G04 APERTURE END LIST*
D10*
X99687142Y-104554580D02*
X99639523Y-104602200D01*
X99639523Y-104602200D02*
X99496666Y-104649819D01*
X99496666Y-104649819D02*
X99401428Y-104649819D01*
X99401428Y-104649819D02*
X99258571Y-104602200D01*
X99258571Y-104602200D02*
X99163333Y-104506961D01*
X99163333Y-104506961D02*
X99115714Y-104411723D01*
X99115714Y-104411723D02*
X99068095Y-104221247D01*
X99068095Y-104221247D02*
X99068095Y-104078390D01*
X99068095Y-104078390D02*
X99115714Y-103887914D01*
X99115714Y-103887914D02*
X99163333Y-103792676D01*
X99163333Y-103792676D02*
X99258571Y-103697438D01*
X99258571Y-103697438D02*
X99401428Y-103649819D01*
X99401428Y-103649819D02*
X99496666Y-103649819D01*
X99496666Y-103649819D02*
X99639523Y-103697438D01*
X99639523Y-103697438D02*
X99687142Y-103745057D01*
X100639523Y-104649819D02*
X100068095Y-104649819D01*
X100353809Y-104649819D02*
X100353809Y-103649819D01*
X100353809Y-103649819D02*
X100258571Y-103792676D01*
X100258571Y-103792676D02*
X100163333Y-103887914D01*
X100163333Y-103887914D02*
X100068095Y-103935533D01*
X101258571Y-103649819D02*
X101353809Y-103649819D01*
X101353809Y-103649819D02*
X101449047Y-103697438D01*
X101449047Y-103697438D02*
X101496666Y-103745057D01*
X101496666Y-103745057D02*
X101544285Y-103840295D01*
X101544285Y-103840295D02*
X101591904Y-104030771D01*
X101591904Y-104030771D02*
X101591904Y-104268866D01*
X101591904Y-104268866D02*
X101544285Y-104459342D01*
X101544285Y-104459342D02*
X101496666Y-104554580D01*
X101496666Y-104554580D02*
X101449047Y-104602200D01*
X101449047Y-104602200D02*
X101353809Y-104649819D01*
X101353809Y-104649819D02*
X101258571Y-104649819D01*
X101258571Y-104649819D02*
X101163333Y-104602200D01*
X101163333Y-104602200D02*
X101115714Y-104554580D01*
X101115714Y-104554580D02*
X101068095Y-104459342D01*
X101068095Y-104459342D02*
X101020476Y-104268866D01*
X101020476Y-104268866D02*
X101020476Y-104030771D01*
X101020476Y-104030771D02*
X101068095Y-103840295D01*
X101068095Y-103840295D02*
X101115714Y-103745057D01*
X101115714Y-103745057D02*
X101163333Y-103697438D01*
X101163333Y-103697438D02*
X101258571Y-103649819D01*
X98666667Y-35407200D02*
X98809524Y-35454819D01*
X98809524Y-35454819D02*
X99047619Y-35454819D01*
X99047619Y-35454819D02*
X99142857Y-35407200D01*
X99142857Y-35407200D02*
X99190476Y-35359580D01*
X99190476Y-35359580D02*
X99238095Y-35264342D01*
X99238095Y-35264342D02*
X99238095Y-35169104D01*
X99238095Y-35169104D02*
X99190476Y-35073866D01*
X99190476Y-35073866D02*
X99142857Y-35026247D01*
X99142857Y-35026247D02*
X99047619Y-34978628D01*
X99047619Y-34978628D02*
X98857143Y-34931009D01*
X98857143Y-34931009D02*
X98761905Y-34883390D01*
X98761905Y-34883390D02*
X98714286Y-34835771D01*
X98714286Y-34835771D02*
X98666667Y-34740533D01*
X98666667Y-34740533D02*
X98666667Y-34645295D01*
X98666667Y-34645295D02*
X98714286Y-34550057D01*
X98714286Y-34550057D02*
X98761905Y-34502438D01*
X98761905Y-34502438D02*
X98857143Y-34454819D01*
X98857143Y-34454819D02*
X99095238Y-34454819D01*
X99095238Y-34454819D02*
X99238095Y-34502438D01*
X99571429Y-34454819D02*
X99809524Y-35454819D01*
X99809524Y-35454819D02*
X100000000Y-34740533D01*
X100000000Y-34740533D02*
X100190476Y-35454819D01*
X100190476Y-35454819D02*
X100428572Y-34454819D01*
X100952381Y-34883390D02*
X100857143Y-34835771D01*
X100857143Y-34835771D02*
X100809524Y-34788152D01*
X100809524Y-34788152D02*
X100761905Y-34692914D01*
X100761905Y-34692914D02*
X100761905Y-34645295D01*
X100761905Y-34645295D02*
X100809524Y-34550057D01*
X100809524Y-34550057D02*
X100857143Y-34502438D01*
X100857143Y-34502438D02*
X100952381Y-34454819D01*
X100952381Y-34454819D02*
X101142857Y-34454819D01*
X101142857Y-34454819D02*
X101238095Y-34502438D01*
X101238095Y-34502438D02*
X101285714Y-34550057D01*
X101285714Y-34550057D02*
X101333333Y-34645295D01*
X101333333Y-34645295D02*
X101333333Y-34692914D01*
X101333333Y-34692914D02*
X101285714Y-34788152D01*
X101285714Y-34788152D02*
X101238095Y-34835771D01*
X101238095Y-34835771D02*
X101142857Y-34883390D01*
X101142857Y-34883390D02*
X100952381Y-34883390D01*
X100952381Y-34883390D02*
X100857143Y-34931009D01*
X100857143Y-34931009D02*
X100809524Y-34978628D01*
X100809524Y-34978628D02*
X100761905Y-35073866D01*
X100761905Y-35073866D02*
X100761905Y-35264342D01*
X100761905Y-35264342D02*
X100809524Y-35359580D01*
X100809524Y-35359580D02*
X100857143Y-35407200D01*
X100857143Y-35407200D02*
X100952381Y-35454819D01*
X100952381Y-35454819D02*
X101142857Y-35454819D01*
X101142857Y-35454819D02*
X101238095Y-35407200D01*
X101238095Y-35407200D02*
X101285714Y-35359580D01*
X101285714Y-35359580D02*
X101333333Y-35264342D01*
X101333333Y-35264342D02*
X101333333Y-35073866D01*
X101333333Y-35073866D02*
X101285714Y-34978628D01*
X101285714Y-34978628D02*
X101238095Y-34931009D01*
X101238095Y-34931009D02*
X101142857Y-34883390D01*
X84923333Y-180754580D02*
X84875714Y-180802200D01*
X84875714Y-180802200D02*
X84732857Y-180849819D01*
X84732857Y-180849819D02*
X84637619Y-180849819D01*
X84637619Y-180849819D02*
X84494762Y-180802200D01*
X84494762Y-180802200D02*
X84399524Y-180706961D01*
X84399524Y-180706961D02*
X84351905Y-180611723D01*
X84351905Y-180611723D02*
X84304286Y-180421247D01*
X84304286Y-180421247D02*
X84304286Y-180278390D01*
X84304286Y-180278390D02*
X84351905Y-180087914D01*
X84351905Y-180087914D02*
X84399524Y-179992676D01*
X84399524Y-179992676D02*
X84494762Y-179897438D01*
X84494762Y-179897438D02*
X84637619Y-179849819D01*
X84637619Y-179849819D02*
X84732857Y-179849819D01*
X84732857Y-179849819D02*
X84875714Y-179897438D01*
X84875714Y-179897438D02*
X84923333Y-179945057D01*
X85828095Y-179849819D02*
X85351905Y-179849819D01*
X85351905Y-179849819D02*
X85304286Y-180326009D01*
X85304286Y-180326009D02*
X85351905Y-180278390D01*
X85351905Y-180278390D02*
X85447143Y-180230771D01*
X85447143Y-180230771D02*
X85685238Y-180230771D01*
X85685238Y-180230771D02*
X85780476Y-180278390D01*
X85780476Y-180278390D02*
X85828095Y-180326009D01*
X85828095Y-180326009D02*
X85875714Y-180421247D01*
X85875714Y-180421247D02*
X85875714Y-180659342D01*
X85875714Y-180659342D02*
X85828095Y-180754580D01*
X85828095Y-180754580D02*
X85780476Y-180802200D01*
X85780476Y-180802200D02*
X85685238Y-180849819D01*
X85685238Y-180849819D02*
X85447143Y-180849819D01*
X85447143Y-180849819D02*
X85351905Y-180802200D01*
X85351905Y-180802200D02*
X85304286Y-180754580D01*
X91495714Y-168514819D02*
X91495714Y-167514819D01*
X91495714Y-167514819D02*
X91733809Y-167514819D01*
X91733809Y-167514819D02*
X91876666Y-167562438D01*
X91876666Y-167562438D02*
X91971904Y-167657676D01*
X91971904Y-167657676D02*
X92019523Y-167752914D01*
X92019523Y-167752914D02*
X92067142Y-167943390D01*
X92067142Y-167943390D02*
X92067142Y-168086247D01*
X92067142Y-168086247D02*
X92019523Y-168276723D01*
X92019523Y-168276723D02*
X91971904Y-168371961D01*
X91971904Y-168371961D02*
X91876666Y-168467200D01*
X91876666Y-168467200D02*
X91733809Y-168514819D01*
X91733809Y-168514819D02*
X91495714Y-168514819D01*
X93019523Y-168514819D02*
X92448095Y-168514819D01*
X92733809Y-168514819D02*
X92733809Y-167514819D01*
X92733809Y-167514819D02*
X92638571Y-167657676D01*
X92638571Y-167657676D02*
X92543333Y-167752914D01*
X92543333Y-167752914D02*
X92448095Y-167800533D01*
X93352857Y-167514819D02*
X93971904Y-167514819D01*
X93971904Y-167514819D02*
X93638571Y-167895771D01*
X93638571Y-167895771D02*
X93781428Y-167895771D01*
X93781428Y-167895771D02*
X93876666Y-167943390D01*
X93876666Y-167943390D02*
X93924285Y-167991009D01*
X93924285Y-167991009D02*
X93971904Y-168086247D01*
X93971904Y-168086247D02*
X93971904Y-168324342D01*
X93971904Y-168324342D02*
X93924285Y-168419580D01*
X93924285Y-168419580D02*
X93876666Y-168467200D01*
X93876666Y-168467200D02*
X93781428Y-168514819D01*
X93781428Y-168514819D02*
X93495714Y-168514819D01*
X93495714Y-168514819D02*
X93400476Y-168467200D01*
X93400476Y-168467200D02*
X93352857Y-168419580D01*
X119687142Y-134044819D02*
X119353809Y-133568628D01*
X119115714Y-134044819D02*
X119115714Y-133044819D01*
X119115714Y-133044819D02*
X119496666Y-133044819D01*
X119496666Y-133044819D02*
X119591904Y-133092438D01*
X119591904Y-133092438D02*
X119639523Y-133140057D01*
X119639523Y-133140057D02*
X119687142Y-133235295D01*
X119687142Y-133235295D02*
X119687142Y-133378152D01*
X119687142Y-133378152D02*
X119639523Y-133473390D01*
X119639523Y-133473390D02*
X119591904Y-133521009D01*
X119591904Y-133521009D02*
X119496666Y-133568628D01*
X119496666Y-133568628D02*
X119115714Y-133568628D01*
X120639523Y-134044819D02*
X120068095Y-134044819D01*
X120353809Y-134044819D02*
X120353809Y-133044819D01*
X120353809Y-133044819D02*
X120258571Y-133187676D01*
X120258571Y-133187676D02*
X120163333Y-133282914D01*
X120163333Y-133282914D02*
X120068095Y-133330533D01*
X121258571Y-133044819D02*
X121353809Y-133044819D01*
X121353809Y-133044819D02*
X121449047Y-133092438D01*
X121449047Y-133092438D02*
X121496666Y-133140057D01*
X121496666Y-133140057D02*
X121544285Y-133235295D01*
X121544285Y-133235295D02*
X121591904Y-133425771D01*
X121591904Y-133425771D02*
X121591904Y-133663866D01*
X121591904Y-133663866D02*
X121544285Y-133854342D01*
X121544285Y-133854342D02*
X121496666Y-133949580D01*
X121496666Y-133949580D02*
X121449047Y-133997200D01*
X121449047Y-133997200D02*
X121353809Y-134044819D01*
X121353809Y-134044819D02*
X121258571Y-134044819D01*
X121258571Y-134044819D02*
X121163333Y-133997200D01*
X121163333Y-133997200D02*
X121115714Y-133949580D01*
X121115714Y-133949580D02*
X121068095Y-133854342D01*
X121068095Y-133854342D02*
X121020476Y-133663866D01*
X121020476Y-133663866D02*
X121020476Y-133425771D01*
X121020476Y-133425771D02*
X121068095Y-133235295D01*
X121068095Y-133235295D02*
X121115714Y-133140057D01*
X121115714Y-133140057D02*
X121163333Y-133092438D01*
X121163333Y-133092438D02*
X121258571Y-133044819D01*
X60665057Y-111855238D02*
X60617438Y-111950476D01*
X60617438Y-111950476D02*
X60522200Y-112045714D01*
X60522200Y-112045714D02*
X60379342Y-112188571D01*
X60379342Y-112188571D02*
X60331723Y-112283809D01*
X60331723Y-112283809D02*
X60331723Y-112379047D01*
X60569819Y-112331428D02*
X60522200Y-112426666D01*
X60522200Y-112426666D02*
X60426961Y-112521904D01*
X60426961Y-112521904D02*
X60236485Y-112569523D01*
X60236485Y-112569523D02*
X59903152Y-112569523D01*
X59903152Y-112569523D02*
X59712676Y-112521904D01*
X59712676Y-112521904D02*
X59617438Y-112426666D01*
X59617438Y-112426666D02*
X59569819Y-112331428D01*
X59569819Y-112331428D02*
X59569819Y-112140952D01*
X59569819Y-112140952D02*
X59617438Y-112045714D01*
X59617438Y-112045714D02*
X59712676Y-111950476D01*
X59712676Y-111950476D02*
X59903152Y-111902857D01*
X59903152Y-111902857D02*
X60236485Y-111902857D01*
X60236485Y-111902857D02*
X60426961Y-111950476D01*
X60426961Y-111950476D02*
X60522200Y-112045714D01*
X60522200Y-112045714D02*
X60569819Y-112140952D01*
X60569819Y-112140952D02*
X60569819Y-112331428D01*
X59569819Y-111569523D02*
X59569819Y-110950476D01*
X59569819Y-110950476D02*
X59950771Y-111283809D01*
X59950771Y-111283809D02*
X59950771Y-111140952D01*
X59950771Y-111140952D02*
X59998390Y-111045714D01*
X59998390Y-111045714D02*
X60046009Y-110998095D01*
X60046009Y-110998095D02*
X60141247Y-110950476D01*
X60141247Y-110950476D02*
X60379342Y-110950476D01*
X60379342Y-110950476D02*
X60474580Y-110998095D01*
X60474580Y-110998095D02*
X60522200Y-111045714D01*
X60522200Y-111045714D02*
X60569819Y-111140952D01*
X60569819Y-111140952D02*
X60569819Y-111426666D01*
X60569819Y-111426666D02*
X60522200Y-111521904D01*
X60522200Y-111521904D02*
X60474580Y-111569523D01*
X35552142Y-73554819D02*
X35218809Y-73078628D01*
X34980714Y-73554819D02*
X34980714Y-72554819D01*
X34980714Y-72554819D02*
X35361666Y-72554819D01*
X35361666Y-72554819D02*
X35456904Y-72602438D01*
X35456904Y-72602438D02*
X35504523Y-72650057D01*
X35504523Y-72650057D02*
X35552142Y-72745295D01*
X35552142Y-72745295D02*
X35552142Y-72888152D01*
X35552142Y-72888152D02*
X35504523Y-72983390D01*
X35504523Y-72983390D02*
X35456904Y-73031009D01*
X35456904Y-73031009D02*
X35361666Y-73078628D01*
X35361666Y-73078628D02*
X34980714Y-73078628D01*
X35933095Y-72650057D02*
X35980714Y-72602438D01*
X35980714Y-72602438D02*
X36075952Y-72554819D01*
X36075952Y-72554819D02*
X36314047Y-72554819D01*
X36314047Y-72554819D02*
X36409285Y-72602438D01*
X36409285Y-72602438D02*
X36456904Y-72650057D01*
X36456904Y-72650057D02*
X36504523Y-72745295D01*
X36504523Y-72745295D02*
X36504523Y-72840533D01*
X36504523Y-72840533D02*
X36456904Y-72983390D01*
X36456904Y-72983390D02*
X35885476Y-73554819D01*
X35885476Y-73554819D02*
X36504523Y-73554819D01*
X37123571Y-72554819D02*
X37218809Y-72554819D01*
X37218809Y-72554819D02*
X37314047Y-72602438D01*
X37314047Y-72602438D02*
X37361666Y-72650057D01*
X37361666Y-72650057D02*
X37409285Y-72745295D01*
X37409285Y-72745295D02*
X37456904Y-72935771D01*
X37456904Y-72935771D02*
X37456904Y-73173866D01*
X37456904Y-73173866D02*
X37409285Y-73364342D01*
X37409285Y-73364342D02*
X37361666Y-73459580D01*
X37361666Y-73459580D02*
X37314047Y-73507200D01*
X37314047Y-73507200D02*
X37218809Y-73554819D01*
X37218809Y-73554819D02*
X37123571Y-73554819D01*
X37123571Y-73554819D02*
X37028333Y-73507200D01*
X37028333Y-73507200D02*
X36980714Y-73459580D01*
X36980714Y-73459580D02*
X36933095Y-73364342D01*
X36933095Y-73364342D02*
X36885476Y-73173866D01*
X36885476Y-73173866D02*
X36885476Y-72935771D01*
X36885476Y-72935771D02*
X36933095Y-72745295D01*
X36933095Y-72745295D02*
X36980714Y-72650057D01*
X36980714Y-72650057D02*
X37028333Y-72602438D01*
X37028333Y-72602438D02*
X37123571Y-72554819D01*
X48511666Y-31955818D02*
X48511666Y-32670103D01*
X48511666Y-32670103D02*
X48464047Y-32812960D01*
X48464047Y-32812960D02*
X48368809Y-32908199D01*
X48368809Y-32908199D02*
X48225952Y-32955818D01*
X48225952Y-32955818D02*
X48130714Y-32955818D01*
X49511666Y-32955818D02*
X48940238Y-32955818D01*
X49225952Y-32955818D02*
X49225952Y-31955818D01*
X49225952Y-31955818D02*
X49130714Y-32098675D01*
X49130714Y-32098675D02*
X49035476Y-32193913D01*
X49035476Y-32193913D02*
X48940238Y-32241532D01*
X58666667Y-35407200D02*
X58809524Y-35454819D01*
X58809524Y-35454819D02*
X59047619Y-35454819D01*
X59047619Y-35454819D02*
X59142857Y-35407200D01*
X59142857Y-35407200D02*
X59190476Y-35359580D01*
X59190476Y-35359580D02*
X59238095Y-35264342D01*
X59238095Y-35264342D02*
X59238095Y-35169104D01*
X59238095Y-35169104D02*
X59190476Y-35073866D01*
X59190476Y-35073866D02*
X59142857Y-35026247D01*
X59142857Y-35026247D02*
X59047619Y-34978628D01*
X59047619Y-34978628D02*
X58857143Y-34931009D01*
X58857143Y-34931009D02*
X58761905Y-34883390D01*
X58761905Y-34883390D02*
X58714286Y-34835771D01*
X58714286Y-34835771D02*
X58666667Y-34740533D01*
X58666667Y-34740533D02*
X58666667Y-34645295D01*
X58666667Y-34645295D02*
X58714286Y-34550057D01*
X58714286Y-34550057D02*
X58761905Y-34502438D01*
X58761905Y-34502438D02*
X58857143Y-34454819D01*
X58857143Y-34454819D02*
X59095238Y-34454819D01*
X59095238Y-34454819D02*
X59238095Y-34502438D01*
X59571429Y-34454819D02*
X59809524Y-35454819D01*
X59809524Y-35454819D02*
X60000000Y-34740533D01*
X60000000Y-34740533D02*
X60190476Y-35454819D01*
X60190476Y-35454819D02*
X60428572Y-34454819D01*
X61238095Y-34454819D02*
X61047619Y-34454819D01*
X61047619Y-34454819D02*
X60952381Y-34502438D01*
X60952381Y-34502438D02*
X60904762Y-34550057D01*
X60904762Y-34550057D02*
X60809524Y-34692914D01*
X60809524Y-34692914D02*
X60761905Y-34883390D01*
X60761905Y-34883390D02*
X60761905Y-35264342D01*
X60761905Y-35264342D02*
X60809524Y-35359580D01*
X60809524Y-35359580D02*
X60857143Y-35407200D01*
X60857143Y-35407200D02*
X60952381Y-35454819D01*
X60952381Y-35454819D02*
X61142857Y-35454819D01*
X61142857Y-35454819D02*
X61238095Y-35407200D01*
X61238095Y-35407200D02*
X61285714Y-35359580D01*
X61285714Y-35359580D02*
X61333333Y-35264342D01*
X61333333Y-35264342D02*
X61333333Y-35026247D01*
X61333333Y-35026247D02*
X61285714Y-34931009D01*
X61285714Y-34931009D02*
X61238095Y-34883390D01*
X61238095Y-34883390D02*
X61142857Y-34835771D01*
X61142857Y-34835771D02*
X60952381Y-34835771D01*
X60952381Y-34835771D02*
X60857143Y-34883390D01*
X60857143Y-34883390D02*
X60809524Y-34931009D01*
X60809524Y-34931009D02*
X60761905Y-35026247D01*
X85717142Y-163724819D02*
X85383809Y-163248628D01*
X85145714Y-163724819D02*
X85145714Y-162724819D01*
X85145714Y-162724819D02*
X85526666Y-162724819D01*
X85526666Y-162724819D02*
X85621904Y-162772438D01*
X85621904Y-162772438D02*
X85669523Y-162820057D01*
X85669523Y-162820057D02*
X85717142Y-162915295D01*
X85717142Y-162915295D02*
X85717142Y-163058152D01*
X85717142Y-163058152D02*
X85669523Y-163153390D01*
X85669523Y-163153390D02*
X85621904Y-163201009D01*
X85621904Y-163201009D02*
X85526666Y-163248628D01*
X85526666Y-163248628D02*
X85145714Y-163248628D01*
X86669523Y-163724819D02*
X86098095Y-163724819D01*
X86383809Y-163724819D02*
X86383809Y-162724819D01*
X86383809Y-162724819D02*
X86288571Y-162867676D01*
X86288571Y-162867676D02*
X86193333Y-162962914D01*
X86193333Y-162962914D02*
X86098095Y-163010533D01*
X87526666Y-163058152D02*
X87526666Y-163724819D01*
X87288571Y-162677200D02*
X87050476Y-163391485D01*
X87050476Y-163391485D02*
X87669523Y-163391485D01*
X114890833Y-121979819D02*
X114557500Y-121503628D01*
X114319405Y-121979819D02*
X114319405Y-120979819D01*
X114319405Y-120979819D02*
X114700357Y-120979819D01*
X114700357Y-120979819D02*
X114795595Y-121027438D01*
X114795595Y-121027438D02*
X114843214Y-121075057D01*
X114843214Y-121075057D02*
X114890833Y-121170295D01*
X114890833Y-121170295D02*
X114890833Y-121313152D01*
X114890833Y-121313152D02*
X114843214Y-121408390D01*
X114843214Y-121408390D02*
X114795595Y-121456009D01*
X114795595Y-121456009D02*
X114700357Y-121503628D01*
X114700357Y-121503628D02*
X114319405Y-121503628D01*
X115367024Y-121979819D02*
X115557500Y-121979819D01*
X115557500Y-121979819D02*
X115652738Y-121932200D01*
X115652738Y-121932200D02*
X115700357Y-121884580D01*
X115700357Y-121884580D02*
X115795595Y-121741723D01*
X115795595Y-121741723D02*
X115843214Y-121551247D01*
X115843214Y-121551247D02*
X115843214Y-121170295D01*
X115843214Y-121170295D02*
X115795595Y-121075057D01*
X115795595Y-121075057D02*
X115747976Y-121027438D01*
X115747976Y-121027438D02*
X115652738Y-120979819D01*
X115652738Y-120979819D02*
X115462262Y-120979819D01*
X115462262Y-120979819D02*
X115367024Y-121027438D01*
X115367024Y-121027438D02*
X115319405Y-121075057D01*
X115319405Y-121075057D02*
X115271786Y-121170295D01*
X115271786Y-121170295D02*
X115271786Y-121408390D01*
X115271786Y-121408390D02*
X115319405Y-121503628D01*
X115319405Y-121503628D02*
X115367024Y-121551247D01*
X115367024Y-121551247D02*
X115462262Y-121598866D01*
X115462262Y-121598866D02*
X115652738Y-121598866D01*
X115652738Y-121598866D02*
X115747976Y-121551247D01*
X115747976Y-121551247D02*
X115795595Y-121503628D01*
X115795595Y-121503628D02*
X115843214Y-121408390D01*
X36187142Y-128799819D02*
X35853809Y-128323628D01*
X35615714Y-128799819D02*
X35615714Y-127799819D01*
X35615714Y-127799819D02*
X35996666Y-127799819D01*
X35996666Y-127799819D02*
X36091904Y-127847438D01*
X36091904Y-127847438D02*
X36139523Y-127895057D01*
X36139523Y-127895057D02*
X36187142Y-127990295D01*
X36187142Y-127990295D02*
X36187142Y-128133152D01*
X36187142Y-128133152D02*
X36139523Y-128228390D01*
X36139523Y-128228390D02*
X36091904Y-128276009D01*
X36091904Y-128276009D02*
X35996666Y-128323628D01*
X35996666Y-128323628D02*
X35615714Y-128323628D01*
X36568095Y-127895057D02*
X36615714Y-127847438D01*
X36615714Y-127847438D02*
X36710952Y-127799819D01*
X36710952Y-127799819D02*
X36949047Y-127799819D01*
X36949047Y-127799819D02*
X37044285Y-127847438D01*
X37044285Y-127847438D02*
X37091904Y-127895057D01*
X37091904Y-127895057D02*
X37139523Y-127990295D01*
X37139523Y-127990295D02*
X37139523Y-128085533D01*
X37139523Y-128085533D02*
X37091904Y-128228390D01*
X37091904Y-128228390D02*
X36520476Y-128799819D01*
X36520476Y-128799819D02*
X37139523Y-128799819D01*
X37996666Y-128133152D02*
X37996666Y-128799819D01*
X37758571Y-127752200D02*
X37520476Y-128466485D01*
X37520476Y-128466485D02*
X38139523Y-128466485D01*
X93178333Y-93759580D02*
X93130714Y-93807200D01*
X93130714Y-93807200D02*
X92987857Y-93854819D01*
X92987857Y-93854819D02*
X92892619Y-93854819D01*
X92892619Y-93854819D02*
X92749762Y-93807200D01*
X92749762Y-93807200D02*
X92654524Y-93711961D01*
X92654524Y-93711961D02*
X92606905Y-93616723D01*
X92606905Y-93616723D02*
X92559286Y-93426247D01*
X92559286Y-93426247D02*
X92559286Y-93283390D01*
X92559286Y-93283390D02*
X92606905Y-93092914D01*
X92606905Y-93092914D02*
X92654524Y-92997676D01*
X92654524Y-92997676D02*
X92749762Y-92902438D01*
X92749762Y-92902438D02*
X92892619Y-92854819D01*
X92892619Y-92854819D02*
X92987857Y-92854819D01*
X92987857Y-92854819D02*
X93130714Y-92902438D01*
X93130714Y-92902438D02*
X93178333Y-92950057D01*
X94130714Y-93854819D02*
X93559286Y-93854819D01*
X93845000Y-93854819D02*
X93845000Y-92854819D01*
X93845000Y-92854819D02*
X93749762Y-92997676D01*
X93749762Y-92997676D02*
X93654524Y-93092914D01*
X93654524Y-93092914D02*
X93559286Y-93140533D01*
X85717142Y-150239819D02*
X85383809Y-149763628D01*
X85145714Y-150239819D02*
X85145714Y-149239819D01*
X85145714Y-149239819D02*
X85526666Y-149239819D01*
X85526666Y-149239819D02*
X85621904Y-149287438D01*
X85621904Y-149287438D02*
X85669523Y-149335057D01*
X85669523Y-149335057D02*
X85717142Y-149430295D01*
X85717142Y-149430295D02*
X85717142Y-149573152D01*
X85717142Y-149573152D02*
X85669523Y-149668390D01*
X85669523Y-149668390D02*
X85621904Y-149716009D01*
X85621904Y-149716009D02*
X85526666Y-149763628D01*
X85526666Y-149763628D02*
X85145714Y-149763628D01*
X86669523Y-150239819D02*
X86098095Y-150239819D01*
X86383809Y-150239819D02*
X86383809Y-149239819D01*
X86383809Y-149239819D02*
X86288571Y-149382676D01*
X86288571Y-149382676D02*
X86193333Y-149477914D01*
X86193333Y-149477914D02*
X86098095Y-149525533D01*
X87526666Y-149239819D02*
X87336190Y-149239819D01*
X87336190Y-149239819D02*
X87240952Y-149287438D01*
X87240952Y-149287438D02*
X87193333Y-149335057D01*
X87193333Y-149335057D02*
X87098095Y-149477914D01*
X87098095Y-149477914D02*
X87050476Y-149668390D01*
X87050476Y-149668390D02*
X87050476Y-150049342D01*
X87050476Y-150049342D02*
X87098095Y-150144580D01*
X87098095Y-150144580D02*
X87145714Y-150192200D01*
X87145714Y-150192200D02*
X87240952Y-150239819D01*
X87240952Y-150239819D02*
X87431428Y-150239819D01*
X87431428Y-150239819D02*
X87526666Y-150192200D01*
X87526666Y-150192200D02*
X87574285Y-150144580D01*
X87574285Y-150144580D02*
X87621904Y-150049342D01*
X87621904Y-150049342D02*
X87621904Y-149811247D01*
X87621904Y-149811247D02*
X87574285Y-149716009D01*
X87574285Y-149716009D02*
X87526666Y-149668390D01*
X87526666Y-149668390D02*
X87431428Y-149620771D01*
X87431428Y-149620771D02*
X87240952Y-149620771D01*
X87240952Y-149620771D02*
X87145714Y-149668390D01*
X87145714Y-149668390D02*
X87098095Y-149716009D01*
X87098095Y-149716009D02*
X87050476Y-149811247D01*
X42944047Y-106826009D02*
X43086904Y-106873628D01*
X43086904Y-106873628D02*
X43134523Y-106921247D01*
X43134523Y-106921247D02*
X43182142Y-107016485D01*
X43182142Y-107016485D02*
X43182142Y-107159342D01*
X43182142Y-107159342D02*
X43134523Y-107254580D01*
X43134523Y-107254580D02*
X43086904Y-107302200D01*
X43086904Y-107302200D02*
X42991666Y-107349819D01*
X42991666Y-107349819D02*
X42610714Y-107349819D01*
X42610714Y-107349819D02*
X42610714Y-106349819D01*
X42610714Y-106349819D02*
X42944047Y-106349819D01*
X42944047Y-106349819D02*
X43039285Y-106397438D01*
X43039285Y-106397438D02*
X43086904Y-106445057D01*
X43086904Y-106445057D02*
X43134523Y-106540295D01*
X43134523Y-106540295D02*
X43134523Y-106635533D01*
X43134523Y-106635533D02*
X43086904Y-106730771D01*
X43086904Y-106730771D02*
X43039285Y-106778390D01*
X43039285Y-106778390D02*
X42944047Y-106826009D01*
X42944047Y-106826009D02*
X42610714Y-106826009D01*
X43515476Y-106349819D02*
X44182142Y-106349819D01*
X44182142Y-106349819D02*
X43515476Y-107349819D01*
X43515476Y-107349819D02*
X44182142Y-107349819D01*
X45086904Y-107349819D02*
X44515476Y-107349819D01*
X44801190Y-107349819D02*
X44801190Y-106349819D01*
X44801190Y-106349819D02*
X44705952Y-106492676D01*
X44705952Y-106492676D02*
X44610714Y-106587914D01*
X44610714Y-106587914D02*
X44515476Y-106635533D01*
X47254048Y-102308866D02*
X48015953Y-102308866D01*
X47635000Y-102689819D02*
X47635000Y-101927914D01*
X65819580Y-111926666D02*
X65867200Y-111974285D01*
X65867200Y-111974285D02*
X65914819Y-112117142D01*
X65914819Y-112117142D02*
X65914819Y-112212380D01*
X65914819Y-112212380D02*
X65867200Y-112355237D01*
X65867200Y-112355237D02*
X65771961Y-112450475D01*
X65771961Y-112450475D02*
X65676723Y-112498094D01*
X65676723Y-112498094D02*
X65486247Y-112545713D01*
X65486247Y-112545713D02*
X65343390Y-112545713D01*
X65343390Y-112545713D02*
X65152914Y-112498094D01*
X65152914Y-112498094D02*
X65057676Y-112450475D01*
X65057676Y-112450475D02*
X64962438Y-112355237D01*
X64962438Y-112355237D02*
X64914819Y-112212380D01*
X64914819Y-112212380D02*
X64914819Y-112117142D01*
X64914819Y-112117142D02*
X64962438Y-111974285D01*
X64962438Y-111974285D02*
X65010057Y-111926666D01*
X65010057Y-111545713D02*
X64962438Y-111498094D01*
X64962438Y-111498094D02*
X64914819Y-111402856D01*
X64914819Y-111402856D02*
X64914819Y-111164761D01*
X64914819Y-111164761D02*
X64962438Y-111069523D01*
X64962438Y-111069523D02*
X65010057Y-111021904D01*
X65010057Y-111021904D02*
X65105295Y-110974285D01*
X65105295Y-110974285D02*
X65200533Y-110974285D01*
X65200533Y-110974285D02*
X65343390Y-111021904D01*
X65343390Y-111021904D02*
X65914819Y-111593332D01*
X65914819Y-111593332D02*
X65914819Y-110974285D01*
X87622142Y-93874819D02*
X87288809Y-93398628D01*
X87050714Y-93874819D02*
X87050714Y-92874819D01*
X87050714Y-92874819D02*
X87431666Y-92874819D01*
X87431666Y-92874819D02*
X87526904Y-92922438D01*
X87526904Y-92922438D02*
X87574523Y-92970057D01*
X87574523Y-92970057D02*
X87622142Y-93065295D01*
X87622142Y-93065295D02*
X87622142Y-93208152D01*
X87622142Y-93208152D02*
X87574523Y-93303390D01*
X87574523Y-93303390D02*
X87526904Y-93351009D01*
X87526904Y-93351009D02*
X87431666Y-93398628D01*
X87431666Y-93398628D02*
X87050714Y-93398628D01*
X88574523Y-93874819D02*
X88003095Y-93874819D01*
X88288809Y-93874819D02*
X88288809Y-92874819D01*
X88288809Y-92874819D02*
X88193571Y-93017676D01*
X88193571Y-93017676D02*
X88098333Y-93112914D01*
X88098333Y-93112914D02*
X88003095Y-93160533D01*
X88955476Y-92970057D02*
X89003095Y-92922438D01*
X89003095Y-92922438D02*
X89098333Y-92874819D01*
X89098333Y-92874819D02*
X89336428Y-92874819D01*
X89336428Y-92874819D02*
X89431666Y-92922438D01*
X89431666Y-92922438D02*
X89479285Y-92970057D01*
X89479285Y-92970057D02*
X89526904Y-93065295D01*
X89526904Y-93065295D02*
X89526904Y-93160533D01*
X89526904Y-93160533D02*
X89479285Y-93303390D01*
X89479285Y-93303390D02*
X88907857Y-93874819D01*
X88907857Y-93874819D02*
X89526904Y-93874819D01*
X89553333Y-24040180D02*
X89553333Y-23325895D01*
X89553333Y-23325895D02*
X89600952Y-23183038D01*
X89600952Y-23183038D02*
X89696190Y-23087800D01*
X89696190Y-23087800D02*
X89839047Y-23040180D01*
X89839047Y-23040180D02*
X89934285Y-23040180D01*
X89172380Y-24040180D02*
X88553333Y-24040180D01*
X88553333Y-24040180D02*
X88886666Y-23659228D01*
X88886666Y-23659228D02*
X88743809Y-23659228D01*
X88743809Y-23659228D02*
X88648571Y-23611609D01*
X88648571Y-23611609D02*
X88600952Y-23563990D01*
X88600952Y-23563990D02*
X88553333Y-23468752D01*
X88553333Y-23468752D02*
X88553333Y-23230657D01*
X88553333Y-23230657D02*
X88600952Y-23135419D01*
X88600952Y-23135419D02*
X88648571Y-23087800D01*
X88648571Y-23087800D02*
X88743809Y-23040180D01*
X88743809Y-23040180D02*
X89029523Y-23040180D01*
X89029523Y-23040180D02*
X89124761Y-23087800D01*
X89124761Y-23087800D02*
X89172380Y-23135419D01*
X62325476Y-144747200D02*
X62468333Y-144794819D01*
X62468333Y-144794819D02*
X62706428Y-144794819D01*
X62706428Y-144794819D02*
X62801666Y-144747200D01*
X62801666Y-144747200D02*
X62849285Y-144699580D01*
X62849285Y-144699580D02*
X62896904Y-144604342D01*
X62896904Y-144604342D02*
X62896904Y-144509104D01*
X62896904Y-144509104D02*
X62849285Y-144413866D01*
X62849285Y-144413866D02*
X62801666Y-144366247D01*
X62801666Y-144366247D02*
X62706428Y-144318628D01*
X62706428Y-144318628D02*
X62515952Y-144271009D01*
X62515952Y-144271009D02*
X62420714Y-144223390D01*
X62420714Y-144223390D02*
X62373095Y-144175771D01*
X62373095Y-144175771D02*
X62325476Y-144080533D01*
X62325476Y-144080533D02*
X62325476Y-143985295D01*
X62325476Y-143985295D02*
X62373095Y-143890057D01*
X62373095Y-143890057D02*
X62420714Y-143842438D01*
X62420714Y-143842438D02*
X62515952Y-143794819D01*
X62515952Y-143794819D02*
X62754047Y-143794819D01*
X62754047Y-143794819D02*
X62896904Y-143842438D01*
X63230238Y-143794819D02*
X63468333Y-144794819D01*
X63468333Y-144794819D02*
X63658809Y-144080533D01*
X63658809Y-144080533D02*
X63849285Y-144794819D01*
X63849285Y-144794819D02*
X64087381Y-143794819D01*
X64992142Y-144794819D02*
X64420714Y-144794819D01*
X64706428Y-144794819D02*
X64706428Y-143794819D01*
X64706428Y-143794819D02*
X64611190Y-143937676D01*
X64611190Y-143937676D02*
X64515952Y-144032914D01*
X64515952Y-144032914D02*
X64420714Y-144080533D01*
X65944523Y-144794819D02*
X65373095Y-144794819D01*
X65658809Y-144794819D02*
X65658809Y-143794819D01*
X65658809Y-143794819D02*
X65563571Y-143937676D01*
X65563571Y-143937676D02*
X65468333Y-144032914D01*
X65468333Y-144032914D02*
X65373095Y-144080533D01*
X76708095Y-94704819D02*
X76708095Y-95514342D01*
X76708095Y-95514342D02*
X76755714Y-95609580D01*
X76755714Y-95609580D02*
X76803333Y-95657200D01*
X76803333Y-95657200D02*
X76898571Y-95704819D01*
X76898571Y-95704819D02*
X77089047Y-95704819D01*
X77089047Y-95704819D02*
X77184285Y-95657200D01*
X77184285Y-95657200D02*
X77231904Y-95609580D01*
X77231904Y-95609580D02*
X77279523Y-95514342D01*
X77279523Y-95514342D02*
X77279523Y-94704819D01*
X78184285Y-95038152D02*
X78184285Y-95704819D01*
X77946190Y-94657200D02*
X77708095Y-95371485D01*
X77708095Y-95371485D02*
X78327142Y-95371485D01*
X36663333Y-118489819D02*
X36330000Y-118013628D01*
X36091905Y-118489819D02*
X36091905Y-117489819D01*
X36091905Y-117489819D02*
X36472857Y-117489819D01*
X36472857Y-117489819D02*
X36568095Y-117537438D01*
X36568095Y-117537438D02*
X36615714Y-117585057D01*
X36615714Y-117585057D02*
X36663333Y-117680295D01*
X36663333Y-117680295D02*
X36663333Y-117823152D01*
X36663333Y-117823152D02*
X36615714Y-117918390D01*
X36615714Y-117918390D02*
X36568095Y-117966009D01*
X36568095Y-117966009D02*
X36472857Y-118013628D01*
X36472857Y-118013628D02*
X36091905Y-118013628D01*
X37044286Y-117585057D02*
X37091905Y-117537438D01*
X37091905Y-117537438D02*
X37187143Y-117489819D01*
X37187143Y-117489819D02*
X37425238Y-117489819D01*
X37425238Y-117489819D02*
X37520476Y-117537438D01*
X37520476Y-117537438D02*
X37568095Y-117585057D01*
X37568095Y-117585057D02*
X37615714Y-117680295D01*
X37615714Y-117680295D02*
X37615714Y-117775533D01*
X37615714Y-117775533D02*
X37568095Y-117918390D01*
X37568095Y-117918390D02*
X36996667Y-118489819D01*
X36996667Y-118489819D02*
X37615714Y-118489819D01*
X44166667Y-65157200D02*
X44309524Y-65204819D01*
X44309524Y-65204819D02*
X44547619Y-65204819D01*
X44547619Y-65204819D02*
X44642857Y-65157200D01*
X44642857Y-65157200D02*
X44690476Y-65109580D01*
X44690476Y-65109580D02*
X44738095Y-65014342D01*
X44738095Y-65014342D02*
X44738095Y-64919104D01*
X44738095Y-64919104D02*
X44690476Y-64823866D01*
X44690476Y-64823866D02*
X44642857Y-64776247D01*
X44642857Y-64776247D02*
X44547619Y-64728628D01*
X44547619Y-64728628D02*
X44357143Y-64681009D01*
X44357143Y-64681009D02*
X44261905Y-64633390D01*
X44261905Y-64633390D02*
X44214286Y-64585771D01*
X44214286Y-64585771D02*
X44166667Y-64490533D01*
X44166667Y-64490533D02*
X44166667Y-64395295D01*
X44166667Y-64395295D02*
X44214286Y-64300057D01*
X44214286Y-64300057D02*
X44261905Y-64252438D01*
X44261905Y-64252438D02*
X44357143Y-64204819D01*
X44357143Y-64204819D02*
X44595238Y-64204819D01*
X44595238Y-64204819D02*
X44738095Y-64252438D01*
X45071429Y-64204819D02*
X45309524Y-65204819D01*
X45309524Y-65204819D02*
X45500000Y-64490533D01*
X45500000Y-64490533D02*
X45690476Y-65204819D01*
X45690476Y-65204819D02*
X45928572Y-64204819D01*
X46833333Y-65204819D02*
X46261905Y-65204819D01*
X46547619Y-65204819D02*
X46547619Y-64204819D01*
X46547619Y-64204819D02*
X46452381Y-64347676D01*
X46452381Y-64347676D02*
X46357143Y-64442914D01*
X46357143Y-64442914D02*
X46261905Y-64490533D01*
X65397142Y-118004819D02*
X65063809Y-117528628D01*
X64825714Y-118004819D02*
X64825714Y-117004819D01*
X64825714Y-117004819D02*
X65206666Y-117004819D01*
X65206666Y-117004819D02*
X65301904Y-117052438D01*
X65301904Y-117052438D02*
X65349523Y-117100057D01*
X65349523Y-117100057D02*
X65397142Y-117195295D01*
X65397142Y-117195295D02*
X65397142Y-117338152D01*
X65397142Y-117338152D02*
X65349523Y-117433390D01*
X65349523Y-117433390D02*
X65301904Y-117481009D01*
X65301904Y-117481009D02*
X65206666Y-117528628D01*
X65206666Y-117528628D02*
X64825714Y-117528628D01*
X65730476Y-117004819D02*
X66349523Y-117004819D01*
X66349523Y-117004819D02*
X66016190Y-117385771D01*
X66016190Y-117385771D02*
X66159047Y-117385771D01*
X66159047Y-117385771D02*
X66254285Y-117433390D01*
X66254285Y-117433390D02*
X66301904Y-117481009D01*
X66301904Y-117481009D02*
X66349523Y-117576247D01*
X66349523Y-117576247D02*
X66349523Y-117814342D01*
X66349523Y-117814342D02*
X66301904Y-117909580D01*
X66301904Y-117909580D02*
X66254285Y-117957200D01*
X66254285Y-117957200D02*
X66159047Y-118004819D01*
X66159047Y-118004819D02*
X65873333Y-118004819D01*
X65873333Y-118004819D02*
X65778095Y-117957200D01*
X65778095Y-117957200D02*
X65730476Y-117909580D01*
X66968571Y-117004819D02*
X67063809Y-117004819D01*
X67063809Y-117004819D02*
X67159047Y-117052438D01*
X67159047Y-117052438D02*
X67206666Y-117100057D01*
X67206666Y-117100057D02*
X67254285Y-117195295D01*
X67254285Y-117195295D02*
X67301904Y-117385771D01*
X67301904Y-117385771D02*
X67301904Y-117623866D01*
X67301904Y-117623866D02*
X67254285Y-117814342D01*
X67254285Y-117814342D02*
X67206666Y-117909580D01*
X67206666Y-117909580D02*
X67159047Y-117957200D01*
X67159047Y-117957200D02*
X67063809Y-118004819D01*
X67063809Y-118004819D02*
X66968571Y-118004819D01*
X66968571Y-118004819D02*
X66873333Y-117957200D01*
X66873333Y-117957200D02*
X66825714Y-117909580D01*
X66825714Y-117909580D02*
X66778095Y-117814342D01*
X66778095Y-117814342D02*
X66730476Y-117623866D01*
X66730476Y-117623866D02*
X66730476Y-117385771D01*
X66730476Y-117385771D02*
X66778095Y-117195295D01*
X66778095Y-117195295D02*
X66825714Y-117100057D01*
X66825714Y-117100057D02*
X66873333Y-117052438D01*
X66873333Y-117052438D02*
X66968571Y-117004819D01*
X108190476Y-192407200D02*
X108333333Y-192454819D01*
X108333333Y-192454819D02*
X108571428Y-192454819D01*
X108571428Y-192454819D02*
X108666666Y-192407200D01*
X108666666Y-192407200D02*
X108714285Y-192359580D01*
X108714285Y-192359580D02*
X108761904Y-192264342D01*
X108761904Y-192264342D02*
X108761904Y-192169104D01*
X108761904Y-192169104D02*
X108714285Y-192073866D01*
X108714285Y-192073866D02*
X108666666Y-192026247D01*
X108666666Y-192026247D02*
X108571428Y-191978628D01*
X108571428Y-191978628D02*
X108380952Y-191931009D01*
X108380952Y-191931009D02*
X108285714Y-191883390D01*
X108285714Y-191883390D02*
X108238095Y-191835771D01*
X108238095Y-191835771D02*
X108190476Y-191740533D01*
X108190476Y-191740533D02*
X108190476Y-191645295D01*
X108190476Y-191645295D02*
X108238095Y-191550057D01*
X108238095Y-191550057D02*
X108285714Y-191502438D01*
X108285714Y-191502438D02*
X108380952Y-191454819D01*
X108380952Y-191454819D02*
X108619047Y-191454819D01*
X108619047Y-191454819D02*
X108761904Y-191502438D01*
X109095238Y-191454819D02*
X109333333Y-192454819D01*
X109333333Y-192454819D02*
X109523809Y-191740533D01*
X109523809Y-191740533D02*
X109714285Y-192454819D01*
X109714285Y-192454819D02*
X109952381Y-191454819D01*
X110857142Y-192454819D02*
X110285714Y-192454819D01*
X110571428Y-192454819D02*
X110571428Y-191454819D01*
X110571428Y-191454819D02*
X110476190Y-191597676D01*
X110476190Y-191597676D02*
X110380952Y-191692914D01*
X110380952Y-191692914D02*
X110285714Y-191740533D01*
X111476190Y-191454819D02*
X111571428Y-191454819D01*
X111571428Y-191454819D02*
X111666666Y-191502438D01*
X111666666Y-191502438D02*
X111714285Y-191550057D01*
X111714285Y-191550057D02*
X111761904Y-191645295D01*
X111761904Y-191645295D02*
X111809523Y-191835771D01*
X111809523Y-191835771D02*
X111809523Y-192073866D01*
X111809523Y-192073866D02*
X111761904Y-192264342D01*
X111761904Y-192264342D02*
X111714285Y-192359580D01*
X111714285Y-192359580D02*
X111666666Y-192407200D01*
X111666666Y-192407200D02*
X111571428Y-192454819D01*
X111571428Y-192454819D02*
X111476190Y-192454819D01*
X111476190Y-192454819D02*
X111380952Y-192407200D01*
X111380952Y-192407200D02*
X111333333Y-192359580D01*
X111333333Y-192359580D02*
X111285714Y-192264342D01*
X111285714Y-192264342D02*
X111238095Y-192073866D01*
X111238095Y-192073866D02*
X111238095Y-191835771D01*
X111238095Y-191835771D02*
X111285714Y-191645295D01*
X111285714Y-191645295D02*
X111333333Y-191550057D01*
X111333333Y-191550057D02*
X111380952Y-191502438D01*
X111380952Y-191502438D02*
X111476190Y-191454819D01*
X121646905Y-117194819D02*
X121646905Y-116194819D01*
X121646905Y-116194819D02*
X121885000Y-116194819D01*
X121885000Y-116194819D02*
X122027857Y-116242438D01*
X122027857Y-116242438D02*
X122123095Y-116337676D01*
X122123095Y-116337676D02*
X122170714Y-116432914D01*
X122170714Y-116432914D02*
X122218333Y-116623390D01*
X122218333Y-116623390D02*
X122218333Y-116766247D01*
X122218333Y-116766247D02*
X122170714Y-116956723D01*
X122170714Y-116956723D02*
X122123095Y-117051961D01*
X122123095Y-117051961D02*
X122027857Y-117147200D01*
X122027857Y-117147200D02*
X121885000Y-117194819D01*
X121885000Y-117194819D02*
X121646905Y-117194819D01*
X122694524Y-117194819D02*
X122885000Y-117194819D01*
X122885000Y-117194819D02*
X122980238Y-117147200D01*
X122980238Y-117147200D02*
X123027857Y-117099580D01*
X123027857Y-117099580D02*
X123123095Y-116956723D01*
X123123095Y-116956723D02*
X123170714Y-116766247D01*
X123170714Y-116766247D02*
X123170714Y-116385295D01*
X123170714Y-116385295D02*
X123123095Y-116290057D01*
X123123095Y-116290057D02*
X123075476Y-116242438D01*
X123075476Y-116242438D02*
X122980238Y-116194819D01*
X122980238Y-116194819D02*
X122789762Y-116194819D01*
X122789762Y-116194819D02*
X122694524Y-116242438D01*
X122694524Y-116242438D02*
X122646905Y-116290057D01*
X122646905Y-116290057D02*
X122599286Y-116385295D01*
X122599286Y-116385295D02*
X122599286Y-116623390D01*
X122599286Y-116623390D02*
X122646905Y-116718628D01*
X122646905Y-116718628D02*
X122694524Y-116766247D01*
X122694524Y-116766247D02*
X122789762Y-116813866D01*
X122789762Y-116813866D02*
X122980238Y-116813866D01*
X122980238Y-116813866D02*
X123075476Y-116766247D01*
X123075476Y-116766247D02*
X123123095Y-116718628D01*
X123123095Y-116718628D02*
X123170714Y-116623390D01*
X121205714Y-141894819D02*
X121205714Y-140894819D01*
X121205714Y-140894819D02*
X121443809Y-140894819D01*
X121443809Y-140894819D02*
X121586666Y-140942438D01*
X121586666Y-140942438D02*
X121681904Y-141037676D01*
X121681904Y-141037676D02*
X121729523Y-141132914D01*
X121729523Y-141132914D02*
X121777142Y-141323390D01*
X121777142Y-141323390D02*
X121777142Y-141466247D01*
X121777142Y-141466247D02*
X121729523Y-141656723D01*
X121729523Y-141656723D02*
X121681904Y-141751961D01*
X121681904Y-141751961D02*
X121586666Y-141847200D01*
X121586666Y-141847200D02*
X121443809Y-141894819D01*
X121443809Y-141894819D02*
X121205714Y-141894819D01*
X122729523Y-141894819D02*
X122158095Y-141894819D01*
X122443809Y-141894819D02*
X122443809Y-140894819D01*
X122443809Y-140894819D02*
X122348571Y-141037676D01*
X122348571Y-141037676D02*
X122253333Y-141132914D01*
X122253333Y-141132914D02*
X122158095Y-141180533D01*
X123681904Y-141894819D02*
X123110476Y-141894819D01*
X123396190Y-141894819D02*
X123396190Y-140894819D01*
X123396190Y-140894819D02*
X123300952Y-141037676D01*
X123300952Y-141037676D02*
X123205714Y-141132914D01*
X123205714Y-141132914D02*
X123110476Y-141180533D01*
X93972142Y-113409819D02*
X93638809Y-112933628D01*
X93400714Y-113409819D02*
X93400714Y-112409819D01*
X93400714Y-112409819D02*
X93781666Y-112409819D01*
X93781666Y-112409819D02*
X93876904Y-112457438D01*
X93876904Y-112457438D02*
X93924523Y-112505057D01*
X93924523Y-112505057D02*
X93972142Y-112600295D01*
X93972142Y-112600295D02*
X93972142Y-112743152D01*
X93972142Y-112743152D02*
X93924523Y-112838390D01*
X93924523Y-112838390D02*
X93876904Y-112886009D01*
X93876904Y-112886009D02*
X93781666Y-112933628D01*
X93781666Y-112933628D02*
X93400714Y-112933628D01*
X94353095Y-112505057D02*
X94400714Y-112457438D01*
X94400714Y-112457438D02*
X94495952Y-112409819D01*
X94495952Y-112409819D02*
X94734047Y-112409819D01*
X94734047Y-112409819D02*
X94829285Y-112457438D01*
X94829285Y-112457438D02*
X94876904Y-112505057D01*
X94876904Y-112505057D02*
X94924523Y-112600295D01*
X94924523Y-112600295D02*
X94924523Y-112695533D01*
X94924523Y-112695533D02*
X94876904Y-112838390D01*
X94876904Y-112838390D02*
X94305476Y-113409819D01*
X94305476Y-113409819D02*
X94924523Y-113409819D01*
X95257857Y-112409819D02*
X95924523Y-112409819D01*
X95924523Y-112409819D02*
X95495952Y-113409819D01*
X91908333Y-144524819D02*
X91575000Y-144048628D01*
X91336905Y-144524819D02*
X91336905Y-143524819D01*
X91336905Y-143524819D02*
X91717857Y-143524819D01*
X91717857Y-143524819D02*
X91813095Y-143572438D01*
X91813095Y-143572438D02*
X91860714Y-143620057D01*
X91860714Y-143620057D02*
X91908333Y-143715295D01*
X91908333Y-143715295D02*
X91908333Y-143858152D01*
X91908333Y-143858152D02*
X91860714Y-143953390D01*
X91860714Y-143953390D02*
X91813095Y-144001009D01*
X91813095Y-144001009D02*
X91717857Y-144048628D01*
X91717857Y-144048628D02*
X91336905Y-144048628D01*
X92813095Y-143524819D02*
X92336905Y-143524819D01*
X92336905Y-143524819D02*
X92289286Y-144001009D01*
X92289286Y-144001009D02*
X92336905Y-143953390D01*
X92336905Y-143953390D02*
X92432143Y-143905771D01*
X92432143Y-143905771D02*
X92670238Y-143905771D01*
X92670238Y-143905771D02*
X92765476Y-143953390D01*
X92765476Y-143953390D02*
X92813095Y-144001009D01*
X92813095Y-144001009D02*
X92860714Y-144096247D01*
X92860714Y-144096247D02*
X92860714Y-144334342D01*
X92860714Y-144334342D02*
X92813095Y-144429580D01*
X92813095Y-144429580D02*
X92765476Y-144477200D01*
X92765476Y-144477200D02*
X92670238Y-144524819D01*
X92670238Y-144524819D02*
X92432143Y-144524819D01*
X92432143Y-144524819D02*
X92336905Y-144477200D01*
X92336905Y-144477200D02*
X92289286Y-144429580D01*
X56348333Y-124204819D02*
X56015000Y-123728628D01*
X55776905Y-124204819D02*
X55776905Y-123204819D01*
X55776905Y-123204819D02*
X56157857Y-123204819D01*
X56157857Y-123204819D02*
X56253095Y-123252438D01*
X56253095Y-123252438D02*
X56300714Y-123300057D01*
X56300714Y-123300057D02*
X56348333Y-123395295D01*
X56348333Y-123395295D02*
X56348333Y-123538152D01*
X56348333Y-123538152D02*
X56300714Y-123633390D01*
X56300714Y-123633390D02*
X56253095Y-123681009D01*
X56253095Y-123681009D02*
X56157857Y-123728628D01*
X56157857Y-123728628D02*
X55776905Y-123728628D01*
X57205476Y-123538152D02*
X57205476Y-124204819D01*
X56967381Y-123157200D02*
X56729286Y-123871485D01*
X56729286Y-123871485D02*
X57348333Y-123871485D01*
X113972142Y-146744819D02*
X113638809Y-146268628D01*
X113400714Y-146744819D02*
X113400714Y-145744819D01*
X113400714Y-145744819D02*
X113781666Y-145744819D01*
X113781666Y-145744819D02*
X113876904Y-145792438D01*
X113876904Y-145792438D02*
X113924523Y-145840057D01*
X113924523Y-145840057D02*
X113972142Y-145935295D01*
X113972142Y-145935295D02*
X113972142Y-146078152D01*
X113972142Y-146078152D02*
X113924523Y-146173390D01*
X113924523Y-146173390D02*
X113876904Y-146221009D01*
X113876904Y-146221009D02*
X113781666Y-146268628D01*
X113781666Y-146268628D02*
X113400714Y-146268628D01*
X114924523Y-146744819D02*
X114353095Y-146744819D01*
X114638809Y-146744819D02*
X114638809Y-145744819D01*
X114638809Y-145744819D02*
X114543571Y-145887676D01*
X114543571Y-145887676D02*
X114448333Y-145982914D01*
X114448333Y-145982914D02*
X114353095Y-146030533D01*
X115876904Y-146744819D02*
X115305476Y-146744819D01*
X115591190Y-146744819D02*
X115591190Y-145744819D01*
X115591190Y-145744819D02*
X115495952Y-145887676D01*
X115495952Y-145887676D02*
X115400714Y-145982914D01*
X115400714Y-145982914D02*
X115305476Y-146030533D01*
X53967142Y-101804819D02*
X53633809Y-101328628D01*
X53395714Y-101804819D02*
X53395714Y-100804819D01*
X53395714Y-100804819D02*
X53776666Y-100804819D01*
X53776666Y-100804819D02*
X53871904Y-100852438D01*
X53871904Y-100852438D02*
X53919523Y-100900057D01*
X53919523Y-100900057D02*
X53967142Y-100995295D01*
X53967142Y-100995295D02*
X53967142Y-101138152D01*
X53967142Y-101138152D02*
X53919523Y-101233390D01*
X53919523Y-101233390D02*
X53871904Y-101281009D01*
X53871904Y-101281009D02*
X53776666Y-101328628D01*
X53776666Y-101328628D02*
X53395714Y-101328628D01*
X54919523Y-101804819D02*
X54348095Y-101804819D01*
X54633809Y-101804819D02*
X54633809Y-100804819D01*
X54633809Y-100804819D02*
X54538571Y-100947676D01*
X54538571Y-100947676D02*
X54443333Y-101042914D01*
X54443333Y-101042914D02*
X54348095Y-101090533D01*
X55252857Y-100804819D02*
X55919523Y-100804819D01*
X55919523Y-100804819D02*
X55490952Y-101804819D01*
X68516666Y-31955818D02*
X68516666Y-32670103D01*
X68516666Y-32670103D02*
X68469047Y-32812960D01*
X68469047Y-32812960D02*
X68373809Y-32908199D01*
X68373809Y-32908199D02*
X68230952Y-32955818D01*
X68230952Y-32955818D02*
X68135714Y-32955818D01*
X69469047Y-31955818D02*
X68992857Y-31955818D01*
X68992857Y-31955818D02*
X68945238Y-32432008D01*
X68945238Y-32432008D02*
X68992857Y-32384389D01*
X68992857Y-32384389D02*
X69088095Y-32336770D01*
X69088095Y-32336770D02*
X69326190Y-32336770D01*
X69326190Y-32336770D02*
X69421428Y-32384389D01*
X69421428Y-32384389D02*
X69469047Y-32432008D01*
X69469047Y-32432008D02*
X69516666Y-32527246D01*
X69516666Y-32527246D02*
X69516666Y-32765341D01*
X69516666Y-32765341D02*
X69469047Y-32860579D01*
X69469047Y-32860579D02*
X69421428Y-32908199D01*
X69421428Y-32908199D02*
X69326190Y-32955818D01*
X69326190Y-32955818D02*
X69088095Y-32955818D01*
X69088095Y-32955818D02*
X68992857Y-32908199D01*
X68992857Y-32908199D02*
X68945238Y-32860579D01*
X76708095Y-74384819D02*
X76708095Y-75194342D01*
X76708095Y-75194342D02*
X76755714Y-75289580D01*
X76755714Y-75289580D02*
X76803333Y-75337200D01*
X76803333Y-75337200D02*
X76898571Y-75384819D01*
X76898571Y-75384819D02*
X77089047Y-75384819D01*
X77089047Y-75384819D02*
X77184285Y-75337200D01*
X77184285Y-75337200D02*
X77231904Y-75289580D01*
X77231904Y-75289580D02*
X77279523Y-75194342D01*
X77279523Y-75194342D02*
X77279523Y-74384819D01*
X78279523Y-75384819D02*
X77708095Y-75384819D01*
X77993809Y-75384819D02*
X77993809Y-74384819D01*
X77993809Y-74384819D02*
X77898571Y-74527676D01*
X77898571Y-74527676D02*
X77803333Y-74622914D01*
X77803333Y-74622914D02*
X77708095Y-74670533D01*
X126300714Y-129494819D02*
X126300714Y-128494819D01*
X126300714Y-128494819D02*
X126538809Y-128494819D01*
X126538809Y-128494819D02*
X126681666Y-128542438D01*
X126681666Y-128542438D02*
X126776904Y-128637676D01*
X126776904Y-128637676D02*
X126824523Y-128732914D01*
X126824523Y-128732914D02*
X126872142Y-128923390D01*
X126872142Y-128923390D02*
X126872142Y-129066247D01*
X126872142Y-129066247D02*
X126824523Y-129256723D01*
X126824523Y-129256723D02*
X126776904Y-129351961D01*
X126776904Y-129351961D02*
X126681666Y-129447200D01*
X126681666Y-129447200D02*
X126538809Y-129494819D01*
X126538809Y-129494819D02*
X126300714Y-129494819D01*
X127824523Y-129494819D02*
X127253095Y-129494819D01*
X127538809Y-129494819D02*
X127538809Y-128494819D01*
X127538809Y-128494819D02*
X127443571Y-128637676D01*
X127443571Y-128637676D02*
X127348333Y-128732914D01*
X127348333Y-128732914D02*
X127253095Y-128780533D01*
X128443571Y-128494819D02*
X128538809Y-128494819D01*
X128538809Y-128494819D02*
X128634047Y-128542438D01*
X128634047Y-128542438D02*
X128681666Y-128590057D01*
X128681666Y-128590057D02*
X128729285Y-128685295D01*
X128729285Y-128685295D02*
X128776904Y-128875771D01*
X128776904Y-128875771D02*
X128776904Y-129113866D01*
X128776904Y-129113866D02*
X128729285Y-129304342D01*
X128729285Y-129304342D02*
X128681666Y-129399580D01*
X128681666Y-129399580D02*
X128634047Y-129447200D01*
X128634047Y-129447200D02*
X128538809Y-129494819D01*
X128538809Y-129494819D02*
X128443571Y-129494819D01*
X128443571Y-129494819D02*
X128348333Y-129447200D01*
X128348333Y-129447200D02*
X128300714Y-129399580D01*
X128300714Y-129399580D02*
X128253095Y-129304342D01*
X128253095Y-129304342D02*
X128205476Y-129113866D01*
X128205476Y-129113866D02*
X128205476Y-128875771D01*
X128205476Y-128875771D02*
X128253095Y-128685295D01*
X128253095Y-128685295D02*
X128300714Y-128590057D01*
X128300714Y-128590057D02*
X128348333Y-128542438D01*
X128348333Y-128542438D02*
X128443571Y-128494819D01*
X36187142Y-140789819D02*
X35853809Y-140313628D01*
X35615714Y-140789819D02*
X35615714Y-139789819D01*
X35615714Y-139789819D02*
X35996666Y-139789819D01*
X35996666Y-139789819D02*
X36091904Y-139837438D01*
X36091904Y-139837438D02*
X36139523Y-139885057D01*
X36139523Y-139885057D02*
X36187142Y-139980295D01*
X36187142Y-139980295D02*
X36187142Y-140123152D01*
X36187142Y-140123152D02*
X36139523Y-140218390D01*
X36139523Y-140218390D02*
X36091904Y-140266009D01*
X36091904Y-140266009D02*
X35996666Y-140313628D01*
X35996666Y-140313628D02*
X35615714Y-140313628D01*
X36568095Y-139885057D02*
X36615714Y-139837438D01*
X36615714Y-139837438D02*
X36710952Y-139789819D01*
X36710952Y-139789819D02*
X36949047Y-139789819D01*
X36949047Y-139789819D02*
X37044285Y-139837438D01*
X37044285Y-139837438D02*
X37091904Y-139885057D01*
X37091904Y-139885057D02*
X37139523Y-139980295D01*
X37139523Y-139980295D02*
X37139523Y-140075533D01*
X37139523Y-140075533D02*
X37091904Y-140218390D01*
X37091904Y-140218390D02*
X36520476Y-140789819D01*
X36520476Y-140789819D02*
X37139523Y-140789819D01*
X38044285Y-139789819D02*
X37568095Y-139789819D01*
X37568095Y-139789819D02*
X37520476Y-140266009D01*
X37520476Y-140266009D02*
X37568095Y-140218390D01*
X37568095Y-140218390D02*
X37663333Y-140170771D01*
X37663333Y-140170771D02*
X37901428Y-140170771D01*
X37901428Y-140170771D02*
X37996666Y-140218390D01*
X37996666Y-140218390D02*
X38044285Y-140266009D01*
X38044285Y-140266009D02*
X38091904Y-140361247D01*
X38091904Y-140361247D02*
X38091904Y-140599342D01*
X38091904Y-140599342D02*
X38044285Y-140694580D01*
X38044285Y-140694580D02*
X37996666Y-140742200D01*
X37996666Y-140742200D02*
X37901428Y-140789819D01*
X37901428Y-140789819D02*
X37663333Y-140789819D01*
X37663333Y-140789819D02*
X37568095Y-140742200D01*
X37568095Y-140742200D02*
X37520476Y-140694580D01*
X65431905Y-122894819D02*
X65431905Y-121894819D01*
X65431905Y-121894819D02*
X65670000Y-121894819D01*
X65670000Y-121894819D02*
X65812857Y-121942438D01*
X65812857Y-121942438D02*
X65908095Y-122037676D01*
X65908095Y-122037676D02*
X65955714Y-122132914D01*
X65955714Y-122132914D02*
X66003333Y-122323390D01*
X66003333Y-122323390D02*
X66003333Y-122466247D01*
X66003333Y-122466247D02*
X65955714Y-122656723D01*
X65955714Y-122656723D02*
X65908095Y-122751961D01*
X65908095Y-122751961D02*
X65812857Y-122847200D01*
X65812857Y-122847200D02*
X65670000Y-122894819D01*
X65670000Y-122894819D02*
X65431905Y-122894819D01*
X66860476Y-122228152D02*
X66860476Y-122894819D01*
X66622381Y-121847200D02*
X66384286Y-122561485D01*
X66384286Y-122561485D02*
X67003333Y-122561485D01*
X30313333Y-132459819D02*
X29980000Y-131983628D01*
X29741905Y-132459819D02*
X29741905Y-131459819D01*
X29741905Y-131459819D02*
X30122857Y-131459819D01*
X30122857Y-131459819D02*
X30218095Y-131507438D01*
X30218095Y-131507438D02*
X30265714Y-131555057D01*
X30265714Y-131555057D02*
X30313333Y-131650295D01*
X30313333Y-131650295D02*
X30313333Y-131793152D01*
X30313333Y-131793152D02*
X30265714Y-131888390D01*
X30265714Y-131888390D02*
X30218095Y-131936009D01*
X30218095Y-131936009D02*
X30122857Y-131983628D01*
X30122857Y-131983628D02*
X29741905Y-131983628D01*
X31265714Y-132459819D02*
X30694286Y-132459819D01*
X30980000Y-132459819D02*
X30980000Y-131459819D01*
X30980000Y-131459819D02*
X30884762Y-131602676D01*
X30884762Y-131602676D02*
X30789524Y-131697914D01*
X30789524Y-131697914D02*
X30694286Y-131745533D01*
X103338333Y-119759819D02*
X103005000Y-119283628D01*
X102766905Y-119759819D02*
X102766905Y-118759819D01*
X102766905Y-118759819D02*
X103147857Y-118759819D01*
X103147857Y-118759819D02*
X103243095Y-118807438D01*
X103243095Y-118807438D02*
X103290714Y-118855057D01*
X103290714Y-118855057D02*
X103338333Y-118950295D01*
X103338333Y-118950295D02*
X103338333Y-119093152D01*
X103338333Y-119093152D02*
X103290714Y-119188390D01*
X103290714Y-119188390D02*
X103243095Y-119236009D01*
X103243095Y-119236009D02*
X103147857Y-119283628D01*
X103147857Y-119283628D02*
X102766905Y-119283628D01*
X103909762Y-119188390D02*
X103814524Y-119140771D01*
X103814524Y-119140771D02*
X103766905Y-119093152D01*
X103766905Y-119093152D02*
X103719286Y-118997914D01*
X103719286Y-118997914D02*
X103719286Y-118950295D01*
X103719286Y-118950295D02*
X103766905Y-118855057D01*
X103766905Y-118855057D02*
X103814524Y-118807438D01*
X103814524Y-118807438D02*
X103909762Y-118759819D01*
X103909762Y-118759819D02*
X104100238Y-118759819D01*
X104100238Y-118759819D02*
X104195476Y-118807438D01*
X104195476Y-118807438D02*
X104243095Y-118855057D01*
X104243095Y-118855057D02*
X104290714Y-118950295D01*
X104290714Y-118950295D02*
X104290714Y-118997914D01*
X104290714Y-118997914D02*
X104243095Y-119093152D01*
X104243095Y-119093152D02*
X104195476Y-119140771D01*
X104195476Y-119140771D02*
X104100238Y-119188390D01*
X104100238Y-119188390D02*
X103909762Y-119188390D01*
X103909762Y-119188390D02*
X103814524Y-119236009D01*
X103814524Y-119236009D02*
X103766905Y-119283628D01*
X103766905Y-119283628D02*
X103719286Y-119378866D01*
X103719286Y-119378866D02*
X103719286Y-119569342D01*
X103719286Y-119569342D02*
X103766905Y-119664580D01*
X103766905Y-119664580D02*
X103814524Y-119712200D01*
X103814524Y-119712200D02*
X103909762Y-119759819D01*
X103909762Y-119759819D02*
X104100238Y-119759819D01*
X104100238Y-119759819D02*
X104195476Y-119712200D01*
X104195476Y-119712200D02*
X104243095Y-119664580D01*
X104243095Y-119664580D02*
X104290714Y-119569342D01*
X104290714Y-119569342D02*
X104290714Y-119378866D01*
X104290714Y-119378866D02*
X104243095Y-119283628D01*
X104243095Y-119283628D02*
X104195476Y-119236009D01*
X104195476Y-119236009D02*
X104100238Y-119188390D01*
X68903628Y-164206190D02*
X69379819Y-164206190D01*
X68379819Y-164539523D02*
X68903628Y-164206190D01*
X68903628Y-164206190D02*
X68379819Y-163872857D01*
X68475057Y-163587142D02*
X68427438Y-163539523D01*
X68427438Y-163539523D02*
X68379819Y-163444285D01*
X68379819Y-163444285D02*
X68379819Y-163206190D01*
X68379819Y-163206190D02*
X68427438Y-163110952D01*
X68427438Y-163110952D02*
X68475057Y-163063333D01*
X68475057Y-163063333D02*
X68570295Y-163015714D01*
X68570295Y-163015714D02*
X68665533Y-163015714D01*
X68665533Y-163015714D02*
X68808390Y-163063333D01*
X68808390Y-163063333D02*
X69379819Y-163634761D01*
X69379819Y-163634761D02*
X69379819Y-163015714D01*
X61650714Y-107864819D02*
X61650714Y-106864819D01*
X61650714Y-106864819D02*
X61888809Y-106864819D01*
X61888809Y-106864819D02*
X62031666Y-106912438D01*
X62031666Y-106912438D02*
X62126904Y-107007676D01*
X62126904Y-107007676D02*
X62174523Y-107102914D01*
X62174523Y-107102914D02*
X62222142Y-107293390D01*
X62222142Y-107293390D02*
X62222142Y-107436247D01*
X62222142Y-107436247D02*
X62174523Y-107626723D01*
X62174523Y-107626723D02*
X62126904Y-107721961D01*
X62126904Y-107721961D02*
X62031666Y-107817200D01*
X62031666Y-107817200D02*
X61888809Y-107864819D01*
X61888809Y-107864819D02*
X61650714Y-107864819D01*
X63174523Y-107864819D02*
X62603095Y-107864819D01*
X62888809Y-107864819D02*
X62888809Y-106864819D01*
X62888809Y-106864819D02*
X62793571Y-107007676D01*
X62793571Y-107007676D02*
X62698333Y-107102914D01*
X62698333Y-107102914D02*
X62603095Y-107150533D01*
X63555476Y-106960057D02*
X63603095Y-106912438D01*
X63603095Y-106912438D02*
X63698333Y-106864819D01*
X63698333Y-106864819D02*
X63936428Y-106864819D01*
X63936428Y-106864819D02*
X64031666Y-106912438D01*
X64031666Y-106912438D02*
X64079285Y-106960057D01*
X64079285Y-106960057D02*
X64126904Y-107055295D01*
X64126904Y-107055295D02*
X64126904Y-107150533D01*
X64126904Y-107150533D02*
X64079285Y-107293390D01*
X64079285Y-107293390D02*
X63507857Y-107864819D01*
X63507857Y-107864819D02*
X64126904Y-107864819D01*
X35552142Y-62124819D02*
X35218809Y-61648628D01*
X34980714Y-62124819D02*
X34980714Y-61124819D01*
X34980714Y-61124819D02*
X35361666Y-61124819D01*
X35361666Y-61124819D02*
X35456904Y-61172438D01*
X35456904Y-61172438D02*
X35504523Y-61220057D01*
X35504523Y-61220057D02*
X35552142Y-61315295D01*
X35552142Y-61315295D02*
X35552142Y-61458152D01*
X35552142Y-61458152D02*
X35504523Y-61553390D01*
X35504523Y-61553390D02*
X35456904Y-61601009D01*
X35456904Y-61601009D02*
X35361666Y-61648628D01*
X35361666Y-61648628D02*
X34980714Y-61648628D01*
X36504523Y-62124819D02*
X35933095Y-62124819D01*
X36218809Y-62124819D02*
X36218809Y-61124819D01*
X36218809Y-61124819D02*
X36123571Y-61267676D01*
X36123571Y-61267676D02*
X36028333Y-61362914D01*
X36028333Y-61362914D02*
X35933095Y-61410533D01*
X37075952Y-61553390D02*
X36980714Y-61505771D01*
X36980714Y-61505771D02*
X36933095Y-61458152D01*
X36933095Y-61458152D02*
X36885476Y-61362914D01*
X36885476Y-61362914D02*
X36885476Y-61315295D01*
X36885476Y-61315295D02*
X36933095Y-61220057D01*
X36933095Y-61220057D02*
X36980714Y-61172438D01*
X36980714Y-61172438D02*
X37075952Y-61124819D01*
X37075952Y-61124819D02*
X37266428Y-61124819D01*
X37266428Y-61124819D02*
X37361666Y-61172438D01*
X37361666Y-61172438D02*
X37409285Y-61220057D01*
X37409285Y-61220057D02*
X37456904Y-61315295D01*
X37456904Y-61315295D02*
X37456904Y-61362914D01*
X37456904Y-61362914D02*
X37409285Y-61458152D01*
X37409285Y-61458152D02*
X37361666Y-61505771D01*
X37361666Y-61505771D02*
X37266428Y-61553390D01*
X37266428Y-61553390D02*
X37075952Y-61553390D01*
X37075952Y-61553390D02*
X36980714Y-61601009D01*
X36980714Y-61601009D02*
X36933095Y-61648628D01*
X36933095Y-61648628D02*
X36885476Y-61743866D01*
X36885476Y-61743866D02*
X36885476Y-61934342D01*
X36885476Y-61934342D02*
X36933095Y-62029580D01*
X36933095Y-62029580D02*
X36980714Y-62077200D01*
X36980714Y-62077200D02*
X37075952Y-62124819D01*
X37075952Y-62124819D02*
X37266428Y-62124819D01*
X37266428Y-62124819D02*
X37361666Y-62077200D01*
X37361666Y-62077200D02*
X37409285Y-62029580D01*
X37409285Y-62029580D02*
X37456904Y-61934342D01*
X37456904Y-61934342D02*
X37456904Y-61743866D01*
X37456904Y-61743866D02*
X37409285Y-61648628D01*
X37409285Y-61648628D02*
X37361666Y-61601009D01*
X37361666Y-61601009D02*
X37266428Y-61553390D01*
X47926666Y-145274819D02*
X47926666Y-145989104D01*
X47926666Y-145989104D02*
X47879047Y-146131961D01*
X47879047Y-146131961D02*
X47783809Y-146227200D01*
X47783809Y-146227200D02*
X47640952Y-146274819D01*
X47640952Y-146274819D02*
X47545714Y-146274819D01*
X48355238Y-145370057D02*
X48402857Y-145322438D01*
X48402857Y-145322438D02*
X48498095Y-145274819D01*
X48498095Y-145274819D02*
X48736190Y-145274819D01*
X48736190Y-145274819D02*
X48831428Y-145322438D01*
X48831428Y-145322438D02*
X48879047Y-145370057D01*
X48879047Y-145370057D02*
X48926666Y-145465295D01*
X48926666Y-145465295D02*
X48926666Y-145560533D01*
X48926666Y-145560533D02*
X48879047Y-145703390D01*
X48879047Y-145703390D02*
X48307619Y-146274819D01*
X48307619Y-146274819D02*
X48926666Y-146274819D01*
X109220944Y-112014819D02*
X109220944Y-111014819D01*
X109220944Y-111014819D02*
X109459039Y-111014819D01*
X109459039Y-111014819D02*
X109601896Y-111062438D01*
X109601896Y-111062438D02*
X109697134Y-111157676D01*
X109697134Y-111157676D02*
X109744753Y-111252914D01*
X109744753Y-111252914D02*
X109792372Y-111443390D01*
X109792372Y-111443390D02*
X109792372Y-111586247D01*
X109792372Y-111586247D02*
X109744753Y-111776723D01*
X109744753Y-111776723D02*
X109697134Y-111871961D01*
X109697134Y-111871961D02*
X109601896Y-111967200D01*
X109601896Y-111967200D02*
X109459039Y-112014819D01*
X109459039Y-112014819D02*
X109220944Y-112014819D01*
X110363801Y-111443390D02*
X110268563Y-111395771D01*
X110268563Y-111395771D02*
X110220944Y-111348152D01*
X110220944Y-111348152D02*
X110173325Y-111252914D01*
X110173325Y-111252914D02*
X110173325Y-111205295D01*
X110173325Y-111205295D02*
X110220944Y-111110057D01*
X110220944Y-111110057D02*
X110268563Y-111062438D01*
X110268563Y-111062438D02*
X110363801Y-111014819D01*
X110363801Y-111014819D02*
X110554277Y-111014819D01*
X110554277Y-111014819D02*
X110649515Y-111062438D01*
X110649515Y-111062438D02*
X110697134Y-111110057D01*
X110697134Y-111110057D02*
X110744753Y-111205295D01*
X110744753Y-111205295D02*
X110744753Y-111252914D01*
X110744753Y-111252914D02*
X110697134Y-111348152D01*
X110697134Y-111348152D02*
X110649515Y-111395771D01*
X110649515Y-111395771D02*
X110554277Y-111443390D01*
X110554277Y-111443390D02*
X110363801Y-111443390D01*
X110363801Y-111443390D02*
X110268563Y-111491009D01*
X110268563Y-111491009D02*
X110220944Y-111538628D01*
X110220944Y-111538628D02*
X110173325Y-111633866D01*
X110173325Y-111633866D02*
X110173325Y-111824342D01*
X110173325Y-111824342D02*
X110220944Y-111919580D01*
X110220944Y-111919580D02*
X110268563Y-111967200D01*
X110268563Y-111967200D02*
X110363801Y-112014819D01*
X110363801Y-112014819D02*
X110554277Y-112014819D01*
X110554277Y-112014819D02*
X110649515Y-111967200D01*
X110649515Y-111967200D02*
X110697134Y-111919580D01*
X110697134Y-111919580D02*
X110744753Y-111824342D01*
X110744753Y-111824342D02*
X110744753Y-111633866D01*
X110744753Y-111633866D02*
X110697134Y-111538628D01*
X110697134Y-111538628D02*
X110649515Y-111491009D01*
X110649515Y-111491009D02*
X110554277Y-111443390D01*
X33141905Y-122894819D02*
X33141905Y-121894819D01*
X33141905Y-121894819D02*
X33380000Y-121894819D01*
X33380000Y-121894819D02*
X33522857Y-121942438D01*
X33522857Y-121942438D02*
X33618095Y-122037676D01*
X33618095Y-122037676D02*
X33665714Y-122132914D01*
X33665714Y-122132914D02*
X33713333Y-122323390D01*
X33713333Y-122323390D02*
X33713333Y-122466247D01*
X33713333Y-122466247D02*
X33665714Y-122656723D01*
X33665714Y-122656723D02*
X33618095Y-122751961D01*
X33618095Y-122751961D02*
X33522857Y-122847200D01*
X33522857Y-122847200D02*
X33380000Y-122894819D01*
X33380000Y-122894819D02*
X33141905Y-122894819D01*
X34665714Y-122894819D02*
X34094286Y-122894819D01*
X34380000Y-122894819D02*
X34380000Y-121894819D01*
X34380000Y-121894819D02*
X34284762Y-122037676D01*
X34284762Y-122037676D02*
X34189524Y-122132914D01*
X34189524Y-122132914D02*
X34094286Y-122180533D01*
X90003333Y-121664819D02*
X89670000Y-121188628D01*
X89431905Y-121664819D02*
X89431905Y-120664819D01*
X89431905Y-120664819D02*
X89812857Y-120664819D01*
X89812857Y-120664819D02*
X89908095Y-120712438D01*
X89908095Y-120712438D02*
X89955714Y-120760057D01*
X89955714Y-120760057D02*
X90003333Y-120855295D01*
X90003333Y-120855295D02*
X90003333Y-120998152D01*
X90003333Y-120998152D02*
X89955714Y-121093390D01*
X89955714Y-121093390D02*
X89908095Y-121141009D01*
X89908095Y-121141009D02*
X89812857Y-121188628D01*
X89812857Y-121188628D02*
X89431905Y-121188628D01*
X90336667Y-120664819D02*
X91003333Y-120664819D01*
X91003333Y-120664819D02*
X90574762Y-121664819D01*
X30313333Y-82219580D02*
X30265714Y-82267200D01*
X30265714Y-82267200D02*
X30122857Y-82314819D01*
X30122857Y-82314819D02*
X30027619Y-82314819D01*
X30027619Y-82314819D02*
X29884762Y-82267200D01*
X29884762Y-82267200D02*
X29789524Y-82171961D01*
X29789524Y-82171961D02*
X29741905Y-82076723D01*
X29741905Y-82076723D02*
X29694286Y-81886247D01*
X29694286Y-81886247D02*
X29694286Y-81743390D01*
X29694286Y-81743390D02*
X29741905Y-81552914D01*
X29741905Y-81552914D02*
X29789524Y-81457676D01*
X29789524Y-81457676D02*
X29884762Y-81362438D01*
X29884762Y-81362438D02*
X30027619Y-81314819D01*
X30027619Y-81314819D02*
X30122857Y-81314819D01*
X30122857Y-81314819D02*
X30265714Y-81362438D01*
X30265714Y-81362438D02*
X30313333Y-81410057D01*
X31170476Y-81314819D02*
X30980000Y-81314819D01*
X30980000Y-81314819D02*
X30884762Y-81362438D01*
X30884762Y-81362438D02*
X30837143Y-81410057D01*
X30837143Y-81410057D02*
X30741905Y-81552914D01*
X30741905Y-81552914D02*
X30694286Y-81743390D01*
X30694286Y-81743390D02*
X30694286Y-82124342D01*
X30694286Y-82124342D02*
X30741905Y-82219580D01*
X30741905Y-82219580D02*
X30789524Y-82267200D01*
X30789524Y-82267200D02*
X30884762Y-82314819D01*
X30884762Y-82314819D02*
X31075238Y-82314819D01*
X31075238Y-82314819D02*
X31170476Y-82267200D01*
X31170476Y-82267200D02*
X31218095Y-82219580D01*
X31218095Y-82219580D02*
X31265714Y-82124342D01*
X31265714Y-82124342D02*
X31265714Y-81886247D01*
X31265714Y-81886247D02*
X31218095Y-81791009D01*
X31218095Y-81791009D02*
X31170476Y-81743390D01*
X31170476Y-81743390D02*
X31075238Y-81695771D01*
X31075238Y-81695771D02*
X30884762Y-81695771D01*
X30884762Y-81695771D02*
X30789524Y-81743390D01*
X30789524Y-81743390D02*
X30741905Y-81791009D01*
X30741905Y-81791009D02*
X30694286Y-81886247D01*
X30313333Y-150164580D02*
X30265714Y-150212200D01*
X30265714Y-150212200D02*
X30122857Y-150259819D01*
X30122857Y-150259819D02*
X30027619Y-150259819D01*
X30027619Y-150259819D02*
X29884762Y-150212200D01*
X29884762Y-150212200D02*
X29789524Y-150116961D01*
X29789524Y-150116961D02*
X29741905Y-150021723D01*
X29741905Y-150021723D02*
X29694286Y-149831247D01*
X29694286Y-149831247D02*
X29694286Y-149688390D01*
X29694286Y-149688390D02*
X29741905Y-149497914D01*
X29741905Y-149497914D02*
X29789524Y-149402676D01*
X29789524Y-149402676D02*
X29884762Y-149307438D01*
X29884762Y-149307438D02*
X30027619Y-149259819D01*
X30027619Y-149259819D02*
X30122857Y-149259819D01*
X30122857Y-149259819D02*
X30265714Y-149307438D01*
X30265714Y-149307438D02*
X30313333Y-149355057D01*
X30789524Y-150259819D02*
X30980000Y-150259819D01*
X30980000Y-150259819D02*
X31075238Y-150212200D01*
X31075238Y-150212200D02*
X31122857Y-150164580D01*
X31122857Y-150164580D02*
X31218095Y-150021723D01*
X31218095Y-150021723D02*
X31265714Y-149831247D01*
X31265714Y-149831247D02*
X31265714Y-149450295D01*
X31265714Y-149450295D02*
X31218095Y-149355057D01*
X31218095Y-149355057D02*
X31170476Y-149307438D01*
X31170476Y-149307438D02*
X31075238Y-149259819D01*
X31075238Y-149259819D02*
X30884762Y-149259819D01*
X30884762Y-149259819D02*
X30789524Y-149307438D01*
X30789524Y-149307438D02*
X30741905Y-149355057D01*
X30741905Y-149355057D02*
X30694286Y-149450295D01*
X30694286Y-149450295D02*
X30694286Y-149688390D01*
X30694286Y-149688390D02*
X30741905Y-149783628D01*
X30741905Y-149783628D02*
X30789524Y-149831247D01*
X30789524Y-149831247D02*
X30884762Y-149878866D01*
X30884762Y-149878866D02*
X31075238Y-149878866D01*
X31075238Y-149878866D02*
X31170476Y-149831247D01*
X31170476Y-149831247D02*
X31218095Y-149783628D01*
X31218095Y-149783628D02*
X31265714Y-149688390D01*
X36187142Y-134726486D02*
X35853809Y-134250295D01*
X35615714Y-134726486D02*
X35615714Y-133726486D01*
X35615714Y-133726486D02*
X35996666Y-133726486D01*
X35996666Y-133726486D02*
X36091904Y-133774105D01*
X36091904Y-133774105D02*
X36139523Y-133821724D01*
X36139523Y-133821724D02*
X36187142Y-133916962D01*
X36187142Y-133916962D02*
X36187142Y-134059819D01*
X36187142Y-134059819D02*
X36139523Y-134155057D01*
X36139523Y-134155057D02*
X36091904Y-134202676D01*
X36091904Y-134202676D02*
X35996666Y-134250295D01*
X35996666Y-134250295D02*
X35615714Y-134250295D01*
X36568095Y-133821724D02*
X36615714Y-133774105D01*
X36615714Y-133774105D02*
X36710952Y-133726486D01*
X36710952Y-133726486D02*
X36949047Y-133726486D01*
X36949047Y-133726486D02*
X37044285Y-133774105D01*
X37044285Y-133774105D02*
X37091904Y-133821724D01*
X37091904Y-133821724D02*
X37139523Y-133916962D01*
X37139523Y-133916962D02*
X37139523Y-134012200D01*
X37139523Y-134012200D02*
X37091904Y-134155057D01*
X37091904Y-134155057D02*
X36520476Y-134726486D01*
X36520476Y-134726486D02*
X37139523Y-134726486D01*
X37520476Y-133821724D02*
X37568095Y-133774105D01*
X37568095Y-133774105D02*
X37663333Y-133726486D01*
X37663333Y-133726486D02*
X37901428Y-133726486D01*
X37901428Y-133726486D02*
X37996666Y-133774105D01*
X37996666Y-133774105D02*
X38044285Y-133821724D01*
X38044285Y-133821724D02*
X38091904Y-133916962D01*
X38091904Y-133916962D02*
X38091904Y-134012200D01*
X38091904Y-134012200D02*
X38044285Y-134155057D01*
X38044285Y-134155057D02*
X37472857Y-134726486D01*
X37472857Y-134726486D02*
X38091904Y-134726486D01*
X48666667Y-185412200D02*
X48809524Y-185459819D01*
X48809524Y-185459819D02*
X49047619Y-185459819D01*
X49047619Y-185459819D02*
X49142857Y-185412200D01*
X49142857Y-185412200D02*
X49190476Y-185364580D01*
X49190476Y-185364580D02*
X49238095Y-185269342D01*
X49238095Y-185269342D02*
X49238095Y-185174104D01*
X49238095Y-185174104D02*
X49190476Y-185078866D01*
X49190476Y-185078866D02*
X49142857Y-185031247D01*
X49142857Y-185031247D02*
X49047619Y-184983628D01*
X49047619Y-184983628D02*
X48857143Y-184936009D01*
X48857143Y-184936009D02*
X48761905Y-184888390D01*
X48761905Y-184888390D02*
X48714286Y-184840771D01*
X48714286Y-184840771D02*
X48666667Y-184745533D01*
X48666667Y-184745533D02*
X48666667Y-184650295D01*
X48666667Y-184650295D02*
X48714286Y-184555057D01*
X48714286Y-184555057D02*
X48761905Y-184507438D01*
X48761905Y-184507438D02*
X48857143Y-184459819D01*
X48857143Y-184459819D02*
X49095238Y-184459819D01*
X49095238Y-184459819D02*
X49238095Y-184507438D01*
X49571429Y-184459819D02*
X49809524Y-185459819D01*
X49809524Y-185459819D02*
X50000000Y-184745533D01*
X50000000Y-184745533D02*
X50190476Y-185459819D01*
X50190476Y-185459819D02*
X50428572Y-184459819D01*
X51238095Y-184793152D02*
X51238095Y-185459819D01*
X51000000Y-184412200D02*
X50761905Y-185126485D01*
X50761905Y-185126485D02*
X51380952Y-185126485D01*
X88257142Y-104669819D02*
X87923809Y-104193628D01*
X87685714Y-104669819D02*
X87685714Y-103669819D01*
X87685714Y-103669819D02*
X88066666Y-103669819D01*
X88066666Y-103669819D02*
X88161904Y-103717438D01*
X88161904Y-103717438D02*
X88209523Y-103765057D01*
X88209523Y-103765057D02*
X88257142Y-103860295D01*
X88257142Y-103860295D02*
X88257142Y-104003152D01*
X88257142Y-104003152D02*
X88209523Y-104098390D01*
X88209523Y-104098390D02*
X88161904Y-104146009D01*
X88161904Y-104146009D02*
X88066666Y-104193628D01*
X88066666Y-104193628D02*
X87685714Y-104193628D01*
X88638095Y-103765057D02*
X88685714Y-103717438D01*
X88685714Y-103717438D02*
X88780952Y-103669819D01*
X88780952Y-103669819D02*
X89019047Y-103669819D01*
X89019047Y-103669819D02*
X89114285Y-103717438D01*
X89114285Y-103717438D02*
X89161904Y-103765057D01*
X89161904Y-103765057D02*
X89209523Y-103860295D01*
X89209523Y-103860295D02*
X89209523Y-103955533D01*
X89209523Y-103955533D02*
X89161904Y-104098390D01*
X89161904Y-104098390D02*
X88590476Y-104669819D01*
X88590476Y-104669819D02*
X89209523Y-104669819D01*
X89780952Y-104098390D02*
X89685714Y-104050771D01*
X89685714Y-104050771D02*
X89638095Y-104003152D01*
X89638095Y-104003152D02*
X89590476Y-103907914D01*
X89590476Y-103907914D02*
X89590476Y-103860295D01*
X89590476Y-103860295D02*
X89638095Y-103765057D01*
X89638095Y-103765057D02*
X89685714Y-103717438D01*
X89685714Y-103717438D02*
X89780952Y-103669819D01*
X89780952Y-103669819D02*
X89971428Y-103669819D01*
X89971428Y-103669819D02*
X90066666Y-103717438D01*
X90066666Y-103717438D02*
X90114285Y-103765057D01*
X90114285Y-103765057D02*
X90161904Y-103860295D01*
X90161904Y-103860295D02*
X90161904Y-103907914D01*
X90161904Y-103907914D02*
X90114285Y-104003152D01*
X90114285Y-104003152D02*
X90066666Y-104050771D01*
X90066666Y-104050771D02*
X89971428Y-104098390D01*
X89971428Y-104098390D02*
X89780952Y-104098390D01*
X89780952Y-104098390D02*
X89685714Y-104146009D01*
X89685714Y-104146009D02*
X89638095Y-104193628D01*
X89638095Y-104193628D02*
X89590476Y-104288866D01*
X89590476Y-104288866D02*
X89590476Y-104479342D01*
X89590476Y-104479342D02*
X89638095Y-104574580D01*
X89638095Y-104574580D02*
X89685714Y-104622200D01*
X89685714Y-104622200D02*
X89780952Y-104669819D01*
X89780952Y-104669819D02*
X89971428Y-104669819D01*
X89971428Y-104669819D02*
X90066666Y-104622200D01*
X90066666Y-104622200D02*
X90114285Y-104574580D01*
X90114285Y-104574580D02*
X90161904Y-104479342D01*
X90161904Y-104479342D02*
X90161904Y-104288866D01*
X90161904Y-104288866D02*
X90114285Y-104193628D01*
X90114285Y-104193628D02*
X90066666Y-104146009D01*
X90066666Y-104146009D02*
X89971428Y-104098390D01*
X42641905Y-113394819D02*
X42641905Y-112394819D01*
X42641905Y-112394819D02*
X42880000Y-112394819D01*
X42880000Y-112394819D02*
X43022857Y-112442438D01*
X43022857Y-112442438D02*
X43118095Y-112537676D01*
X43118095Y-112537676D02*
X43165714Y-112632914D01*
X43165714Y-112632914D02*
X43213333Y-112823390D01*
X43213333Y-112823390D02*
X43213333Y-112966247D01*
X43213333Y-112966247D02*
X43165714Y-113156723D01*
X43165714Y-113156723D02*
X43118095Y-113251961D01*
X43118095Y-113251961D02*
X43022857Y-113347200D01*
X43022857Y-113347200D02*
X42880000Y-113394819D01*
X42880000Y-113394819D02*
X42641905Y-113394819D01*
X43594286Y-112490057D02*
X43641905Y-112442438D01*
X43641905Y-112442438D02*
X43737143Y-112394819D01*
X43737143Y-112394819D02*
X43975238Y-112394819D01*
X43975238Y-112394819D02*
X44070476Y-112442438D01*
X44070476Y-112442438D02*
X44118095Y-112490057D01*
X44118095Y-112490057D02*
X44165714Y-112585295D01*
X44165714Y-112585295D02*
X44165714Y-112680533D01*
X44165714Y-112680533D02*
X44118095Y-112823390D01*
X44118095Y-112823390D02*
X43546667Y-113394819D01*
X43546667Y-113394819D02*
X44165714Y-113394819D01*
X56507142Y-162864580D02*
X56459523Y-162912200D01*
X56459523Y-162912200D02*
X56316666Y-162959819D01*
X56316666Y-162959819D02*
X56221428Y-162959819D01*
X56221428Y-162959819D02*
X56078571Y-162912200D01*
X56078571Y-162912200D02*
X55983333Y-162816961D01*
X55983333Y-162816961D02*
X55935714Y-162721723D01*
X55935714Y-162721723D02*
X55888095Y-162531247D01*
X55888095Y-162531247D02*
X55888095Y-162388390D01*
X55888095Y-162388390D02*
X55935714Y-162197914D01*
X55935714Y-162197914D02*
X55983333Y-162102676D01*
X55983333Y-162102676D02*
X56078571Y-162007438D01*
X56078571Y-162007438D02*
X56221428Y-161959819D01*
X56221428Y-161959819D02*
X56316666Y-161959819D01*
X56316666Y-161959819D02*
X56459523Y-162007438D01*
X56459523Y-162007438D02*
X56507142Y-162055057D01*
X57459523Y-162959819D02*
X56888095Y-162959819D01*
X57173809Y-162959819D02*
X57173809Y-161959819D01*
X57173809Y-161959819D02*
X57078571Y-162102676D01*
X57078571Y-162102676D02*
X56983333Y-162197914D01*
X56983333Y-162197914D02*
X56888095Y-162245533D01*
X57792857Y-161959819D02*
X58411904Y-161959819D01*
X58411904Y-161959819D02*
X58078571Y-162340771D01*
X58078571Y-162340771D02*
X58221428Y-162340771D01*
X58221428Y-162340771D02*
X58316666Y-162388390D01*
X58316666Y-162388390D02*
X58364285Y-162436009D01*
X58364285Y-162436009D02*
X58411904Y-162531247D01*
X58411904Y-162531247D02*
X58411904Y-162769342D01*
X58411904Y-162769342D02*
X58364285Y-162864580D01*
X58364285Y-162864580D02*
X58316666Y-162912200D01*
X58316666Y-162912200D02*
X58221428Y-162959819D01*
X58221428Y-162959819D02*
X57935714Y-162959819D01*
X57935714Y-162959819D02*
X57840476Y-162912200D01*
X57840476Y-162912200D02*
X57792857Y-162864580D01*
X76073095Y-182969819D02*
X76073095Y-183779342D01*
X76073095Y-183779342D02*
X76120714Y-183874580D01*
X76120714Y-183874580D02*
X76168333Y-183922200D01*
X76168333Y-183922200D02*
X76263571Y-183969819D01*
X76263571Y-183969819D02*
X76454047Y-183969819D01*
X76454047Y-183969819D02*
X76549285Y-183922200D01*
X76549285Y-183922200D02*
X76596904Y-183874580D01*
X76596904Y-183874580D02*
X76644523Y-183779342D01*
X76644523Y-183779342D02*
X76644523Y-182969819D01*
X77596904Y-182969819D02*
X77120714Y-182969819D01*
X77120714Y-182969819D02*
X77073095Y-183446009D01*
X77073095Y-183446009D02*
X77120714Y-183398390D01*
X77120714Y-183398390D02*
X77215952Y-183350771D01*
X77215952Y-183350771D02*
X77454047Y-183350771D01*
X77454047Y-183350771D02*
X77549285Y-183398390D01*
X77549285Y-183398390D02*
X77596904Y-183446009D01*
X77596904Y-183446009D02*
X77644523Y-183541247D01*
X77644523Y-183541247D02*
X77644523Y-183779342D01*
X77644523Y-183779342D02*
X77596904Y-183874580D01*
X77596904Y-183874580D02*
X77549285Y-183922200D01*
X77549285Y-183922200D02*
X77454047Y-183969819D01*
X77454047Y-183969819D02*
X77215952Y-183969819D01*
X77215952Y-183969819D02*
X77120714Y-183922200D01*
X77120714Y-183922200D02*
X77073095Y-183874580D01*
X74218800Y-179363019D02*
X74218800Y-179601114D01*
X73980705Y-179505876D02*
X74218800Y-179601114D01*
X74218800Y-179601114D02*
X74456895Y-179505876D01*
X74075943Y-179791590D02*
X74218800Y-179601114D01*
X74218800Y-179601114D02*
X74361657Y-179791590D01*
X74218800Y-179363019D02*
X74218800Y-179601114D01*
X73980705Y-179505876D02*
X74218800Y-179601114D01*
X74218800Y-179601114D02*
X74456895Y-179505876D01*
X74075943Y-179791590D02*
X74218800Y-179601114D01*
X74218800Y-179601114D02*
X74361657Y-179791590D01*
X65397142Y-138324819D02*
X65063809Y-137848628D01*
X64825714Y-138324819D02*
X64825714Y-137324819D01*
X64825714Y-137324819D02*
X65206666Y-137324819D01*
X65206666Y-137324819D02*
X65301904Y-137372438D01*
X65301904Y-137372438D02*
X65349523Y-137420057D01*
X65349523Y-137420057D02*
X65397142Y-137515295D01*
X65397142Y-137515295D02*
X65397142Y-137658152D01*
X65397142Y-137658152D02*
X65349523Y-137753390D01*
X65349523Y-137753390D02*
X65301904Y-137801009D01*
X65301904Y-137801009D02*
X65206666Y-137848628D01*
X65206666Y-137848628D02*
X64825714Y-137848628D01*
X66349523Y-138324819D02*
X65778095Y-138324819D01*
X66063809Y-138324819D02*
X66063809Y-137324819D01*
X66063809Y-137324819D02*
X65968571Y-137467676D01*
X65968571Y-137467676D02*
X65873333Y-137562914D01*
X65873333Y-137562914D02*
X65778095Y-137610533D01*
X66682857Y-137324819D02*
X67301904Y-137324819D01*
X67301904Y-137324819D02*
X66968571Y-137705771D01*
X66968571Y-137705771D02*
X67111428Y-137705771D01*
X67111428Y-137705771D02*
X67206666Y-137753390D01*
X67206666Y-137753390D02*
X67254285Y-137801009D01*
X67254285Y-137801009D02*
X67301904Y-137896247D01*
X67301904Y-137896247D02*
X67301904Y-138134342D01*
X67301904Y-138134342D02*
X67254285Y-138229580D01*
X67254285Y-138229580D02*
X67206666Y-138277200D01*
X67206666Y-138277200D02*
X67111428Y-138324819D01*
X67111428Y-138324819D02*
X66825714Y-138324819D01*
X66825714Y-138324819D02*
X66730476Y-138277200D01*
X66730476Y-138277200D02*
X66682857Y-138229580D01*
X76503095Y-115659819D02*
X76503095Y-116469342D01*
X76503095Y-116469342D02*
X76550714Y-116564580D01*
X76550714Y-116564580D02*
X76598333Y-116612200D01*
X76598333Y-116612200D02*
X76693571Y-116659819D01*
X76693571Y-116659819D02*
X76884047Y-116659819D01*
X76884047Y-116659819D02*
X76979285Y-116612200D01*
X76979285Y-116612200D02*
X77026904Y-116564580D01*
X77026904Y-116564580D02*
X77074523Y-116469342D01*
X77074523Y-116469342D02*
X77074523Y-115659819D01*
X77503095Y-115755057D02*
X77550714Y-115707438D01*
X77550714Y-115707438D02*
X77645952Y-115659819D01*
X77645952Y-115659819D02*
X77884047Y-115659819D01*
X77884047Y-115659819D02*
X77979285Y-115707438D01*
X77979285Y-115707438D02*
X78026904Y-115755057D01*
X78026904Y-115755057D02*
X78074523Y-115850295D01*
X78074523Y-115850295D02*
X78074523Y-115945533D01*
X78074523Y-115945533D02*
X78026904Y-116088390D01*
X78026904Y-116088390D02*
X77455476Y-116659819D01*
X77455476Y-116659819D02*
X78074523Y-116659819D01*
X104166667Y-125157200D02*
X104309524Y-125204819D01*
X104309524Y-125204819D02*
X104547619Y-125204819D01*
X104547619Y-125204819D02*
X104642857Y-125157200D01*
X104642857Y-125157200D02*
X104690476Y-125109580D01*
X104690476Y-125109580D02*
X104738095Y-125014342D01*
X104738095Y-125014342D02*
X104738095Y-124919104D01*
X104738095Y-124919104D02*
X104690476Y-124823866D01*
X104690476Y-124823866D02*
X104642857Y-124776247D01*
X104642857Y-124776247D02*
X104547619Y-124728628D01*
X104547619Y-124728628D02*
X104357143Y-124681009D01*
X104357143Y-124681009D02*
X104261905Y-124633390D01*
X104261905Y-124633390D02*
X104214286Y-124585771D01*
X104214286Y-124585771D02*
X104166667Y-124490533D01*
X104166667Y-124490533D02*
X104166667Y-124395295D01*
X104166667Y-124395295D02*
X104214286Y-124300057D01*
X104214286Y-124300057D02*
X104261905Y-124252438D01*
X104261905Y-124252438D02*
X104357143Y-124204819D01*
X104357143Y-124204819D02*
X104595238Y-124204819D01*
X104595238Y-124204819D02*
X104738095Y-124252438D01*
X105071429Y-124204819D02*
X105309524Y-125204819D01*
X105309524Y-125204819D02*
X105500000Y-124490533D01*
X105500000Y-124490533D02*
X105690476Y-125204819D01*
X105690476Y-125204819D02*
X105928572Y-124204819D01*
X106214286Y-124204819D02*
X106833333Y-124204819D01*
X106833333Y-124204819D02*
X106500000Y-124585771D01*
X106500000Y-124585771D02*
X106642857Y-124585771D01*
X106642857Y-124585771D02*
X106738095Y-124633390D01*
X106738095Y-124633390D02*
X106785714Y-124681009D01*
X106785714Y-124681009D02*
X106833333Y-124776247D01*
X106833333Y-124776247D02*
X106833333Y-125014342D01*
X106833333Y-125014342D02*
X106785714Y-125109580D01*
X106785714Y-125109580D02*
X106738095Y-125157200D01*
X106738095Y-125157200D02*
X106642857Y-125204819D01*
X106642857Y-125204819D02*
X106357143Y-125204819D01*
X106357143Y-125204819D02*
X106261905Y-125157200D01*
X106261905Y-125157200D02*
X106214286Y-125109580D01*
X111095714Y-60459819D02*
X111095714Y-59459819D01*
X111095714Y-59459819D02*
X111333809Y-59459819D01*
X111333809Y-59459819D02*
X111476666Y-59507438D01*
X111476666Y-59507438D02*
X111571904Y-59602676D01*
X111571904Y-59602676D02*
X111619523Y-59697914D01*
X111619523Y-59697914D02*
X111667142Y-59888390D01*
X111667142Y-59888390D02*
X111667142Y-60031247D01*
X111667142Y-60031247D02*
X111619523Y-60221723D01*
X111619523Y-60221723D02*
X111571904Y-60316961D01*
X111571904Y-60316961D02*
X111476666Y-60412200D01*
X111476666Y-60412200D02*
X111333809Y-60459819D01*
X111333809Y-60459819D02*
X111095714Y-60459819D01*
X112048095Y-60412200D02*
X112190952Y-60459819D01*
X112190952Y-60459819D02*
X112429047Y-60459819D01*
X112429047Y-60459819D02*
X112524285Y-60412200D01*
X112524285Y-60412200D02*
X112571904Y-60364580D01*
X112571904Y-60364580D02*
X112619523Y-60269342D01*
X112619523Y-60269342D02*
X112619523Y-60174104D01*
X112619523Y-60174104D02*
X112571904Y-60078866D01*
X112571904Y-60078866D02*
X112524285Y-60031247D01*
X112524285Y-60031247D02*
X112429047Y-59983628D01*
X112429047Y-59983628D02*
X112238571Y-59936009D01*
X112238571Y-59936009D02*
X112143333Y-59888390D01*
X112143333Y-59888390D02*
X112095714Y-59840771D01*
X112095714Y-59840771D02*
X112048095Y-59745533D01*
X112048095Y-59745533D02*
X112048095Y-59650295D01*
X112048095Y-59650295D02*
X112095714Y-59555057D01*
X112095714Y-59555057D02*
X112143333Y-59507438D01*
X112143333Y-59507438D02*
X112238571Y-59459819D01*
X112238571Y-59459819D02*
X112476666Y-59459819D01*
X112476666Y-59459819D02*
X112619523Y-59507438D01*
X113571904Y-60459819D02*
X113000476Y-60459819D01*
X113286190Y-60459819D02*
X113286190Y-59459819D01*
X113286190Y-59459819D02*
X113190952Y-59602676D01*
X113190952Y-59602676D02*
X113095714Y-59697914D01*
X113095714Y-59697914D02*
X113000476Y-59745533D01*
X38666667Y-35407200D02*
X38809524Y-35454819D01*
X38809524Y-35454819D02*
X39047619Y-35454819D01*
X39047619Y-35454819D02*
X39142857Y-35407200D01*
X39142857Y-35407200D02*
X39190476Y-35359580D01*
X39190476Y-35359580D02*
X39238095Y-35264342D01*
X39238095Y-35264342D02*
X39238095Y-35169104D01*
X39238095Y-35169104D02*
X39190476Y-35073866D01*
X39190476Y-35073866D02*
X39142857Y-35026247D01*
X39142857Y-35026247D02*
X39047619Y-34978628D01*
X39047619Y-34978628D02*
X38857143Y-34931009D01*
X38857143Y-34931009D02*
X38761905Y-34883390D01*
X38761905Y-34883390D02*
X38714286Y-34835771D01*
X38714286Y-34835771D02*
X38666667Y-34740533D01*
X38666667Y-34740533D02*
X38666667Y-34645295D01*
X38666667Y-34645295D02*
X38714286Y-34550057D01*
X38714286Y-34550057D02*
X38761905Y-34502438D01*
X38761905Y-34502438D02*
X38857143Y-34454819D01*
X38857143Y-34454819D02*
X39095238Y-34454819D01*
X39095238Y-34454819D02*
X39238095Y-34502438D01*
X39571429Y-34454819D02*
X39809524Y-35454819D01*
X39809524Y-35454819D02*
X40000000Y-34740533D01*
X40000000Y-34740533D02*
X40190476Y-35454819D01*
X40190476Y-35454819D02*
X40428572Y-34454819D01*
X41285714Y-34454819D02*
X40809524Y-34454819D01*
X40809524Y-34454819D02*
X40761905Y-34931009D01*
X40761905Y-34931009D02*
X40809524Y-34883390D01*
X40809524Y-34883390D02*
X40904762Y-34835771D01*
X40904762Y-34835771D02*
X41142857Y-34835771D01*
X41142857Y-34835771D02*
X41238095Y-34883390D01*
X41238095Y-34883390D02*
X41285714Y-34931009D01*
X41285714Y-34931009D02*
X41333333Y-35026247D01*
X41333333Y-35026247D02*
X41333333Y-35264342D01*
X41333333Y-35264342D02*
X41285714Y-35359580D01*
X41285714Y-35359580D02*
X41238095Y-35407200D01*
X41238095Y-35407200D02*
X41142857Y-35454819D01*
X41142857Y-35454819D02*
X40904762Y-35454819D01*
X40904762Y-35454819D02*
X40809524Y-35407200D01*
X40809524Y-35407200D02*
X40761905Y-35359580D01*
X96866905Y-117194819D02*
X96866905Y-116194819D01*
X96866905Y-116194819D02*
X97105000Y-116194819D01*
X97105000Y-116194819D02*
X97247857Y-116242438D01*
X97247857Y-116242438D02*
X97343095Y-116337676D01*
X97343095Y-116337676D02*
X97390714Y-116432914D01*
X97390714Y-116432914D02*
X97438333Y-116623390D01*
X97438333Y-116623390D02*
X97438333Y-116766247D01*
X97438333Y-116766247D02*
X97390714Y-116956723D01*
X97390714Y-116956723D02*
X97343095Y-117051961D01*
X97343095Y-117051961D02*
X97247857Y-117147200D01*
X97247857Y-117147200D02*
X97105000Y-117194819D01*
X97105000Y-117194819D02*
X96866905Y-117194819D01*
X97771667Y-116194819D02*
X98438333Y-116194819D01*
X98438333Y-116194819D02*
X98009762Y-117194819D01*
X55931905Y-113394819D02*
X55931905Y-112394819D01*
X55931905Y-112394819D02*
X56170000Y-112394819D01*
X56170000Y-112394819D02*
X56312857Y-112442438D01*
X56312857Y-112442438D02*
X56408095Y-112537676D01*
X56408095Y-112537676D02*
X56455714Y-112632914D01*
X56455714Y-112632914D02*
X56503333Y-112823390D01*
X56503333Y-112823390D02*
X56503333Y-112966247D01*
X56503333Y-112966247D02*
X56455714Y-113156723D01*
X56455714Y-113156723D02*
X56408095Y-113251961D01*
X56408095Y-113251961D02*
X56312857Y-113347200D01*
X56312857Y-113347200D02*
X56170000Y-113394819D01*
X56170000Y-113394819D02*
X55931905Y-113394819D01*
X56836667Y-112394819D02*
X57455714Y-112394819D01*
X57455714Y-112394819D02*
X57122381Y-112775771D01*
X57122381Y-112775771D02*
X57265238Y-112775771D01*
X57265238Y-112775771D02*
X57360476Y-112823390D01*
X57360476Y-112823390D02*
X57408095Y-112871009D01*
X57408095Y-112871009D02*
X57455714Y-112966247D01*
X57455714Y-112966247D02*
X57455714Y-113204342D01*
X57455714Y-113204342D02*
X57408095Y-113299580D01*
X57408095Y-113299580D02*
X57360476Y-113347200D01*
X57360476Y-113347200D02*
X57265238Y-113394819D01*
X57265238Y-113394819D02*
X56979524Y-113394819D01*
X56979524Y-113394819D02*
X56884286Y-113347200D01*
X56884286Y-113347200D02*
X56836667Y-113299580D01*
X49998333Y-118169819D02*
X49665000Y-117693628D01*
X49426905Y-118169819D02*
X49426905Y-117169819D01*
X49426905Y-117169819D02*
X49807857Y-117169819D01*
X49807857Y-117169819D02*
X49903095Y-117217438D01*
X49903095Y-117217438D02*
X49950714Y-117265057D01*
X49950714Y-117265057D02*
X49998333Y-117360295D01*
X49998333Y-117360295D02*
X49998333Y-117503152D01*
X49998333Y-117503152D02*
X49950714Y-117598390D01*
X49950714Y-117598390D02*
X49903095Y-117646009D01*
X49903095Y-117646009D02*
X49807857Y-117693628D01*
X49807857Y-117693628D02*
X49426905Y-117693628D01*
X50331667Y-117169819D02*
X50950714Y-117169819D01*
X50950714Y-117169819D02*
X50617381Y-117550771D01*
X50617381Y-117550771D02*
X50760238Y-117550771D01*
X50760238Y-117550771D02*
X50855476Y-117598390D01*
X50855476Y-117598390D02*
X50903095Y-117646009D01*
X50903095Y-117646009D02*
X50950714Y-117741247D01*
X50950714Y-117741247D02*
X50950714Y-117979342D01*
X50950714Y-117979342D02*
X50903095Y-118074580D01*
X50903095Y-118074580D02*
X50855476Y-118122200D01*
X50855476Y-118122200D02*
X50760238Y-118169819D01*
X50760238Y-118169819D02*
X50474524Y-118169819D01*
X50474524Y-118169819D02*
X50379286Y-118122200D01*
X50379286Y-118122200D02*
X50331667Y-118074580D01*
X118666667Y-35407200D02*
X118809524Y-35454819D01*
X118809524Y-35454819D02*
X119047619Y-35454819D01*
X119047619Y-35454819D02*
X119142857Y-35407200D01*
X119142857Y-35407200D02*
X119190476Y-35359580D01*
X119190476Y-35359580D02*
X119238095Y-35264342D01*
X119238095Y-35264342D02*
X119238095Y-35169104D01*
X119238095Y-35169104D02*
X119190476Y-35073866D01*
X119190476Y-35073866D02*
X119142857Y-35026247D01*
X119142857Y-35026247D02*
X119047619Y-34978628D01*
X119047619Y-34978628D02*
X118857143Y-34931009D01*
X118857143Y-34931009D02*
X118761905Y-34883390D01*
X118761905Y-34883390D02*
X118714286Y-34835771D01*
X118714286Y-34835771D02*
X118666667Y-34740533D01*
X118666667Y-34740533D02*
X118666667Y-34645295D01*
X118666667Y-34645295D02*
X118714286Y-34550057D01*
X118714286Y-34550057D02*
X118761905Y-34502438D01*
X118761905Y-34502438D02*
X118857143Y-34454819D01*
X118857143Y-34454819D02*
X119095238Y-34454819D01*
X119095238Y-34454819D02*
X119238095Y-34502438D01*
X119571429Y-34454819D02*
X119809524Y-35454819D01*
X119809524Y-35454819D02*
X120000000Y-34740533D01*
X120000000Y-34740533D02*
X120190476Y-35454819D01*
X120190476Y-35454819D02*
X120428572Y-34454819D01*
X120857143Y-35454819D02*
X121047619Y-35454819D01*
X121047619Y-35454819D02*
X121142857Y-35407200D01*
X121142857Y-35407200D02*
X121190476Y-35359580D01*
X121190476Y-35359580D02*
X121285714Y-35216723D01*
X121285714Y-35216723D02*
X121333333Y-35026247D01*
X121333333Y-35026247D02*
X121333333Y-34645295D01*
X121333333Y-34645295D02*
X121285714Y-34550057D01*
X121285714Y-34550057D02*
X121238095Y-34502438D01*
X121238095Y-34502438D02*
X121142857Y-34454819D01*
X121142857Y-34454819D02*
X120952381Y-34454819D01*
X120952381Y-34454819D02*
X120857143Y-34502438D01*
X120857143Y-34502438D02*
X120809524Y-34550057D01*
X120809524Y-34550057D02*
X120761905Y-34645295D01*
X120761905Y-34645295D02*
X120761905Y-34883390D01*
X120761905Y-34883390D02*
X120809524Y-34978628D01*
X120809524Y-34978628D02*
X120857143Y-35026247D01*
X120857143Y-35026247D02*
X120952381Y-35073866D01*
X120952381Y-35073866D02*
X121142857Y-35073866D01*
X121142857Y-35073866D02*
X121238095Y-35026247D01*
X121238095Y-35026247D02*
X121285714Y-34978628D01*
X121285714Y-34978628D02*
X121333333Y-34883390D01*
X103806666Y-142734819D02*
X103806666Y-143449104D01*
X103806666Y-143449104D02*
X103759047Y-143591961D01*
X103759047Y-143591961D02*
X103663809Y-143687200D01*
X103663809Y-143687200D02*
X103520952Y-143734819D01*
X103520952Y-143734819D02*
X103425714Y-143734819D01*
X104711428Y-143068152D02*
X104711428Y-143734819D01*
X104473333Y-142687200D02*
X104235238Y-143401485D01*
X104235238Y-143401485D02*
X104854285Y-143401485D01*
X93972142Y-108329819D02*
X93638809Y-107853628D01*
X93400714Y-108329819D02*
X93400714Y-107329819D01*
X93400714Y-107329819D02*
X93781666Y-107329819D01*
X93781666Y-107329819D02*
X93876904Y-107377438D01*
X93876904Y-107377438D02*
X93924523Y-107425057D01*
X93924523Y-107425057D02*
X93972142Y-107520295D01*
X93972142Y-107520295D02*
X93972142Y-107663152D01*
X93972142Y-107663152D02*
X93924523Y-107758390D01*
X93924523Y-107758390D02*
X93876904Y-107806009D01*
X93876904Y-107806009D02*
X93781666Y-107853628D01*
X93781666Y-107853628D02*
X93400714Y-107853628D01*
X94353095Y-107425057D02*
X94400714Y-107377438D01*
X94400714Y-107377438D02*
X94495952Y-107329819D01*
X94495952Y-107329819D02*
X94734047Y-107329819D01*
X94734047Y-107329819D02*
X94829285Y-107377438D01*
X94829285Y-107377438D02*
X94876904Y-107425057D01*
X94876904Y-107425057D02*
X94924523Y-107520295D01*
X94924523Y-107520295D02*
X94924523Y-107615533D01*
X94924523Y-107615533D02*
X94876904Y-107758390D01*
X94876904Y-107758390D02*
X94305476Y-108329819D01*
X94305476Y-108329819D02*
X94924523Y-108329819D01*
X95781666Y-107329819D02*
X95591190Y-107329819D01*
X95591190Y-107329819D02*
X95495952Y-107377438D01*
X95495952Y-107377438D02*
X95448333Y-107425057D01*
X95448333Y-107425057D02*
X95353095Y-107567914D01*
X95353095Y-107567914D02*
X95305476Y-107758390D01*
X95305476Y-107758390D02*
X95305476Y-108139342D01*
X95305476Y-108139342D02*
X95353095Y-108234580D01*
X95353095Y-108234580D02*
X95400714Y-108282200D01*
X95400714Y-108282200D02*
X95495952Y-108329819D01*
X95495952Y-108329819D02*
X95686428Y-108329819D01*
X95686428Y-108329819D02*
X95781666Y-108282200D01*
X95781666Y-108282200D02*
X95829285Y-108234580D01*
X95829285Y-108234580D02*
X95876904Y-108139342D01*
X95876904Y-108139342D02*
X95876904Y-107901247D01*
X95876904Y-107901247D02*
X95829285Y-107806009D01*
X95829285Y-107806009D02*
X95781666Y-107758390D01*
X95781666Y-107758390D02*
X95686428Y-107710771D01*
X95686428Y-107710771D02*
X95495952Y-107710771D01*
X95495952Y-107710771D02*
X95400714Y-107758390D01*
X95400714Y-107758390D02*
X95353095Y-107806009D01*
X95353095Y-107806009D02*
X95305476Y-107901247D01*
X30313333Y-65709580D02*
X30265714Y-65757200D01*
X30265714Y-65757200D02*
X30122857Y-65804819D01*
X30122857Y-65804819D02*
X30027619Y-65804819D01*
X30027619Y-65804819D02*
X29884762Y-65757200D01*
X29884762Y-65757200D02*
X29789524Y-65661961D01*
X29789524Y-65661961D02*
X29741905Y-65566723D01*
X29741905Y-65566723D02*
X29694286Y-65376247D01*
X29694286Y-65376247D02*
X29694286Y-65233390D01*
X29694286Y-65233390D02*
X29741905Y-65042914D01*
X29741905Y-65042914D02*
X29789524Y-64947676D01*
X29789524Y-64947676D02*
X29884762Y-64852438D01*
X29884762Y-64852438D02*
X30027619Y-64804819D01*
X30027619Y-64804819D02*
X30122857Y-64804819D01*
X30122857Y-64804819D02*
X30265714Y-64852438D01*
X30265714Y-64852438D02*
X30313333Y-64900057D01*
X30646667Y-64804819D02*
X31313333Y-64804819D01*
X31313333Y-64804819D02*
X30884762Y-65804819D01*
X54514761Y-94630057D02*
X54419523Y-94582438D01*
X54419523Y-94582438D02*
X54324285Y-94487200D01*
X54324285Y-94487200D02*
X54181428Y-94344342D01*
X54181428Y-94344342D02*
X54086190Y-94296723D01*
X54086190Y-94296723D02*
X53990952Y-94296723D01*
X54038571Y-94534819D02*
X53943333Y-94487200D01*
X53943333Y-94487200D02*
X53848095Y-94391961D01*
X53848095Y-94391961D02*
X53800476Y-94201485D01*
X53800476Y-94201485D02*
X53800476Y-93868152D01*
X53800476Y-93868152D02*
X53848095Y-93677676D01*
X53848095Y-93677676D02*
X53943333Y-93582438D01*
X53943333Y-93582438D02*
X54038571Y-93534819D01*
X54038571Y-93534819D02*
X54229047Y-93534819D01*
X54229047Y-93534819D02*
X54324285Y-93582438D01*
X54324285Y-93582438D02*
X54419523Y-93677676D01*
X54419523Y-93677676D02*
X54467142Y-93868152D01*
X54467142Y-93868152D02*
X54467142Y-94201485D01*
X54467142Y-94201485D02*
X54419523Y-94391961D01*
X54419523Y-94391961D02*
X54324285Y-94487200D01*
X54324285Y-94487200D02*
X54229047Y-94534819D01*
X54229047Y-94534819D02*
X54038571Y-94534819D01*
X55419523Y-94534819D02*
X54848095Y-94534819D01*
X55133809Y-94534819D02*
X55133809Y-93534819D01*
X55133809Y-93534819D02*
X55038571Y-93677676D01*
X55038571Y-93677676D02*
X54943333Y-93772914D01*
X54943333Y-93772914D02*
X54848095Y-93820533D01*
X99052142Y-109634580D02*
X99004523Y-109682200D01*
X99004523Y-109682200D02*
X98861666Y-109729819D01*
X98861666Y-109729819D02*
X98766428Y-109729819D01*
X98766428Y-109729819D02*
X98623571Y-109682200D01*
X98623571Y-109682200D02*
X98528333Y-109586961D01*
X98528333Y-109586961D02*
X98480714Y-109491723D01*
X98480714Y-109491723D02*
X98433095Y-109301247D01*
X98433095Y-109301247D02*
X98433095Y-109158390D01*
X98433095Y-109158390D02*
X98480714Y-108967914D01*
X98480714Y-108967914D02*
X98528333Y-108872676D01*
X98528333Y-108872676D02*
X98623571Y-108777438D01*
X98623571Y-108777438D02*
X98766428Y-108729819D01*
X98766428Y-108729819D02*
X98861666Y-108729819D01*
X98861666Y-108729819D02*
X99004523Y-108777438D01*
X99004523Y-108777438D02*
X99052142Y-108825057D01*
X100004523Y-109729819D02*
X99433095Y-109729819D01*
X99718809Y-109729819D02*
X99718809Y-108729819D01*
X99718809Y-108729819D02*
X99623571Y-108872676D01*
X99623571Y-108872676D02*
X99528333Y-108967914D01*
X99528333Y-108967914D02*
X99433095Y-109015533D01*
X100385476Y-108825057D02*
X100433095Y-108777438D01*
X100433095Y-108777438D02*
X100528333Y-108729819D01*
X100528333Y-108729819D02*
X100766428Y-108729819D01*
X100766428Y-108729819D02*
X100861666Y-108777438D01*
X100861666Y-108777438D02*
X100909285Y-108825057D01*
X100909285Y-108825057D02*
X100956904Y-108920295D01*
X100956904Y-108920295D02*
X100956904Y-109015533D01*
X100956904Y-109015533D02*
X100909285Y-109158390D01*
X100909285Y-109158390D02*
X100337857Y-109729819D01*
X100337857Y-109729819D02*
X100956904Y-109729819D01*
X70154580Y-78271666D02*
X70202200Y-78319285D01*
X70202200Y-78319285D02*
X70249819Y-78462142D01*
X70249819Y-78462142D02*
X70249819Y-78557380D01*
X70249819Y-78557380D02*
X70202200Y-78700237D01*
X70202200Y-78700237D02*
X70106961Y-78795475D01*
X70106961Y-78795475D02*
X70011723Y-78843094D01*
X70011723Y-78843094D02*
X69821247Y-78890713D01*
X69821247Y-78890713D02*
X69678390Y-78890713D01*
X69678390Y-78890713D02*
X69487914Y-78843094D01*
X69487914Y-78843094D02*
X69392676Y-78795475D01*
X69392676Y-78795475D02*
X69297438Y-78700237D01*
X69297438Y-78700237D02*
X69249819Y-78557380D01*
X69249819Y-78557380D02*
X69249819Y-78462142D01*
X69249819Y-78462142D02*
X69297438Y-78319285D01*
X69297438Y-78319285D02*
X69345057Y-78271666D01*
X69249819Y-77938332D02*
X69249819Y-77319285D01*
X69249819Y-77319285D02*
X69630771Y-77652618D01*
X69630771Y-77652618D02*
X69630771Y-77509761D01*
X69630771Y-77509761D02*
X69678390Y-77414523D01*
X69678390Y-77414523D02*
X69726009Y-77366904D01*
X69726009Y-77366904D02*
X69821247Y-77319285D01*
X69821247Y-77319285D02*
X70059342Y-77319285D01*
X70059342Y-77319285D02*
X70154580Y-77366904D01*
X70154580Y-77366904D02*
X70202200Y-77414523D01*
X70202200Y-77414523D02*
X70249819Y-77509761D01*
X70249819Y-77509761D02*
X70249819Y-77795475D01*
X70249819Y-77795475D02*
X70202200Y-77890713D01*
X70202200Y-77890713D02*
X70154580Y-77938332D01*
X30313333Y-138311247D02*
X30265714Y-138358867D01*
X30265714Y-138358867D02*
X30122857Y-138406486D01*
X30122857Y-138406486D02*
X30027619Y-138406486D01*
X30027619Y-138406486D02*
X29884762Y-138358867D01*
X29884762Y-138358867D02*
X29789524Y-138263628D01*
X29789524Y-138263628D02*
X29741905Y-138168390D01*
X29741905Y-138168390D02*
X29694286Y-137977914D01*
X29694286Y-137977914D02*
X29694286Y-137835057D01*
X29694286Y-137835057D02*
X29741905Y-137644581D01*
X29741905Y-137644581D02*
X29789524Y-137549343D01*
X29789524Y-137549343D02*
X29884762Y-137454105D01*
X29884762Y-137454105D02*
X30027619Y-137406486D01*
X30027619Y-137406486D02*
X30122857Y-137406486D01*
X30122857Y-137406486D02*
X30265714Y-137454105D01*
X30265714Y-137454105D02*
X30313333Y-137501724D01*
X30884762Y-137835057D02*
X30789524Y-137787438D01*
X30789524Y-137787438D02*
X30741905Y-137739819D01*
X30741905Y-137739819D02*
X30694286Y-137644581D01*
X30694286Y-137644581D02*
X30694286Y-137596962D01*
X30694286Y-137596962D02*
X30741905Y-137501724D01*
X30741905Y-137501724D02*
X30789524Y-137454105D01*
X30789524Y-137454105D02*
X30884762Y-137406486D01*
X30884762Y-137406486D02*
X31075238Y-137406486D01*
X31075238Y-137406486D02*
X31170476Y-137454105D01*
X31170476Y-137454105D02*
X31218095Y-137501724D01*
X31218095Y-137501724D02*
X31265714Y-137596962D01*
X31265714Y-137596962D02*
X31265714Y-137644581D01*
X31265714Y-137644581D02*
X31218095Y-137739819D01*
X31218095Y-137739819D02*
X31170476Y-137787438D01*
X31170476Y-137787438D02*
X31075238Y-137835057D01*
X31075238Y-137835057D02*
X30884762Y-137835057D01*
X30884762Y-137835057D02*
X30789524Y-137882676D01*
X30789524Y-137882676D02*
X30741905Y-137930295D01*
X30741905Y-137930295D02*
X30694286Y-138025533D01*
X30694286Y-138025533D02*
X30694286Y-138216009D01*
X30694286Y-138216009D02*
X30741905Y-138311247D01*
X30741905Y-138311247D02*
X30789524Y-138358867D01*
X30789524Y-138358867D02*
X30884762Y-138406486D01*
X30884762Y-138406486D02*
X31075238Y-138406486D01*
X31075238Y-138406486D02*
X31170476Y-138358867D01*
X31170476Y-138358867D02*
X31218095Y-138311247D01*
X31218095Y-138311247D02*
X31265714Y-138216009D01*
X31265714Y-138216009D02*
X31265714Y-138025533D01*
X31265714Y-138025533D02*
X31218095Y-137930295D01*
X31218095Y-137930295D02*
X31170476Y-137882676D01*
X31170476Y-137882676D02*
X31075238Y-137835057D01*
X36187142Y-146579819D02*
X35853809Y-146103628D01*
X35615714Y-146579819D02*
X35615714Y-145579819D01*
X35615714Y-145579819D02*
X35996666Y-145579819D01*
X35996666Y-145579819D02*
X36091904Y-145627438D01*
X36091904Y-145627438D02*
X36139523Y-145675057D01*
X36139523Y-145675057D02*
X36187142Y-145770295D01*
X36187142Y-145770295D02*
X36187142Y-145913152D01*
X36187142Y-145913152D02*
X36139523Y-146008390D01*
X36139523Y-146008390D02*
X36091904Y-146056009D01*
X36091904Y-146056009D02*
X35996666Y-146103628D01*
X35996666Y-146103628D02*
X35615714Y-146103628D01*
X36568095Y-145675057D02*
X36615714Y-145627438D01*
X36615714Y-145627438D02*
X36710952Y-145579819D01*
X36710952Y-145579819D02*
X36949047Y-145579819D01*
X36949047Y-145579819D02*
X37044285Y-145627438D01*
X37044285Y-145627438D02*
X37091904Y-145675057D01*
X37091904Y-145675057D02*
X37139523Y-145770295D01*
X37139523Y-145770295D02*
X37139523Y-145865533D01*
X37139523Y-145865533D02*
X37091904Y-146008390D01*
X37091904Y-146008390D02*
X36520476Y-146579819D01*
X36520476Y-146579819D02*
X37139523Y-146579819D01*
X37472857Y-145579819D02*
X38091904Y-145579819D01*
X38091904Y-145579819D02*
X37758571Y-145960771D01*
X37758571Y-145960771D02*
X37901428Y-145960771D01*
X37901428Y-145960771D02*
X37996666Y-146008390D01*
X37996666Y-146008390D02*
X38044285Y-146056009D01*
X38044285Y-146056009D02*
X38091904Y-146151247D01*
X38091904Y-146151247D02*
X38091904Y-146389342D01*
X38091904Y-146389342D02*
X38044285Y-146484580D01*
X38044285Y-146484580D02*
X37996666Y-146532200D01*
X37996666Y-146532200D02*
X37901428Y-146579819D01*
X37901428Y-146579819D02*
X37615714Y-146579819D01*
X37615714Y-146579819D02*
X37520476Y-146532200D01*
X37520476Y-146532200D02*
X37472857Y-146484580D01*
X91786905Y-129494819D02*
X91786905Y-128494819D01*
X91786905Y-128494819D02*
X92025000Y-128494819D01*
X92025000Y-128494819D02*
X92167857Y-128542438D01*
X92167857Y-128542438D02*
X92263095Y-128637676D01*
X92263095Y-128637676D02*
X92310714Y-128732914D01*
X92310714Y-128732914D02*
X92358333Y-128923390D01*
X92358333Y-128923390D02*
X92358333Y-129066247D01*
X92358333Y-129066247D02*
X92310714Y-129256723D01*
X92310714Y-129256723D02*
X92263095Y-129351961D01*
X92263095Y-129351961D02*
X92167857Y-129447200D01*
X92167857Y-129447200D02*
X92025000Y-129494819D01*
X92025000Y-129494819D02*
X91786905Y-129494819D01*
X93215476Y-128494819D02*
X93025000Y-128494819D01*
X93025000Y-128494819D02*
X92929762Y-128542438D01*
X92929762Y-128542438D02*
X92882143Y-128590057D01*
X92882143Y-128590057D02*
X92786905Y-128732914D01*
X92786905Y-128732914D02*
X92739286Y-128923390D01*
X92739286Y-128923390D02*
X92739286Y-129304342D01*
X92739286Y-129304342D02*
X92786905Y-129399580D01*
X92786905Y-129399580D02*
X92834524Y-129447200D01*
X92834524Y-129447200D02*
X92929762Y-129494819D01*
X92929762Y-129494819D02*
X93120238Y-129494819D01*
X93120238Y-129494819D02*
X93215476Y-129447200D01*
X93215476Y-129447200D02*
X93263095Y-129399580D01*
X93263095Y-129399580D02*
X93310714Y-129304342D01*
X93310714Y-129304342D02*
X93310714Y-129066247D01*
X93310714Y-129066247D02*
X93263095Y-128971009D01*
X93263095Y-128971009D02*
X93215476Y-128923390D01*
X93215476Y-128923390D02*
X93120238Y-128875771D01*
X93120238Y-128875771D02*
X92929762Y-128875771D01*
X92929762Y-128875771D02*
X92834524Y-128923390D01*
X92834524Y-128923390D02*
X92786905Y-128971009D01*
X92786905Y-128971009D02*
X92739286Y-129066247D01*
X35552142Y-78634819D02*
X35218809Y-78158628D01*
X34980714Y-78634819D02*
X34980714Y-77634819D01*
X34980714Y-77634819D02*
X35361666Y-77634819D01*
X35361666Y-77634819D02*
X35456904Y-77682438D01*
X35456904Y-77682438D02*
X35504523Y-77730057D01*
X35504523Y-77730057D02*
X35552142Y-77825295D01*
X35552142Y-77825295D02*
X35552142Y-77968152D01*
X35552142Y-77968152D02*
X35504523Y-78063390D01*
X35504523Y-78063390D02*
X35456904Y-78111009D01*
X35456904Y-78111009D02*
X35361666Y-78158628D01*
X35361666Y-78158628D02*
X34980714Y-78158628D01*
X36504523Y-78634819D02*
X35933095Y-78634819D01*
X36218809Y-78634819D02*
X36218809Y-77634819D01*
X36218809Y-77634819D02*
X36123571Y-77777676D01*
X36123571Y-77777676D02*
X36028333Y-77872914D01*
X36028333Y-77872914D02*
X35933095Y-77920533D01*
X36980714Y-78634819D02*
X37171190Y-78634819D01*
X37171190Y-78634819D02*
X37266428Y-78587200D01*
X37266428Y-78587200D02*
X37314047Y-78539580D01*
X37314047Y-78539580D02*
X37409285Y-78396723D01*
X37409285Y-78396723D02*
X37456904Y-78206247D01*
X37456904Y-78206247D02*
X37456904Y-77825295D01*
X37456904Y-77825295D02*
X37409285Y-77730057D01*
X37409285Y-77730057D02*
X37361666Y-77682438D01*
X37361666Y-77682438D02*
X37266428Y-77634819D01*
X37266428Y-77634819D02*
X37075952Y-77634819D01*
X37075952Y-77634819D02*
X36980714Y-77682438D01*
X36980714Y-77682438D02*
X36933095Y-77730057D01*
X36933095Y-77730057D02*
X36885476Y-77825295D01*
X36885476Y-77825295D02*
X36885476Y-78063390D01*
X36885476Y-78063390D02*
X36933095Y-78158628D01*
X36933095Y-78158628D02*
X36980714Y-78206247D01*
X36980714Y-78206247D02*
X37075952Y-78253866D01*
X37075952Y-78253866D02*
X37266428Y-78253866D01*
X37266428Y-78253866D02*
X37361666Y-78206247D01*
X37361666Y-78206247D02*
X37409285Y-78158628D01*
X37409285Y-78158628D02*
X37456904Y-78063390D01*
X96881905Y-141894819D02*
X96881905Y-140894819D01*
X96881905Y-140894819D02*
X97120000Y-140894819D01*
X97120000Y-140894819D02*
X97262857Y-140942438D01*
X97262857Y-140942438D02*
X97358095Y-141037676D01*
X97358095Y-141037676D02*
X97405714Y-141132914D01*
X97405714Y-141132914D02*
X97453333Y-141323390D01*
X97453333Y-141323390D02*
X97453333Y-141466247D01*
X97453333Y-141466247D02*
X97405714Y-141656723D01*
X97405714Y-141656723D02*
X97358095Y-141751961D01*
X97358095Y-141751961D02*
X97262857Y-141847200D01*
X97262857Y-141847200D02*
X97120000Y-141894819D01*
X97120000Y-141894819D02*
X96881905Y-141894819D01*
X98358095Y-140894819D02*
X97881905Y-140894819D01*
X97881905Y-140894819D02*
X97834286Y-141371009D01*
X97834286Y-141371009D02*
X97881905Y-141323390D01*
X97881905Y-141323390D02*
X97977143Y-141275771D01*
X97977143Y-141275771D02*
X98215238Y-141275771D01*
X98215238Y-141275771D02*
X98310476Y-141323390D01*
X98310476Y-141323390D02*
X98358095Y-141371009D01*
X98358095Y-141371009D02*
X98405714Y-141466247D01*
X98405714Y-141466247D02*
X98405714Y-141704342D01*
X98405714Y-141704342D02*
X98358095Y-141799580D01*
X98358095Y-141799580D02*
X98310476Y-141847200D01*
X98310476Y-141847200D02*
X98215238Y-141894819D01*
X98215238Y-141894819D02*
X97977143Y-141894819D01*
X97977143Y-141894819D02*
X97881905Y-141847200D01*
X97881905Y-141847200D02*
X97834286Y-141799580D01*
X86193333Y-157259580D02*
X86145714Y-157307200D01*
X86145714Y-157307200D02*
X86002857Y-157354819D01*
X86002857Y-157354819D02*
X85907619Y-157354819D01*
X85907619Y-157354819D02*
X85764762Y-157307200D01*
X85764762Y-157307200D02*
X85669524Y-157211961D01*
X85669524Y-157211961D02*
X85621905Y-157116723D01*
X85621905Y-157116723D02*
X85574286Y-156926247D01*
X85574286Y-156926247D02*
X85574286Y-156783390D01*
X85574286Y-156783390D02*
X85621905Y-156592914D01*
X85621905Y-156592914D02*
X85669524Y-156497676D01*
X85669524Y-156497676D02*
X85764762Y-156402438D01*
X85764762Y-156402438D02*
X85907619Y-156354819D01*
X85907619Y-156354819D02*
X86002857Y-156354819D01*
X86002857Y-156354819D02*
X86145714Y-156402438D01*
X86145714Y-156402438D02*
X86193333Y-156450057D01*
X87050476Y-156688152D02*
X87050476Y-157354819D01*
X86812381Y-156307200D02*
X86574286Y-157021485D01*
X86574286Y-157021485D02*
X87193333Y-157021485D01*
X44166667Y-125157200D02*
X44309524Y-125204819D01*
X44309524Y-125204819D02*
X44547619Y-125204819D01*
X44547619Y-125204819D02*
X44642857Y-125157200D01*
X44642857Y-125157200D02*
X44690476Y-125109580D01*
X44690476Y-125109580D02*
X44738095Y-125014342D01*
X44738095Y-125014342D02*
X44738095Y-124919104D01*
X44738095Y-124919104D02*
X44690476Y-124823866D01*
X44690476Y-124823866D02*
X44642857Y-124776247D01*
X44642857Y-124776247D02*
X44547619Y-124728628D01*
X44547619Y-124728628D02*
X44357143Y-124681009D01*
X44357143Y-124681009D02*
X44261905Y-124633390D01*
X44261905Y-124633390D02*
X44214286Y-124585771D01*
X44214286Y-124585771D02*
X44166667Y-124490533D01*
X44166667Y-124490533D02*
X44166667Y-124395295D01*
X44166667Y-124395295D02*
X44214286Y-124300057D01*
X44214286Y-124300057D02*
X44261905Y-124252438D01*
X44261905Y-124252438D02*
X44357143Y-124204819D01*
X44357143Y-124204819D02*
X44595238Y-124204819D01*
X44595238Y-124204819D02*
X44738095Y-124252438D01*
X45071429Y-124204819D02*
X45309524Y-125204819D01*
X45309524Y-125204819D02*
X45500000Y-124490533D01*
X45500000Y-124490533D02*
X45690476Y-125204819D01*
X45690476Y-125204819D02*
X45928572Y-124204819D01*
X46261905Y-124300057D02*
X46309524Y-124252438D01*
X46309524Y-124252438D02*
X46404762Y-124204819D01*
X46404762Y-124204819D02*
X46642857Y-124204819D01*
X46642857Y-124204819D02*
X46738095Y-124252438D01*
X46738095Y-124252438D02*
X46785714Y-124300057D01*
X46785714Y-124300057D02*
X46833333Y-124395295D01*
X46833333Y-124395295D02*
X46833333Y-124490533D01*
X46833333Y-124490533D02*
X46785714Y-124633390D01*
X46785714Y-124633390D02*
X46214286Y-125204819D01*
X46214286Y-125204819D02*
X46833333Y-125204819D01*
X56507142Y-168579580D02*
X56459523Y-168627200D01*
X56459523Y-168627200D02*
X56316666Y-168674819D01*
X56316666Y-168674819D02*
X56221428Y-168674819D01*
X56221428Y-168674819D02*
X56078571Y-168627200D01*
X56078571Y-168627200D02*
X55983333Y-168531961D01*
X55983333Y-168531961D02*
X55935714Y-168436723D01*
X55935714Y-168436723D02*
X55888095Y-168246247D01*
X55888095Y-168246247D02*
X55888095Y-168103390D01*
X55888095Y-168103390D02*
X55935714Y-167912914D01*
X55935714Y-167912914D02*
X55983333Y-167817676D01*
X55983333Y-167817676D02*
X56078571Y-167722438D01*
X56078571Y-167722438D02*
X56221428Y-167674819D01*
X56221428Y-167674819D02*
X56316666Y-167674819D01*
X56316666Y-167674819D02*
X56459523Y-167722438D01*
X56459523Y-167722438D02*
X56507142Y-167770057D01*
X57459523Y-168674819D02*
X56888095Y-168674819D01*
X57173809Y-168674819D02*
X57173809Y-167674819D01*
X57173809Y-167674819D02*
X57078571Y-167817676D01*
X57078571Y-167817676D02*
X56983333Y-167912914D01*
X56983333Y-167912914D02*
X56888095Y-167960533D01*
X58411904Y-168674819D02*
X57840476Y-168674819D01*
X58126190Y-168674819D02*
X58126190Y-167674819D01*
X58126190Y-167674819D02*
X58030952Y-167817676D01*
X58030952Y-167817676D02*
X57935714Y-167912914D01*
X57935714Y-167912914D02*
X57840476Y-167960533D01*
X35552142Y-67839819D02*
X35218809Y-67363628D01*
X34980714Y-67839819D02*
X34980714Y-66839819D01*
X34980714Y-66839819D02*
X35361666Y-66839819D01*
X35361666Y-66839819D02*
X35456904Y-66887438D01*
X35456904Y-66887438D02*
X35504523Y-66935057D01*
X35504523Y-66935057D02*
X35552142Y-67030295D01*
X35552142Y-67030295D02*
X35552142Y-67173152D01*
X35552142Y-67173152D02*
X35504523Y-67268390D01*
X35504523Y-67268390D02*
X35456904Y-67316009D01*
X35456904Y-67316009D02*
X35361666Y-67363628D01*
X35361666Y-67363628D02*
X34980714Y-67363628D01*
X35933095Y-66935057D02*
X35980714Y-66887438D01*
X35980714Y-66887438D02*
X36075952Y-66839819D01*
X36075952Y-66839819D02*
X36314047Y-66839819D01*
X36314047Y-66839819D02*
X36409285Y-66887438D01*
X36409285Y-66887438D02*
X36456904Y-66935057D01*
X36456904Y-66935057D02*
X36504523Y-67030295D01*
X36504523Y-67030295D02*
X36504523Y-67125533D01*
X36504523Y-67125533D02*
X36456904Y-67268390D01*
X36456904Y-67268390D02*
X35885476Y-67839819D01*
X35885476Y-67839819D02*
X36504523Y-67839819D01*
X37456904Y-67839819D02*
X36885476Y-67839819D01*
X37171190Y-67839819D02*
X37171190Y-66839819D01*
X37171190Y-66839819D02*
X37075952Y-66982676D01*
X37075952Y-66982676D02*
X36980714Y-67077914D01*
X36980714Y-67077914D02*
X36885476Y-67125533D01*
X85717142Y-144524819D02*
X85383809Y-144048628D01*
X85145714Y-144524819D02*
X85145714Y-143524819D01*
X85145714Y-143524819D02*
X85526666Y-143524819D01*
X85526666Y-143524819D02*
X85621904Y-143572438D01*
X85621904Y-143572438D02*
X85669523Y-143620057D01*
X85669523Y-143620057D02*
X85717142Y-143715295D01*
X85717142Y-143715295D02*
X85717142Y-143858152D01*
X85717142Y-143858152D02*
X85669523Y-143953390D01*
X85669523Y-143953390D02*
X85621904Y-144001009D01*
X85621904Y-144001009D02*
X85526666Y-144048628D01*
X85526666Y-144048628D02*
X85145714Y-144048628D01*
X86669523Y-144524819D02*
X86098095Y-144524819D01*
X86383809Y-144524819D02*
X86383809Y-143524819D01*
X86383809Y-143524819D02*
X86288571Y-143667676D01*
X86288571Y-143667676D02*
X86193333Y-143762914D01*
X86193333Y-143762914D02*
X86098095Y-143810533D01*
X87574285Y-143524819D02*
X87098095Y-143524819D01*
X87098095Y-143524819D02*
X87050476Y-144001009D01*
X87050476Y-144001009D02*
X87098095Y-143953390D01*
X87098095Y-143953390D02*
X87193333Y-143905771D01*
X87193333Y-143905771D02*
X87431428Y-143905771D01*
X87431428Y-143905771D02*
X87526666Y-143953390D01*
X87526666Y-143953390D02*
X87574285Y-144001009D01*
X87574285Y-144001009D02*
X87621904Y-144096247D01*
X87621904Y-144096247D02*
X87621904Y-144334342D01*
X87621904Y-144334342D02*
X87574285Y-144429580D01*
X87574285Y-144429580D02*
X87526666Y-144477200D01*
X87526666Y-144477200D02*
X87431428Y-144524819D01*
X87431428Y-144524819D02*
X87193333Y-144524819D01*
X87193333Y-144524819D02*
X87098095Y-144477200D01*
X87098095Y-144477200D02*
X87050476Y-144429580D01*
X88257142Y-109749819D02*
X87923809Y-109273628D01*
X87685714Y-109749819D02*
X87685714Y-108749819D01*
X87685714Y-108749819D02*
X88066666Y-108749819D01*
X88066666Y-108749819D02*
X88161904Y-108797438D01*
X88161904Y-108797438D02*
X88209523Y-108845057D01*
X88209523Y-108845057D02*
X88257142Y-108940295D01*
X88257142Y-108940295D02*
X88257142Y-109083152D01*
X88257142Y-109083152D02*
X88209523Y-109178390D01*
X88209523Y-109178390D02*
X88161904Y-109226009D01*
X88161904Y-109226009D02*
X88066666Y-109273628D01*
X88066666Y-109273628D02*
X87685714Y-109273628D01*
X88638095Y-108845057D02*
X88685714Y-108797438D01*
X88685714Y-108797438D02*
X88780952Y-108749819D01*
X88780952Y-108749819D02*
X89019047Y-108749819D01*
X89019047Y-108749819D02*
X89114285Y-108797438D01*
X89114285Y-108797438D02*
X89161904Y-108845057D01*
X89161904Y-108845057D02*
X89209523Y-108940295D01*
X89209523Y-108940295D02*
X89209523Y-109035533D01*
X89209523Y-109035533D02*
X89161904Y-109178390D01*
X89161904Y-109178390D02*
X88590476Y-109749819D01*
X88590476Y-109749819D02*
X89209523Y-109749819D01*
X89685714Y-109749819D02*
X89876190Y-109749819D01*
X89876190Y-109749819D02*
X89971428Y-109702200D01*
X89971428Y-109702200D02*
X90019047Y-109654580D01*
X90019047Y-109654580D02*
X90114285Y-109511723D01*
X90114285Y-109511723D02*
X90161904Y-109321247D01*
X90161904Y-109321247D02*
X90161904Y-108940295D01*
X90161904Y-108940295D02*
X90114285Y-108845057D01*
X90114285Y-108845057D02*
X90066666Y-108797438D01*
X90066666Y-108797438D02*
X89971428Y-108749819D01*
X89971428Y-108749819D02*
X89780952Y-108749819D01*
X89780952Y-108749819D02*
X89685714Y-108797438D01*
X89685714Y-108797438D02*
X89638095Y-108845057D01*
X89638095Y-108845057D02*
X89590476Y-108940295D01*
X89590476Y-108940295D02*
X89590476Y-109178390D01*
X89590476Y-109178390D02*
X89638095Y-109273628D01*
X89638095Y-109273628D02*
X89685714Y-109321247D01*
X89685714Y-109321247D02*
X89780952Y-109368866D01*
X89780952Y-109368866D02*
X89971428Y-109368866D01*
X89971428Y-109368866D02*
X90066666Y-109321247D01*
X90066666Y-109321247D02*
X90114285Y-109273628D01*
X90114285Y-109273628D02*
X90161904Y-109178390D01*
X76073095Y-160744819D02*
X76073095Y-161554342D01*
X76073095Y-161554342D02*
X76120714Y-161649580D01*
X76120714Y-161649580D02*
X76168333Y-161697200D01*
X76168333Y-161697200D02*
X76263571Y-161744819D01*
X76263571Y-161744819D02*
X76454047Y-161744819D01*
X76454047Y-161744819D02*
X76549285Y-161697200D01*
X76549285Y-161697200D02*
X76596904Y-161649580D01*
X76596904Y-161649580D02*
X76644523Y-161554342D01*
X76644523Y-161554342D02*
X76644523Y-160744819D01*
X77025476Y-160744819D02*
X77644523Y-160744819D01*
X77644523Y-160744819D02*
X77311190Y-161125771D01*
X77311190Y-161125771D02*
X77454047Y-161125771D01*
X77454047Y-161125771D02*
X77549285Y-161173390D01*
X77549285Y-161173390D02*
X77596904Y-161221009D01*
X77596904Y-161221009D02*
X77644523Y-161316247D01*
X77644523Y-161316247D02*
X77644523Y-161554342D01*
X77644523Y-161554342D02*
X77596904Y-161649580D01*
X77596904Y-161649580D02*
X77549285Y-161697200D01*
X77549285Y-161697200D02*
X77454047Y-161744819D01*
X77454047Y-161744819D02*
X77168333Y-161744819D01*
X77168333Y-161744819D02*
X77073095Y-161697200D01*
X77073095Y-161697200D02*
X77025476Y-161649580D01*
X78666667Y-35407200D02*
X78809524Y-35454819D01*
X78809524Y-35454819D02*
X79047619Y-35454819D01*
X79047619Y-35454819D02*
X79142857Y-35407200D01*
X79142857Y-35407200D02*
X79190476Y-35359580D01*
X79190476Y-35359580D02*
X79238095Y-35264342D01*
X79238095Y-35264342D02*
X79238095Y-35169104D01*
X79238095Y-35169104D02*
X79190476Y-35073866D01*
X79190476Y-35073866D02*
X79142857Y-35026247D01*
X79142857Y-35026247D02*
X79047619Y-34978628D01*
X79047619Y-34978628D02*
X78857143Y-34931009D01*
X78857143Y-34931009D02*
X78761905Y-34883390D01*
X78761905Y-34883390D02*
X78714286Y-34835771D01*
X78714286Y-34835771D02*
X78666667Y-34740533D01*
X78666667Y-34740533D02*
X78666667Y-34645295D01*
X78666667Y-34645295D02*
X78714286Y-34550057D01*
X78714286Y-34550057D02*
X78761905Y-34502438D01*
X78761905Y-34502438D02*
X78857143Y-34454819D01*
X78857143Y-34454819D02*
X79095238Y-34454819D01*
X79095238Y-34454819D02*
X79238095Y-34502438D01*
X79571429Y-34454819D02*
X79809524Y-35454819D01*
X79809524Y-35454819D02*
X80000000Y-34740533D01*
X80000000Y-34740533D02*
X80190476Y-35454819D01*
X80190476Y-35454819D02*
X80428572Y-34454819D01*
X80714286Y-34454819D02*
X81380952Y-34454819D01*
X81380952Y-34454819D02*
X80952381Y-35454819D01*
X85238333Y-134044819D02*
X84905000Y-133568628D01*
X84666905Y-134044819D02*
X84666905Y-133044819D01*
X84666905Y-133044819D02*
X85047857Y-133044819D01*
X85047857Y-133044819D02*
X85143095Y-133092438D01*
X85143095Y-133092438D02*
X85190714Y-133140057D01*
X85190714Y-133140057D02*
X85238333Y-133235295D01*
X85238333Y-133235295D02*
X85238333Y-133378152D01*
X85238333Y-133378152D02*
X85190714Y-133473390D01*
X85190714Y-133473390D02*
X85143095Y-133521009D01*
X85143095Y-133521009D02*
X85047857Y-133568628D01*
X85047857Y-133568628D02*
X84666905Y-133568628D01*
X86095476Y-133044819D02*
X85905000Y-133044819D01*
X85905000Y-133044819D02*
X85809762Y-133092438D01*
X85809762Y-133092438D02*
X85762143Y-133140057D01*
X85762143Y-133140057D02*
X85666905Y-133282914D01*
X85666905Y-133282914D02*
X85619286Y-133473390D01*
X85619286Y-133473390D02*
X85619286Y-133854342D01*
X85619286Y-133854342D02*
X85666905Y-133949580D01*
X85666905Y-133949580D02*
X85714524Y-133997200D01*
X85714524Y-133997200D02*
X85809762Y-134044819D01*
X85809762Y-134044819D02*
X86000238Y-134044819D01*
X86000238Y-134044819D02*
X86095476Y-133997200D01*
X86095476Y-133997200D02*
X86143095Y-133949580D01*
X86143095Y-133949580D02*
X86190714Y-133854342D01*
X86190714Y-133854342D02*
X86190714Y-133616247D01*
X86190714Y-133616247D02*
X86143095Y-133521009D01*
X86143095Y-133521009D02*
X86095476Y-133473390D01*
X86095476Y-133473390D02*
X86000238Y-133425771D01*
X86000238Y-133425771D02*
X85809762Y-133425771D01*
X85809762Y-133425771D02*
X85714524Y-133473390D01*
X85714524Y-133473390D02*
X85666905Y-133521009D01*
X85666905Y-133521009D02*
X85619286Y-133616247D01*
D11*
%TO.C,C10*%
X99618748Y-105135000D02*
X101041252Y-105135000D01*
X99618748Y-106955000D02*
X101041252Y-106955000D01*
D12*
%TO.C,SW8*%
X96875800Y-31875800D02*
X96875800Y-38124200D01*
X96875800Y-38124200D02*
X97362358Y-38124200D01*
X97362358Y-31875800D02*
X96875800Y-31875800D01*
X98637640Y-38124200D02*
X99362359Y-38124200D01*
X99362359Y-31875800D02*
X98637640Y-31875800D01*
X100637641Y-38124200D02*
X101362360Y-38124200D01*
X101362360Y-31875800D02*
X100637641Y-31875800D01*
X102637642Y-38124200D02*
X103124200Y-38124200D01*
X103124200Y-31875800D02*
X102637642Y-31875800D01*
X103124200Y-38124200D02*
X103124200Y-31875800D01*
D13*
X95478800Y-32749999D02*
G75*
G02*
X94716800Y-32749999I-381000J0D01*
G01*
X94716800Y-32749999D02*
G75*
G02*
X95478800Y-32749999I381000J0D01*
G01*
D11*
%TO.C,C5*%
X84378748Y-181335000D02*
X85801252Y-181335000D01*
X84378748Y-183155000D02*
X85801252Y-183155000D01*
%TO.C,D13*%
X94270000Y-164020000D02*
X94270000Y-163864000D01*
X94270000Y-166336000D02*
X94270000Y-166180000D01*
X91038563Y-164020000D02*
G75*
G02*
X94270000Y-163864484I1671437J-1080000D01*
G01*
X91669039Y-164020000D02*
G75*
G02*
X93750961Y-164020000I1040961J-1080000D01*
G01*
X93750961Y-166180000D02*
G75*
G02*
X91669039Y-166180000I-1040961J1080000D01*
G01*
X94270000Y-166335516D02*
G75*
G02*
X91038563Y-166180000I-1560000J1235516D01*
G01*
%TO.C,R10*%
X121057064Y-130850000D02*
X119602936Y-130850000D01*
X121057064Y-132670000D02*
X119602936Y-132670000D01*
%TO.C,Q3*%
X61285000Y-111000000D02*
X62215000Y-111000000D01*
X61285000Y-111800000D02*
X61285000Y-111000000D01*
X61285000Y-111800000D02*
X61285000Y-112600000D01*
X64445000Y-111000000D02*
X63515000Y-111000000D01*
X64445000Y-111000000D02*
X64445000Y-112460000D01*
X61255000Y-113100000D02*
X60925000Y-113340000D01*
X60925000Y-112860000D01*
X61255000Y-113100000D01*
G36*
X61255000Y-113100000D02*
G01*
X60925000Y-113340000D01*
X60925000Y-112860000D01*
X61255000Y-113100000D01*
G37*
%TO.C,R20*%
X35467936Y-74020000D02*
X36922064Y-74020000D01*
X35467936Y-75840000D02*
X36922064Y-75840000D01*
D12*
%TO.C,J1*%
X45971500Y-23117599D02*
X45971500Y-36884399D01*
X45971500Y-36884399D02*
X53718500Y-36884399D01*
X46212800Y-18113799D02*
X46212800Y-23371599D01*
X46212800Y-23371599D02*
X48688876Y-23371599D01*
X51001124Y-23371599D02*
X53477200Y-23371599D01*
X53477200Y-18113799D02*
X46212800Y-18113799D01*
X53477200Y-23371599D02*
X53477200Y-18113799D01*
X53718500Y-23117599D02*
X45971500Y-23117599D01*
X53718500Y-36884399D02*
X53718500Y-23117599D01*
%TO.C,SW6*%
X56875800Y-31875800D02*
X56875800Y-38124200D01*
X56875800Y-38124200D02*
X57362358Y-38124200D01*
X57362358Y-31875800D02*
X56875800Y-31875800D01*
X58637640Y-38124200D02*
X59362359Y-38124200D01*
X59362359Y-31875800D02*
X58637640Y-31875800D01*
X60637641Y-38124200D02*
X61362360Y-38124200D01*
X61362360Y-31875800D02*
X60637641Y-31875800D01*
X62637642Y-38124200D02*
X63124200Y-38124200D01*
X63124200Y-31875800D02*
X62637642Y-31875800D01*
X63124200Y-38124200D02*
X63124200Y-31875800D01*
D13*
X55478800Y-32749999D02*
G75*
G02*
X54716800Y-32749999I-381000J0D01*
G01*
X54716800Y-32749999D02*
G75*
G02*
X55478800Y-32749999I381000J0D01*
G01*
D11*
%TO.C,R14*%
X85632936Y-164190000D02*
X87087064Y-164190000D01*
X85632936Y-166010000D02*
X87087064Y-166010000D01*
%TO.C,R9*%
X115784564Y-118785000D02*
X114330436Y-118785000D01*
X115784564Y-120605000D02*
X114330436Y-120605000D01*
%TO.C,R24*%
X36102936Y-129265000D02*
X37557064Y-129265000D01*
X36102936Y-131085000D02*
X37557064Y-131085000D01*
%TO.C,C1*%
X92633748Y-94340000D02*
X94056252Y-94340000D01*
X92633748Y-96160000D02*
X94056252Y-96160000D01*
%TO.C,R16*%
X87087064Y-147045000D02*
X85632936Y-147045000D01*
X87087064Y-148865000D02*
X85632936Y-148865000D01*
%TO.C,BZ1*%
X49925000Y-99695000D02*
G75*
G02*
X37725000Y-99695000I-6100000J0D01*
G01*
X37725000Y-99695000D02*
G75*
G02*
X49925000Y-99695000I6100000J0D01*
G01*
%TO.C,C2*%
X66400000Y-112471252D02*
X66400000Y-111048748D01*
X68220000Y-112471252D02*
X68220000Y-111048748D01*
%TO.C,R12*%
X87537936Y-94340000D02*
X88992064Y-94340000D01*
X87537936Y-96160000D02*
X88992064Y-96160000D01*
D12*
%TO.C,J3*%
X84912200Y-18113799D02*
X84912200Y-32871199D01*
X84912200Y-32871199D02*
X94157800Y-32871199D01*
X94157800Y-18113799D02*
X84912200Y-18113799D01*
X94157800Y-32871199D02*
X94157800Y-18113799D01*
D13*
X84658200Y-31944201D02*
G75*
G02*
X83896200Y-31944201I-381000J0D01*
G01*
X83896200Y-31944201D02*
G75*
G02*
X84658200Y-31944201I381000J0D01*
G01*
D11*
%TO.C,SW11*%
X60635000Y-147840000D02*
X60635000Y-149340000D01*
X61885000Y-151840000D02*
X66385000Y-151840000D01*
X66385000Y-145340000D02*
X61885000Y-145340000D01*
X67635000Y-149340000D02*
X67635000Y-147840000D01*
D14*
%TO.C,U4*%
X73670000Y-87450000D02*
X81270000Y-87450000D01*
X73670000Y-103050000D02*
X81270000Y-103050000D01*
D15*
X70865000Y-87675000D02*
G75*
G02*
X70665000Y-87675000I-100000J0D01*
G01*
X70665000Y-87675000D02*
G75*
G02*
X70865000Y-87675000I100000J0D01*
G01*
D11*
%TO.C,R2*%
X37557064Y-115295000D02*
X36102936Y-115295000D01*
X37557064Y-117115000D02*
X36102936Y-117115000D01*
%TO.C,SW1*%
X43190000Y-65690000D02*
X47800000Y-65690000D01*
X43190000Y-68450000D02*
X43190000Y-65690000D01*
X43190000Y-70550000D02*
X43190000Y-71150000D01*
X43190000Y-72850000D02*
X43190000Y-73650000D01*
X43190000Y-75350000D02*
X43190000Y-78310000D01*
X47800000Y-78310000D02*
X43190000Y-78310000D01*
X52200000Y-65700000D02*
X56810000Y-65700000D01*
X56810000Y-65700000D02*
X56810000Y-78310000D01*
X56810000Y-78310000D02*
X52200000Y-78310000D01*
%TO.C,R30*%
X65312936Y-118470000D02*
X66767064Y-118470000D01*
X65312936Y-120290000D02*
X66767064Y-120290000D01*
D12*
%TO.C,SW10*%
X106875800Y-188875800D02*
X106875800Y-195124200D01*
X106875800Y-195124200D02*
X107362358Y-195124200D01*
X107362358Y-188875800D02*
X106875800Y-188875800D01*
X108637640Y-195124200D02*
X109362359Y-195124200D01*
X109362359Y-188875800D02*
X108637640Y-188875800D01*
X110637641Y-195124200D02*
X111362360Y-195124200D01*
X111362360Y-188875800D02*
X110637641Y-188875800D01*
X112637642Y-195124200D02*
X113124200Y-195124200D01*
X113124200Y-188875800D02*
X112637642Y-188875800D01*
X113124200Y-195124200D02*
X113124200Y-188875800D01*
D13*
X105478800Y-189749999D02*
G75*
G02*
X104716800Y-189749999I-381000J0D01*
G01*
X104716800Y-189749999D02*
G75*
G02*
X105478800Y-189749999I381000J0D01*
G01*
D11*
%TO.C,D9*%
X120825000Y-118464000D02*
X120825000Y-118620000D01*
X120825000Y-120780000D02*
X120825000Y-120936000D01*
X120825000Y-118464484D02*
G75*
G02*
X124056437Y-118620000I1560000J-1235516D01*
G01*
X121344039Y-118620000D02*
G75*
G02*
X123425961Y-118620000I1040961J-1080000D01*
G01*
X123425961Y-120780000D02*
G75*
G02*
X121344039Y-120780000I-1040961J1080000D01*
G01*
X124056437Y-120780000D02*
G75*
G02*
X120825000Y-120935516I-1671437J1080000D01*
G01*
%TO.C,D11*%
X120860000Y-143164000D02*
X120860000Y-143320000D01*
X120860000Y-145480000D02*
X120860000Y-145636000D01*
X120860000Y-143164484D02*
G75*
G02*
X124091437Y-143320000I1560000J-1235516D01*
G01*
X121379039Y-143320000D02*
G75*
G02*
X123460961Y-143320000I1040961J-1080000D01*
G01*
X123460961Y-145480000D02*
G75*
G02*
X121379039Y-145480000I-1040961J1080000D01*
G01*
X124091437Y-145480000D02*
G75*
G02*
X120860000Y-145635516I-1671437J1080000D01*
G01*
%TO.C,R27*%
X95342064Y-110215000D02*
X93887936Y-110215000D01*
X95342064Y-112035000D02*
X93887936Y-112035000D01*
%TO.C,R5*%
X92802064Y-141330000D02*
X91347936Y-141330000D01*
X92802064Y-143150000D02*
X91347936Y-143150000D01*
%TO.C,R4*%
X57242064Y-121010000D02*
X55787936Y-121010000D01*
X57242064Y-122830000D02*
X55787936Y-122830000D01*
%TO.C,R11*%
X115342064Y-143550000D02*
X113887936Y-143550000D01*
X115342064Y-145370000D02*
X113887936Y-145370000D01*
%TO.C,R17*%
X53882936Y-102270000D02*
X55337064Y-102270000D01*
X53882936Y-104090000D02*
X55337064Y-104090000D01*
D12*
%TO.C,J5*%
X65976500Y-23117599D02*
X65976500Y-36884399D01*
X65976500Y-36884399D02*
X73723500Y-36884399D01*
X66217800Y-18113799D02*
X66217800Y-23371599D01*
X66217800Y-23371599D02*
X68693876Y-23371599D01*
X71006124Y-23371599D02*
X73482200Y-23371599D01*
X73482200Y-18113799D02*
X66217800Y-18113799D01*
X73482200Y-23371599D02*
X73482200Y-18113799D01*
X73723500Y-23117599D02*
X65976500Y-23117599D01*
X73723500Y-36884399D02*
X73723500Y-23117599D01*
D11*
%TO.C,U1*%
X73610000Y-65870000D02*
X81330000Y-65870000D01*
X73610000Y-66115000D02*
X73610000Y-65870000D01*
X73610000Y-83990000D02*
X73610000Y-83745000D01*
X81330000Y-65870000D02*
X81330000Y-66115000D01*
X81330000Y-83745000D02*
X81330000Y-83990000D01*
X81330000Y-83990000D02*
X73610000Y-83990000D01*
X72820000Y-66110000D02*
X72480000Y-65640000D01*
X73160000Y-65640000D01*
X72820000Y-66110000D01*
G36*
X72820000Y-66110000D02*
G01*
X72480000Y-65640000D01*
X73160000Y-65640000D01*
X72820000Y-66110000D01*
G37*
%TO.C,D10*%
X125955000Y-130764000D02*
X125955000Y-130920000D01*
X125955000Y-133080000D02*
X125955000Y-133236000D01*
X125955000Y-130764484D02*
G75*
G02*
X129186437Y-130920000I1560000J-1235516D01*
G01*
X126474039Y-130920000D02*
G75*
G02*
X128555961Y-130920000I1040961J-1080000D01*
G01*
X128555961Y-133080000D02*
G75*
G02*
X126474039Y-133080000I-1040961J1080000D01*
G01*
X129186437Y-133080000D02*
G75*
G02*
X125955000Y-133235516I-1671437J1080000D01*
G01*
%TO.C,R25*%
X36102936Y-141118333D02*
X37557064Y-141118333D01*
X36102936Y-142938333D02*
X37557064Y-142938333D01*
%TO.C,D4*%
X64610000Y-124164000D02*
X64610000Y-124320000D01*
X64610000Y-126480000D02*
X64610000Y-126636000D01*
X64610000Y-124164484D02*
G75*
G02*
X67841437Y-124320000I1560000J-1235516D01*
G01*
X65129039Y-124320000D02*
G75*
G02*
X67210961Y-124320000I1040961J-1080000D01*
G01*
X67210961Y-126480000D02*
G75*
G02*
X65129039Y-126480000I-1040961J1080000D01*
G01*
X67841437Y-126480000D02*
G75*
G02*
X64610000Y-126635516I-1671437J1080000D01*
G01*
%TO.C,R1*%
X31207064Y-129265000D02*
X29752936Y-129265000D01*
X31207064Y-131085000D02*
X29752936Y-131085000D01*
%TO.C,R8*%
X104232064Y-116565000D02*
X102777936Y-116565000D01*
X104232064Y-118385000D02*
X102777936Y-118385000D01*
%TO.C,Y2*%
X62970000Y-166930000D02*
X62970000Y-160530000D01*
X67840000Y-160530000D02*
X67840000Y-166930000D01*
X62970000Y-160530000D02*
G75*
G02*
X67840000Y-160530000I2435000J0D01*
G01*
X67840000Y-166930000D02*
G75*
G02*
X62970000Y-166930000I-2435000J0D01*
G01*
%TO.C,D12*%
X65225000Y-104410000D02*
X61215000Y-104410000D01*
X65225000Y-106410000D02*
X61215000Y-106410000D01*
X65225000Y-106410000D02*
X65225000Y-104410000D01*
%TO.C,R18*%
X35467936Y-62590000D02*
X36922064Y-62590000D01*
X35467936Y-64410000D02*
X36922064Y-64410000D01*
%TO.C,J2*%
X46930000Y-149860000D02*
X46930000Y-160080000D01*
X46930000Y-149860000D02*
X49590000Y-149860000D01*
X46930000Y-160080000D02*
X49590000Y-160080000D01*
X48260000Y-147260000D02*
X49590000Y-147260000D01*
X49590000Y-147260000D02*
X49590000Y-148590000D01*
X49590000Y-149860000D02*
X49590000Y-160080000D01*
%TO.C,D8*%
X108399039Y-113284000D02*
X108399039Y-113440000D01*
X108399039Y-115600000D02*
X108399039Y-115756000D01*
X108399039Y-113284484D02*
G75*
G02*
X111630476Y-113440000I1560000J-1235518D01*
G01*
X108918078Y-113440000D02*
G75*
G02*
X111000000Y-113440000I1040961J-1080000D01*
G01*
X111000000Y-115600000D02*
G75*
G02*
X108918078Y-115600000I-1040961J1080000D01*
G01*
X111630476Y-115600000D02*
G75*
G02*
X108399039Y-115755516I-1671437J1080002D01*
G01*
%TO.C,D1*%
X32320000Y-124164000D02*
X32320000Y-124320000D01*
X32320000Y-126480000D02*
X32320000Y-126636000D01*
X32320000Y-124164484D02*
G75*
G02*
X35551437Y-124320000I1560000J-1235516D01*
G01*
X32839039Y-124320000D02*
G75*
G02*
X34920961Y-124320000I1040961J-1080000D01*
G01*
X34920961Y-126480000D02*
G75*
G02*
X32839039Y-126480000I-1040961J1080000D01*
G01*
X35551437Y-126480000D02*
G75*
G02*
X32320000Y-126635516I-1671437J1080002D01*
G01*
%TO.C,R7*%
X90897064Y-118470000D02*
X89442936Y-118470000D01*
X90897064Y-120290000D02*
X89442936Y-120290000D01*
%TO.C,C6*%
X31191252Y-79100000D02*
X29768748Y-79100000D01*
X31191252Y-80920000D02*
X29768748Y-80920000D01*
%TO.C,C9*%
X31191252Y-147045000D02*
X29768748Y-147045000D01*
X31191252Y-148865000D02*
X29768748Y-148865000D01*
%TO.C,R22*%
X36102936Y-135191667D02*
X37557064Y-135191667D01*
X36102936Y-137011667D02*
X37557064Y-137011667D01*
%TO.C,SW4*%
X44300000Y-186290000D02*
X44300000Y-187290000D01*
X44300000Y-186290000D02*
X45300000Y-186290000D01*
X44500000Y-193080000D02*
X44500000Y-193440000D01*
X44550000Y-186540000D02*
X45440000Y-186540000D01*
X44550000Y-188270000D02*
X44550000Y-186540000D01*
X44550000Y-190620000D02*
X44550000Y-190880000D01*
X44550000Y-197440000D02*
X44550000Y-195640000D01*
X45440000Y-197440000D02*
X44550000Y-197440000D01*
X46290001Y-194840001D02*
X46420001Y-194719999D01*
X47149999Y-195699999D02*
X47270001Y-195569999D01*
X49480000Y-197440000D02*
X50520000Y-197440000D01*
X49490000Y-186540000D02*
X50510000Y-186540000D01*
X54560000Y-186540000D02*
X55450000Y-186540000D01*
X54570000Y-197440000D02*
X55450000Y-197440000D01*
X55450000Y-186540000D02*
X55450000Y-188340000D01*
X55450000Y-197440000D02*
X55450000Y-195640000D01*
X55500000Y-190540000D02*
X55500000Y-190900000D01*
X55500000Y-193080000D02*
X55500000Y-193440000D01*
X45610000Y-191040000D02*
G75*
G02*
X45722194Y-190620702I4389876J-949965D01*
G01*
X46090000Y-189770000D02*
G75*
G02*
X48061468Y-187933081I3910000J-2220000D01*
G01*
X46428995Y-194713142D02*
G75*
G02*
X45610801Y-192940000I3571035J2723152D01*
G01*
X47149999Y-195699999D02*
G75*
G02*
X46290001Y-194840001I-429999J429999D01*
G01*
X48023585Y-196033585D02*
G75*
G02*
X47270841Y-195568895I1976415J4043585D01*
G01*
X49420000Y-187540001D02*
G75*
G02*
X50568907Y-187538569I580000J-4450099D01*
G01*
X50560000Y-196450000D02*
G75*
G02*
X49440000Y-196450000I-560000J4459931D01*
G01*
X51935270Y-187949875D02*
G75*
G02*
X54379999Y-191050000I-1935309J-4040174D01*
G01*
X54389200Y-192940000D02*
G75*
G02*
X51972059Y-196024670I-4389200J950000D01*
G01*
X52950000Y-191990000D02*
G75*
G02*
X47050000Y-191990000I-2950000J0D01*
G01*
X47050000Y-191990000D02*
G75*
G02*
X52950000Y-191990000I2950000J0D01*
G01*
%TO.C,R28*%
X88172936Y-105135000D02*
X89627064Y-105135000D01*
X88172936Y-106955000D02*
X89627064Y-106955000D01*
%TO.C,D2*%
X41820000Y-114664000D02*
X41820000Y-114820000D01*
X41820000Y-116980000D02*
X41820000Y-117136000D01*
X41820000Y-114664484D02*
G75*
G02*
X45051437Y-114820000I1560000J-1235516D01*
G01*
X42339039Y-114820000D02*
G75*
G02*
X44420961Y-114820000I1040961J-1080000D01*
G01*
X44420961Y-116980000D02*
G75*
G02*
X42339039Y-116980000I-1040961J1080000D01*
G01*
X45051437Y-116980000D02*
G75*
G02*
X41820000Y-117135516I-1671437J1080002D01*
G01*
%TO.C,C13*%
X57861252Y-159745000D02*
X56438748Y-159745000D01*
X57861252Y-161565000D02*
X56438748Y-161565000D01*
D12*
%TO.C,U5*%
X74752200Y-186093100D02*
X78917800Y-186093100D01*
X78917800Y-180936900D02*
X74752200Y-180936900D01*
D11*
%TO.C,R13*%
X65312936Y-138790000D02*
X66767064Y-138790000D01*
X65312936Y-140610000D02*
X66767064Y-140610000D01*
%TO.C,U2*%
X73405000Y-107145000D02*
X81125000Y-107145000D01*
X73405000Y-107390000D02*
X73405000Y-107145000D01*
X73405000Y-125265000D02*
X73405000Y-125020000D01*
X81125000Y-107145000D02*
X81125000Y-107390000D01*
X81125000Y-125020000D02*
X81125000Y-125265000D01*
X81125000Y-125265000D02*
X73405000Y-125265000D01*
X82255000Y-125495000D02*
X81575000Y-125495000D01*
X81915000Y-125025000D01*
X82255000Y-125495000D01*
G36*
X82255000Y-125495000D02*
G01*
X81575000Y-125495000D01*
X81915000Y-125025000D01*
X82255000Y-125495000D01*
G37*
%TO.C,SW3*%
X103190000Y-125690000D02*
X107800000Y-125690000D01*
X103190000Y-128450000D02*
X103190000Y-125690000D01*
X103190000Y-130550000D02*
X103190000Y-131150000D01*
X103190000Y-132850000D02*
X103190000Y-133650000D01*
X103190000Y-135350000D02*
X103190000Y-138310000D01*
X107800000Y-138310000D02*
X103190000Y-138310000D01*
X112200000Y-125700000D02*
X116810000Y-125700000D01*
X116810000Y-125700000D02*
X116810000Y-138310000D01*
X116810000Y-138310000D02*
X112200000Y-138310000D01*
D12*
%TO.C,SW5*%
X36875800Y-31875800D02*
X36875800Y-38124200D01*
X36875800Y-38124200D02*
X37362358Y-38124200D01*
X37362358Y-31875800D02*
X36875800Y-31875800D01*
X38637640Y-38124200D02*
X39362359Y-38124200D01*
X39362359Y-31875800D02*
X38637640Y-31875800D01*
X40637641Y-38124200D02*
X41362360Y-38124200D01*
X41362360Y-31875800D02*
X40637641Y-31875800D01*
X42637642Y-38124200D02*
X43124200Y-38124200D01*
X43124200Y-31875800D02*
X42637642Y-31875800D01*
X43124200Y-38124200D02*
X43124200Y-31875800D01*
D13*
X35478800Y-32749999D02*
G75*
G02*
X34716800Y-32749999I-381000J0D01*
G01*
X34716800Y-32749999D02*
G75*
G02*
X35478800Y-32749999I381000J0D01*
G01*
D11*
%TO.C,D7*%
X96045000Y-118464000D02*
X96045000Y-118620000D01*
X96045000Y-120780000D02*
X96045000Y-120936000D01*
X96045000Y-118464484D02*
G75*
G02*
X99276437Y-118620000I1560000J-1235516D01*
G01*
X96564039Y-118620000D02*
G75*
G02*
X98645961Y-118620000I1040961J-1080000D01*
G01*
X98645961Y-120780000D02*
G75*
G02*
X96564039Y-120780000I-1040961J1080000D01*
G01*
X99276437Y-120780000D02*
G75*
G02*
X96045000Y-120935516I-1671437J1080000D01*
G01*
%TO.C,D3*%
X55110000Y-114664000D02*
X55110000Y-114820000D01*
X55110000Y-116980000D02*
X55110000Y-117136000D01*
X55110000Y-114664484D02*
G75*
G02*
X58341437Y-114820000I1560000J-1235516D01*
G01*
X55629039Y-114820000D02*
G75*
G02*
X57710961Y-114820000I1040961J-1080000D01*
G01*
X57710961Y-116980000D02*
G75*
G02*
X55629039Y-116980000I-1040961J1080000D01*
G01*
X58341437Y-116980000D02*
G75*
G02*
X55110000Y-117135516I-1671437J1080000D01*
G01*
%TO.C,R3*%
X50892064Y-114975000D02*
X49437936Y-114975000D01*
X50892064Y-116795000D02*
X49437936Y-116795000D01*
D12*
%TO.C,SW9*%
X116875800Y-31875800D02*
X116875800Y-38124200D01*
X116875800Y-38124200D02*
X117362358Y-38124200D01*
X117362358Y-31875800D02*
X116875800Y-31875800D01*
X118637640Y-38124200D02*
X119362359Y-38124200D01*
X119362359Y-31875800D02*
X118637640Y-31875800D01*
X120637641Y-38124200D02*
X121362360Y-38124200D01*
X121362360Y-31875800D02*
X120637641Y-31875800D01*
X122637642Y-38124200D02*
X123124200Y-38124200D01*
X123124200Y-31875800D02*
X122637642Y-31875800D01*
X123124200Y-38124200D02*
X123124200Y-31875800D01*
D13*
X115478800Y-32749999D02*
G75*
G02*
X114716800Y-32749999I-381000J0D01*
G01*
X114716800Y-32749999D02*
G75*
G02*
X115478800Y-32749999I381000J0D01*
G01*
D11*
%TO.C,J4*%
X102810000Y-147320000D02*
X102810000Y-160080000D01*
X102810000Y-147320000D02*
X105470000Y-147320000D01*
X102810000Y-160080000D02*
X105470000Y-160080000D01*
X104140000Y-144720000D02*
X105470000Y-144720000D01*
X105470000Y-144720000D02*
X105470000Y-146050000D01*
X105470000Y-147320000D02*
X105470000Y-160080000D01*
%TO.C,R26*%
X95342064Y-105135000D02*
X93887936Y-105135000D01*
X95342064Y-106955000D02*
X93887936Y-106955000D01*
%TO.C,C7*%
X31191252Y-62590000D02*
X29768748Y-62590000D01*
X31191252Y-64410000D02*
X29768748Y-64410000D01*
%TO.C,Q1*%
X54570000Y-95250000D02*
X53770000Y-95250000D01*
X54570000Y-95250000D02*
X55370000Y-95250000D01*
X55370000Y-95250000D02*
X55370000Y-96180000D01*
X55370000Y-98410000D02*
X53910000Y-98410000D01*
X55370000Y-98410000D02*
X55370000Y-97480000D01*
X53270000Y-95220000D02*
X53030000Y-94890000D01*
X53510000Y-94890000D01*
X53270000Y-95220000D01*
G36*
X53270000Y-95220000D02*
G01*
X53030000Y-94890000D01*
X53510000Y-94890000D01*
X53270000Y-95220000D01*
G37*
%TO.C,C12*%
X99618748Y-110215000D02*
X101041252Y-110215000D01*
X99618748Y-112035000D02*
X101041252Y-112035000D01*
%TO.C,C3*%
X67035000Y-77393748D02*
X67035000Y-78816252D01*
X68855000Y-77393748D02*
X68855000Y-78816252D01*
%TO.C,C8*%
X31191252Y-135191667D02*
X29768748Y-135191667D01*
X31191252Y-137011667D02*
X29768748Y-137011667D01*
%TO.C,R23*%
X36102936Y-147045000D02*
X37557064Y-147045000D01*
X36102936Y-148865000D02*
X37557064Y-148865000D01*
%TO.C,D6*%
X90965000Y-130764000D02*
X90965000Y-130920000D01*
X90965000Y-133080000D02*
X90965000Y-133236000D01*
X90965000Y-130764484D02*
G75*
G02*
X94196437Y-130920000I1560000J-1235516D01*
G01*
X91484039Y-130920000D02*
G75*
G02*
X93565961Y-130920000I1040961J-1080000D01*
G01*
X93565961Y-133080000D02*
G75*
G02*
X91484039Y-133080000I-1040961J1080000D01*
G01*
X94196437Y-133080000D02*
G75*
G02*
X90965000Y-133235516I-1671437J1080000D01*
G01*
%TO.C,R19*%
X35467936Y-79100000D02*
X36922064Y-79100000D01*
X35467936Y-80920000D02*
X36922064Y-80920000D01*
%TO.C,D5*%
X96060000Y-143164000D02*
X96060000Y-143320000D01*
X96060000Y-145480000D02*
X96060000Y-145636000D01*
X96060000Y-143164484D02*
G75*
G02*
X99291437Y-143320000I1560000J-1235516D01*
G01*
X96579039Y-143320000D02*
G75*
G02*
X98660961Y-143320000I1040961J-1080000D01*
G01*
X98660961Y-145480000D02*
G75*
G02*
X96579039Y-145480000I-1040961J1080000D01*
G01*
X99291437Y-145480000D02*
G75*
G02*
X96060000Y-145635516I-1671437J1080000D01*
G01*
%TO.C,C4*%
X85648748Y-157840000D02*
X87071252Y-157840000D01*
X85648748Y-159660000D02*
X87071252Y-159660000D01*
%TO.C,SW2*%
X43190000Y-125690000D02*
X47800000Y-125690000D01*
X43190000Y-128450000D02*
X43190000Y-125690000D01*
X43190000Y-130550000D02*
X43190000Y-131150000D01*
X43190000Y-132850000D02*
X43190000Y-133650000D01*
X43190000Y-135350000D02*
X43190000Y-138310000D01*
X47800000Y-138310000D02*
X43190000Y-138310000D01*
X52200000Y-125700000D02*
X56810000Y-125700000D01*
X56810000Y-125700000D02*
X56810000Y-138310000D01*
X56810000Y-138310000D02*
X52200000Y-138310000D01*
%TO.C,C11*%
X57861252Y-165460000D02*
X56438748Y-165460000D01*
X57861252Y-167280000D02*
X56438748Y-167280000D01*
%TO.C,R21*%
X35467936Y-68305000D02*
X36922064Y-68305000D01*
X35467936Y-70125000D02*
X36922064Y-70125000D01*
%TO.C,R15*%
X87087064Y-141330000D02*
X85632936Y-141330000D01*
X87087064Y-143150000D02*
X85632936Y-143150000D01*
%TO.C,R29*%
X88172936Y-110215000D02*
X89627064Y-110215000D01*
X88172936Y-112035000D02*
X89627064Y-112035000D01*
%TO.C,U3*%
X74185000Y-140910000D02*
X74185000Y-176590000D01*
X74185000Y-176590000D02*
X79485000Y-176590000D01*
X75835000Y-140910000D02*
X74185000Y-140910000D01*
X79485000Y-140910000D02*
X77835000Y-140910000D01*
X79485000Y-176590000D02*
X79485000Y-140910000D01*
X77835000Y-140910000D02*
G75*
G02*
X75835000Y-140910000I-1000000J0D01*
G01*
D12*
%TO.C,SW7*%
X76875800Y-31875800D02*
X76875800Y-38124200D01*
X76875800Y-38124200D02*
X77362358Y-38124200D01*
X77362358Y-31875800D02*
X76875800Y-31875800D01*
X78637640Y-38124200D02*
X79362359Y-38124200D01*
X79362359Y-31875800D02*
X78637640Y-31875800D01*
X80637641Y-38124200D02*
X81362360Y-38124200D01*
X81362360Y-31875800D02*
X80637641Y-31875800D01*
X82637642Y-38124200D02*
X83124200Y-38124200D01*
X83124200Y-31875800D02*
X82637642Y-31875800D01*
X83124200Y-38124200D02*
X83124200Y-31875800D01*
D13*
X75478800Y-32749999D02*
G75*
G02*
X74716800Y-32749999I-381000J0D01*
G01*
X74716800Y-32749999D02*
G75*
G02*
X75478800Y-32749999I381000J0D01*
G01*
D11*
%TO.C,R6*%
X86132064Y-130850000D02*
X84677936Y-130850000D01*
X86132064Y-132670000D02*
X84677936Y-132670000D01*
%TD*%
M02*
