%TF.GenerationSoftware,KiCad,Pcbnew,9.0.6*%
%TF.CreationDate,2026-02-15T15:46:47-05:00*%
%TF.ProjectId,Darkroom Timer,4461726b-726f-46f6-9d20-54696d65722e,rev?*%
%TF.SameCoordinates,Original*%
%TF.FileFunction,Other,User*%
%FSLAX46Y46*%
G04 Gerber Fmt 4.6, Leading zero omitted, Abs format (unit mm)*
G04 Created by KiCad (PCBNEW 9.0.6) date 2026-02-15 15:46:47*
%MOMM*%
%LPD*%
G01*
G04 APERTURE LIST*
%ADD10C,0.050000*%
%ADD11C,0.152400*%
G04 APERTURE END LIST*
D10*
%TO.C,C10*%
X98030000Y-104895000D02*
X102630000Y-104895000D01*
X98030000Y-107195000D02*
X98030000Y-104895000D01*
X102630000Y-104895000D02*
X102630000Y-107195000D01*
X102630000Y-107195000D02*
X98030000Y-107195000D01*
D11*
%TO.C,SW8*%
X96748800Y-31746699D02*
X96748800Y-38253300D01*
X96748800Y-38253300D02*
X103251200Y-38253300D01*
X103251200Y-31746699D02*
X96748800Y-31746699D01*
X103251200Y-38253300D02*
X103251200Y-31746699D01*
D10*
%TO.C,C5*%
X82790000Y-181095000D02*
X87390000Y-181095000D01*
X82790000Y-183395000D02*
X82790000Y-181095000D01*
X87390000Y-181095000D02*
X87390000Y-183395000D01*
X87390000Y-183395000D02*
X82790000Y-183395000D01*
%TO.C,D13*%
X90290000Y-162890000D02*
X90290000Y-167310000D01*
X90290000Y-167310000D02*
X95130000Y-167310000D01*
X95130000Y-162890000D02*
X90290000Y-162890000D01*
X95130000Y-167310000D02*
X95130000Y-162890000D01*
%TO.C,R10*%
X118050000Y-130630000D02*
X122610000Y-130630000D01*
X118050000Y-132890000D02*
X118050000Y-130630000D01*
X122610000Y-130630000D02*
X122610000Y-132890000D01*
X122610000Y-132890000D02*
X118050000Y-132890000D01*
%TO.C,Q3*%
X61115000Y-109060000D02*
X64615000Y-109060000D01*
X61115000Y-114460000D02*
X61115000Y-109060000D01*
X64615000Y-109060000D02*
X64615000Y-114460000D01*
X64615000Y-114460000D02*
X61115000Y-114460000D01*
%TO.C,R20*%
X33915000Y-73800000D02*
X38475000Y-73800000D01*
X33915000Y-76060000D02*
X33915000Y-73800000D01*
X38475000Y-73800000D02*
X38475000Y-76060000D01*
X38475000Y-76060000D02*
X33915000Y-76060000D01*
D11*
%TO.C,J1*%
X45844500Y-22990599D02*
X45844500Y-37011399D01*
X45844500Y-37011399D02*
X53845500Y-37011399D01*
X46085800Y-17986799D02*
X46085800Y-22990599D01*
X46085800Y-22990599D02*
X45844500Y-22990599D01*
X53604200Y-17986799D02*
X46085800Y-17986799D01*
X53604200Y-22990599D02*
X53604200Y-17986799D01*
X53845500Y-22990599D02*
X53604200Y-22990599D01*
X53845500Y-37011399D02*
X53845500Y-22990599D01*
%TO.C,SW6*%
X56748800Y-31746699D02*
X56748800Y-38253300D01*
X56748800Y-38253300D02*
X63251200Y-38253300D01*
X63251200Y-31746699D02*
X56748800Y-31746699D01*
X63251200Y-38253300D02*
X63251200Y-31746699D01*
D10*
%TO.C,R14*%
X84080000Y-163970000D02*
X88640000Y-163970000D01*
X84080000Y-166230000D02*
X84080000Y-163970000D01*
X88640000Y-163970000D02*
X88640000Y-166230000D01*
X88640000Y-166230000D02*
X84080000Y-166230000D01*
%TO.C,R9*%
X112777500Y-118565000D02*
X117337500Y-118565000D01*
X112777500Y-120825000D02*
X112777500Y-118565000D01*
X117337500Y-118565000D02*
X117337500Y-120825000D01*
X117337500Y-120825000D02*
X112777500Y-120825000D01*
%TO.C,R24*%
X34550000Y-129045000D02*
X39110000Y-129045000D01*
X34550000Y-131305000D02*
X34550000Y-129045000D01*
X39110000Y-129045000D02*
X39110000Y-131305000D01*
X39110000Y-131305000D02*
X34550000Y-131305000D01*
%TO.C,C1*%
X91045000Y-94100000D02*
X95645000Y-94100000D01*
X91045000Y-96400000D02*
X91045000Y-94100000D01*
X95645000Y-94100000D02*
X95645000Y-96400000D01*
X95645000Y-96400000D02*
X91045000Y-96400000D01*
%TO.C,R16*%
X84080000Y-146825000D02*
X88640000Y-146825000D01*
X84080000Y-149085000D02*
X84080000Y-146825000D01*
X88640000Y-146825000D02*
X88640000Y-149085000D01*
X88640000Y-149085000D02*
X84080000Y-149085000D01*
%TO.C,BZ1*%
X50075000Y-99695000D02*
G75*
G02*
X37575000Y-99695000I-6250000J0D01*
G01*
X37575000Y-99695000D02*
G75*
G02*
X50075000Y-99695000I6250000J0D01*
G01*
%TO.C,C2*%
X66160000Y-109460000D02*
X68460000Y-109460000D01*
X66160000Y-114060000D02*
X66160000Y-109460000D01*
X68460000Y-109460000D02*
X68460000Y-114060000D01*
X68460000Y-114060000D02*
X66160000Y-114060000D01*
%TO.C,R12*%
X85985000Y-94120000D02*
X90545000Y-94120000D01*
X85985000Y-96380000D02*
X85985000Y-94120000D01*
X90545000Y-94120000D02*
X90545000Y-96380000D01*
X90545000Y-96380000D02*
X85985000Y-96380000D01*
D11*
%TO.C,J3*%
X84785200Y-17986799D02*
X84785200Y-32998199D01*
X84785200Y-32998199D02*
X94284800Y-32998199D01*
X94284800Y-17986799D02*
X84785200Y-17986799D01*
X94284800Y-32998199D02*
X94284800Y-17986799D01*
D10*
%TO.C,SW11*%
X59385000Y-144840000D02*
X59635000Y-144840000D01*
X59385000Y-145090000D02*
X59385000Y-144840000D01*
X59385000Y-152090000D02*
X59385000Y-145090000D01*
X59385000Y-152090000D02*
X59385000Y-152340000D01*
X59385000Y-152340000D02*
X59635000Y-152340000D01*
X59635000Y-144840000D02*
X68635000Y-144840000D01*
X68635000Y-144840000D02*
X68885000Y-144840000D01*
X68635000Y-152340000D02*
X59635000Y-152340000D01*
X68635000Y-152340000D02*
X68885000Y-152340000D01*
X68885000Y-144840000D02*
X68885000Y-145090000D01*
X68885000Y-145090000D02*
X68885000Y-152090000D01*
X68885000Y-152340000D02*
X68885000Y-152090000D01*
%TO.C,U4*%
X71540000Y-87200000D02*
X71540000Y-103300000D01*
X71540000Y-87200000D02*
X83400000Y-87200000D01*
X71540000Y-103300000D02*
X83400000Y-103300000D01*
X83400000Y-87200000D02*
X83400000Y-103300000D01*
%TO.C,R2*%
X34550000Y-115075000D02*
X39110000Y-115075000D01*
X34550000Y-117335000D02*
X34550000Y-115075000D01*
X39110000Y-115075000D02*
X39110000Y-117335000D01*
X39110000Y-117335000D02*
X34550000Y-117335000D01*
%TO.C,SW1*%
X41450000Y-68450000D02*
X43050000Y-68450000D01*
X41450000Y-75550000D02*
X41450000Y-68450000D01*
X43050000Y-65550000D02*
X47800000Y-65550000D01*
X43050000Y-68450000D02*
X43050000Y-65550000D01*
X43050000Y-75550000D02*
X41450000Y-75550000D01*
X43050000Y-78450000D02*
X43050000Y-75550000D01*
X47800000Y-65550000D02*
X48700000Y-64650000D01*
X47800000Y-78450000D02*
X43050000Y-78450000D01*
X47800000Y-78450000D02*
X48700000Y-79350000D01*
X48700000Y-64650000D02*
X51300000Y-64650000D01*
X51300000Y-79350000D02*
X48700000Y-79350000D01*
X52200000Y-65550000D02*
X51300000Y-64650000D01*
X52200000Y-65550000D02*
X56950000Y-65550000D01*
X52200000Y-78450000D02*
X51300000Y-79350000D01*
X56950000Y-65550000D02*
X56950000Y-78450000D01*
X56950000Y-78450000D02*
X52200000Y-78450000D01*
%TO.C,R30*%
X63760000Y-118250000D02*
X68320000Y-118250000D01*
X63760000Y-120510000D02*
X63760000Y-118250000D01*
X68320000Y-118250000D02*
X68320000Y-120510000D01*
X68320000Y-120510000D02*
X63760000Y-120510000D01*
D11*
%TO.C,SW10*%
X106748800Y-188746699D02*
X106748800Y-195253300D01*
X106748800Y-195253300D02*
X113251200Y-195253300D01*
X113251200Y-188746699D02*
X106748800Y-188746699D01*
X113251200Y-195253300D02*
X113251200Y-188746699D01*
D10*
%TO.C,D9*%
X119965000Y-117490000D02*
X119965000Y-121910000D01*
X119965000Y-121910000D02*
X124805000Y-121910000D01*
X124805000Y-117490000D02*
X119965000Y-117490000D01*
X124805000Y-121910000D02*
X124805000Y-117490000D01*
%TO.C,D11*%
X120000000Y-142190000D02*
X120000000Y-146610000D01*
X120000000Y-146610000D02*
X124840000Y-146610000D01*
X124840000Y-142190000D02*
X120000000Y-142190000D01*
X124840000Y-146610000D02*
X124840000Y-142190000D01*
%TO.C,R27*%
X92335000Y-109995000D02*
X96895000Y-109995000D01*
X92335000Y-112255000D02*
X92335000Y-109995000D01*
X96895000Y-109995000D02*
X96895000Y-112255000D01*
X96895000Y-112255000D02*
X92335000Y-112255000D01*
%TO.C,R5*%
X89795000Y-141110000D02*
X94355000Y-141110000D01*
X89795000Y-143370000D02*
X89795000Y-141110000D01*
X94355000Y-141110000D02*
X94355000Y-143370000D01*
X94355000Y-143370000D02*
X89795000Y-143370000D01*
%TO.C,R4*%
X54235000Y-120790000D02*
X58795000Y-120790000D01*
X54235000Y-123050000D02*
X54235000Y-120790000D01*
X58795000Y-120790000D02*
X58795000Y-123050000D01*
X58795000Y-123050000D02*
X54235000Y-123050000D01*
%TO.C,R11*%
X112335000Y-143330000D02*
X116895000Y-143330000D01*
X112335000Y-145590000D02*
X112335000Y-143330000D01*
X116895000Y-143330000D02*
X116895000Y-145590000D01*
X116895000Y-145590000D02*
X112335000Y-145590000D01*
%TO.C,R17*%
X52330000Y-102050000D02*
X56890000Y-102050000D01*
X52330000Y-104310000D02*
X52330000Y-102050000D01*
X56890000Y-102050000D02*
X56890000Y-104310000D01*
X56890000Y-104310000D02*
X52330000Y-104310000D01*
D11*
%TO.C,J5*%
X65849500Y-22990599D02*
X65849500Y-37011399D01*
X65849500Y-37011399D02*
X73850500Y-37011399D01*
X66090800Y-17986799D02*
X66090800Y-22990599D01*
X66090800Y-22990599D02*
X65849500Y-22990599D01*
X73609200Y-17986799D02*
X66090800Y-17986799D01*
X73609200Y-22990599D02*
X73609200Y-17986799D01*
X73850500Y-22990599D02*
X73609200Y-22990599D01*
X73850500Y-37011399D02*
X73850500Y-22990599D01*
D10*
%TO.C,U1*%
X71540000Y-66120000D02*
X73470000Y-66120000D01*
X71540000Y-83740000D02*
X71540000Y-66120000D01*
X73470000Y-65730000D02*
X81470000Y-65730000D01*
X73470000Y-66120000D02*
X73470000Y-65730000D01*
X73470000Y-83740000D02*
X71540000Y-83740000D01*
X73470000Y-84130000D02*
X73470000Y-83740000D01*
X81470000Y-65730000D02*
X81470000Y-66120000D01*
X81470000Y-66120000D02*
X83400000Y-66120000D01*
X81470000Y-83740000D02*
X81470000Y-84130000D01*
X81470000Y-84130000D02*
X73470000Y-84130000D01*
X83400000Y-66120000D02*
X83400000Y-83740000D01*
X83400000Y-83740000D02*
X81470000Y-83740000D01*
%TO.C,D10*%
X125095000Y-129790000D02*
X125095000Y-134210000D01*
X125095000Y-134210000D02*
X129935000Y-134210000D01*
X129935000Y-129790000D02*
X125095000Y-129790000D01*
X129935000Y-134210000D02*
X129935000Y-129790000D01*
%TO.C,R25*%
X34550000Y-140898333D02*
X39110000Y-140898333D01*
X34550000Y-143158333D02*
X34550000Y-140898333D01*
X39110000Y-140898333D02*
X39110000Y-143158333D01*
X39110000Y-143158333D02*
X34550000Y-143158333D01*
%TO.C,D4*%
X63750000Y-123190000D02*
X63750000Y-127610000D01*
X63750000Y-127610000D02*
X68590000Y-127610000D01*
X68590000Y-123190000D02*
X63750000Y-123190000D01*
X68590000Y-127610000D02*
X68590000Y-123190000D01*
%TO.C,R1*%
X28200000Y-129045000D02*
X32760000Y-129045000D01*
X28200000Y-131305000D02*
X28200000Y-129045000D01*
X32760000Y-129045000D02*
X32760000Y-131305000D01*
X32760000Y-131305000D02*
X28200000Y-131305000D01*
%TO.C,R8*%
X101225000Y-116345000D02*
X105785000Y-116345000D01*
X101225000Y-118605000D02*
X101225000Y-116345000D01*
X105785000Y-116345000D02*
X105785000Y-118605000D01*
X105785000Y-118605000D02*
X101225000Y-118605000D01*
%TO.C,Y2*%
X62575000Y-166930000D02*
X62575000Y-160530000D01*
X68235000Y-160530000D02*
X68235000Y-166930000D01*
X62575000Y-160530000D02*
G75*
G02*
X68235000Y-160530000I2830000J0D01*
G01*
X68235000Y-166930000D02*
G75*
G02*
X62575000Y-166930000I-2830000J0D01*
G01*
%TO.C,D12*%
X60515000Y-104260000D02*
X65215000Y-104260000D01*
X60515000Y-106560000D02*
X60515000Y-104260000D01*
X65215000Y-106560000D02*
X60515000Y-106560000D01*
X65215000Y-106560000D02*
X65215000Y-104260000D01*
%TO.C,R18*%
X33915000Y-62370000D02*
X38475000Y-62370000D01*
X33915000Y-64630000D02*
X33915000Y-62370000D01*
X38475000Y-62370000D02*
X38475000Y-64630000D01*
X38475000Y-64630000D02*
X33915000Y-64630000D01*
%TO.C,J2*%
X46460000Y-146790000D02*
X50010000Y-146790000D01*
X46460000Y-160490000D02*
X46460000Y-146790000D01*
X50010000Y-146790000D02*
X50010000Y-160490000D01*
X50010000Y-160490000D02*
X46460000Y-160490000D01*
%TO.C,D8*%
X107539039Y-112310000D02*
X107539039Y-116730000D01*
X107539039Y-116730000D02*
X112379039Y-116730000D01*
X112379039Y-112310000D02*
X107539039Y-112310000D01*
X112379039Y-116730000D02*
X112379039Y-112310000D01*
%TO.C,D1*%
X31460000Y-123190000D02*
X31460000Y-127610000D01*
X31460000Y-127610000D02*
X36300000Y-127610000D01*
X36300000Y-123190000D02*
X31460000Y-123190000D01*
X36300000Y-127610000D02*
X36300000Y-123190000D01*
%TO.C,R7*%
X87890000Y-118250000D02*
X92450000Y-118250000D01*
X87890000Y-120510000D02*
X87890000Y-118250000D01*
X92450000Y-118250000D02*
X92450000Y-120510000D01*
X92450000Y-120510000D02*
X87890000Y-120510000D01*
%TO.C,C6*%
X28180000Y-78860000D02*
X32780000Y-78860000D01*
X28180000Y-81160000D02*
X28180000Y-78860000D01*
X32780000Y-78860000D02*
X32780000Y-81160000D01*
X32780000Y-81160000D02*
X28180000Y-81160000D01*
%TO.C,C9*%
X28180000Y-146805000D02*
X32780000Y-146805000D01*
X28180000Y-149105000D02*
X28180000Y-146805000D01*
X32780000Y-146805000D02*
X32780000Y-149105000D01*
X32780000Y-149105000D02*
X28180000Y-149105000D01*
%TO.C,R22*%
X34550000Y-134971667D02*
X39110000Y-134971667D01*
X34550000Y-137231667D02*
X34550000Y-134971667D01*
X39110000Y-134971667D02*
X39110000Y-137231667D01*
X39110000Y-137231667D02*
X34550000Y-137231667D01*
%TO.C,SW4*%
X43770000Y-185910000D02*
X56230000Y-185910000D01*
X43770000Y-198070000D02*
X43770000Y-185910000D01*
X56230000Y-185910000D02*
X56230000Y-198070000D01*
X56230000Y-198070000D02*
X43770000Y-198070000D01*
%TO.C,R28*%
X86620000Y-104915000D02*
X91180000Y-104915000D01*
X86620000Y-107175000D02*
X86620000Y-104915000D01*
X91180000Y-104915000D02*
X91180000Y-107175000D01*
X91180000Y-107175000D02*
X86620000Y-107175000D01*
%TO.C,D2*%
X40960000Y-113690000D02*
X40960000Y-118110000D01*
X40960000Y-118110000D02*
X45800000Y-118110000D01*
X45800000Y-113690000D02*
X40960000Y-113690000D01*
X45800000Y-118110000D02*
X45800000Y-113690000D01*
%TO.C,C13*%
X54850000Y-159505000D02*
X59450000Y-159505000D01*
X54850000Y-161805000D02*
X54850000Y-159505000D01*
X59450000Y-159505000D02*
X59450000Y-161805000D01*
X59450000Y-161805000D02*
X54850000Y-161805000D01*
D11*
%TO.C,U5*%
X73228200Y-181076600D02*
X74625200Y-181076600D01*
X73228200Y-185953400D02*
X73228200Y-181076600D01*
X73228200Y-185953400D02*
X74625200Y-185953400D01*
X74625200Y-180809900D02*
X79044800Y-180809900D01*
X74625200Y-181076600D02*
X74625200Y-180809900D01*
X74625200Y-186220100D02*
X74625200Y-185953400D01*
X79044800Y-180809900D02*
X79044800Y-181076600D01*
X79044800Y-185953400D02*
X79044800Y-186220100D01*
X79044800Y-186220100D02*
X74625200Y-186220100D01*
X80441800Y-181076600D02*
X79044800Y-181076600D01*
X80441800Y-181076600D02*
X80441800Y-185953400D01*
X80441800Y-185953400D02*
X79044800Y-185953400D01*
D10*
%TO.C,R13*%
X63760000Y-138570000D02*
X68320000Y-138570000D01*
X63760000Y-140830000D02*
X63760000Y-138570000D01*
X68320000Y-138570000D02*
X68320000Y-140830000D01*
X68320000Y-140830000D02*
X63760000Y-140830000D01*
%TO.C,U2*%
X71335000Y-107395000D02*
X73265000Y-107395000D01*
X71335000Y-125015000D02*
X71335000Y-107395000D01*
X73265000Y-107005000D02*
X81265000Y-107005000D01*
X73265000Y-107395000D02*
X73265000Y-107005000D01*
X73265000Y-125015000D02*
X71335000Y-125015000D01*
X73265000Y-125405000D02*
X73265000Y-125015000D01*
X81265000Y-107005000D02*
X81265000Y-107395000D01*
X81265000Y-107395000D02*
X83195000Y-107395000D01*
X81265000Y-125015000D02*
X81265000Y-125405000D01*
X81265000Y-125405000D02*
X73265000Y-125405000D01*
X83195000Y-107395000D02*
X83195000Y-125015000D01*
X83195000Y-125015000D02*
X81265000Y-125015000D01*
%TO.C,SW3*%
X101450000Y-128450000D02*
X103050000Y-128450000D01*
X101450000Y-135550000D02*
X101450000Y-128450000D01*
X103050000Y-125550000D02*
X107800000Y-125550000D01*
X103050000Y-128450000D02*
X103050000Y-125550000D01*
X103050000Y-135550000D02*
X101450000Y-135550000D01*
X103050000Y-138450000D02*
X103050000Y-135550000D01*
X107800000Y-125550000D02*
X108700000Y-124650000D01*
X107800000Y-138450000D02*
X103050000Y-138450000D01*
X107800000Y-138450000D02*
X108700000Y-139350000D01*
X108700000Y-124650000D02*
X111300000Y-124650000D01*
X111300000Y-139350000D02*
X108700000Y-139350000D01*
X112200000Y-125550000D02*
X111300000Y-124650000D01*
X112200000Y-125550000D02*
X116950000Y-125550000D01*
X112200000Y-138450000D02*
X111300000Y-139350000D01*
X116950000Y-125550000D02*
X116950000Y-138450000D01*
X116950000Y-138450000D02*
X112200000Y-138450000D01*
D11*
%TO.C,SW5*%
X36748800Y-31746699D02*
X36748800Y-38253300D01*
X36748800Y-38253300D02*
X43251200Y-38253300D01*
X43251200Y-31746699D02*
X36748800Y-31746699D01*
X43251200Y-38253300D02*
X43251200Y-31746699D01*
D10*
%TO.C,D7*%
X95185000Y-117490000D02*
X95185000Y-121910000D01*
X95185000Y-121910000D02*
X100025000Y-121910000D01*
X100025000Y-117490000D02*
X95185000Y-117490000D01*
X100025000Y-121910000D02*
X100025000Y-117490000D01*
%TO.C,D3*%
X54250000Y-113690000D02*
X54250000Y-118110000D01*
X54250000Y-118110000D02*
X59090000Y-118110000D01*
X59090000Y-113690000D02*
X54250000Y-113690000D01*
X59090000Y-118110000D02*
X59090000Y-113690000D01*
%TO.C,R3*%
X47885000Y-114755000D02*
X52445000Y-114755000D01*
X47885000Y-117015000D02*
X47885000Y-114755000D01*
X52445000Y-114755000D02*
X52445000Y-117015000D01*
X52445000Y-117015000D02*
X47885000Y-117015000D01*
D11*
%TO.C,SW9*%
X116748800Y-31746699D02*
X116748800Y-38253300D01*
X116748800Y-38253300D02*
X123251200Y-38253300D01*
X123251200Y-31746699D02*
X116748800Y-31746699D01*
X123251200Y-38253300D02*
X123251200Y-31746699D01*
D10*
%TO.C,J4*%
X102340000Y-144250000D02*
X105890000Y-144250000D01*
X102340000Y-160500000D02*
X102340000Y-144250000D01*
X105890000Y-144250000D02*
X105890000Y-160500000D01*
X105890000Y-160500000D02*
X102340000Y-160500000D01*
%TO.C,R26*%
X92335000Y-104915000D02*
X96895000Y-104915000D01*
X92335000Y-107175000D02*
X92335000Y-104915000D01*
X96895000Y-104915000D02*
X96895000Y-107175000D01*
X96895000Y-107175000D02*
X92335000Y-107175000D01*
%TO.C,C7*%
X28180000Y-62350000D02*
X32780000Y-62350000D01*
X28180000Y-64650000D02*
X28180000Y-62350000D01*
X32780000Y-62350000D02*
X32780000Y-64650000D01*
X32780000Y-64650000D02*
X28180000Y-64650000D01*
%TO.C,Q1*%
X51910000Y-95080000D02*
X57310000Y-95080000D01*
X51910000Y-98580000D02*
X51910000Y-95080000D01*
X57310000Y-95080000D02*
X57310000Y-98580000D01*
X57310000Y-98580000D02*
X51910000Y-98580000D01*
%TO.C,C12*%
X98030000Y-109975000D02*
X102630000Y-109975000D01*
X98030000Y-112275000D02*
X98030000Y-109975000D01*
X102630000Y-109975000D02*
X102630000Y-112275000D01*
X102630000Y-112275000D02*
X98030000Y-112275000D01*
%TO.C,C3*%
X66795000Y-75805000D02*
X69095000Y-75805000D01*
X66795000Y-80405000D02*
X66795000Y-75805000D01*
X69095000Y-75805000D02*
X69095000Y-80405000D01*
X69095000Y-80405000D02*
X66795000Y-80405000D01*
%TO.C,C8*%
X28180000Y-134951667D02*
X32780000Y-134951667D01*
X28180000Y-137251667D02*
X28180000Y-134951667D01*
X32780000Y-134951667D02*
X32780000Y-137251667D01*
X32780000Y-137251667D02*
X28180000Y-137251667D01*
%TO.C,R23*%
X34550000Y-146825000D02*
X39110000Y-146825000D01*
X34550000Y-149085000D02*
X34550000Y-146825000D01*
X39110000Y-146825000D02*
X39110000Y-149085000D01*
X39110000Y-149085000D02*
X34550000Y-149085000D01*
%TO.C,D6*%
X90105000Y-129790000D02*
X90105000Y-134210000D01*
X90105000Y-134210000D02*
X94945000Y-134210000D01*
X94945000Y-129790000D02*
X90105000Y-129790000D01*
X94945000Y-134210000D02*
X94945000Y-129790000D01*
%TO.C,R19*%
X33915000Y-78880000D02*
X38475000Y-78880000D01*
X33915000Y-81140000D02*
X33915000Y-78880000D01*
X38475000Y-78880000D02*
X38475000Y-81140000D01*
X38475000Y-81140000D02*
X33915000Y-81140000D01*
%TO.C,D5*%
X95200000Y-142190000D02*
X95200000Y-146610000D01*
X95200000Y-146610000D02*
X100040000Y-146610000D01*
X100040000Y-142190000D02*
X95200000Y-142190000D01*
X100040000Y-146610000D02*
X100040000Y-142190000D01*
%TO.C,C4*%
X84060000Y-157600000D02*
X88660000Y-157600000D01*
X84060000Y-159900000D02*
X84060000Y-157600000D01*
X88660000Y-157600000D02*
X88660000Y-159900000D01*
X88660000Y-159900000D02*
X84060000Y-159900000D01*
%TO.C,SW2*%
X41450000Y-128450000D02*
X43050000Y-128450000D01*
X41450000Y-135550000D02*
X41450000Y-128450000D01*
X43050000Y-125550000D02*
X47800000Y-125550000D01*
X43050000Y-128450000D02*
X43050000Y-125550000D01*
X43050000Y-135550000D02*
X41450000Y-135550000D01*
X43050000Y-138450000D02*
X43050000Y-135550000D01*
X47800000Y-125550000D02*
X48700000Y-124650000D01*
X47800000Y-138450000D02*
X43050000Y-138450000D01*
X47800000Y-138450000D02*
X48700000Y-139350000D01*
X48700000Y-124650000D02*
X51300000Y-124650000D01*
X51300000Y-139350000D02*
X48700000Y-139350000D01*
X52200000Y-125550000D02*
X51300000Y-124650000D01*
X52200000Y-125550000D02*
X56950000Y-125550000D01*
X52200000Y-138450000D02*
X51300000Y-139350000D01*
X56950000Y-125550000D02*
X56950000Y-138450000D01*
X56950000Y-138450000D02*
X52200000Y-138450000D01*
%TO.C,C11*%
X54850000Y-165220000D02*
X59450000Y-165220000D01*
X54850000Y-167520000D02*
X54850000Y-165220000D01*
X59450000Y-165220000D02*
X59450000Y-167520000D01*
X59450000Y-167520000D02*
X54850000Y-167520000D01*
%TO.C,R21*%
X33915000Y-68085000D02*
X38475000Y-68085000D01*
X33915000Y-70345000D02*
X33915000Y-68085000D01*
X38475000Y-68085000D02*
X38475000Y-70345000D01*
X38475000Y-70345000D02*
X33915000Y-70345000D01*
%TO.C,R15*%
X84080000Y-141110000D02*
X88640000Y-141110000D01*
X84080000Y-143370000D02*
X84080000Y-141110000D01*
X88640000Y-141110000D02*
X88640000Y-143370000D01*
X88640000Y-143370000D02*
X84080000Y-143370000D01*
%TO.C,R29*%
X86620000Y-109995000D02*
X91180000Y-109995000D01*
X86620000Y-112255000D02*
X86620000Y-109995000D01*
X91180000Y-109995000D02*
X91180000Y-112255000D01*
X91180000Y-112255000D02*
X86620000Y-112255000D01*
%TO.C,U3*%
X71965000Y-140710000D02*
X81695000Y-140710000D01*
X81695000Y-176790000D01*
X71965000Y-176790000D01*
X71965000Y-140710000D01*
D11*
%TO.C,SW7*%
X76748800Y-31746699D02*
X76748800Y-38253300D01*
X76748800Y-38253300D02*
X83251200Y-38253300D01*
X83251200Y-31746699D02*
X76748800Y-31746699D01*
X83251200Y-38253300D02*
X83251200Y-31746699D01*
D10*
%TO.C,R6*%
X83125000Y-130630000D02*
X87685000Y-130630000D01*
X83125000Y-132890000D02*
X83125000Y-130630000D01*
X87685000Y-130630000D02*
X87685000Y-132890000D01*
X87685000Y-132890000D02*
X83125000Y-132890000D01*
%TD*%
M02*
