M48
; DRILL file {KiCad 9.0.6} date 2026-02-15T15:46:45-0500
; FORMAT={-:-/ absolute / metric / decimal}
; #@! TF.CreationDate,2026-02-15T15:46:45-05:00
; #@! TF.GenerationSoftware,Kicad,Pcbnew,9.0.6
; #@! TF.FileFunction,Plated,1,2,PTH
FMAT,2
METRIC
; #@! TA.AperFunction,Plated,PTH,ViaDrill
T1C0.300
; #@! TA.AperFunction,Plated,PTH,ComponentDrill
T2C0.750
; #@! TA.AperFunction,Plated,PTH,ComponentDrill
T3C0.800
; #@! TA.AperFunction,Plated,PTH,ComponentDrill
T4C0.900
; #@! TA.AperFunction,Plated,PTH,ComponentDrill
T5C0.991
; #@! TA.AperFunction,Plated,PTH,ComponentDrill
T6C1.000
; #@! TA.AperFunction,Plated,PTH,ComponentDrill
T7C1.100
; #@! TA.AperFunction,Plated,PTH,ComponentDrill
T8C1.200
; #@! TA.AperFunction,Plated,PTH,ComponentDrill
T9C2.000
; #@! TA.AperFunction,Plated,PTH,ViaDrill
T10C3.000
%
G90
G05
T1
X29.21Y-81.915
X34.733Y-71.755
X35.56Y-132.08
X35.56Y-139.7
X39.37Y-139.7
X62.865Y-107.95
X68.58Y-81.915
X68.741Y-107.95
X68.741Y-113.03
X68.741Y-133.35
X69.215Y-81.28
X69.215Y-104.775
X69.85Y-76.63
X69.85Y-88.265
X69.85Y-100.965
X69.85Y-104.14
X71.12Y-92.075
X77.47Y-111.76
X83.82Y-118.11
X83.82Y-119.38
X84.455Y-83.185
X84.455Y-95.25
X84.455Y-102.235
X84.897Y-163.387
X85.725Y-106.045
X85.725Y-111.125
X85.725Y-156.845
X91.44Y-156.845
X96.52Y-95.25
X101.805Y-108.585
X102.235Y-114.935
T2
X105.3Y-64.38
X105.3Y-79.62
X107.84Y-64.38
X107.84Y-79.62
X110.38Y-64.38
X110.38Y-79.62
X112.92Y-64.38
X112.92Y-79.62
X115.46Y-64.38
X115.46Y-79.62
X118.0Y-64.38
X118.0Y-79.62
T3
X65.405Y-161.29
X65.405Y-166.17
X73.025Y-142.24
X73.025Y-144.78
X73.025Y-147.32
X73.025Y-149.86
X73.025Y-152.4
X73.025Y-154.94
X73.025Y-157.48
X73.025Y-160.02
X73.025Y-162.56
X73.025Y-165.1
X73.025Y-167.64
X73.025Y-170.18
X73.025Y-172.72
X73.025Y-175.26
X80.645Y-142.24
X80.645Y-144.78
X80.645Y-147.32
X80.645Y-149.86
X80.645Y-152.4
X80.645Y-154.94
X80.645Y-157.48
X80.645Y-160.02
X80.645Y-162.56
X80.645Y-165.1
X80.645Y-167.64
X80.645Y-170.18
X80.645Y-172.72
X80.645Y-175.26
T4
X32.61Y-125.4
X35.15Y-125.4
X42.11Y-115.9
X44.65Y-115.9
X55.4Y-115.9
X57.94Y-115.9
X64.9Y-125.4
X67.44Y-125.4
X91.255Y-132.0
X91.44Y-165.1
X93.795Y-132.0
X93.98Y-165.1
X96.335Y-119.7
X96.35Y-144.4
X98.875Y-119.7
X98.89Y-144.4
X108.689Y-114.52
X111.229Y-114.52
X121.115Y-119.7
X121.15Y-144.4
X123.655Y-119.7
X123.69Y-144.4
X126.245Y-132.0
X128.785Y-132.0
T5
X38.0Y-32.75
X38.0Y-37.25
X40.0Y-32.75
X40.0Y-37.25
X42.0Y-32.75
X42.0Y-37.25
X58.0Y-32.75
X58.0Y-37.25
X60.0Y-32.75
X60.0Y-37.25
X62.0Y-32.75
X62.0Y-37.25
X78.0Y-32.75
X78.0Y-37.25
X80.0Y-32.75
X80.0Y-37.25
X82.0Y-32.75
X82.0Y-37.25
X98.0Y-32.75
X98.0Y-37.25
X100.0Y-32.75
X100.0Y-37.25
X102.0Y-32.75
X102.0Y-37.25
X108.0Y-189.75
X108.0Y-194.25
X110.0Y-189.75
X110.0Y-194.25
X112.0Y-189.75
X112.0Y-194.25
X118.0Y-32.75
X118.0Y-37.25
X120.0Y-32.75
X120.0Y-37.25
X122.0Y-32.75
X122.0Y-37.25
T6
X40.025Y-99.695
X42.5Y-69.5
X42.5Y-72.0
X42.5Y-74.5
X42.5Y-129.5
X42.5Y-132.0
X42.5Y-134.5
X44.92Y-189.45
X44.92Y-191.99
X44.92Y-194.53
X47.46Y-186.91
X47.46Y-197.07
X47.625Y-99.695
X48.26Y-148.59
X48.26Y-151.13
X48.26Y-153.67
X48.26Y-156.21
X48.26Y-158.75
X52.54Y-186.91
X52.54Y-197.07
X55.08Y-189.45
X55.08Y-191.99
X55.08Y-194.53
X102.5Y-129.5
X102.5Y-132.0
X102.5Y-134.5
X104.14Y-146.05
X104.14Y-148.59
X104.14Y-151.13
X104.14Y-153.67
X104.14Y-156.21
X104.14Y-158.75
T7
X60.885Y-146.34
X60.885Y-150.84
X67.385Y-146.34
X67.385Y-150.84
T10
X26.0Y-26.0
X26.0Y-118.5
X26.0Y-211.0
X80.0Y-26.0
X80.0Y-211.0
X134.0Y-26.0
X134.0Y-118.5
X134.0Y-211.0
T5
G00X90.538Y-25.944
M15
G01X88.532Y-25.944
M16
G05
G00X90.792Y-31.944
M15
G01X88.278Y-31.944
M16
G05
T8
G00X49.195Y-24.445
M15
G01X50.495Y-24.445
M16
G05
G00X49.195Y-29.845
M15
G01X50.495Y-29.845
M16
G05
G00X49.195Y-35.545
M15
G01X50.495Y-35.545
M16
G05
G00X69.2Y-24.445
M15
G01X70.5Y-24.445
M16
G05
G00X69.2Y-29.845
M15
G01X70.5Y-29.845
M16
G05
G00X69.2Y-35.545
M15
G01X70.5Y-35.545
M16
G05
T9
G00X49.45Y-66.4
M15
G01X50.55Y-66.4
M16
G05
G00X49.45Y-77.6
M15
G01X50.55Y-77.6
M16
G05
G00X49.45Y-126.4
M15
G01X50.55Y-126.4
M16
G05
G00X49.45Y-137.6
M15
G01X50.55Y-137.6
M16
G05
G00X109.45Y-126.4
M15
G01X110.55Y-126.4
M16
G05
G00X109.45Y-137.6
M15
G01X110.55Y-137.6
M16
G05
M30
