%TF.GenerationSoftware,KiCad,Pcbnew,9.0.6*%
%TF.CreationDate,2026-02-15T15:46:45-05:00*%
%TF.ProjectId,Darkroom Timer,4461726b-726f-46f6-9d20-54696d65722e,rev?*%
%TF.SameCoordinates,Original*%
%TF.FileFunction,Drillmap*%
%TF.FilePolarity,Positive*%
%FSLAX45Y45*%
G04 Gerber Fmt 4.5, Leading zero omitted, Abs format (unit mm)*
G04 Created by KiCad (PCBNEW 9.0.6) date 2026-02-15 15:46:45*
%MOMM*%
%LPD*%
G01*
G04 APERTURE LIST*
%ADD10C,0.200000*%
%ADD11C,0.100000*%
%ADD12C,0.110000*%
%ADD13C,0.120000*%
%ADD14C,0.300000*%
G04 APERTURE END LIST*
D10*
X2200000Y-2200000D02*
X13800000Y-2200000D01*
X13800000Y-21500000D01*
X2200000Y-21500000D01*
X2200000Y-2200000D01*
D11*
X2906000Y-8176500D02*
X2936000Y-8206500D01*
X2936000Y-8176500D02*
X2906000Y-8206500D01*
X3458250Y-7160500D02*
X3488250Y-7190500D01*
X3488250Y-7160500D02*
X3458250Y-7190500D01*
X3541000Y-13193000D02*
X3571000Y-13223000D01*
X3571000Y-13193000D02*
X3541000Y-13223000D01*
X3541000Y-13955000D02*
X3571000Y-13985000D01*
X3571000Y-13955000D02*
X3541000Y-13985000D01*
X3922000Y-13955000D02*
X3952000Y-13985000D01*
X3952000Y-13955000D02*
X3922000Y-13985000D01*
X6271500Y-10780000D02*
X6301500Y-10810000D01*
X6301500Y-10780000D02*
X6271500Y-10810000D01*
X6843000Y-8176500D02*
X6873000Y-8206500D01*
X6873000Y-8176500D02*
X6843000Y-8206500D01*
X6859100Y-10780000D02*
X6889100Y-10810000D01*
X6889100Y-10780000D02*
X6859100Y-10810000D01*
X6859100Y-11288000D02*
X6889100Y-11318000D01*
X6889100Y-11288000D02*
X6859100Y-11318000D01*
X6859100Y-13320000D02*
X6889100Y-13350000D01*
X6889100Y-13320000D02*
X6859100Y-13350000D01*
X6906500Y-8113000D02*
X6936500Y-8143000D01*
X6936500Y-8113000D02*
X6906500Y-8143000D01*
X6906500Y-10462500D02*
X6936500Y-10492500D01*
X6936500Y-10462500D02*
X6906500Y-10492500D01*
X6970000Y-7648000D02*
X7000000Y-7678000D01*
X7000000Y-7648000D02*
X6970000Y-7678000D01*
X6970000Y-8811500D02*
X7000000Y-8841500D01*
X7000000Y-8811500D02*
X6970000Y-8841500D01*
X6970000Y-10081500D02*
X7000000Y-10111500D01*
X7000000Y-10081500D02*
X6970000Y-10111500D01*
X6970000Y-10399000D02*
X7000000Y-10429000D01*
X7000000Y-10399000D02*
X6970000Y-10429000D01*
X7097000Y-9192500D02*
X7127000Y-9222500D01*
X7127000Y-9192500D02*
X7097000Y-9222500D01*
X7732000Y-11161000D02*
X7762000Y-11191000D01*
X7762000Y-11161000D02*
X7732000Y-11191000D01*
X8367000Y-11796000D02*
X8397000Y-11826000D01*
X8397000Y-11796000D02*
X8367000Y-11826000D01*
X8367000Y-11923000D02*
X8397000Y-11953000D01*
X8397000Y-11923000D02*
X8367000Y-11953000D01*
X8430500Y-8303500D02*
X8460500Y-8333500D01*
X8460500Y-8303500D02*
X8430500Y-8333500D01*
X8430500Y-9510000D02*
X8460500Y-9540000D01*
X8460500Y-9510000D02*
X8430500Y-9540000D01*
X8430500Y-10208500D02*
X8460500Y-10238500D01*
X8460500Y-10208500D02*
X8430500Y-10238500D01*
X8474750Y-16323750D02*
X8504750Y-16353750D01*
X8504750Y-16323750D02*
X8474750Y-16353750D01*
X8557500Y-10589500D02*
X8587500Y-10619500D01*
X8587500Y-10589500D02*
X8557500Y-10619500D01*
X8557500Y-11097500D02*
X8587500Y-11127500D01*
X8587500Y-11097500D02*
X8557500Y-11127500D01*
X8557500Y-15669500D02*
X8587500Y-15699500D01*
X8587500Y-15669500D02*
X8557500Y-15699500D01*
X9129000Y-15669500D02*
X9159000Y-15699500D01*
X9159000Y-15669500D02*
X9129000Y-15699500D01*
X9637000Y-9510000D02*
X9667000Y-9540000D01*
X9667000Y-9510000D02*
X9637000Y-9540000D01*
X10165500Y-10843500D02*
X10195500Y-10873500D01*
X10195500Y-10843500D02*
X10165500Y-10873500D01*
X10208500Y-11478500D02*
X10238500Y-11508500D01*
X10238500Y-11478500D02*
X10208500Y-11508500D01*
X10567500Y-6438000D02*
G75*
G02*
X10492500Y-6438000I-37500J0D01*
G01*
X10492500Y-6438000D02*
G75*
G02*
X10567500Y-6438000I37500J0D01*
G01*
X10567500Y-7962000D02*
G75*
G02*
X10492500Y-7962000I-37500J0D01*
G01*
X10492500Y-7962000D02*
G75*
G02*
X10567500Y-7962000I37500J0D01*
G01*
X10821500Y-6438000D02*
G75*
G02*
X10746500Y-6438000I-37500J0D01*
G01*
X10746500Y-6438000D02*
G75*
G02*
X10821500Y-6438000I37500J0D01*
G01*
X10821500Y-7962000D02*
G75*
G02*
X10746500Y-7962000I-37500J0D01*
G01*
X10746500Y-7962000D02*
G75*
G02*
X10821500Y-7962000I37500J0D01*
G01*
X11075500Y-6438000D02*
G75*
G02*
X11000500Y-6438000I-37500J0D01*
G01*
X11000500Y-6438000D02*
G75*
G02*
X11075500Y-6438000I37500J0D01*
G01*
X11075500Y-7962000D02*
G75*
G02*
X11000500Y-7962000I-37500J0D01*
G01*
X11000500Y-7962000D02*
G75*
G02*
X11075500Y-7962000I37500J0D01*
G01*
X11329500Y-6438000D02*
G75*
G02*
X11254500Y-6438000I-37500J0D01*
G01*
X11254500Y-6438000D02*
G75*
G02*
X11329500Y-6438000I37500J0D01*
G01*
X11329500Y-7962000D02*
G75*
G02*
X11254500Y-7962000I-37500J0D01*
G01*
X11254500Y-7962000D02*
G75*
G02*
X11329500Y-7962000I37500J0D01*
G01*
X11583500Y-6438000D02*
G75*
G02*
X11508500Y-6438000I-37500J0D01*
G01*
X11508500Y-6438000D02*
G75*
G02*
X11583500Y-6438000I37500J0D01*
G01*
X11583500Y-7962000D02*
G75*
G02*
X11508500Y-7962000I-37500J0D01*
G01*
X11508500Y-7962000D02*
G75*
G02*
X11583500Y-7962000I37500J0D01*
G01*
X11837500Y-6438000D02*
G75*
G02*
X11762500Y-6438000I-37500J0D01*
G01*
X11762500Y-6438000D02*
G75*
G02*
X11837500Y-6438000I37500J0D01*
G01*
X11837500Y-7962000D02*
G75*
G02*
X11762500Y-7962000I-37500J0D01*
G01*
X11762500Y-7962000D02*
G75*
G02*
X11837500Y-7962000I37500J0D01*
G01*
X6540500Y-16089000D02*
X6540500Y-16169000D01*
X6500500Y-16129000D02*
X6580500Y-16129000D01*
X6540500Y-16577000D02*
X6540500Y-16657000D01*
X6500500Y-16617000D02*
X6580500Y-16617000D01*
X7302500Y-14184000D02*
X7302500Y-14264000D01*
X7262500Y-14224000D02*
X7342500Y-14224000D01*
X7302500Y-14438000D02*
X7302500Y-14518000D01*
X7262500Y-14478000D02*
X7342500Y-14478000D01*
X7302500Y-14692000D02*
X7302500Y-14772000D01*
X7262500Y-14732000D02*
X7342500Y-14732000D01*
X7302500Y-14946000D02*
X7302500Y-15026000D01*
X7262500Y-14986000D02*
X7342500Y-14986000D01*
X7302500Y-15200000D02*
X7302500Y-15280000D01*
X7262500Y-15240000D02*
X7342500Y-15240000D01*
X7302500Y-15454000D02*
X7302500Y-15534000D01*
X7262500Y-15494000D02*
X7342500Y-15494000D01*
X7302500Y-15708000D02*
X7302500Y-15788000D01*
X7262500Y-15748000D02*
X7342500Y-15748000D01*
X7302500Y-15962000D02*
X7302500Y-16042000D01*
X7262500Y-16002000D02*
X7342500Y-16002000D01*
X7302500Y-16216000D02*
X7302500Y-16296000D01*
X7262500Y-16256000D02*
X7342500Y-16256000D01*
X7302500Y-16470000D02*
X7302500Y-16550000D01*
X7262500Y-16510000D02*
X7342500Y-16510000D01*
X7302500Y-16724000D02*
X7302500Y-16804000D01*
X7262500Y-16764000D02*
X7342500Y-16764000D01*
X7302500Y-16978000D02*
X7302500Y-17058000D01*
X7262500Y-17018000D02*
X7342500Y-17018000D01*
X7302500Y-17232000D02*
X7302500Y-17312000D01*
X7262500Y-17272000D02*
X7342500Y-17272000D01*
X7302500Y-17486000D02*
X7302500Y-17566000D01*
X7262500Y-17526000D02*
X7342500Y-17526000D01*
X8064500Y-14184000D02*
X8064500Y-14264000D01*
X8024500Y-14224000D02*
X8104500Y-14224000D01*
X8064500Y-14438000D02*
X8064500Y-14518000D01*
X8024500Y-14478000D02*
X8104500Y-14478000D01*
X8064500Y-14692000D02*
X8064500Y-14772000D01*
X8024500Y-14732000D02*
X8104500Y-14732000D01*
X8064500Y-14946000D02*
X8064500Y-15026000D01*
X8024500Y-14986000D02*
X8104500Y-14986000D01*
X8064500Y-15200000D02*
X8064500Y-15280000D01*
X8024500Y-15240000D02*
X8104500Y-15240000D01*
X8064500Y-15454000D02*
X8064500Y-15534000D01*
X8024500Y-15494000D02*
X8104500Y-15494000D01*
X8064500Y-15708000D02*
X8064500Y-15788000D01*
X8024500Y-15748000D02*
X8104500Y-15748000D01*
X8064500Y-15962000D02*
X8064500Y-16042000D01*
X8024500Y-16002000D02*
X8104500Y-16002000D01*
X8064500Y-16216000D02*
X8064500Y-16296000D01*
X8024500Y-16256000D02*
X8104500Y-16256000D01*
X8064500Y-16470000D02*
X8064500Y-16550000D01*
X8024500Y-16510000D02*
X8104500Y-16510000D01*
X8064500Y-16724000D02*
X8064500Y-16804000D01*
X8024500Y-16764000D02*
X8104500Y-16764000D01*
X8064500Y-16978000D02*
X8064500Y-17058000D01*
X8024500Y-17018000D02*
X8104500Y-17018000D01*
X8064500Y-17232000D02*
X8064500Y-17312000D01*
X8024500Y-17272000D02*
X8104500Y-17272000D01*
X8064500Y-17486000D02*
X8064500Y-17566000D01*
X8024500Y-17526000D02*
X8104500Y-17526000D01*
X3292820Y-12571820D02*
X3292820Y-12508180D01*
X3229180Y-12508180D01*
X3229180Y-12571820D01*
X3292820Y-12571820D01*
X3546820Y-12571820D02*
X3546820Y-12508180D01*
X3483180Y-12508180D01*
X3483180Y-12571820D01*
X3546820Y-12571820D01*
X4242820Y-11621820D02*
X4242820Y-11558180D01*
X4179180Y-11558180D01*
X4179180Y-11621820D01*
X4242820Y-11621820D01*
X4496820Y-11621820D02*
X4496820Y-11558180D01*
X4433180Y-11558180D01*
X4433180Y-11621820D01*
X4496820Y-11621820D01*
X5571820Y-11621820D02*
X5571820Y-11558180D01*
X5508180Y-11558180D01*
X5508180Y-11621820D01*
X5571820Y-11621820D01*
X5825820Y-11621820D02*
X5825820Y-11558180D01*
X5762180Y-11558180D01*
X5762180Y-11621820D01*
X5825820Y-11621820D01*
X6521820Y-12571820D02*
X6521820Y-12508180D01*
X6458180Y-12508180D01*
X6458180Y-12571820D01*
X6521820Y-12571820D01*
X6775820Y-12571820D02*
X6775820Y-12508180D01*
X6712180Y-12508180D01*
X6712180Y-12571820D01*
X6775820Y-12571820D01*
X9157320Y-13231820D02*
X9157320Y-13168180D01*
X9093680Y-13168180D01*
X9093680Y-13231820D01*
X9157320Y-13231820D01*
X9175820Y-16541820D02*
X9175820Y-16478180D01*
X9112180Y-16478180D01*
X9112180Y-16541820D01*
X9175820Y-16541820D01*
X9411320Y-13231820D02*
X9411320Y-13168180D01*
X9347680Y-13168180D01*
X9347680Y-13231820D01*
X9411320Y-13231820D01*
X9429820Y-16541820D02*
X9429820Y-16478180D01*
X9366180Y-16478180D01*
X9366180Y-16541820D01*
X9429820Y-16541820D01*
X9665320Y-12001820D02*
X9665320Y-11938180D01*
X9601680Y-11938180D01*
X9601680Y-12001820D01*
X9665320Y-12001820D01*
X9666820Y-14471820D02*
X9666820Y-14408180D01*
X9603180Y-14408180D01*
X9603180Y-14471820D01*
X9666820Y-14471820D01*
X9919320Y-12001820D02*
X9919320Y-11938180D01*
X9855680Y-11938180D01*
X9855680Y-12001820D01*
X9919320Y-12001820D01*
X9920820Y-14471820D02*
X9920820Y-14408180D01*
X9857180Y-14408180D01*
X9857180Y-14471820D01*
X9920820Y-14471820D01*
X10900724Y-11483820D02*
X10900724Y-11420180D01*
X10837084Y-11420180D01*
X10837084Y-11483820D01*
X10900724Y-11483820D01*
X11154724Y-11483820D02*
X11154724Y-11420180D01*
X11091084Y-11420180D01*
X11091084Y-11483820D01*
X11154724Y-11483820D01*
X12143320Y-12001820D02*
X12143320Y-11938180D01*
X12079680Y-11938180D01*
X12079680Y-12001820D01*
X12143320Y-12001820D01*
X12146820Y-14471820D02*
X12146820Y-14408180D01*
X12083180Y-14408180D01*
X12083180Y-14471820D01*
X12146820Y-14471820D01*
X12397320Y-12001820D02*
X12397320Y-11938180D01*
X12333680Y-11938180D01*
X12333680Y-12001820D01*
X12397320Y-12001820D01*
X12400820Y-14471820D02*
X12400820Y-14408180D01*
X12337180Y-14408180D01*
X12337180Y-14471820D01*
X12400820Y-14471820D01*
X12656320Y-13231820D02*
X12656320Y-13168180D01*
X12592680Y-13168180D01*
X12592680Y-13231820D01*
X12656320Y-13231820D01*
X12910320Y-13231820D02*
X12910320Y-13168180D01*
X12846680Y-13168180D01*
X12846680Y-13231820D01*
X12910320Y-13231820D01*
X3800000Y-3324530D02*
X3849530Y-3275000D01*
X3800000Y-3225470D01*
X3750470Y-3275000D01*
X3800000Y-3324530D01*
X3800000Y-3774530D02*
X3849530Y-3725000D01*
X3800000Y-3675470D01*
X3750470Y-3725000D01*
X3800000Y-3774530D01*
X4000000Y-3324530D02*
X4049530Y-3275000D01*
X4000000Y-3225470D01*
X3950470Y-3275000D01*
X4000000Y-3324530D01*
X4000000Y-3774530D02*
X4049530Y-3725000D01*
X4000000Y-3675470D01*
X3950470Y-3725000D01*
X4000000Y-3774530D01*
X4200000Y-3324530D02*
X4249530Y-3275000D01*
X4200000Y-3225470D01*
X4150470Y-3275000D01*
X4200000Y-3324530D01*
X4200000Y-3774530D02*
X4249530Y-3725000D01*
X4200000Y-3675470D01*
X4150470Y-3725000D01*
X4200000Y-3774530D01*
X5800000Y-3324530D02*
X5849530Y-3275000D01*
X5800000Y-3225470D01*
X5750470Y-3275000D01*
X5800000Y-3324530D01*
X5800000Y-3774530D02*
X5849530Y-3725000D01*
X5800000Y-3675470D01*
X5750470Y-3725000D01*
X5800000Y-3774530D01*
X6000000Y-3324530D02*
X6049530Y-3275000D01*
X6000000Y-3225470D01*
X5950470Y-3275000D01*
X6000000Y-3324530D01*
X6000000Y-3774530D02*
X6049530Y-3725000D01*
X6000000Y-3675470D01*
X5950470Y-3725000D01*
X6000000Y-3774530D01*
X6200000Y-3324530D02*
X6249530Y-3275000D01*
X6200000Y-3225470D01*
X6150470Y-3275000D01*
X6200000Y-3324530D01*
X6200000Y-3774530D02*
X6249530Y-3725000D01*
X6200000Y-3675470D01*
X6150470Y-3725000D01*
X6200000Y-3774530D01*
X7800000Y-3324530D02*
X7849530Y-3275000D01*
X7800000Y-3225470D01*
X7750470Y-3275000D01*
X7800000Y-3324530D01*
X7800000Y-3774530D02*
X7849530Y-3725000D01*
X7800000Y-3675470D01*
X7750470Y-3725000D01*
X7800000Y-3774530D01*
X8000000Y-3324530D02*
X8049530Y-3275000D01*
X8000000Y-3225470D01*
X7950470Y-3275000D01*
X8000000Y-3324530D01*
X8000000Y-3774530D02*
X8049530Y-3725000D01*
X8000000Y-3675470D01*
X7950470Y-3725000D01*
X8000000Y-3774530D01*
X8200000Y-3324530D02*
X8249530Y-3275000D01*
X8200000Y-3225470D01*
X8150470Y-3275000D01*
X8200000Y-3324530D01*
X8200000Y-3774530D02*
X8249530Y-3725000D01*
X8200000Y-3675470D01*
X8150470Y-3725000D01*
X8200000Y-3774530D01*
X8953500Y-2643950D02*
X9003030Y-2594420D01*
X8953500Y-2544890D01*
X8903970Y-2594420D01*
X8953500Y-2643950D01*
X9053830Y-2544890D02*
X8853170Y-2544890D01*
X8853170Y-2643950D02*
G75*
G02*
X8853170Y-2544890I0J49530D01*
G01*
X8853170Y-2643950D02*
X9053830Y-2643950D01*
X9053830Y-2643950D02*
G75*
G03*
X9053830Y-2544890I0J49530D01*
G01*
X8953500Y-3243950D02*
X9003030Y-3194420D01*
X8953500Y-3144890D01*
X8903970Y-3194420D01*
X8953500Y-3243950D01*
X9079230Y-3144890D02*
X8827770Y-3144890D01*
X8827770Y-3243950D02*
G75*
G02*
X8827770Y-3144890I0J49530D01*
G01*
X8827770Y-3243950D02*
X9079230Y-3243950D01*
X9079230Y-3243950D02*
G75*
G03*
X9079230Y-3144890I0J49530D01*
G01*
X9800000Y-3324530D02*
X9849530Y-3275000D01*
X9800000Y-3225470D01*
X9750470Y-3275000D01*
X9800000Y-3324530D01*
X9800000Y-3774530D02*
X9849530Y-3725000D01*
X9800000Y-3675470D01*
X9750470Y-3725000D01*
X9800000Y-3774530D01*
X10000000Y-3324530D02*
X10049530Y-3275000D01*
X10000000Y-3225470D01*
X9950470Y-3275000D01*
X10000000Y-3324530D01*
X10000000Y-3774530D02*
X10049530Y-3725000D01*
X10000000Y-3675470D01*
X9950470Y-3725000D01*
X10000000Y-3774530D01*
X10200000Y-3324530D02*
X10249530Y-3275000D01*
X10200000Y-3225470D01*
X10150470Y-3275000D01*
X10200000Y-3324530D01*
X10200000Y-3774530D02*
X10249530Y-3725000D01*
X10200000Y-3675470D01*
X10150470Y-3725000D01*
X10200000Y-3774530D01*
X10800000Y-19024530D02*
X10849530Y-18975000D01*
X10800000Y-18925470D01*
X10750470Y-18975000D01*
X10800000Y-19024530D01*
X10800000Y-19474530D02*
X10849530Y-19425000D01*
X10800000Y-19375470D01*
X10750470Y-19425000D01*
X10800000Y-19474530D01*
X11000000Y-19024530D02*
X11049530Y-18975000D01*
X11000000Y-18925470D01*
X10950470Y-18975000D01*
X11000000Y-19024530D01*
X11000000Y-19474530D02*
X11049530Y-19425000D01*
X11000000Y-19375470D01*
X10950470Y-19425000D01*
X11000000Y-19474530D01*
X11200000Y-19024530D02*
X11249530Y-18975000D01*
X11200000Y-18925470D01*
X11150470Y-18975000D01*
X11200000Y-19024530D01*
X11200000Y-19474530D02*
X11249530Y-19425000D01*
X11200000Y-19375470D01*
X11150470Y-19425000D01*
X11200000Y-19474530D01*
X11800000Y-3324530D02*
X11849530Y-3275000D01*
X11800000Y-3225470D01*
X11750470Y-3275000D01*
X11800000Y-3324530D01*
X11800000Y-3774530D02*
X11849530Y-3725000D01*
X11800000Y-3675470D01*
X11750470Y-3725000D01*
X11800000Y-3774530D01*
X12000000Y-3324530D02*
X12049530Y-3275000D01*
X12000000Y-3225470D01*
X11950470Y-3275000D01*
X12000000Y-3324530D01*
X12000000Y-3774530D02*
X12049530Y-3725000D01*
X12000000Y-3675470D01*
X11950470Y-3725000D01*
X12000000Y-3774530D01*
X12200000Y-3324530D02*
X12249530Y-3275000D01*
X12200000Y-3225470D01*
X12150470Y-3275000D01*
X12200000Y-3324530D01*
X12200000Y-3774530D02*
X12249530Y-3725000D01*
X12200000Y-3675470D01*
X12150470Y-3725000D01*
X12200000Y-3774530D01*
X3952500Y-9919500D02*
X4052500Y-10019500D01*
X4052500Y-9919500D02*
X3952500Y-10019500D01*
X4052500Y-9969500D02*
G75*
G02*
X3952500Y-9969500I-50000J0D01*
G01*
X3952500Y-9969500D02*
G75*
G02*
X4052500Y-9969500I50000J0D01*
G01*
X4200000Y-6900000D02*
X4300000Y-7000000D01*
X4300000Y-6900000D02*
X4200000Y-7000000D01*
X4300000Y-6950000D02*
G75*
G02*
X4200000Y-6950000I-50000J0D01*
G01*
X4200000Y-6950000D02*
G75*
G02*
X4300000Y-6950000I50000J0D01*
G01*
X4200000Y-7150000D02*
X4300000Y-7250000D01*
X4300000Y-7150000D02*
X4200000Y-7250000D01*
X4300000Y-7200000D02*
G75*
G02*
X4200000Y-7200000I-50000J0D01*
G01*
X4200000Y-7200000D02*
G75*
G02*
X4300000Y-7200000I50000J0D01*
G01*
X4200000Y-7400000D02*
X4300000Y-7500000D01*
X4300000Y-7400000D02*
X4200000Y-7500000D01*
X4300000Y-7450000D02*
G75*
G02*
X4200000Y-7450000I-50000J0D01*
G01*
X4200000Y-7450000D02*
G75*
G02*
X4300000Y-7450000I50000J0D01*
G01*
X4200000Y-12900000D02*
X4300000Y-13000000D01*
X4300000Y-12900000D02*
X4200000Y-13000000D01*
X4300000Y-12950000D02*
G75*
G02*
X4200000Y-12950000I-50000J0D01*
G01*
X4200000Y-12950000D02*
G75*
G02*
X4300000Y-12950000I50000J0D01*
G01*
X4200000Y-13150000D02*
X4300000Y-13250000D01*
X4300000Y-13150000D02*
X4200000Y-13250000D01*
X4300000Y-13200000D02*
G75*
G02*
X4200000Y-13200000I-50000J0D01*
G01*
X4200000Y-13200000D02*
G75*
G02*
X4300000Y-13200000I50000J0D01*
G01*
X4200000Y-13400000D02*
X4300000Y-13500000D01*
X4300000Y-13400000D02*
X4200000Y-13500000D01*
X4300000Y-13450000D02*
G75*
G02*
X4200000Y-13450000I-50000J0D01*
G01*
X4200000Y-13450000D02*
G75*
G02*
X4300000Y-13450000I50000J0D01*
G01*
X4442000Y-18895000D02*
X4542000Y-18995000D01*
X4542000Y-18895000D02*
X4442000Y-18995000D01*
X4542000Y-18945000D02*
G75*
G02*
X4442000Y-18945000I-50000J0D01*
G01*
X4442000Y-18945000D02*
G75*
G02*
X4542000Y-18945000I50000J0D01*
G01*
X4442000Y-19149000D02*
X4542000Y-19249000D01*
X4542000Y-19149000D02*
X4442000Y-19249000D01*
X4542000Y-19199000D02*
G75*
G02*
X4442000Y-19199000I-50000J0D01*
G01*
X4442000Y-19199000D02*
G75*
G02*
X4542000Y-19199000I50000J0D01*
G01*
X4442000Y-19403000D02*
X4542000Y-19503000D01*
X4542000Y-19403000D02*
X4442000Y-19503000D01*
X4542000Y-19453000D02*
G75*
G02*
X4442000Y-19453000I-50000J0D01*
G01*
X4442000Y-19453000D02*
G75*
G02*
X4542000Y-19453000I50000J0D01*
G01*
X4696000Y-18641000D02*
X4796000Y-18741000D01*
X4796000Y-18641000D02*
X4696000Y-18741000D01*
X4796000Y-18691000D02*
G75*
G02*
X4696000Y-18691000I-50000J0D01*
G01*
X4696000Y-18691000D02*
G75*
G02*
X4796000Y-18691000I50000J0D01*
G01*
X4696000Y-19657000D02*
X4796000Y-19757000D01*
X4796000Y-19657000D02*
X4696000Y-19757000D01*
X4796000Y-19707000D02*
G75*
G02*
X4696000Y-19707000I-50000J0D01*
G01*
X4696000Y-19707000D02*
G75*
G02*
X4796000Y-19707000I50000J0D01*
G01*
X4712500Y-9919500D02*
X4812500Y-10019500D01*
X4812500Y-9919500D02*
X4712500Y-10019500D01*
X4812500Y-9969500D02*
G75*
G02*
X4712500Y-9969500I-50000J0D01*
G01*
X4712500Y-9969500D02*
G75*
G02*
X4812500Y-9969500I50000J0D01*
G01*
X4776000Y-14809000D02*
X4876000Y-14909000D01*
X4876000Y-14809000D02*
X4776000Y-14909000D01*
X4876000Y-14859000D02*
G75*
G02*
X4776000Y-14859000I-50000J0D01*
G01*
X4776000Y-14859000D02*
G75*
G02*
X4876000Y-14859000I50000J0D01*
G01*
X4776000Y-15063000D02*
X4876000Y-15163000D01*
X4876000Y-15063000D02*
X4776000Y-15163000D01*
X4876000Y-15113000D02*
G75*
G02*
X4776000Y-15113000I-50000J0D01*
G01*
X4776000Y-15113000D02*
G75*
G02*
X4876000Y-15113000I50000J0D01*
G01*
X4776000Y-15317000D02*
X4876000Y-15417000D01*
X4876000Y-15317000D02*
X4776000Y-15417000D01*
X4876000Y-15367000D02*
G75*
G02*
X4776000Y-15367000I-50000J0D01*
G01*
X4776000Y-15367000D02*
G75*
G02*
X4876000Y-15367000I50000J0D01*
G01*
X4776000Y-15571000D02*
X4876000Y-15671000D01*
X4876000Y-15571000D02*
X4776000Y-15671000D01*
X4876000Y-15621000D02*
G75*
G02*
X4776000Y-15621000I-50000J0D01*
G01*
X4776000Y-15621000D02*
G75*
G02*
X4876000Y-15621000I50000J0D01*
G01*
X4776000Y-15825000D02*
X4876000Y-15925000D01*
X4876000Y-15825000D02*
X4776000Y-15925000D01*
X4876000Y-15875000D02*
G75*
G02*
X4776000Y-15875000I-50000J0D01*
G01*
X4776000Y-15875000D02*
G75*
G02*
X4876000Y-15875000I50000J0D01*
G01*
X5204000Y-18641000D02*
X5304000Y-18741000D01*
X5304000Y-18641000D02*
X5204000Y-18741000D01*
X5304000Y-18691000D02*
G75*
G02*
X5204000Y-18691000I-50000J0D01*
G01*
X5204000Y-18691000D02*
G75*
G02*
X5304000Y-18691000I50000J0D01*
G01*
X5204000Y-19657000D02*
X5304000Y-19757000D01*
X5304000Y-19657000D02*
X5204000Y-19757000D01*
X5304000Y-19707000D02*
G75*
G02*
X5204000Y-19707000I-50000J0D01*
G01*
X5204000Y-19707000D02*
G75*
G02*
X5304000Y-19707000I50000J0D01*
G01*
X5458000Y-18895000D02*
X5558000Y-18995000D01*
X5558000Y-18895000D02*
X5458000Y-18995000D01*
X5558000Y-18945000D02*
G75*
G02*
X5458000Y-18945000I-50000J0D01*
G01*
X5458000Y-18945000D02*
G75*
G02*
X5558000Y-18945000I50000J0D01*
G01*
X5458000Y-19149000D02*
X5558000Y-19249000D01*
X5558000Y-19149000D02*
X5458000Y-19249000D01*
X5558000Y-19199000D02*
G75*
G02*
X5458000Y-19199000I-50000J0D01*
G01*
X5458000Y-19199000D02*
G75*
G02*
X5558000Y-19199000I50000J0D01*
G01*
X5458000Y-19403000D02*
X5558000Y-19503000D01*
X5558000Y-19403000D02*
X5458000Y-19503000D01*
X5558000Y-19453000D02*
G75*
G02*
X5458000Y-19453000I-50000J0D01*
G01*
X5458000Y-19453000D02*
G75*
G02*
X5558000Y-19453000I50000J0D01*
G01*
X10200000Y-12900000D02*
X10300000Y-13000000D01*
X10300000Y-12900000D02*
X10200000Y-13000000D01*
X10300000Y-12950000D02*
G75*
G02*
X10200000Y-12950000I-50000J0D01*
G01*
X10200000Y-12950000D02*
G75*
G02*
X10300000Y-12950000I50000J0D01*
G01*
X10200000Y-13150000D02*
X10300000Y-13250000D01*
X10300000Y-13150000D02*
X10200000Y-13250000D01*
X10300000Y-13200000D02*
G75*
G02*
X10200000Y-13200000I-50000J0D01*
G01*
X10200000Y-13200000D02*
G75*
G02*
X10300000Y-13200000I50000J0D01*
G01*
X10200000Y-13400000D02*
X10300000Y-13500000D01*
X10300000Y-13400000D02*
X10200000Y-13500000D01*
X10300000Y-13450000D02*
G75*
G02*
X10200000Y-13450000I-50000J0D01*
G01*
X10200000Y-13450000D02*
G75*
G02*
X10300000Y-13450000I50000J0D01*
G01*
X10364000Y-14555000D02*
X10464000Y-14655000D01*
X10464000Y-14555000D02*
X10364000Y-14655000D01*
X10464000Y-14605000D02*
G75*
G02*
X10364000Y-14605000I-50000J0D01*
G01*
X10364000Y-14605000D02*
G75*
G02*
X10464000Y-14605000I50000J0D01*
G01*
X10364000Y-14809000D02*
X10464000Y-14909000D01*
X10464000Y-14809000D02*
X10364000Y-14909000D01*
X10464000Y-14859000D02*
G75*
G02*
X10364000Y-14859000I-50000J0D01*
G01*
X10364000Y-14859000D02*
G75*
G02*
X10464000Y-14859000I50000J0D01*
G01*
X10364000Y-15063000D02*
X10464000Y-15163000D01*
X10464000Y-15063000D02*
X10364000Y-15163000D01*
X10464000Y-15113000D02*
G75*
G02*
X10364000Y-15113000I-50000J0D01*
G01*
X10364000Y-15113000D02*
G75*
G02*
X10464000Y-15113000I50000J0D01*
G01*
X10364000Y-15317000D02*
X10464000Y-15417000D01*
X10464000Y-15317000D02*
X10364000Y-15417000D01*
X10464000Y-15367000D02*
G75*
G02*
X10364000Y-15367000I-50000J0D01*
G01*
X10364000Y-15367000D02*
G75*
G02*
X10464000Y-15367000I50000J0D01*
G01*
X10364000Y-15571000D02*
X10464000Y-15671000D01*
X10464000Y-15571000D02*
X10364000Y-15671000D01*
X10464000Y-15621000D02*
G75*
G02*
X10364000Y-15621000I-50000J0D01*
G01*
X10364000Y-15621000D02*
G75*
G02*
X10464000Y-15621000I50000J0D01*
G01*
X10364000Y-15825000D02*
X10464000Y-15925000D01*
X10464000Y-15825000D02*
X10364000Y-15925000D01*
X10464000Y-15875000D02*
G75*
G02*
X10364000Y-15875000I-50000J0D01*
G01*
X10364000Y-15875000D02*
G75*
G02*
X10464000Y-15875000I50000J0D01*
G01*
D12*
X6033500Y-14579000D02*
X6143500Y-14689000D01*
X6143500Y-14579000D02*
X6033500Y-14689000D01*
X6088500Y-14579000D02*
X6088500Y-14689000D01*
X6033500Y-14634000D02*
X6143500Y-14634000D01*
X6033500Y-15029000D02*
X6143500Y-15139000D01*
X6143500Y-15029000D02*
X6033500Y-15139000D01*
X6088500Y-15029000D02*
X6088500Y-15139000D01*
X6033500Y-15084000D02*
X6143500Y-15084000D01*
X6683500Y-14579000D02*
X6793500Y-14689000D01*
X6793500Y-14579000D02*
X6683500Y-14689000D01*
X6738500Y-14579000D02*
X6738500Y-14689000D01*
X6683500Y-14634000D02*
X6793500Y-14634000D01*
X6683500Y-15029000D02*
X6793500Y-15139000D01*
X6793500Y-15029000D02*
X6683500Y-15139000D01*
X6738500Y-15029000D02*
X6738500Y-15139000D01*
X6683500Y-15084000D02*
X6793500Y-15084000D01*
D13*
X4924500Y-2384500D02*
X5044500Y-2504500D01*
X5044500Y-2384500D02*
X4924500Y-2504500D01*
X5026927Y-2486927D02*
X5026927Y-2402073D01*
X4942073Y-2402073D01*
X4942073Y-2486927D01*
X5026927Y-2486927D01*
D11*
X4919500Y-2504500D02*
X5049500Y-2504500D01*
X5049500Y-2384500D02*
G75*
G02*
X5049500Y-2504500I0J-60000D01*
G01*
X5049500Y-2384500D02*
X4919500Y-2384500D01*
X4919500Y-2384500D02*
G75*
G03*
X4919500Y-2504500I0J-60000D01*
G01*
D13*
X4924500Y-2924500D02*
X5044500Y-3044500D01*
X5044500Y-2924500D02*
X4924500Y-3044500D01*
X5026927Y-3026927D02*
X5026927Y-2942073D01*
X4942073Y-2942073D01*
X4942073Y-3026927D01*
X5026927Y-3026927D01*
D11*
X4919500Y-3044500D02*
X5049500Y-3044500D01*
X5049500Y-2924500D02*
G75*
G02*
X5049500Y-3044500I0J-60000D01*
G01*
X5049500Y-2924500D02*
X4919500Y-2924500D01*
X4919500Y-2924500D02*
G75*
G03*
X4919500Y-3044500I0J-60000D01*
G01*
D13*
X4924500Y-3494500D02*
X5044500Y-3614500D01*
X5044500Y-3494500D02*
X4924500Y-3614500D01*
X5026927Y-3596927D02*
X5026927Y-3512073D01*
X4942073Y-3512073D01*
X4942073Y-3596927D01*
X5026927Y-3596927D01*
D11*
X4919500Y-3614500D02*
X5049500Y-3614500D01*
X5049500Y-3494500D02*
G75*
G02*
X5049500Y-3614500I0J-60000D01*
G01*
X5049500Y-3494500D02*
X4919500Y-3494500D01*
X4919500Y-3494500D02*
G75*
G03*
X4919500Y-3614500I0J-60000D01*
G01*
D13*
X6925000Y-2384500D02*
X7045000Y-2504500D01*
X7045000Y-2384500D02*
X6925000Y-2504500D01*
X7027427Y-2486927D02*
X7027427Y-2402073D01*
X6942573Y-2402073D01*
X6942573Y-2486927D01*
X7027427Y-2486927D01*
D11*
X6920000Y-2504500D02*
X7050000Y-2504500D01*
X7050000Y-2384500D02*
G75*
G02*
X7050000Y-2504500I0J-60000D01*
G01*
X7050000Y-2384500D02*
X6920000Y-2384500D01*
X6920000Y-2384500D02*
G75*
G03*
X6920000Y-2504500I0J-60000D01*
G01*
D13*
X6925000Y-2924500D02*
X7045000Y-3044500D01*
X7045000Y-2924500D02*
X6925000Y-3044500D01*
X7027427Y-3026927D02*
X7027427Y-2942073D01*
X6942573Y-2942073D01*
X6942573Y-3026927D01*
X7027427Y-3026927D01*
D11*
X6920000Y-3044500D02*
X7050000Y-3044500D01*
X7050000Y-2924500D02*
G75*
G02*
X7050000Y-3044500I0J-60000D01*
G01*
X7050000Y-2924500D02*
X6920000Y-2924500D01*
X6920000Y-2924500D02*
G75*
G03*
X6920000Y-3044500I0J-60000D01*
G01*
D13*
X6925000Y-3494500D02*
X7045000Y-3614500D01*
X7045000Y-3494500D02*
X6925000Y-3614500D01*
X7027427Y-3596927D02*
X7027427Y-3512073D01*
X6942573Y-3512073D01*
X6942573Y-3596927D01*
X7027427Y-3596927D01*
D11*
X6920000Y-3614500D02*
X7050000Y-3614500D01*
X7050000Y-3494500D02*
G75*
G02*
X7050000Y-3614500I0J-60000D01*
G01*
X7050000Y-3494500D02*
X6920000Y-3494500D01*
X6920000Y-3494500D02*
G75*
G03*
X6920000Y-3614500I0J-60000D01*
G01*
D10*
X4900000Y-6540000D02*
X5100000Y-6740000D01*
X5100000Y-6540000D02*
X4900000Y-6740000D01*
X5000000Y-6740000D02*
X5100000Y-6640000D01*
X5000000Y-6540000D01*
X4900000Y-6640000D01*
X5000000Y-6740000D01*
D11*
X4945000Y-6740000D02*
X5055000Y-6740000D01*
X5055000Y-6540000D02*
G75*
G02*
X5055000Y-6740000I0J-100000D01*
G01*
X5055000Y-6540000D02*
X4945000Y-6540000D01*
X4945000Y-6540000D02*
G75*
G03*
X4945000Y-6740000I0J-100000D01*
G01*
D10*
X4900000Y-7660000D02*
X5100000Y-7860000D01*
X5100000Y-7660000D02*
X4900000Y-7860000D01*
X5000000Y-7860000D02*
X5100000Y-7760000D01*
X5000000Y-7660000D01*
X4900000Y-7760000D01*
X5000000Y-7860000D01*
D11*
X4945000Y-7860000D02*
X5055000Y-7860000D01*
X5055000Y-7660000D02*
G75*
G02*
X5055000Y-7860000I0J-100000D01*
G01*
X5055000Y-7660000D02*
X4945000Y-7660000D01*
X4945000Y-7660000D02*
G75*
G03*
X4945000Y-7860000I0J-100000D01*
G01*
D10*
X4900000Y-12540000D02*
X5100000Y-12740000D01*
X5100000Y-12540000D02*
X4900000Y-12740000D01*
X5000000Y-12740000D02*
X5100000Y-12640000D01*
X5000000Y-12540000D01*
X4900000Y-12640000D01*
X5000000Y-12740000D01*
D11*
X4945000Y-12740000D02*
X5055000Y-12740000D01*
X5055000Y-12540000D02*
G75*
G02*
X5055000Y-12740000I0J-100000D01*
G01*
X5055000Y-12540000D02*
X4945000Y-12540000D01*
X4945000Y-12540000D02*
G75*
G03*
X4945000Y-12740000I0J-100000D01*
G01*
D10*
X4900000Y-13660000D02*
X5100000Y-13860000D01*
X5100000Y-13660000D02*
X4900000Y-13860000D01*
X5000000Y-13860000D02*
X5100000Y-13760000D01*
X5000000Y-13660000D01*
X4900000Y-13760000D01*
X5000000Y-13860000D01*
D11*
X4945000Y-13860000D02*
X5055000Y-13860000D01*
X5055000Y-13660000D02*
G75*
G02*
X5055000Y-13860000I0J-100000D01*
G01*
X5055000Y-13660000D02*
X4945000Y-13660000D01*
X4945000Y-13660000D02*
G75*
G03*
X4945000Y-13860000I0J-100000D01*
G01*
D10*
X10900000Y-12540000D02*
X11100000Y-12740000D01*
X11100000Y-12540000D02*
X10900000Y-12740000D01*
X11000000Y-12740000D02*
X11100000Y-12640000D01*
X11000000Y-12540000D01*
X10900000Y-12640000D01*
X11000000Y-12740000D01*
D11*
X10945000Y-12740000D02*
X11055000Y-12740000D01*
X11055000Y-12540000D02*
G75*
G02*
X11055000Y-12740000I0J-100000D01*
G01*
X11055000Y-12540000D02*
X10945000Y-12540000D01*
X10945000Y-12540000D02*
G75*
G03*
X10945000Y-12740000I0J-100000D01*
G01*
D10*
X10900000Y-13660000D02*
X11100000Y-13860000D01*
X11100000Y-13660000D02*
X10900000Y-13860000D01*
X11000000Y-13860000D02*
X11100000Y-13760000D01*
X11000000Y-13660000D01*
X10900000Y-13760000D01*
X11000000Y-13860000D01*
D11*
X10945000Y-13860000D02*
X11055000Y-13860000D01*
X11055000Y-13660000D02*
G75*
G02*
X11055000Y-13860000I0J-100000D01*
G01*
X11055000Y-13660000D02*
X10945000Y-13660000D01*
X10945000Y-13660000D02*
G75*
G03*
X10945000Y-13860000I0J-100000D01*
G01*
D14*
X2600000Y-2450000D02*
X2600000Y-2750000D01*
X2450000Y-2600000D02*
X2750000Y-2600000D01*
X2750000Y-2600000D02*
G75*
G02*
X2450000Y-2600000I-150000J0D01*
G01*
X2450000Y-2600000D02*
G75*
G02*
X2750000Y-2600000I150000J0D01*
G01*
X2600000Y-11700000D02*
X2600000Y-12000000D01*
X2450000Y-11850000D02*
X2750000Y-11850000D01*
X2750000Y-11850000D02*
G75*
G02*
X2450000Y-11850000I-150000J0D01*
G01*
X2450000Y-11850000D02*
G75*
G02*
X2750000Y-11850000I150000J0D01*
G01*
X2600000Y-20950000D02*
X2600000Y-21250000D01*
X2450000Y-21100000D02*
X2750000Y-21100000D01*
X2750000Y-21100000D02*
G75*
G02*
X2450000Y-21100000I-150000J0D01*
G01*
X2450000Y-21100000D02*
G75*
G02*
X2750000Y-21100000I150000J0D01*
G01*
X8000000Y-2450000D02*
X8000000Y-2750000D01*
X7850000Y-2600000D02*
X8150000Y-2600000D01*
X8150000Y-2600000D02*
G75*
G02*
X7850000Y-2600000I-150000J0D01*
G01*
X7850000Y-2600000D02*
G75*
G02*
X8150000Y-2600000I150000J0D01*
G01*
X8000000Y-20950000D02*
X8000000Y-21250000D01*
X7850000Y-21100000D02*
X8150000Y-21100000D01*
X8150000Y-21100000D02*
G75*
G02*
X7850000Y-21100000I-150000J0D01*
G01*
X7850000Y-21100000D02*
G75*
G02*
X8150000Y-21100000I150000J0D01*
G01*
X13400000Y-2450000D02*
X13400000Y-2750000D01*
X13250000Y-2600000D02*
X13550000Y-2600000D01*
X13550000Y-2600000D02*
G75*
G02*
X13250000Y-2600000I-150000J0D01*
G01*
X13250000Y-2600000D02*
G75*
G02*
X13550000Y-2600000I150000J0D01*
G01*
X13400000Y-11700000D02*
X13400000Y-12000000D01*
X13250000Y-11850000D02*
X13550000Y-11850000D01*
X13550000Y-11850000D02*
G75*
G02*
X13250000Y-11850000I-150000J0D01*
G01*
X13250000Y-11850000D02*
G75*
G02*
X13550000Y-11850000I150000J0D01*
G01*
X13400000Y-20950000D02*
X13400000Y-21250000D01*
X13250000Y-21100000D02*
X13550000Y-21100000D01*
X13550000Y-21100000D02*
G75*
G02*
X13250000Y-21100000I-150000J0D01*
G01*
X13250000Y-21100000D02*
G75*
G02*
X13550000Y-21100000I150000J0D01*
G01*
D10*
X2450777Y-21821484D02*
X2450777Y-21621484D01*
X2450777Y-21621484D02*
X2498396Y-21621484D01*
X2498396Y-21621484D02*
X2526967Y-21631008D01*
X2526967Y-21631008D02*
X2546015Y-21650055D01*
X2546015Y-21650055D02*
X2555539Y-21669103D01*
X2555539Y-21669103D02*
X2565063Y-21707198D01*
X2565063Y-21707198D02*
X2565063Y-21735770D01*
X2565063Y-21735770D02*
X2555539Y-21773865D01*
X2555539Y-21773865D02*
X2546015Y-21792912D01*
X2546015Y-21792912D02*
X2526967Y-21811960D01*
X2526967Y-21811960D02*
X2498396Y-21821484D01*
X2498396Y-21821484D02*
X2450777Y-21821484D01*
X2650777Y-21821484D02*
X2650777Y-21688150D01*
X2650777Y-21726246D02*
X2660301Y-21707198D01*
X2660301Y-21707198D02*
X2669824Y-21697674D01*
X2669824Y-21697674D02*
X2688872Y-21688150D01*
X2688872Y-21688150D02*
X2707920Y-21688150D01*
X2774586Y-21821484D02*
X2774586Y-21688150D01*
X2774586Y-21621484D02*
X2765063Y-21631008D01*
X2765063Y-21631008D02*
X2774586Y-21640531D01*
X2774586Y-21640531D02*
X2784110Y-21631008D01*
X2784110Y-21631008D02*
X2774586Y-21621484D01*
X2774586Y-21621484D02*
X2774586Y-21640531D01*
X2898396Y-21821484D02*
X2879348Y-21811960D01*
X2879348Y-21811960D02*
X2869824Y-21792912D01*
X2869824Y-21792912D02*
X2869824Y-21621484D01*
X3003158Y-21821484D02*
X2984110Y-21811960D01*
X2984110Y-21811960D02*
X2974586Y-21792912D01*
X2974586Y-21792912D02*
X2974586Y-21621484D01*
X3231729Y-21821484D02*
X3231729Y-21621484D01*
X3231729Y-21621484D02*
X3298396Y-21764341D01*
X3298396Y-21764341D02*
X3365062Y-21621484D01*
X3365062Y-21621484D02*
X3365062Y-21821484D01*
X3546015Y-21821484D02*
X3546015Y-21716722D01*
X3546015Y-21716722D02*
X3536491Y-21697674D01*
X3536491Y-21697674D02*
X3517443Y-21688150D01*
X3517443Y-21688150D02*
X3479348Y-21688150D01*
X3479348Y-21688150D02*
X3460301Y-21697674D01*
X3546015Y-21811960D02*
X3526967Y-21821484D01*
X3526967Y-21821484D02*
X3479348Y-21821484D01*
X3479348Y-21821484D02*
X3460301Y-21811960D01*
X3460301Y-21811960D02*
X3450777Y-21792912D01*
X3450777Y-21792912D02*
X3450777Y-21773865D01*
X3450777Y-21773865D02*
X3460301Y-21754817D01*
X3460301Y-21754817D02*
X3479348Y-21745293D01*
X3479348Y-21745293D02*
X3526967Y-21745293D01*
X3526967Y-21745293D02*
X3546015Y-21735770D01*
X3641253Y-21688150D02*
X3641253Y-21888150D01*
X3641253Y-21697674D02*
X3660301Y-21688150D01*
X3660301Y-21688150D02*
X3698396Y-21688150D01*
X3698396Y-21688150D02*
X3717443Y-21697674D01*
X3717443Y-21697674D02*
X3726967Y-21707198D01*
X3726967Y-21707198D02*
X3736491Y-21726246D01*
X3736491Y-21726246D02*
X3736491Y-21783389D01*
X3736491Y-21783389D02*
X3726967Y-21802436D01*
X3726967Y-21802436D02*
X3717443Y-21811960D01*
X3717443Y-21811960D02*
X3698396Y-21821484D01*
X3698396Y-21821484D02*
X3660301Y-21821484D01*
X3660301Y-21821484D02*
X3641253Y-21811960D01*
X3822205Y-21802436D02*
X3831729Y-21811960D01*
X3831729Y-21811960D02*
X3822205Y-21821484D01*
X3822205Y-21821484D02*
X3812682Y-21811960D01*
X3812682Y-21811960D02*
X3822205Y-21802436D01*
X3822205Y-21802436D02*
X3822205Y-21821484D01*
X3822205Y-21697674D02*
X3831729Y-21707198D01*
X3831729Y-21707198D02*
X3822205Y-21716722D01*
X3822205Y-21716722D02*
X3812682Y-21707198D01*
X3812682Y-21707198D02*
X3822205Y-21697674D01*
X3822205Y-21697674D02*
X3822205Y-21716722D01*
D11*
X2160000Y-22135000D02*
X2190000Y-22165000D01*
X2190000Y-22135000D02*
X2160000Y-22165000D01*
D10*
X2488872Y-22041484D02*
X2507920Y-22041484D01*
X2507920Y-22041484D02*
X2526967Y-22051008D01*
X2526967Y-22051008D02*
X2536491Y-22060531D01*
X2536491Y-22060531D02*
X2546015Y-22079579D01*
X2546015Y-22079579D02*
X2555539Y-22117674D01*
X2555539Y-22117674D02*
X2555539Y-22165293D01*
X2555539Y-22165293D02*
X2546015Y-22203389D01*
X2546015Y-22203389D02*
X2536491Y-22222436D01*
X2536491Y-22222436D02*
X2526967Y-22231960D01*
X2526967Y-22231960D02*
X2507920Y-22241484D01*
X2507920Y-22241484D02*
X2488872Y-22241484D01*
X2488872Y-22241484D02*
X2469824Y-22231960D01*
X2469824Y-22231960D02*
X2460301Y-22222436D01*
X2460301Y-22222436D02*
X2450777Y-22203389D01*
X2450777Y-22203389D02*
X2441253Y-22165293D01*
X2441253Y-22165293D02*
X2441253Y-22117674D01*
X2441253Y-22117674D02*
X2450777Y-22079579D01*
X2450777Y-22079579D02*
X2460301Y-22060531D01*
X2460301Y-22060531D02*
X2469824Y-22051008D01*
X2469824Y-22051008D02*
X2488872Y-22041484D01*
X2641253Y-22222436D02*
X2650777Y-22231960D01*
X2650777Y-22231960D02*
X2641253Y-22241484D01*
X2641253Y-22241484D02*
X2631729Y-22231960D01*
X2631729Y-22231960D02*
X2641253Y-22222436D01*
X2641253Y-22222436D02*
X2641253Y-22241484D01*
X2717444Y-22041484D02*
X2841253Y-22041484D01*
X2841253Y-22041484D02*
X2774586Y-22117674D01*
X2774586Y-22117674D02*
X2803158Y-22117674D01*
X2803158Y-22117674D02*
X2822205Y-22127198D01*
X2822205Y-22127198D02*
X2831729Y-22136722D01*
X2831729Y-22136722D02*
X2841253Y-22155770D01*
X2841253Y-22155770D02*
X2841253Y-22203389D01*
X2841253Y-22203389D02*
X2831729Y-22222436D01*
X2831729Y-22222436D02*
X2822205Y-22231960D01*
X2822205Y-22231960D02*
X2803158Y-22241484D01*
X2803158Y-22241484D02*
X2746015Y-22241484D01*
X2746015Y-22241484D02*
X2726967Y-22231960D01*
X2726967Y-22231960D02*
X2717444Y-22222436D01*
X2965062Y-22041484D02*
X2984110Y-22041484D01*
X2984110Y-22041484D02*
X3003158Y-22051008D01*
X3003158Y-22051008D02*
X3012682Y-22060531D01*
X3012682Y-22060531D02*
X3022205Y-22079579D01*
X3022205Y-22079579D02*
X3031729Y-22117674D01*
X3031729Y-22117674D02*
X3031729Y-22165293D01*
X3031729Y-22165293D02*
X3022205Y-22203389D01*
X3022205Y-22203389D02*
X3012682Y-22222436D01*
X3012682Y-22222436D02*
X3003158Y-22231960D01*
X3003158Y-22231960D02*
X2984110Y-22241484D01*
X2984110Y-22241484D02*
X2965062Y-22241484D01*
X2965062Y-22241484D02*
X2946015Y-22231960D01*
X2946015Y-22231960D02*
X2936491Y-22222436D01*
X2936491Y-22222436D02*
X2926967Y-22203389D01*
X2926967Y-22203389D02*
X2917443Y-22165293D01*
X2917443Y-22165293D02*
X2917443Y-22117674D01*
X2917443Y-22117674D02*
X2926967Y-22079579D01*
X2926967Y-22079579D02*
X2936491Y-22060531D01*
X2936491Y-22060531D02*
X2946015Y-22051008D01*
X2946015Y-22051008D02*
X2965062Y-22041484D01*
X3155539Y-22041484D02*
X3174586Y-22041484D01*
X3174586Y-22041484D02*
X3193634Y-22051008D01*
X3193634Y-22051008D02*
X3203158Y-22060531D01*
X3203158Y-22060531D02*
X3212682Y-22079579D01*
X3212682Y-22079579D02*
X3222205Y-22117674D01*
X3222205Y-22117674D02*
X3222205Y-22165293D01*
X3222205Y-22165293D02*
X3212682Y-22203389D01*
X3212682Y-22203389D02*
X3203158Y-22222436D01*
X3203158Y-22222436D02*
X3193634Y-22231960D01*
X3193634Y-22231960D02*
X3174586Y-22241484D01*
X3174586Y-22241484D02*
X3155539Y-22241484D01*
X3155539Y-22241484D02*
X3136491Y-22231960D01*
X3136491Y-22231960D02*
X3126967Y-22222436D01*
X3126967Y-22222436D02*
X3117443Y-22203389D01*
X3117443Y-22203389D02*
X3107920Y-22165293D01*
X3107920Y-22165293D02*
X3107920Y-22117674D01*
X3107920Y-22117674D02*
X3117443Y-22079579D01*
X3117443Y-22079579D02*
X3126967Y-22060531D01*
X3126967Y-22060531D02*
X3136491Y-22051008D01*
X3136491Y-22051008D02*
X3155539Y-22041484D01*
X3307920Y-22241484D02*
X3307920Y-22108150D01*
X3307920Y-22127198D02*
X3317443Y-22117674D01*
X3317443Y-22117674D02*
X3336491Y-22108150D01*
X3336491Y-22108150D02*
X3365063Y-22108150D01*
X3365063Y-22108150D02*
X3384110Y-22117674D01*
X3384110Y-22117674D02*
X3393634Y-22136722D01*
X3393634Y-22136722D02*
X3393634Y-22241484D01*
X3393634Y-22136722D02*
X3403158Y-22117674D01*
X3403158Y-22117674D02*
X3422205Y-22108150D01*
X3422205Y-22108150D02*
X3450777Y-22108150D01*
X3450777Y-22108150D02*
X3469824Y-22117674D01*
X3469824Y-22117674D02*
X3479348Y-22136722D01*
X3479348Y-22136722D02*
X3479348Y-22241484D01*
X3574586Y-22241484D02*
X3574586Y-22108150D01*
X3574586Y-22127198D02*
X3584110Y-22117674D01*
X3584110Y-22117674D02*
X3603158Y-22108150D01*
X3603158Y-22108150D02*
X3631729Y-22108150D01*
X3631729Y-22108150D02*
X3650777Y-22117674D01*
X3650777Y-22117674D02*
X3660301Y-22136722D01*
X3660301Y-22136722D02*
X3660301Y-22241484D01*
X3660301Y-22136722D02*
X3669824Y-22117674D01*
X3669824Y-22117674D02*
X3688872Y-22108150D01*
X3688872Y-22108150D02*
X3717443Y-22108150D01*
X3717443Y-22108150D02*
X3736491Y-22117674D01*
X3736491Y-22117674D02*
X3746015Y-22136722D01*
X3746015Y-22136722D02*
X3746015Y-22241484D01*
X4136491Y-22031960D02*
X3965063Y-22289103D01*
X4393634Y-22041484D02*
X4412682Y-22041484D01*
X4412682Y-22041484D02*
X4431729Y-22051008D01*
X4431729Y-22051008D02*
X4441253Y-22060531D01*
X4441253Y-22060531D02*
X4450777Y-22079579D01*
X4450777Y-22079579D02*
X4460301Y-22117674D01*
X4460301Y-22117674D02*
X4460301Y-22165293D01*
X4460301Y-22165293D02*
X4450777Y-22203389D01*
X4450777Y-22203389D02*
X4441253Y-22222436D01*
X4441253Y-22222436D02*
X4431729Y-22231960D01*
X4431729Y-22231960D02*
X4412682Y-22241484D01*
X4412682Y-22241484D02*
X4393634Y-22241484D01*
X4393634Y-22241484D02*
X4374587Y-22231960D01*
X4374587Y-22231960D02*
X4365063Y-22222436D01*
X4365063Y-22222436D02*
X4355539Y-22203389D01*
X4355539Y-22203389D02*
X4346015Y-22165293D01*
X4346015Y-22165293D02*
X4346015Y-22117674D01*
X4346015Y-22117674D02*
X4355539Y-22079579D01*
X4355539Y-22079579D02*
X4365063Y-22060531D01*
X4365063Y-22060531D02*
X4374587Y-22051008D01*
X4374587Y-22051008D02*
X4393634Y-22041484D01*
X4546015Y-22222436D02*
X4555539Y-22231960D01*
X4555539Y-22231960D02*
X4546015Y-22241484D01*
X4546015Y-22241484D02*
X4536491Y-22231960D01*
X4536491Y-22231960D02*
X4546015Y-22222436D01*
X4546015Y-22222436D02*
X4546015Y-22241484D01*
X4679348Y-22041484D02*
X4698396Y-22041484D01*
X4698396Y-22041484D02*
X4717444Y-22051008D01*
X4717444Y-22051008D02*
X4726968Y-22060531D01*
X4726968Y-22060531D02*
X4736491Y-22079579D01*
X4736491Y-22079579D02*
X4746015Y-22117674D01*
X4746015Y-22117674D02*
X4746015Y-22165293D01*
X4746015Y-22165293D02*
X4736491Y-22203389D01*
X4736491Y-22203389D02*
X4726968Y-22222436D01*
X4726968Y-22222436D02*
X4717444Y-22231960D01*
X4717444Y-22231960D02*
X4698396Y-22241484D01*
X4698396Y-22241484D02*
X4679348Y-22241484D01*
X4679348Y-22241484D02*
X4660301Y-22231960D01*
X4660301Y-22231960D02*
X4650777Y-22222436D01*
X4650777Y-22222436D02*
X4641253Y-22203389D01*
X4641253Y-22203389D02*
X4631729Y-22165293D01*
X4631729Y-22165293D02*
X4631729Y-22117674D01*
X4631729Y-22117674D02*
X4641253Y-22079579D01*
X4641253Y-22079579D02*
X4650777Y-22060531D01*
X4650777Y-22060531D02*
X4660301Y-22051008D01*
X4660301Y-22051008D02*
X4679348Y-22041484D01*
X4936491Y-22241484D02*
X4822206Y-22241484D01*
X4879348Y-22241484D02*
X4879348Y-22041484D01*
X4879348Y-22041484D02*
X4860301Y-22070055D01*
X4860301Y-22070055D02*
X4841253Y-22089103D01*
X4841253Y-22089103D02*
X4822206Y-22098627D01*
X5126968Y-22241484D02*
X5012682Y-22241484D01*
X5069825Y-22241484D02*
X5069825Y-22041484D01*
X5069825Y-22041484D02*
X5050777Y-22070055D01*
X5050777Y-22070055D02*
X5031729Y-22089103D01*
X5031729Y-22089103D02*
X5012682Y-22098627D01*
X5241253Y-22127198D02*
X5222206Y-22117674D01*
X5222206Y-22117674D02*
X5212682Y-22108150D01*
X5212682Y-22108150D02*
X5203158Y-22089103D01*
X5203158Y-22089103D02*
X5203158Y-22079579D01*
X5203158Y-22079579D02*
X5212682Y-22060531D01*
X5212682Y-22060531D02*
X5222206Y-22051008D01*
X5222206Y-22051008D02*
X5241253Y-22041484D01*
X5241253Y-22041484D02*
X5279349Y-22041484D01*
X5279349Y-22041484D02*
X5298396Y-22051008D01*
X5298396Y-22051008D02*
X5307920Y-22060531D01*
X5307920Y-22060531D02*
X5317444Y-22079579D01*
X5317444Y-22079579D02*
X5317444Y-22089103D01*
X5317444Y-22089103D02*
X5307920Y-22108150D01*
X5307920Y-22108150D02*
X5298396Y-22117674D01*
X5298396Y-22117674D02*
X5279349Y-22127198D01*
X5279349Y-22127198D02*
X5241253Y-22127198D01*
X5241253Y-22127198D02*
X5222206Y-22136722D01*
X5222206Y-22136722D02*
X5212682Y-22146246D01*
X5212682Y-22146246D02*
X5203158Y-22165293D01*
X5203158Y-22165293D02*
X5203158Y-22203389D01*
X5203158Y-22203389D02*
X5212682Y-22222436D01*
X5212682Y-22222436D02*
X5222206Y-22231960D01*
X5222206Y-22231960D02*
X5241253Y-22241484D01*
X5241253Y-22241484D02*
X5279349Y-22241484D01*
X5279349Y-22241484D02*
X5298396Y-22231960D01*
X5298396Y-22231960D02*
X5307920Y-22222436D01*
X5307920Y-22222436D02*
X5317444Y-22203389D01*
X5317444Y-22203389D02*
X5317444Y-22165293D01*
X5317444Y-22165293D02*
X5307920Y-22146246D01*
X5307920Y-22146246D02*
X5298396Y-22136722D01*
X5298396Y-22136722D02*
X5279349Y-22127198D01*
X5393634Y-22041484D02*
X5393634Y-22079579D01*
X5469825Y-22041484D02*
X5469825Y-22079579D01*
X5765063Y-22317674D02*
X5755539Y-22308150D01*
X5755539Y-22308150D02*
X5736491Y-22279579D01*
X5736491Y-22279579D02*
X5726968Y-22260531D01*
X5726968Y-22260531D02*
X5717444Y-22231960D01*
X5717444Y-22231960D02*
X5707920Y-22184341D01*
X5707920Y-22184341D02*
X5707920Y-22146246D01*
X5707920Y-22146246D02*
X5717444Y-22098627D01*
X5717444Y-22098627D02*
X5726968Y-22070055D01*
X5726968Y-22070055D02*
X5736491Y-22051008D01*
X5736491Y-22051008D02*
X5755539Y-22022436D01*
X5755539Y-22022436D02*
X5765063Y-22012912D01*
X5822206Y-22041484D02*
X5946015Y-22041484D01*
X5946015Y-22041484D02*
X5879348Y-22117674D01*
X5879348Y-22117674D02*
X5907920Y-22117674D01*
X5907920Y-22117674D02*
X5926968Y-22127198D01*
X5926968Y-22127198D02*
X5936491Y-22136722D01*
X5936491Y-22136722D02*
X5946015Y-22155770D01*
X5946015Y-22155770D02*
X5946015Y-22203389D01*
X5946015Y-22203389D02*
X5936491Y-22222436D01*
X5936491Y-22222436D02*
X5926968Y-22231960D01*
X5926968Y-22231960D02*
X5907920Y-22241484D01*
X5907920Y-22241484D02*
X5850777Y-22241484D01*
X5850777Y-22241484D02*
X5831729Y-22231960D01*
X5831729Y-22231960D02*
X5822206Y-22222436D01*
X6136491Y-22241484D02*
X6022206Y-22241484D01*
X6079348Y-22241484D02*
X6079348Y-22041484D01*
X6079348Y-22041484D02*
X6060301Y-22070055D01*
X6060301Y-22070055D02*
X6041253Y-22089103D01*
X6041253Y-22089103D02*
X6022206Y-22098627D01*
X6374587Y-22241484D02*
X6374587Y-22041484D01*
X6460301Y-22241484D02*
X6460301Y-22136722D01*
X6460301Y-22136722D02*
X6450777Y-22117674D01*
X6450777Y-22117674D02*
X6431730Y-22108150D01*
X6431730Y-22108150D02*
X6403158Y-22108150D01*
X6403158Y-22108150D02*
X6384110Y-22117674D01*
X6384110Y-22117674D02*
X6374587Y-22127198D01*
X6584110Y-22241484D02*
X6565063Y-22231960D01*
X6565063Y-22231960D02*
X6555539Y-22222436D01*
X6555539Y-22222436D02*
X6546015Y-22203389D01*
X6546015Y-22203389D02*
X6546015Y-22146246D01*
X6546015Y-22146246D02*
X6555539Y-22127198D01*
X6555539Y-22127198D02*
X6565063Y-22117674D01*
X6565063Y-22117674D02*
X6584110Y-22108150D01*
X6584110Y-22108150D02*
X6612682Y-22108150D01*
X6612682Y-22108150D02*
X6631730Y-22117674D01*
X6631730Y-22117674D02*
X6641253Y-22127198D01*
X6641253Y-22127198D02*
X6650777Y-22146246D01*
X6650777Y-22146246D02*
X6650777Y-22203389D01*
X6650777Y-22203389D02*
X6641253Y-22222436D01*
X6641253Y-22222436D02*
X6631730Y-22231960D01*
X6631730Y-22231960D02*
X6612682Y-22241484D01*
X6612682Y-22241484D02*
X6584110Y-22241484D01*
X6765063Y-22241484D02*
X6746015Y-22231960D01*
X6746015Y-22231960D02*
X6736491Y-22212912D01*
X6736491Y-22212912D02*
X6736491Y-22041484D01*
X6917444Y-22231960D02*
X6898396Y-22241484D01*
X6898396Y-22241484D02*
X6860301Y-22241484D01*
X6860301Y-22241484D02*
X6841253Y-22231960D01*
X6841253Y-22231960D02*
X6831730Y-22212912D01*
X6831730Y-22212912D02*
X6831730Y-22136722D01*
X6831730Y-22136722D02*
X6841253Y-22117674D01*
X6841253Y-22117674D02*
X6860301Y-22108150D01*
X6860301Y-22108150D02*
X6898396Y-22108150D01*
X6898396Y-22108150D02*
X6917444Y-22117674D01*
X6917444Y-22117674D02*
X6926968Y-22136722D01*
X6926968Y-22136722D02*
X6926968Y-22155770D01*
X6926968Y-22155770D02*
X6831730Y-22174817D01*
X7003158Y-22231960D02*
X7022206Y-22241484D01*
X7022206Y-22241484D02*
X7060301Y-22241484D01*
X7060301Y-22241484D02*
X7079349Y-22231960D01*
X7079349Y-22231960D02*
X7088872Y-22212912D01*
X7088872Y-22212912D02*
X7088872Y-22203389D01*
X7088872Y-22203389D02*
X7079349Y-22184341D01*
X7079349Y-22184341D02*
X7060301Y-22174817D01*
X7060301Y-22174817D02*
X7031730Y-22174817D01*
X7031730Y-22174817D02*
X7012682Y-22165293D01*
X7012682Y-22165293D02*
X7003158Y-22146246D01*
X7003158Y-22146246D02*
X7003158Y-22136722D01*
X7003158Y-22136722D02*
X7012682Y-22117674D01*
X7012682Y-22117674D02*
X7031730Y-22108150D01*
X7031730Y-22108150D02*
X7060301Y-22108150D01*
X7060301Y-22108150D02*
X7079349Y-22117674D01*
X7155539Y-22317674D02*
X7165063Y-22308150D01*
X7165063Y-22308150D02*
X7184111Y-22279579D01*
X7184111Y-22279579D02*
X7193634Y-22260531D01*
X7193634Y-22260531D02*
X7203158Y-22231960D01*
X7203158Y-22231960D02*
X7212682Y-22184341D01*
X7212682Y-22184341D02*
X7212682Y-22146246D01*
X7212682Y-22146246D02*
X7203158Y-22098627D01*
X7203158Y-22098627D02*
X7193634Y-22070055D01*
X7193634Y-22070055D02*
X7184111Y-22051008D01*
X7184111Y-22051008D02*
X7165063Y-22022436D01*
X7165063Y-22022436D02*
X7155539Y-22012912D01*
D11*
X2190000Y-22414000D02*
G75*
G02*
X2115000Y-22414000I-37500J0D01*
G01*
X2115000Y-22414000D02*
G75*
G02*
X2190000Y-22414000I37500J0D01*
G01*
D10*
X2488872Y-22305484D02*
X2507920Y-22305484D01*
X2507920Y-22305484D02*
X2526967Y-22315008D01*
X2526967Y-22315008D02*
X2536491Y-22324531D01*
X2536491Y-22324531D02*
X2546015Y-22343579D01*
X2546015Y-22343579D02*
X2555539Y-22381674D01*
X2555539Y-22381674D02*
X2555539Y-22429293D01*
X2555539Y-22429293D02*
X2546015Y-22467388D01*
X2546015Y-22467388D02*
X2536491Y-22486436D01*
X2536491Y-22486436D02*
X2526967Y-22495960D01*
X2526967Y-22495960D02*
X2507920Y-22505484D01*
X2507920Y-22505484D02*
X2488872Y-22505484D01*
X2488872Y-22505484D02*
X2469824Y-22495960D01*
X2469824Y-22495960D02*
X2460301Y-22486436D01*
X2460301Y-22486436D02*
X2450777Y-22467388D01*
X2450777Y-22467388D02*
X2441253Y-22429293D01*
X2441253Y-22429293D02*
X2441253Y-22381674D01*
X2441253Y-22381674D02*
X2450777Y-22343579D01*
X2450777Y-22343579D02*
X2460301Y-22324531D01*
X2460301Y-22324531D02*
X2469824Y-22315008D01*
X2469824Y-22315008D02*
X2488872Y-22305484D01*
X2641253Y-22486436D02*
X2650777Y-22495960D01*
X2650777Y-22495960D02*
X2641253Y-22505484D01*
X2641253Y-22505484D02*
X2631729Y-22495960D01*
X2631729Y-22495960D02*
X2641253Y-22486436D01*
X2641253Y-22486436D02*
X2641253Y-22505484D01*
X2717444Y-22305484D02*
X2850777Y-22305484D01*
X2850777Y-22305484D02*
X2765063Y-22505484D01*
X3022205Y-22305484D02*
X2926967Y-22305484D01*
X2926967Y-22305484D02*
X2917443Y-22400722D01*
X2917443Y-22400722D02*
X2926967Y-22391198D01*
X2926967Y-22391198D02*
X2946015Y-22381674D01*
X2946015Y-22381674D02*
X2993634Y-22381674D01*
X2993634Y-22381674D02*
X3012682Y-22391198D01*
X3012682Y-22391198D02*
X3022205Y-22400722D01*
X3022205Y-22400722D02*
X3031729Y-22419769D01*
X3031729Y-22419769D02*
X3031729Y-22467388D01*
X3031729Y-22467388D02*
X3022205Y-22486436D01*
X3022205Y-22486436D02*
X3012682Y-22495960D01*
X3012682Y-22495960D02*
X2993634Y-22505484D01*
X2993634Y-22505484D02*
X2946015Y-22505484D01*
X2946015Y-22505484D02*
X2926967Y-22495960D01*
X2926967Y-22495960D02*
X2917443Y-22486436D01*
X3155539Y-22305484D02*
X3174586Y-22305484D01*
X3174586Y-22305484D02*
X3193634Y-22315008D01*
X3193634Y-22315008D02*
X3203158Y-22324531D01*
X3203158Y-22324531D02*
X3212682Y-22343579D01*
X3212682Y-22343579D02*
X3222205Y-22381674D01*
X3222205Y-22381674D02*
X3222205Y-22429293D01*
X3222205Y-22429293D02*
X3212682Y-22467388D01*
X3212682Y-22467388D02*
X3203158Y-22486436D01*
X3203158Y-22486436D02*
X3193634Y-22495960D01*
X3193634Y-22495960D02*
X3174586Y-22505484D01*
X3174586Y-22505484D02*
X3155539Y-22505484D01*
X3155539Y-22505484D02*
X3136491Y-22495960D01*
X3136491Y-22495960D02*
X3126967Y-22486436D01*
X3126967Y-22486436D02*
X3117443Y-22467388D01*
X3117443Y-22467388D02*
X3107920Y-22429293D01*
X3107920Y-22429293D02*
X3107920Y-22381674D01*
X3107920Y-22381674D02*
X3117443Y-22343579D01*
X3117443Y-22343579D02*
X3126967Y-22324531D01*
X3126967Y-22324531D02*
X3136491Y-22315008D01*
X3136491Y-22315008D02*
X3155539Y-22305484D01*
X3307920Y-22505484D02*
X3307920Y-22372150D01*
X3307920Y-22391198D02*
X3317443Y-22381674D01*
X3317443Y-22381674D02*
X3336491Y-22372150D01*
X3336491Y-22372150D02*
X3365063Y-22372150D01*
X3365063Y-22372150D02*
X3384110Y-22381674D01*
X3384110Y-22381674D02*
X3393634Y-22400722D01*
X3393634Y-22400722D02*
X3393634Y-22505484D01*
X3393634Y-22400722D02*
X3403158Y-22381674D01*
X3403158Y-22381674D02*
X3422205Y-22372150D01*
X3422205Y-22372150D02*
X3450777Y-22372150D01*
X3450777Y-22372150D02*
X3469824Y-22381674D01*
X3469824Y-22381674D02*
X3479348Y-22400722D01*
X3479348Y-22400722D02*
X3479348Y-22505484D01*
X3574586Y-22505484D02*
X3574586Y-22372150D01*
X3574586Y-22391198D02*
X3584110Y-22381674D01*
X3584110Y-22381674D02*
X3603158Y-22372150D01*
X3603158Y-22372150D02*
X3631729Y-22372150D01*
X3631729Y-22372150D02*
X3650777Y-22381674D01*
X3650777Y-22381674D02*
X3660301Y-22400722D01*
X3660301Y-22400722D02*
X3660301Y-22505484D01*
X3660301Y-22400722D02*
X3669824Y-22381674D01*
X3669824Y-22381674D02*
X3688872Y-22372150D01*
X3688872Y-22372150D02*
X3717443Y-22372150D01*
X3717443Y-22372150D02*
X3736491Y-22381674D01*
X3736491Y-22381674D02*
X3746015Y-22400722D01*
X3746015Y-22400722D02*
X3746015Y-22505484D01*
X4136491Y-22295960D02*
X3965063Y-22553103D01*
X4393634Y-22305484D02*
X4412682Y-22305484D01*
X4412682Y-22305484D02*
X4431729Y-22315008D01*
X4431729Y-22315008D02*
X4441253Y-22324531D01*
X4441253Y-22324531D02*
X4450777Y-22343579D01*
X4450777Y-22343579D02*
X4460301Y-22381674D01*
X4460301Y-22381674D02*
X4460301Y-22429293D01*
X4460301Y-22429293D02*
X4450777Y-22467388D01*
X4450777Y-22467388D02*
X4441253Y-22486436D01*
X4441253Y-22486436D02*
X4431729Y-22495960D01*
X4431729Y-22495960D02*
X4412682Y-22505484D01*
X4412682Y-22505484D02*
X4393634Y-22505484D01*
X4393634Y-22505484D02*
X4374587Y-22495960D01*
X4374587Y-22495960D02*
X4365063Y-22486436D01*
X4365063Y-22486436D02*
X4355539Y-22467388D01*
X4355539Y-22467388D02*
X4346015Y-22429293D01*
X4346015Y-22429293D02*
X4346015Y-22381674D01*
X4346015Y-22381674D02*
X4355539Y-22343579D01*
X4355539Y-22343579D02*
X4365063Y-22324531D01*
X4365063Y-22324531D02*
X4374587Y-22315008D01*
X4374587Y-22315008D02*
X4393634Y-22305484D01*
X4546015Y-22486436D02*
X4555539Y-22495960D01*
X4555539Y-22495960D02*
X4546015Y-22505484D01*
X4546015Y-22505484D02*
X4536491Y-22495960D01*
X4536491Y-22495960D02*
X4546015Y-22486436D01*
X4546015Y-22486436D02*
X4546015Y-22505484D01*
X4679348Y-22305484D02*
X4698396Y-22305484D01*
X4698396Y-22305484D02*
X4717444Y-22315008D01*
X4717444Y-22315008D02*
X4726968Y-22324531D01*
X4726968Y-22324531D02*
X4736491Y-22343579D01*
X4736491Y-22343579D02*
X4746015Y-22381674D01*
X4746015Y-22381674D02*
X4746015Y-22429293D01*
X4746015Y-22429293D02*
X4736491Y-22467388D01*
X4736491Y-22467388D02*
X4726968Y-22486436D01*
X4726968Y-22486436D02*
X4717444Y-22495960D01*
X4717444Y-22495960D02*
X4698396Y-22505484D01*
X4698396Y-22505484D02*
X4679348Y-22505484D01*
X4679348Y-22505484D02*
X4660301Y-22495960D01*
X4660301Y-22495960D02*
X4650777Y-22486436D01*
X4650777Y-22486436D02*
X4641253Y-22467388D01*
X4641253Y-22467388D02*
X4631729Y-22429293D01*
X4631729Y-22429293D02*
X4631729Y-22381674D01*
X4631729Y-22381674D02*
X4641253Y-22343579D01*
X4641253Y-22343579D02*
X4650777Y-22324531D01*
X4650777Y-22324531D02*
X4660301Y-22315008D01*
X4660301Y-22315008D02*
X4679348Y-22305484D01*
X4822206Y-22324531D02*
X4831729Y-22315008D01*
X4831729Y-22315008D02*
X4850777Y-22305484D01*
X4850777Y-22305484D02*
X4898396Y-22305484D01*
X4898396Y-22305484D02*
X4917444Y-22315008D01*
X4917444Y-22315008D02*
X4926968Y-22324531D01*
X4926968Y-22324531D02*
X4936491Y-22343579D01*
X4936491Y-22343579D02*
X4936491Y-22362627D01*
X4936491Y-22362627D02*
X4926968Y-22391198D01*
X4926968Y-22391198D02*
X4812682Y-22505484D01*
X4812682Y-22505484D02*
X4936491Y-22505484D01*
X5031729Y-22505484D02*
X5069825Y-22505484D01*
X5069825Y-22505484D02*
X5088872Y-22495960D01*
X5088872Y-22495960D02*
X5098396Y-22486436D01*
X5098396Y-22486436D02*
X5117444Y-22457865D01*
X5117444Y-22457865D02*
X5126968Y-22419769D01*
X5126968Y-22419769D02*
X5126968Y-22343579D01*
X5126968Y-22343579D02*
X5117444Y-22324531D01*
X5117444Y-22324531D02*
X5107920Y-22315008D01*
X5107920Y-22315008D02*
X5088872Y-22305484D01*
X5088872Y-22305484D02*
X5050777Y-22305484D01*
X5050777Y-22305484D02*
X5031729Y-22315008D01*
X5031729Y-22315008D02*
X5022206Y-22324531D01*
X5022206Y-22324531D02*
X5012682Y-22343579D01*
X5012682Y-22343579D02*
X5012682Y-22391198D01*
X5012682Y-22391198D02*
X5022206Y-22410246D01*
X5022206Y-22410246D02*
X5031729Y-22419769D01*
X5031729Y-22419769D02*
X5050777Y-22429293D01*
X5050777Y-22429293D02*
X5088872Y-22429293D01*
X5088872Y-22429293D02*
X5107920Y-22419769D01*
X5107920Y-22419769D02*
X5117444Y-22410246D01*
X5117444Y-22410246D02*
X5126968Y-22391198D01*
X5307920Y-22305484D02*
X5212682Y-22305484D01*
X5212682Y-22305484D02*
X5203158Y-22400722D01*
X5203158Y-22400722D02*
X5212682Y-22391198D01*
X5212682Y-22391198D02*
X5231729Y-22381674D01*
X5231729Y-22381674D02*
X5279349Y-22381674D01*
X5279349Y-22381674D02*
X5298396Y-22391198D01*
X5298396Y-22391198D02*
X5307920Y-22400722D01*
X5307920Y-22400722D02*
X5317444Y-22419769D01*
X5317444Y-22419769D02*
X5317444Y-22467388D01*
X5317444Y-22467388D02*
X5307920Y-22486436D01*
X5307920Y-22486436D02*
X5298396Y-22495960D01*
X5298396Y-22495960D02*
X5279349Y-22505484D01*
X5279349Y-22505484D02*
X5231729Y-22505484D01*
X5231729Y-22505484D02*
X5212682Y-22495960D01*
X5212682Y-22495960D02*
X5203158Y-22486436D01*
X5393634Y-22305484D02*
X5393634Y-22343579D01*
X5469825Y-22305484D02*
X5469825Y-22343579D01*
X5765063Y-22581674D02*
X5755539Y-22572150D01*
X5755539Y-22572150D02*
X5736491Y-22543579D01*
X5736491Y-22543579D02*
X5726968Y-22524531D01*
X5726968Y-22524531D02*
X5717444Y-22495960D01*
X5717444Y-22495960D02*
X5707920Y-22448341D01*
X5707920Y-22448341D02*
X5707920Y-22410246D01*
X5707920Y-22410246D02*
X5717444Y-22362627D01*
X5717444Y-22362627D02*
X5726968Y-22334055D01*
X5726968Y-22334055D02*
X5736491Y-22315008D01*
X5736491Y-22315008D02*
X5755539Y-22286436D01*
X5755539Y-22286436D02*
X5765063Y-22276912D01*
X5946015Y-22505484D02*
X5831729Y-22505484D01*
X5888872Y-22505484D02*
X5888872Y-22305484D01*
X5888872Y-22305484D02*
X5869825Y-22334055D01*
X5869825Y-22334055D02*
X5850777Y-22353103D01*
X5850777Y-22353103D02*
X5831729Y-22362627D01*
X6022206Y-22324531D02*
X6031729Y-22315008D01*
X6031729Y-22315008D02*
X6050777Y-22305484D01*
X6050777Y-22305484D02*
X6098396Y-22305484D01*
X6098396Y-22305484D02*
X6117444Y-22315008D01*
X6117444Y-22315008D02*
X6126968Y-22324531D01*
X6126968Y-22324531D02*
X6136491Y-22343579D01*
X6136491Y-22343579D02*
X6136491Y-22362627D01*
X6136491Y-22362627D02*
X6126968Y-22391198D01*
X6126968Y-22391198D02*
X6012682Y-22505484D01*
X6012682Y-22505484D02*
X6136491Y-22505484D01*
X6374587Y-22505484D02*
X6374587Y-22305484D01*
X6460301Y-22505484D02*
X6460301Y-22400722D01*
X6460301Y-22400722D02*
X6450777Y-22381674D01*
X6450777Y-22381674D02*
X6431730Y-22372150D01*
X6431730Y-22372150D02*
X6403158Y-22372150D01*
X6403158Y-22372150D02*
X6384110Y-22381674D01*
X6384110Y-22381674D02*
X6374587Y-22391198D01*
X6584110Y-22505484D02*
X6565063Y-22495960D01*
X6565063Y-22495960D02*
X6555539Y-22486436D01*
X6555539Y-22486436D02*
X6546015Y-22467388D01*
X6546015Y-22467388D02*
X6546015Y-22410246D01*
X6546015Y-22410246D02*
X6555539Y-22391198D01*
X6555539Y-22391198D02*
X6565063Y-22381674D01*
X6565063Y-22381674D02*
X6584110Y-22372150D01*
X6584110Y-22372150D02*
X6612682Y-22372150D01*
X6612682Y-22372150D02*
X6631730Y-22381674D01*
X6631730Y-22381674D02*
X6641253Y-22391198D01*
X6641253Y-22391198D02*
X6650777Y-22410246D01*
X6650777Y-22410246D02*
X6650777Y-22467388D01*
X6650777Y-22467388D02*
X6641253Y-22486436D01*
X6641253Y-22486436D02*
X6631730Y-22495960D01*
X6631730Y-22495960D02*
X6612682Y-22505484D01*
X6612682Y-22505484D02*
X6584110Y-22505484D01*
X6765063Y-22505484D02*
X6746015Y-22495960D01*
X6746015Y-22495960D02*
X6736491Y-22476912D01*
X6736491Y-22476912D02*
X6736491Y-22305484D01*
X6917444Y-22495960D02*
X6898396Y-22505484D01*
X6898396Y-22505484D02*
X6860301Y-22505484D01*
X6860301Y-22505484D02*
X6841253Y-22495960D01*
X6841253Y-22495960D02*
X6831730Y-22476912D01*
X6831730Y-22476912D02*
X6831730Y-22400722D01*
X6831730Y-22400722D02*
X6841253Y-22381674D01*
X6841253Y-22381674D02*
X6860301Y-22372150D01*
X6860301Y-22372150D02*
X6898396Y-22372150D01*
X6898396Y-22372150D02*
X6917444Y-22381674D01*
X6917444Y-22381674D02*
X6926968Y-22400722D01*
X6926968Y-22400722D02*
X6926968Y-22419769D01*
X6926968Y-22419769D02*
X6831730Y-22438817D01*
X7003158Y-22495960D02*
X7022206Y-22505484D01*
X7022206Y-22505484D02*
X7060301Y-22505484D01*
X7060301Y-22505484D02*
X7079349Y-22495960D01*
X7079349Y-22495960D02*
X7088872Y-22476912D01*
X7088872Y-22476912D02*
X7088872Y-22467388D01*
X7088872Y-22467388D02*
X7079349Y-22448341D01*
X7079349Y-22448341D02*
X7060301Y-22438817D01*
X7060301Y-22438817D02*
X7031730Y-22438817D01*
X7031730Y-22438817D02*
X7012682Y-22429293D01*
X7012682Y-22429293D02*
X7003158Y-22410246D01*
X7003158Y-22410246D02*
X7003158Y-22400722D01*
X7003158Y-22400722D02*
X7012682Y-22381674D01*
X7012682Y-22381674D02*
X7031730Y-22372150D01*
X7031730Y-22372150D02*
X7060301Y-22372150D01*
X7060301Y-22372150D02*
X7079349Y-22381674D01*
X7155539Y-22581674D02*
X7165063Y-22572150D01*
X7165063Y-22572150D02*
X7184111Y-22543579D01*
X7184111Y-22543579D02*
X7193634Y-22524531D01*
X7193634Y-22524531D02*
X7203158Y-22495960D01*
X7203158Y-22495960D02*
X7212682Y-22448341D01*
X7212682Y-22448341D02*
X7212682Y-22410246D01*
X7212682Y-22410246D02*
X7203158Y-22362627D01*
X7203158Y-22362627D02*
X7193634Y-22334055D01*
X7193634Y-22334055D02*
X7184111Y-22315008D01*
X7184111Y-22315008D02*
X7165063Y-22286436D01*
X7165063Y-22286436D02*
X7155539Y-22276912D01*
D11*
X2150000Y-22638000D02*
X2150000Y-22718000D01*
X2110000Y-22678000D02*
X2190000Y-22678000D01*
D10*
X2488872Y-22569484D02*
X2507920Y-22569484D01*
X2507920Y-22569484D02*
X2526967Y-22579008D01*
X2526967Y-22579008D02*
X2536491Y-22588531D01*
X2536491Y-22588531D02*
X2546015Y-22607579D01*
X2546015Y-22607579D02*
X2555539Y-22645674D01*
X2555539Y-22645674D02*
X2555539Y-22693293D01*
X2555539Y-22693293D02*
X2546015Y-22731388D01*
X2546015Y-22731388D02*
X2536491Y-22750436D01*
X2536491Y-22750436D02*
X2526967Y-22759960D01*
X2526967Y-22759960D02*
X2507920Y-22769484D01*
X2507920Y-22769484D02*
X2488872Y-22769484D01*
X2488872Y-22769484D02*
X2469824Y-22759960D01*
X2469824Y-22759960D02*
X2460301Y-22750436D01*
X2460301Y-22750436D02*
X2450777Y-22731388D01*
X2450777Y-22731388D02*
X2441253Y-22693293D01*
X2441253Y-22693293D02*
X2441253Y-22645674D01*
X2441253Y-22645674D02*
X2450777Y-22607579D01*
X2450777Y-22607579D02*
X2460301Y-22588531D01*
X2460301Y-22588531D02*
X2469824Y-22579008D01*
X2469824Y-22579008D02*
X2488872Y-22569484D01*
X2641253Y-22750436D02*
X2650777Y-22759960D01*
X2650777Y-22759960D02*
X2641253Y-22769484D01*
X2641253Y-22769484D02*
X2631729Y-22759960D01*
X2631729Y-22759960D02*
X2641253Y-22750436D01*
X2641253Y-22750436D02*
X2641253Y-22769484D01*
X2765063Y-22655198D02*
X2746015Y-22645674D01*
X2746015Y-22645674D02*
X2736491Y-22636150D01*
X2736491Y-22636150D02*
X2726967Y-22617103D01*
X2726967Y-22617103D02*
X2726967Y-22607579D01*
X2726967Y-22607579D02*
X2736491Y-22588531D01*
X2736491Y-22588531D02*
X2746015Y-22579008D01*
X2746015Y-22579008D02*
X2765063Y-22569484D01*
X2765063Y-22569484D02*
X2803158Y-22569484D01*
X2803158Y-22569484D02*
X2822205Y-22579008D01*
X2822205Y-22579008D02*
X2831729Y-22588531D01*
X2831729Y-22588531D02*
X2841253Y-22607579D01*
X2841253Y-22607579D02*
X2841253Y-22617103D01*
X2841253Y-22617103D02*
X2831729Y-22636150D01*
X2831729Y-22636150D02*
X2822205Y-22645674D01*
X2822205Y-22645674D02*
X2803158Y-22655198D01*
X2803158Y-22655198D02*
X2765063Y-22655198D01*
X2765063Y-22655198D02*
X2746015Y-22664722D01*
X2746015Y-22664722D02*
X2736491Y-22674246D01*
X2736491Y-22674246D02*
X2726967Y-22693293D01*
X2726967Y-22693293D02*
X2726967Y-22731388D01*
X2726967Y-22731388D02*
X2736491Y-22750436D01*
X2736491Y-22750436D02*
X2746015Y-22759960D01*
X2746015Y-22759960D02*
X2765063Y-22769484D01*
X2765063Y-22769484D02*
X2803158Y-22769484D01*
X2803158Y-22769484D02*
X2822205Y-22759960D01*
X2822205Y-22759960D02*
X2831729Y-22750436D01*
X2831729Y-22750436D02*
X2841253Y-22731388D01*
X2841253Y-22731388D02*
X2841253Y-22693293D01*
X2841253Y-22693293D02*
X2831729Y-22674246D01*
X2831729Y-22674246D02*
X2822205Y-22664722D01*
X2822205Y-22664722D02*
X2803158Y-22655198D01*
X2965062Y-22569484D02*
X2984110Y-22569484D01*
X2984110Y-22569484D02*
X3003158Y-22579008D01*
X3003158Y-22579008D02*
X3012682Y-22588531D01*
X3012682Y-22588531D02*
X3022205Y-22607579D01*
X3022205Y-22607579D02*
X3031729Y-22645674D01*
X3031729Y-22645674D02*
X3031729Y-22693293D01*
X3031729Y-22693293D02*
X3022205Y-22731388D01*
X3022205Y-22731388D02*
X3012682Y-22750436D01*
X3012682Y-22750436D02*
X3003158Y-22759960D01*
X3003158Y-22759960D02*
X2984110Y-22769484D01*
X2984110Y-22769484D02*
X2965062Y-22769484D01*
X2965062Y-22769484D02*
X2946015Y-22759960D01*
X2946015Y-22759960D02*
X2936491Y-22750436D01*
X2936491Y-22750436D02*
X2926967Y-22731388D01*
X2926967Y-22731388D02*
X2917443Y-22693293D01*
X2917443Y-22693293D02*
X2917443Y-22645674D01*
X2917443Y-22645674D02*
X2926967Y-22607579D01*
X2926967Y-22607579D02*
X2936491Y-22588531D01*
X2936491Y-22588531D02*
X2946015Y-22579008D01*
X2946015Y-22579008D02*
X2965062Y-22569484D01*
X3155539Y-22569484D02*
X3174586Y-22569484D01*
X3174586Y-22569484D02*
X3193634Y-22579008D01*
X3193634Y-22579008D02*
X3203158Y-22588531D01*
X3203158Y-22588531D02*
X3212682Y-22607579D01*
X3212682Y-22607579D02*
X3222205Y-22645674D01*
X3222205Y-22645674D02*
X3222205Y-22693293D01*
X3222205Y-22693293D02*
X3212682Y-22731388D01*
X3212682Y-22731388D02*
X3203158Y-22750436D01*
X3203158Y-22750436D02*
X3193634Y-22759960D01*
X3193634Y-22759960D02*
X3174586Y-22769484D01*
X3174586Y-22769484D02*
X3155539Y-22769484D01*
X3155539Y-22769484D02*
X3136491Y-22759960D01*
X3136491Y-22759960D02*
X3126967Y-22750436D01*
X3126967Y-22750436D02*
X3117443Y-22731388D01*
X3117443Y-22731388D02*
X3107920Y-22693293D01*
X3107920Y-22693293D02*
X3107920Y-22645674D01*
X3107920Y-22645674D02*
X3117443Y-22607579D01*
X3117443Y-22607579D02*
X3126967Y-22588531D01*
X3126967Y-22588531D02*
X3136491Y-22579008D01*
X3136491Y-22579008D02*
X3155539Y-22569484D01*
X3307920Y-22769484D02*
X3307920Y-22636150D01*
X3307920Y-22655198D02*
X3317443Y-22645674D01*
X3317443Y-22645674D02*
X3336491Y-22636150D01*
X3336491Y-22636150D02*
X3365063Y-22636150D01*
X3365063Y-22636150D02*
X3384110Y-22645674D01*
X3384110Y-22645674D02*
X3393634Y-22664722D01*
X3393634Y-22664722D02*
X3393634Y-22769484D01*
X3393634Y-22664722D02*
X3403158Y-22645674D01*
X3403158Y-22645674D02*
X3422205Y-22636150D01*
X3422205Y-22636150D02*
X3450777Y-22636150D01*
X3450777Y-22636150D02*
X3469824Y-22645674D01*
X3469824Y-22645674D02*
X3479348Y-22664722D01*
X3479348Y-22664722D02*
X3479348Y-22769484D01*
X3574586Y-22769484D02*
X3574586Y-22636150D01*
X3574586Y-22655198D02*
X3584110Y-22645674D01*
X3584110Y-22645674D02*
X3603158Y-22636150D01*
X3603158Y-22636150D02*
X3631729Y-22636150D01*
X3631729Y-22636150D02*
X3650777Y-22645674D01*
X3650777Y-22645674D02*
X3660301Y-22664722D01*
X3660301Y-22664722D02*
X3660301Y-22769484D01*
X3660301Y-22664722D02*
X3669824Y-22645674D01*
X3669824Y-22645674D02*
X3688872Y-22636150D01*
X3688872Y-22636150D02*
X3717443Y-22636150D01*
X3717443Y-22636150D02*
X3736491Y-22645674D01*
X3736491Y-22645674D02*
X3746015Y-22664722D01*
X3746015Y-22664722D02*
X3746015Y-22769484D01*
X4136491Y-22559960D02*
X3965063Y-22817103D01*
X4393634Y-22569484D02*
X4412682Y-22569484D01*
X4412682Y-22569484D02*
X4431729Y-22579008D01*
X4431729Y-22579008D02*
X4441253Y-22588531D01*
X4441253Y-22588531D02*
X4450777Y-22607579D01*
X4450777Y-22607579D02*
X4460301Y-22645674D01*
X4460301Y-22645674D02*
X4460301Y-22693293D01*
X4460301Y-22693293D02*
X4450777Y-22731388D01*
X4450777Y-22731388D02*
X4441253Y-22750436D01*
X4441253Y-22750436D02*
X4431729Y-22759960D01*
X4431729Y-22759960D02*
X4412682Y-22769484D01*
X4412682Y-22769484D02*
X4393634Y-22769484D01*
X4393634Y-22769484D02*
X4374587Y-22759960D01*
X4374587Y-22759960D02*
X4365063Y-22750436D01*
X4365063Y-22750436D02*
X4355539Y-22731388D01*
X4355539Y-22731388D02*
X4346015Y-22693293D01*
X4346015Y-22693293D02*
X4346015Y-22645674D01*
X4346015Y-22645674D02*
X4355539Y-22607579D01*
X4355539Y-22607579D02*
X4365063Y-22588531D01*
X4365063Y-22588531D02*
X4374587Y-22579008D01*
X4374587Y-22579008D02*
X4393634Y-22569484D01*
X4546015Y-22750436D02*
X4555539Y-22759960D01*
X4555539Y-22759960D02*
X4546015Y-22769484D01*
X4546015Y-22769484D02*
X4536491Y-22759960D01*
X4536491Y-22759960D02*
X4546015Y-22750436D01*
X4546015Y-22750436D02*
X4546015Y-22769484D01*
X4679348Y-22569484D02*
X4698396Y-22569484D01*
X4698396Y-22569484D02*
X4717444Y-22579008D01*
X4717444Y-22579008D02*
X4726968Y-22588531D01*
X4726968Y-22588531D02*
X4736491Y-22607579D01*
X4736491Y-22607579D02*
X4746015Y-22645674D01*
X4746015Y-22645674D02*
X4746015Y-22693293D01*
X4746015Y-22693293D02*
X4736491Y-22731388D01*
X4736491Y-22731388D02*
X4726968Y-22750436D01*
X4726968Y-22750436D02*
X4717444Y-22759960D01*
X4717444Y-22759960D02*
X4698396Y-22769484D01*
X4698396Y-22769484D02*
X4679348Y-22769484D01*
X4679348Y-22769484D02*
X4660301Y-22759960D01*
X4660301Y-22759960D02*
X4650777Y-22750436D01*
X4650777Y-22750436D02*
X4641253Y-22731388D01*
X4641253Y-22731388D02*
X4631729Y-22693293D01*
X4631729Y-22693293D02*
X4631729Y-22645674D01*
X4631729Y-22645674D02*
X4641253Y-22607579D01*
X4641253Y-22607579D02*
X4650777Y-22588531D01*
X4650777Y-22588531D02*
X4660301Y-22579008D01*
X4660301Y-22579008D02*
X4679348Y-22569484D01*
X4812682Y-22569484D02*
X4936491Y-22569484D01*
X4936491Y-22569484D02*
X4869825Y-22645674D01*
X4869825Y-22645674D02*
X4898396Y-22645674D01*
X4898396Y-22645674D02*
X4917444Y-22655198D01*
X4917444Y-22655198D02*
X4926968Y-22664722D01*
X4926968Y-22664722D02*
X4936491Y-22683769D01*
X4936491Y-22683769D02*
X4936491Y-22731388D01*
X4936491Y-22731388D02*
X4926968Y-22750436D01*
X4926968Y-22750436D02*
X4917444Y-22759960D01*
X4917444Y-22759960D02*
X4898396Y-22769484D01*
X4898396Y-22769484D02*
X4841253Y-22769484D01*
X4841253Y-22769484D02*
X4822206Y-22759960D01*
X4822206Y-22759960D02*
X4812682Y-22750436D01*
X5126968Y-22769484D02*
X5012682Y-22769484D01*
X5069825Y-22769484D02*
X5069825Y-22569484D01*
X5069825Y-22569484D02*
X5050777Y-22598055D01*
X5050777Y-22598055D02*
X5031729Y-22617103D01*
X5031729Y-22617103D02*
X5012682Y-22626627D01*
X5307920Y-22569484D02*
X5212682Y-22569484D01*
X5212682Y-22569484D02*
X5203158Y-22664722D01*
X5203158Y-22664722D02*
X5212682Y-22655198D01*
X5212682Y-22655198D02*
X5231729Y-22645674D01*
X5231729Y-22645674D02*
X5279349Y-22645674D01*
X5279349Y-22645674D02*
X5298396Y-22655198D01*
X5298396Y-22655198D02*
X5307920Y-22664722D01*
X5307920Y-22664722D02*
X5317444Y-22683769D01*
X5317444Y-22683769D02*
X5317444Y-22731388D01*
X5317444Y-22731388D02*
X5307920Y-22750436D01*
X5307920Y-22750436D02*
X5298396Y-22759960D01*
X5298396Y-22759960D02*
X5279349Y-22769484D01*
X5279349Y-22769484D02*
X5231729Y-22769484D01*
X5231729Y-22769484D02*
X5212682Y-22759960D01*
X5212682Y-22759960D02*
X5203158Y-22750436D01*
X5393634Y-22569484D02*
X5393634Y-22607579D01*
X5469825Y-22569484D02*
X5469825Y-22607579D01*
X5765063Y-22845674D02*
X5755539Y-22836150D01*
X5755539Y-22836150D02*
X5736491Y-22807579D01*
X5736491Y-22807579D02*
X5726968Y-22788531D01*
X5726968Y-22788531D02*
X5717444Y-22759960D01*
X5717444Y-22759960D02*
X5707920Y-22712341D01*
X5707920Y-22712341D02*
X5707920Y-22674246D01*
X5707920Y-22674246D02*
X5717444Y-22626627D01*
X5717444Y-22626627D02*
X5726968Y-22598055D01*
X5726968Y-22598055D02*
X5736491Y-22579008D01*
X5736491Y-22579008D02*
X5755539Y-22550436D01*
X5755539Y-22550436D02*
X5765063Y-22540912D01*
X5822206Y-22569484D02*
X5946015Y-22569484D01*
X5946015Y-22569484D02*
X5879348Y-22645674D01*
X5879348Y-22645674D02*
X5907920Y-22645674D01*
X5907920Y-22645674D02*
X5926968Y-22655198D01*
X5926968Y-22655198D02*
X5936491Y-22664722D01*
X5936491Y-22664722D02*
X5946015Y-22683769D01*
X5946015Y-22683769D02*
X5946015Y-22731388D01*
X5946015Y-22731388D02*
X5936491Y-22750436D01*
X5936491Y-22750436D02*
X5926968Y-22759960D01*
X5926968Y-22759960D02*
X5907920Y-22769484D01*
X5907920Y-22769484D02*
X5850777Y-22769484D01*
X5850777Y-22769484D02*
X5831729Y-22759960D01*
X5831729Y-22759960D02*
X5822206Y-22750436D01*
X6069825Y-22569484D02*
X6088872Y-22569484D01*
X6088872Y-22569484D02*
X6107920Y-22579008D01*
X6107920Y-22579008D02*
X6117444Y-22588531D01*
X6117444Y-22588531D02*
X6126968Y-22607579D01*
X6126968Y-22607579D02*
X6136491Y-22645674D01*
X6136491Y-22645674D02*
X6136491Y-22693293D01*
X6136491Y-22693293D02*
X6126968Y-22731388D01*
X6126968Y-22731388D02*
X6117444Y-22750436D01*
X6117444Y-22750436D02*
X6107920Y-22759960D01*
X6107920Y-22759960D02*
X6088872Y-22769484D01*
X6088872Y-22769484D02*
X6069825Y-22769484D01*
X6069825Y-22769484D02*
X6050777Y-22759960D01*
X6050777Y-22759960D02*
X6041253Y-22750436D01*
X6041253Y-22750436D02*
X6031729Y-22731388D01*
X6031729Y-22731388D02*
X6022206Y-22693293D01*
X6022206Y-22693293D02*
X6022206Y-22645674D01*
X6022206Y-22645674D02*
X6031729Y-22607579D01*
X6031729Y-22607579D02*
X6041253Y-22588531D01*
X6041253Y-22588531D02*
X6050777Y-22579008D01*
X6050777Y-22579008D02*
X6069825Y-22569484D01*
X6374587Y-22769484D02*
X6374587Y-22569484D01*
X6460301Y-22769484D02*
X6460301Y-22664722D01*
X6460301Y-22664722D02*
X6450777Y-22645674D01*
X6450777Y-22645674D02*
X6431730Y-22636150D01*
X6431730Y-22636150D02*
X6403158Y-22636150D01*
X6403158Y-22636150D02*
X6384110Y-22645674D01*
X6384110Y-22645674D02*
X6374587Y-22655198D01*
X6584110Y-22769484D02*
X6565063Y-22759960D01*
X6565063Y-22759960D02*
X6555539Y-22750436D01*
X6555539Y-22750436D02*
X6546015Y-22731388D01*
X6546015Y-22731388D02*
X6546015Y-22674246D01*
X6546015Y-22674246D02*
X6555539Y-22655198D01*
X6555539Y-22655198D02*
X6565063Y-22645674D01*
X6565063Y-22645674D02*
X6584110Y-22636150D01*
X6584110Y-22636150D02*
X6612682Y-22636150D01*
X6612682Y-22636150D02*
X6631730Y-22645674D01*
X6631730Y-22645674D02*
X6641253Y-22655198D01*
X6641253Y-22655198D02*
X6650777Y-22674246D01*
X6650777Y-22674246D02*
X6650777Y-22731388D01*
X6650777Y-22731388D02*
X6641253Y-22750436D01*
X6641253Y-22750436D02*
X6631730Y-22759960D01*
X6631730Y-22759960D02*
X6612682Y-22769484D01*
X6612682Y-22769484D02*
X6584110Y-22769484D01*
X6765063Y-22769484D02*
X6746015Y-22759960D01*
X6746015Y-22759960D02*
X6736491Y-22740912D01*
X6736491Y-22740912D02*
X6736491Y-22569484D01*
X6917444Y-22759960D02*
X6898396Y-22769484D01*
X6898396Y-22769484D02*
X6860301Y-22769484D01*
X6860301Y-22769484D02*
X6841253Y-22759960D01*
X6841253Y-22759960D02*
X6831730Y-22740912D01*
X6831730Y-22740912D02*
X6831730Y-22664722D01*
X6831730Y-22664722D02*
X6841253Y-22645674D01*
X6841253Y-22645674D02*
X6860301Y-22636150D01*
X6860301Y-22636150D02*
X6898396Y-22636150D01*
X6898396Y-22636150D02*
X6917444Y-22645674D01*
X6917444Y-22645674D02*
X6926968Y-22664722D01*
X6926968Y-22664722D02*
X6926968Y-22683769D01*
X6926968Y-22683769D02*
X6831730Y-22702817D01*
X7003158Y-22759960D02*
X7022206Y-22769484D01*
X7022206Y-22769484D02*
X7060301Y-22769484D01*
X7060301Y-22769484D02*
X7079349Y-22759960D01*
X7079349Y-22759960D02*
X7088872Y-22740912D01*
X7088872Y-22740912D02*
X7088872Y-22731388D01*
X7088872Y-22731388D02*
X7079349Y-22712341D01*
X7079349Y-22712341D02*
X7060301Y-22702817D01*
X7060301Y-22702817D02*
X7031730Y-22702817D01*
X7031730Y-22702817D02*
X7012682Y-22693293D01*
X7012682Y-22693293D02*
X7003158Y-22674246D01*
X7003158Y-22674246D02*
X7003158Y-22664722D01*
X7003158Y-22664722D02*
X7012682Y-22645674D01*
X7012682Y-22645674D02*
X7031730Y-22636150D01*
X7031730Y-22636150D02*
X7060301Y-22636150D01*
X7060301Y-22636150D02*
X7079349Y-22645674D01*
X7155539Y-22845674D02*
X7165063Y-22836150D01*
X7165063Y-22836150D02*
X7184111Y-22807579D01*
X7184111Y-22807579D02*
X7193634Y-22788531D01*
X7193634Y-22788531D02*
X7203158Y-22759960D01*
X7203158Y-22759960D02*
X7212682Y-22712341D01*
X7212682Y-22712341D02*
X7212682Y-22674246D01*
X7212682Y-22674246D02*
X7203158Y-22626627D01*
X7203158Y-22626627D02*
X7193634Y-22598055D01*
X7193634Y-22598055D02*
X7184111Y-22579008D01*
X7184111Y-22579008D02*
X7165063Y-22550436D01*
X7165063Y-22550436D02*
X7155539Y-22540912D01*
D11*
X2176820Y-22973820D02*
X2176820Y-22910180D01*
X2113180Y-22910180D01*
X2113180Y-22973820D01*
X2176820Y-22973820D01*
D10*
X2488872Y-22833484D02*
X2507920Y-22833484D01*
X2507920Y-22833484D02*
X2526967Y-22843008D01*
X2526967Y-22843008D02*
X2536491Y-22852531D01*
X2536491Y-22852531D02*
X2546015Y-22871579D01*
X2546015Y-22871579D02*
X2555539Y-22909674D01*
X2555539Y-22909674D02*
X2555539Y-22957293D01*
X2555539Y-22957293D02*
X2546015Y-22995388D01*
X2546015Y-22995388D02*
X2536491Y-23014436D01*
X2536491Y-23014436D02*
X2526967Y-23023960D01*
X2526967Y-23023960D02*
X2507920Y-23033484D01*
X2507920Y-23033484D02*
X2488872Y-23033484D01*
X2488872Y-23033484D02*
X2469824Y-23023960D01*
X2469824Y-23023960D02*
X2460301Y-23014436D01*
X2460301Y-23014436D02*
X2450777Y-22995388D01*
X2450777Y-22995388D02*
X2441253Y-22957293D01*
X2441253Y-22957293D02*
X2441253Y-22909674D01*
X2441253Y-22909674D02*
X2450777Y-22871579D01*
X2450777Y-22871579D02*
X2460301Y-22852531D01*
X2460301Y-22852531D02*
X2469824Y-22843008D01*
X2469824Y-22843008D02*
X2488872Y-22833484D01*
X2641253Y-23014436D02*
X2650777Y-23023960D01*
X2650777Y-23023960D02*
X2641253Y-23033484D01*
X2641253Y-23033484D02*
X2631729Y-23023960D01*
X2631729Y-23023960D02*
X2641253Y-23014436D01*
X2641253Y-23014436D02*
X2641253Y-23033484D01*
X2746015Y-23033484D02*
X2784110Y-23033484D01*
X2784110Y-23033484D02*
X2803158Y-23023960D01*
X2803158Y-23023960D02*
X2812682Y-23014436D01*
X2812682Y-23014436D02*
X2831729Y-22985865D01*
X2831729Y-22985865D02*
X2841253Y-22947769D01*
X2841253Y-22947769D02*
X2841253Y-22871579D01*
X2841253Y-22871579D02*
X2831729Y-22852531D01*
X2831729Y-22852531D02*
X2822205Y-22843008D01*
X2822205Y-22843008D02*
X2803158Y-22833484D01*
X2803158Y-22833484D02*
X2765063Y-22833484D01*
X2765063Y-22833484D02*
X2746015Y-22843008D01*
X2746015Y-22843008D02*
X2736491Y-22852531D01*
X2736491Y-22852531D02*
X2726967Y-22871579D01*
X2726967Y-22871579D02*
X2726967Y-22919198D01*
X2726967Y-22919198D02*
X2736491Y-22938246D01*
X2736491Y-22938246D02*
X2746015Y-22947769D01*
X2746015Y-22947769D02*
X2765063Y-22957293D01*
X2765063Y-22957293D02*
X2803158Y-22957293D01*
X2803158Y-22957293D02*
X2822205Y-22947769D01*
X2822205Y-22947769D02*
X2831729Y-22938246D01*
X2831729Y-22938246D02*
X2841253Y-22919198D01*
X2965062Y-22833484D02*
X2984110Y-22833484D01*
X2984110Y-22833484D02*
X3003158Y-22843008D01*
X3003158Y-22843008D02*
X3012682Y-22852531D01*
X3012682Y-22852531D02*
X3022205Y-22871579D01*
X3022205Y-22871579D02*
X3031729Y-22909674D01*
X3031729Y-22909674D02*
X3031729Y-22957293D01*
X3031729Y-22957293D02*
X3022205Y-22995388D01*
X3022205Y-22995388D02*
X3012682Y-23014436D01*
X3012682Y-23014436D02*
X3003158Y-23023960D01*
X3003158Y-23023960D02*
X2984110Y-23033484D01*
X2984110Y-23033484D02*
X2965062Y-23033484D01*
X2965062Y-23033484D02*
X2946015Y-23023960D01*
X2946015Y-23023960D02*
X2936491Y-23014436D01*
X2936491Y-23014436D02*
X2926967Y-22995388D01*
X2926967Y-22995388D02*
X2917443Y-22957293D01*
X2917443Y-22957293D02*
X2917443Y-22909674D01*
X2917443Y-22909674D02*
X2926967Y-22871579D01*
X2926967Y-22871579D02*
X2936491Y-22852531D01*
X2936491Y-22852531D02*
X2946015Y-22843008D01*
X2946015Y-22843008D02*
X2965062Y-22833484D01*
X3155539Y-22833484D02*
X3174586Y-22833484D01*
X3174586Y-22833484D02*
X3193634Y-22843008D01*
X3193634Y-22843008D02*
X3203158Y-22852531D01*
X3203158Y-22852531D02*
X3212682Y-22871579D01*
X3212682Y-22871579D02*
X3222205Y-22909674D01*
X3222205Y-22909674D02*
X3222205Y-22957293D01*
X3222205Y-22957293D02*
X3212682Y-22995388D01*
X3212682Y-22995388D02*
X3203158Y-23014436D01*
X3203158Y-23014436D02*
X3193634Y-23023960D01*
X3193634Y-23023960D02*
X3174586Y-23033484D01*
X3174586Y-23033484D02*
X3155539Y-23033484D01*
X3155539Y-23033484D02*
X3136491Y-23023960D01*
X3136491Y-23023960D02*
X3126967Y-23014436D01*
X3126967Y-23014436D02*
X3117443Y-22995388D01*
X3117443Y-22995388D02*
X3107920Y-22957293D01*
X3107920Y-22957293D02*
X3107920Y-22909674D01*
X3107920Y-22909674D02*
X3117443Y-22871579D01*
X3117443Y-22871579D02*
X3126967Y-22852531D01*
X3126967Y-22852531D02*
X3136491Y-22843008D01*
X3136491Y-22843008D02*
X3155539Y-22833484D01*
X3307920Y-23033484D02*
X3307920Y-22900150D01*
X3307920Y-22919198D02*
X3317443Y-22909674D01*
X3317443Y-22909674D02*
X3336491Y-22900150D01*
X3336491Y-22900150D02*
X3365063Y-22900150D01*
X3365063Y-22900150D02*
X3384110Y-22909674D01*
X3384110Y-22909674D02*
X3393634Y-22928722D01*
X3393634Y-22928722D02*
X3393634Y-23033484D01*
X3393634Y-22928722D02*
X3403158Y-22909674D01*
X3403158Y-22909674D02*
X3422205Y-22900150D01*
X3422205Y-22900150D02*
X3450777Y-22900150D01*
X3450777Y-22900150D02*
X3469824Y-22909674D01*
X3469824Y-22909674D02*
X3479348Y-22928722D01*
X3479348Y-22928722D02*
X3479348Y-23033484D01*
X3574586Y-23033484D02*
X3574586Y-22900150D01*
X3574586Y-22919198D02*
X3584110Y-22909674D01*
X3584110Y-22909674D02*
X3603158Y-22900150D01*
X3603158Y-22900150D02*
X3631729Y-22900150D01*
X3631729Y-22900150D02*
X3650777Y-22909674D01*
X3650777Y-22909674D02*
X3660301Y-22928722D01*
X3660301Y-22928722D02*
X3660301Y-23033484D01*
X3660301Y-22928722D02*
X3669824Y-22909674D01*
X3669824Y-22909674D02*
X3688872Y-22900150D01*
X3688872Y-22900150D02*
X3717443Y-22900150D01*
X3717443Y-22900150D02*
X3736491Y-22909674D01*
X3736491Y-22909674D02*
X3746015Y-22928722D01*
X3746015Y-22928722D02*
X3746015Y-23033484D01*
X4136491Y-22823960D02*
X3965063Y-23081103D01*
X4393634Y-22833484D02*
X4412682Y-22833484D01*
X4412682Y-22833484D02*
X4431729Y-22843008D01*
X4431729Y-22843008D02*
X4441253Y-22852531D01*
X4441253Y-22852531D02*
X4450777Y-22871579D01*
X4450777Y-22871579D02*
X4460301Y-22909674D01*
X4460301Y-22909674D02*
X4460301Y-22957293D01*
X4460301Y-22957293D02*
X4450777Y-22995388D01*
X4450777Y-22995388D02*
X4441253Y-23014436D01*
X4441253Y-23014436D02*
X4431729Y-23023960D01*
X4431729Y-23023960D02*
X4412682Y-23033484D01*
X4412682Y-23033484D02*
X4393634Y-23033484D01*
X4393634Y-23033484D02*
X4374587Y-23023960D01*
X4374587Y-23023960D02*
X4365063Y-23014436D01*
X4365063Y-23014436D02*
X4355539Y-22995388D01*
X4355539Y-22995388D02*
X4346015Y-22957293D01*
X4346015Y-22957293D02*
X4346015Y-22909674D01*
X4346015Y-22909674D02*
X4355539Y-22871579D01*
X4355539Y-22871579D02*
X4365063Y-22852531D01*
X4365063Y-22852531D02*
X4374587Y-22843008D01*
X4374587Y-22843008D02*
X4393634Y-22833484D01*
X4546015Y-23014436D02*
X4555539Y-23023960D01*
X4555539Y-23023960D02*
X4546015Y-23033484D01*
X4546015Y-23033484D02*
X4536491Y-23023960D01*
X4536491Y-23023960D02*
X4546015Y-23014436D01*
X4546015Y-23014436D02*
X4546015Y-23033484D01*
X4679348Y-22833484D02*
X4698396Y-22833484D01*
X4698396Y-22833484D02*
X4717444Y-22843008D01*
X4717444Y-22843008D02*
X4726968Y-22852531D01*
X4726968Y-22852531D02*
X4736491Y-22871579D01*
X4736491Y-22871579D02*
X4746015Y-22909674D01*
X4746015Y-22909674D02*
X4746015Y-22957293D01*
X4746015Y-22957293D02*
X4736491Y-22995388D01*
X4736491Y-22995388D02*
X4726968Y-23014436D01*
X4726968Y-23014436D02*
X4717444Y-23023960D01*
X4717444Y-23023960D02*
X4698396Y-23033484D01*
X4698396Y-23033484D02*
X4679348Y-23033484D01*
X4679348Y-23033484D02*
X4660301Y-23023960D01*
X4660301Y-23023960D02*
X4650777Y-23014436D01*
X4650777Y-23014436D02*
X4641253Y-22995388D01*
X4641253Y-22995388D02*
X4631729Y-22957293D01*
X4631729Y-22957293D02*
X4631729Y-22909674D01*
X4631729Y-22909674D02*
X4641253Y-22871579D01*
X4641253Y-22871579D02*
X4650777Y-22852531D01*
X4650777Y-22852531D02*
X4660301Y-22843008D01*
X4660301Y-22843008D02*
X4679348Y-22833484D01*
X4812682Y-22833484D02*
X4936491Y-22833484D01*
X4936491Y-22833484D02*
X4869825Y-22909674D01*
X4869825Y-22909674D02*
X4898396Y-22909674D01*
X4898396Y-22909674D02*
X4917444Y-22919198D01*
X4917444Y-22919198D02*
X4926968Y-22928722D01*
X4926968Y-22928722D02*
X4936491Y-22947769D01*
X4936491Y-22947769D02*
X4936491Y-22995388D01*
X4936491Y-22995388D02*
X4926968Y-23014436D01*
X4926968Y-23014436D02*
X4917444Y-23023960D01*
X4917444Y-23023960D02*
X4898396Y-23033484D01*
X4898396Y-23033484D02*
X4841253Y-23033484D01*
X4841253Y-23033484D02*
X4822206Y-23023960D01*
X4822206Y-23023960D02*
X4812682Y-23014436D01*
X5117444Y-22833484D02*
X5022206Y-22833484D01*
X5022206Y-22833484D02*
X5012682Y-22928722D01*
X5012682Y-22928722D02*
X5022206Y-22919198D01*
X5022206Y-22919198D02*
X5041253Y-22909674D01*
X5041253Y-22909674D02*
X5088872Y-22909674D01*
X5088872Y-22909674D02*
X5107920Y-22919198D01*
X5107920Y-22919198D02*
X5117444Y-22928722D01*
X5117444Y-22928722D02*
X5126968Y-22947769D01*
X5126968Y-22947769D02*
X5126968Y-22995388D01*
X5126968Y-22995388D02*
X5117444Y-23014436D01*
X5117444Y-23014436D02*
X5107920Y-23023960D01*
X5107920Y-23023960D02*
X5088872Y-23033484D01*
X5088872Y-23033484D02*
X5041253Y-23033484D01*
X5041253Y-23033484D02*
X5022206Y-23023960D01*
X5022206Y-23023960D02*
X5012682Y-23014436D01*
X5298396Y-22900150D02*
X5298396Y-23033484D01*
X5250777Y-22823960D02*
X5203158Y-22966817D01*
X5203158Y-22966817D02*
X5326968Y-22966817D01*
X5393634Y-22833484D02*
X5393634Y-22871579D01*
X5469825Y-22833484D02*
X5469825Y-22871579D01*
X5765063Y-23109674D02*
X5755539Y-23100150D01*
X5755539Y-23100150D02*
X5736491Y-23071579D01*
X5736491Y-23071579D02*
X5726968Y-23052531D01*
X5726968Y-23052531D02*
X5717444Y-23023960D01*
X5717444Y-23023960D02*
X5707920Y-22976341D01*
X5707920Y-22976341D02*
X5707920Y-22938246D01*
X5707920Y-22938246D02*
X5717444Y-22890627D01*
X5717444Y-22890627D02*
X5726968Y-22862055D01*
X5726968Y-22862055D02*
X5736491Y-22843008D01*
X5736491Y-22843008D02*
X5755539Y-22814436D01*
X5755539Y-22814436D02*
X5765063Y-22804912D01*
X5831729Y-22852531D02*
X5841253Y-22843008D01*
X5841253Y-22843008D02*
X5860301Y-22833484D01*
X5860301Y-22833484D02*
X5907920Y-22833484D01*
X5907920Y-22833484D02*
X5926968Y-22843008D01*
X5926968Y-22843008D02*
X5936491Y-22852531D01*
X5936491Y-22852531D02*
X5946015Y-22871579D01*
X5946015Y-22871579D02*
X5946015Y-22890627D01*
X5946015Y-22890627D02*
X5936491Y-22919198D01*
X5936491Y-22919198D02*
X5822206Y-23033484D01*
X5822206Y-23033484D02*
X5946015Y-23033484D01*
X6117444Y-22900150D02*
X6117444Y-23033484D01*
X6069825Y-22823960D02*
X6022206Y-22966817D01*
X6022206Y-22966817D02*
X6146015Y-22966817D01*
X6374587Y-23033484D02*
X6374587Y-22833484D01*
X6460301Y-23033484D02*
X6460301Y-22928722D01*
X6460301Y-22928722D02*
X6450777Y-22909674D01*
X6450777Y-22909674D02*
X6431730Y-22900150D01*
X6431730Y-22900150D02*
X6403158Y-22900150D01*
X6403158Y-22900150D02*
X6384110Y-22909674D01*
X6384110Y-22909674D02*
X6374587Y-22919198D01*
X6584110Y-23033484D02*
X6565063Y-23023960D01*
X6565063Y-23023960D02*
X6555539Y-23014436D01*
X6555539Y-23014436D02*
X6546015Y-22995388D01*
X6546015Y-22995388D02*
X6546015Y-22938246D01*
X6546015Y-22938246D02*
X6555539Y-22919198D01*
X6555539Y-22919198D02*
X6565063Y-22909674D01*
X6565063Y-22909674D02*
X6584110Y-22900150D01*
X6584110Y-22900150D02*
X6612682Y-22900150D01*
X6612682Y-22900150D02*
X6631730Y-22909674D01*
X6631730Y-22909674D02*
X6641253Y-22919198D01*
X6641253Y-22919198D02*
X6650777Y-22938246D01*
X6650777Y-22938246D02*
X6650777Y-22995388D01*
X6650777Y-22995388D02*
X6641253Y-23014436D01*
X6641253Y-23014436D02*
X6631730Y-23023960D01*
X6631730Y-23023960D02*
X6612682Y-23033484D01*
X6612682Y-23033484D02*
X6584110Y-23033484D01*
X6765063Y-23033484D02*
X6746015Y-23023960D01*
X6746015Y-23023960D02*
X6736491Y-23004912D01*
X6736491Y-23004912D02*
X6736491Y-22833484D01*
X6917444Y-23023960D02*
X6898396Y-23033484D01*
X6898396Y-23033484D02*
X6860301Y-23033484D01*
X6860301Y-23033484D02*
X6841253Y-23023960D01*
X6841253Y-23023960D02*
X6831730Y-23004912D01*
X6831730Y-23004912D02*
X6831730Y-22928722D01*
X6831730Y-22928722D02*
X6841253Y-22909674D01*
X6841253Y-22909674D02*
X6860301Y-22900150D01*
X6860301Y-22900150D02*
X6898396Y-22900150D01*
X6898396Y-22900150D02*
X6917444Y-22909674D01*
X6917444Y-22909674D02*
X6926968Y-22928722D01*
X6926968Y-22928722D02*
X6926968Y-22947769D01*
X6926968Y-22947769D02*
X6831730Y-22966817D01*
X7003158Y-23023960D02*
X7022206Y-23033484D01*
X7022206Y-23033484D02*
X7060301Y-23033484D01*
X7060301Y-23033484D02*
X7079349Y-23023960D01*
X7079349Y-23023960D02*
X7088872Y-23004912D01*
X7088872Y-23004912D02*
X7088872Y-22995388D01*
X7088872Y-22995388D02*
X7079349Y-22976341D01*
X7079349Y-22976341D02*
X7060301Y-22966817D01*
X7060301Y-22966817D02*
X7031730Y-22966817D01*
X7031730Y-22966817D02*
X7012682Y-22957293D01*
X7012682Y-22957293D02*
X7003158Y-22938246D01*
X7003158Y-22938246D02*
X7003158Y-22928722D01*
X7003158Y-22928722D02*
X7012682Y-22909674D01*
X7012682Y-22909674D02*
X7031730Y-22900150D01*
X7031730Y-22900150D02*
X7060301Y-22900150D01*
X7060301Y-22900150D02*
X7079349Y-22909674D01*
X7155539Y-23109674D02*
X7165063Y-23100150D01*
X7165063Y-23100150D02*
X7184111Y-23071579D01*
X7184111Y-23071579D02*
X7193634Y-23052531D01*
X7193634Y-23052531D02*
X7203158Y-23023960D01*
X7203158Y-23023960D02*
X7212682Y-22976341D01*
X7212682Y-22976341D02*
X7212682Y-22938246D01*
X7212682Y-22938246D02*
X7203158Y-22890627D01*
X7203158Y-22890627D02*
X7193634Y-22862055D01*
X7193634Y-22862055D02*
X7184111Y-22843008D01*
X7184111Y-22843008D02*
X7165063Y-22814436D01*
X7165063Y-22814436D02*
X7155539Y-22804912D01*
D11*
X2140470Y-23255530D02*
X2190000Y-23206000D01*
X2140470Y-23156470D01*
X2090940Y-23206000D01*
X2140470Y-23255530D01*
D10*
X2488872Y-23097484D02*
X2507920Y-23097484D01*
X2507920Y-23097484D02*
X2526967Y-23107008D01*
X2526967Y-23107008D02*
X2536491Y-23116531D01*
X2536491Y-23116531D02*
X2546015Y-23135579D01*
X2546015Y-23135579D02*
X2555539Y-23173674D01*
X2555539Y-23173674D02*
X2555539Y-23221293D01*
X2555539Y-23221293D02*
X2546015Y-23259388D01*
X2546015Y-23259388D02*
X2536491Y-23278436D01*
X2536491Y-23278436D02*
X2526967Y-23287960D01*
X2526967Y-23287960D02*
X2507920Y-23297484D01*
X2507920Y-23297484D02*
X2488872Y-23297484D01*
X2488872Y-23297484D02*
X2469824Y-23287960D01*
X2469824Y-23287960D02*
X2460301Y-23278436D01*
X2460301Y-23278436D02*
X2450777Y-23259388D01*
X2450777Y-23259388D02*
X2441253Y-23221293D01*
X2441253Y-23221293D02*
X2441253Y-23173674D01*
X2441253Y-23173674D02*
X2450777Y-23135579D01*
X2450777Y-23135579D02*
X2460301Y-23116531D01*
X2460301Y-23116531D02*
X2469824Y-23107008D01*
X2469824Y-23107008D02*
X2488872Y-23097484D01*
X2641253Y-23278436D02*
X2650777Y-23287960D01*
X2650777Y-23287960D02*
X2641253Y-23297484D01*
X2641253Y-23297484D02*
X2631729Y-23287960D01*
X2631729Y-23287960D02*
X2641253Y-23278436D01*
X2641253Y-23278436D02*
X2641253Y-23297484D01*
X2746015Y-23297484D02*
X2784110Y-23297484D01*
X2784110Y-23297484D02*
X2803158Y-23287960D01*
X2803158Y-23287960D02*
X2812682Y-23278436D01*
X2812682Y-23278436D02*
X2831729Y-23249865D01*
X2831729Y-23249865D02*
X2841253Y-23211769D01*
X2841253Y-23211769D02*
X2841253Y-23135579D01*
X2841253Y-23135579D02*
X2831729Y-23116531D01*
X2831729Y-23116531D02*
X2822205Y-23107008D01*
X2822205Y-23107008D02*
X2803158Y-23097484D01*
X2803158Y-23097484D02*
X2765063Y-23097484D01*
X2765063Y-23097484D02*
X2746015Y-23107008D01*
X2746015Y-23107008D02*
X2736491Y-23116531D01*
X2736491Y-23116531D02*
X2726967Y-23135579D01*
X2726967Y-23135579D02*
X2726967Y-23183198D01*
X2726967Y-23183198D02*
X2736491Y-23202246D01*
X2736491Y-23202246D02*
X2746015Y-23211769D01*
X2746015Y-23211769D02*
X2765063Y-23221293D01*
X2765063Y-23221293D02*
X2803158Y-23221293D01*
X2803158Y-23221293D02*
X2822205Y-23211769D01*
X2822205Y-23211769D02*
X2831729Y-23202246D01*
X2831729Y-23202246D02*
X2841253Y-23183198D01*
X2936491Y-23297484D02*
X2974586Y-23297484D01*
X2974586Y-23297484D02*
X2993634Y-23287960D01*
X2993634Y-23287960D02*
X3003158Y-23278436D01*
X3003158Y-23278436D02*
X3022205Y-23249865D01*
X3022205Y-23249865D02*
X3031729Y-23211769D01*
X3031729Y-23211769D02*
X3031729Y-23135579D01*
X3031729Y-23135579D02*
X3022205Y-23116531D01*
X3022205Y-23116531D02*
X3012682Y-23107008D01*
X3012682Y-23107008D02*
X2993634Y-23097484D01*
X2993634Y-23097484D02*
X2955539Y-23097484D01*
X2955539Y-23097484D02*
X2936491Y-23107008D01*
X2936491Y-23107008D02*
X2926967Y-23116531D01*
X2926967Y-23116531D02*
X2917443Y-23135579D01*
X2917443Y-23135579D02*
X2917443Y-23183198D01*
X2917443Y-23183198D02*
X2926967Y-23202246D01*
X2926967Y-23202246D02*
X2936491Y-23211769D01*
X2936491Y-23211769D02*
X2955539Y-23221293D01*
X2955539Y-23221293D02*
X2993634Y-23221293D01*
X2993634Y-23221293D02*
X3012682Y-23211769D01*
X3012682Y-23211769D02*
X3022205Y-23202246D01*
X3022205Y-23202246D02*
X3031729Y-23183198D01*
X3222205Y-23297484D02*
X3107920Y-23297484D01*
X3165062Y-23297484D02*
X3165062Y-23097484D01*
X3165062Y-23097484D02*
X3146015Y-23126055D01*
X3146015Y-23126055D02*
X3126967Y-23145103D01*
X3126967Y-23145103D02*
X3107920Y-23154627D01*
X3307920Y-23297484D02*
X3307920Y-23164150D01*
X3307920Y-23183198D02*
X3317443Y-23173674D01*
X3317443Y-23173674D02*
X3336491Y-23164150D01*
X3336491Y-23164150D02*
X3365063Y-23164150D01*
X3365063Y-23164150D02*
X3384110Y-23173674D01*
X3384110Y-23173674D02*
X3393634Y-23192722D01*
X3393634Y-23192722D02*
X3393634Y-23297484D01*
X3393634Y-23192722D02*
X3403158Y-23173674D01*
X3403158Y-23173674D02*
X3422205Y-23164150D01*
X3422205Y-23164150D02*
X3450777Y-23164150D01*
X3450777Y-23164150D02*
X3469824Y-23173674D01*
X3469824Y-23173674D02*
X3479348Y-23192722D01*
X3479348Y-23192722D02*
X3479348Y-23297484D01*
X3574586Y-23297484D02*
X3574586Y-23164150D01*
X3574586Y-23183198D02*
X3584110Y-23173674D01*
X3584110Y-23173674D02*
X3603158Y-23164150D01*
X3603158Y-23164150D02*
X3631729Y-23164150D01*
X3631729Y-23164150D02*
X3650777Y-23173674D01*
X3650777Y-23173674D02*
X3660301Y-23192722D01*
X3660301Y-23192722D02*
X3660301Y-23297484D01*
X3660301Y-23192722D02*
X3669824Y-23173674D01*
X3669824Y-23173674D02*
X3688872Y-23164150D01*
X3688872Y-23164150D02*
X3717443Y-23164150D01*
X3717443Y-23164150D02*
X3736491Y-23173674D01*
X3736491Y-23173674D02*
X3746015Y-23192722D01*
X3746015Y-23192722D02*
X3746015Y-23297484D01*
X4136491Y-23087960D02*
X3965063Y-23345103D01*
X4393634Y-23097484D02*
X4412682Y-23097484D01*
X4412682Y-23097484D02*
X4431729Y-23107008D01*
X4431729Y-23107008D02*
X4441253Y-23116531D01*
X4441253Y-23116531D02*
X4450777Y-23135579D01*
X4450777Y-23135579D02*
X4460301Y-23173674D01*
X4460301Y-23173674D02*
X4460301Y-23221293D01*
X4460301Y-23221293D02*
X4450777Y-23259388D01*
X4450777Y-23259388D02*
X4441253Y-23278436D01*
X4441253Y-23278436D02*
X4431729Y-23287960D01*
X4431729Y-23287960D02*
X4412682Y-23297484D01*
X4412682Y-23297484D02*
X4393634Y-23297484D01*
X4393634Y-23297484D02*
X4374587Y-23287960D01*
X4374587Y-23287960D02*
X4365063Y-23278436D01*
X4365063Y-23278436D02*
X4355539Y-23259388D01*
X4355539Y-23259388D02*
X4346015Y-23221293D01*
X4346015Y-23221293D02*
X4346015Y-23173674D01*
X4346015Y-23173674D02*
X4355539Y-23135579D01*
X4355539Y-23135579D02*
X4365063Y-23116531D01*
X4365063Y-23116531D02*
X4374587Y-23107008D01*
X4374587Y-23107008D02*
X4393634Y-23097484D01*
X4546015Y-23278436D02*
X4555539Y-23287960D01*
X4555539Y-23287960D02*
X4546015Y-23297484D01*
X4546015Y-23297484D02*
X4536491Y-23287960D01*
X4536491Y-23287960D02*
X4546015Y-23278436D01*
X4546015Y-23278436D02*
X4546015Y-23297484D01*
X4679348Y-23097484D02*
X4698396Y-23097484D01*
X4698396Y-23097484D02*
X4717444Y-23107008D01*
X4717444Y-23107008D02*
X4726968Y-23116531D01*
X4726968Y-23116531D02*
X4736491Y-23135579D01*
X4736491Y-23135579D02*
X4746015Y-23173674D01*
X4746015Y-23173674D02*
X4746015Y-23221293D01*
X4746015Y-23221293D02*
X4736491Y-23259388D01*
X4736491Y-23259388D02*
X4726968Y-23278436D01*
X4726968Y-23278436D02*
X4717444Y-23287960D01*
X4717444Y-23287960D02*
X4698396Y-23297484D01*
X4698396Y-23297484D02*
X4679348Y-23297484D01*
X4679348Y-23297484D02*
X4660301Y-23287960D01*
X4660301Y-23287960D02*
X4650777Y-23278436D01*
X4650777Y-23278436D02*
X4641253Y-23259388D01*
X4641253Y-23259388D02*
X4631729Y-23221293D01*
X4631729Y-23221293D02*
X4631729Y-23173674D01*
X4631729Y-23173674D02*
X4641253Y-23135579D01*
X4641253Y-23135579D02*
X4650777Y-23116531D01*
X4650777Y-23116531D02*
X4660301Y-23107008D01*
X4660301Y-23107008D02*
X4679348Y-23097484D01*
X4812682Y-23097484D02*
X4936491Y-23097484D01*
X4936491Y-23097484D02*
X4869825Y-23173674D01*
X4869825Y-23173674D02*
X4898396Y-23173674D01*
X4898396Y-23173674D02*
X4917444Y-23183198D01*
X4917444Y-23183198D02*
X4926968Y-23192722D01*
X4926968Y-23192722D02*
X4936491Y-23211769D01*
X4936491Y-23211769D02*
X4936491Y-23259388D01*
X4936491Y-23259388D02*
X4926968Y-23278436D01*
X4926968Y-23278436D02*
X4917444Y-23287960D01*
X4917444Y-23287960D02*
X4898396Y-23297484D01*
X4898396Y-23297484D02*
X4841253Y-23297484D01*
X4841253Y-23297484D02*
X4822206Y-23287960D01*
X4822206Y-23287960D02*
X4812682Y-23278436D01*
X5031729Y-23297484D02*
X5069825Y-23297484D01*
X5069825Y-23297484D02*
X5088872Y-23287960D01*
X5088872Y-23287960D02*
X5098396Y-23278436D01*
X5098396Y-23278436D02*
X5117444Y-23249865D01*
X5117444Y-23249865D02*
X5126968Y-23211769D01*
X5126968Y-23211769D02*
X5126968Y-23135579D01*
X5126968Y-23135579D02*
X5117444Y-23116531D01*
X5117444Y-23116531D02*
X5107920Y-23107008D01*
X5107920Y-23107008D02*
X5088872Y-23097484D01*
X5088872Y-23097484D02*
X5050777Y-23097484D01*
X5050777Y-23097484D02*
X5031729Y-23107008D01*
X5031729Y-23107008D02*
X5022206Y-23116531D01*
X5022206Y-23116531D02*
X5012682Y-23135579D01*
X5012682Y-23135579D02*
X5012682Y-23183198D01*
X5012682Y-23183198D02*
X5022206Y-23202246D01*
X5022206Y-23202246D02*
X5031729Y-23211769D01*
X5031729Y-23211769D02*
X5050777Y-23221293D01*
X5050777Y-23221293D02*
X5088872Y-23221293D01*
X5088872Y-23221293D02*
X5107920Y-23211769D01*
X5107920Y-23211769D02*
X5117444Y-23202246D01*
X5117444Y-23202246D02*
X5126968Y-23183198D01*
X5250777Y-23097484D02*
X5269825Y-23097484D01*
X5269825Y-23097484D02*
X5288872Y-23107008D01*
X5288872Y-23107008D02*
X5298396Y-23116531D01*
X5298396Y-23116531D02*
X5307920Y-23135579D01*
X5307920Y-23135579D02*
X5317444Y-23173674D01*
X5317444Y-23173674D02*
X5317444Y-23221293D01*
X5317444Y-23221293D02*
X5307920Y-23259388D01*
X5307920Y-23259388D02*
X5298396Y-23278436D01*
X5298396Y-23278436D02*
X5288872Y-23287960D01*
X5288872Y-23287960D02*
X5269825Y-23297484D01*
X5269825Y-23297484D02*
X5250777Y-23297484D01*
X5250777Y-23297484D02*
X5231729Y-23287960D01*
X5231729Y-23287960D02*
X5222206Y-23278436D01*
X5222206Y-23278436D02*
X5212682Y-23259388D01*
X5212682Y-23259388D02*
X5203158Y-23221293D01*
X5203158Y-23221293D02*
X5203158Y-23173674D01*
X5203158Y-23173674D02*
X5212682Y-23135579D01*
X5212682Y-23135579D02*
X5222206Y-23116531D01*
X5222206Y-23116531D02*
X5231729Y-23107008D01*
X5231729Y-23107008D02*
X5250777Y-23097484D01*
X5393634Y-23097484D02*
X5393634Y-23135579D01*
X5469825Y-23097484D02*
X5469825Y-23135579D01*
X5765063Y-23373674D02*
X5755539Y-23364150D01*
X5755539Y-23364150D02*
X5736491Y-23335579D01*
X5736491Y-23335579D02*
X5726968Y-23316531D01*
X5726968Y-23316531D02*
X5717444Y-23287960D01*
X5717444Y-23287960D02*
X5707920Y-23240341D01*
X5707920Y-23240341D02*
X5707920Y-23202246D01*
X5707920Y-23202246D02*
X5717444Y-23154627D01*
X5717444Y-23154627D02*
X5726968Y-23126055D01*
X5726968Y-23126055D02*
X5736491Y-23107008D01*
X5736491Y-23107008D02*
X5755539Y-23078436D01*
X5755539Y-23078436D02*
X5765063Y-23068912D01*
X5822206Y-23097484D02*
X5946015Y-23097484D01*
X5946015Y-23097484D02*
X5879348Y-23173674D01*
X5879348Y-23173674D02*
X5907920Y-23173674D01*
X5907920Y-23173674D02*
X5926968Y-23183198D01*
X5926968Y-23183198D02*
X5936491Y-23192722D01*
X5936491Y-23192722D02*
X5946015Y-23211769D01*
X5946015Y-23211769D02*
X5946015Y-23259388D01*
X5946015Y-23259388D02*
X5936491Y-23278436D01*
X5936491Y-23278436D02*
X5926968Y-23287960D01*
X5926968Y-23287960D02*
X5907920Y-23297484D01*
X5907920Y-23297484D02*
X5850777Y-23297484D01*
X5850777Y-23297484D02*
X5831729Y-23287960D01*
X5831729Y-23287960D02*
X5822206Y-23278436D01*
X6117444Y-23097484D02*
X6079348Y-23097484D01*
X6079348Y-23097484D02*
X6060301Y-23107008D01*
X6060301Y-23107008D02*
X6050777Y-23116531D01*
X6050777Y-23116531D02*
X6031729Y-23145103D01*
X6031729Y-23145103D02*
X6022206Y-23183198D01*
X6022206Y-23183198D02*
X6022206Y-23259388D01*
X6022206Y-23259388D02*
X6031729Y-23278436D01*
X6031729Y-23278436D02*
X6041253Y-23287960D01*
X6041253Y-23287960D02*
X6060301Y-23297484D01*
X6060301Y-23297484D02*
X6098396Y-23297484D01*
X6098396Y-23297484D02*
X6117444Y-23287960D01*
X6117444Y-23287960D02*
X6126968Y-23278436D01*
X6126968Y-23278436D02*
X6136491Y-23259388D01*
X6136491Y-23259388D02*
X6136491Y-23211769D01*
X6136491Y-23211769D02*
X6126968Y-23192722D01*
X6126968Y-23192722D02*
X6117444Y-23183198D01*
X6117444Y-23183198D02*
X6098396Y-23173674D01*
X6098396Y-23173674D02*
X6060301Y-23173674D01*
X6060301Y-23173674D02*
X6041253Y-23183198D01*
X6041253Y-23183198D02*
X6031729Y-23192722D01*
X6031729Y-23192722D02*
X6022206Y-23211769D01*
X6374587Y-23297484D02*
X6374587Y-23097484D01*
X6460301Y-23297484D02*
X6460301Y-23192722D01*
X6460301Y-23192722D02*
X6450777Y-23173674D01*
X6450777Y-23173674D02*
X6431730Y-23164150D01*
X6431730Y-23164150D02*
X6403158Y-23164150D01*
X6403158Y-23164150D02*
X6384110Y-23173674D01*
X6384110Y-23173674D02*
X6374587Y-23183198D01*
X6584110Y-23297484D02*
X6565063Y-23287960D01*
X6565063Y-23287960D02*
X6555539Y-23278436D01*
X6555539Y-23278436D02*
X6546015Y-23259388D01*
X6546015Y-23259388D02*
X6546015Y-23202246D01*
X6546015Y-23202246D02*
X6555539Y-23183198D01*
X6555539Y-23183198D02*
X6565063Y-23173674D01*
X6565063Y-23173674D02*
X6584110Y-23164150D01*
X6584110Y-23164150D02*
X6612682Y-23164150D01*
X6612682Y-23164150D02*
X6631730Y-23173674D01*
X6631730Y-23173674D02*
X6641253Y-23183198D01*
X6641253Y-23183198D02*
X6650777Y-23202246D01*
X6650777Y-23202246D02*
X6650777Y-23259388D01*
X6650777Y-23259388D02*
X6641253Y-23278436D01*
X6641253Y-23278436D02*
X6631730Y-23287960D01*
X6631730Y-23287960D02*
X6612682Y-23297484D01*
X6612682Y-23297484D02*
X6584110Y-23297484D01*
X6765063Y-23297484D02*
X6746015Y-23287960D01*
X6746015Y-23287960D02*
X6736491Y-23268912D01*
X6736491Y-23268912D02*
X6736491Y-23097484D01*
X6917444Y-23287960D02*
X6898396Y-23297484D01*
X6898396Y-23297484D02*
X6860301Y-23297484D01*
X6860301Y-23297484D02*
X6841253Y-23287960D01*
X6841253Y-23287960D02*
X6831730Y-23268912D01*
X6831730Y-23268912D02*
X6831730Y-23192722D01*
X6831730Y-23192722D02*
X6841253Y-23173674D01*
X6841253Y-23173674D02*
X6860301Y-23164150D01*
X6860301Y-23164150D02*
X6898396Y-23164150D01*
X6898396Y-23164150D02*
X6917444Y-23173674D01*
X6917444Y-23173674D02*
X6926968Y-23192722D01*
X6926968Y-23192722D02*
X6926968Y-23211769D01*
X6926968Y-23211769D02*
X6831730Y-23230817D01*
X7003158Y-23287960D02*
X7022206Y-23297484D01*
X7022206Y-23297484D02*
X7060301Y-23297484D01*
X7060301Y-23297484D02*
X7079349Y-23287960D01*
X7079349Y-23287960D02*
X7088872Y-23268912D01*
X7088872Y-23268912D02*
X7088872Y-23259388D01*
X7088872Y-23259388D02*
X7079349Y-23240341D01*
X7079349Y-23240341D02*
X7060301Y-23230817D01*
X7060301Y-23230817D02*
X7031730Y-23230817D01*
X7031730Y-23230817D02*
X7012682Y-23221293D01*
X7012682Y-23221293D02*
X7003158Y-23202246D01*
X7003158Y-23202246D02*
X7003158Y-23192722D01*
X7003158Y-23192722D02*
X7012682Y-23173674D01*
X7012682Y-23173674D02*
X7031730Y-23164150D01*
X7031730Y-23164150D02*
X7060301Y-23164150D01*
X7060301Y-23164150D02*
X7079349Y-23173674D01*
X7326968Y-23221293D02*
X7479349Y-23221293D01*
X7403158Y-23297484D02*
X7403158Y-23145103D01*
X7717444Y-23116531D02*
X7726968Y-23107008D01*
X7726968Y-23107008D02*
X7746015Y-23097484D01*
X7746015Y-23097484D02*
X7793634Y-23097484D01*
X7793634Y-23097484D02*
X7812682Y-23107008D01*
X7812682Y-23107008D02*
X7822206Y-23116531D01*
X7822206Y-23116531D02*
X7831730Y-23135579D01*
X7831730Y-23135579D02*
X7831730Y-23154627D01*
X7831730Y-23154627D02*
X7822206Y-23183198D01*
X7822206Y-23183198D02*
X7707920Y-23297484D01*
X7707920Y-23297484D02*
X7831730Y-23297484D01*
X8060301Y-23287960D02*
X8079349Y-23297484D01*
X8079349Y-23297484D02*
X8117444Y-23297484D01*
X8117444Y-23297484D02*
X8136492Y-23287960D01*
X8136492Y-23287960D02*
X8146015Y-23268912D01*
X8146015Y-23268912D02*
X8146015Y-23259388D01*
X8146015Y-23259388D02*
X8136492Y-23240341D01*
X8136492Y-23240341D02*
X8117444Y-23230817D01*
X8117444Y-23230817D02*
X8088873Y-23230817D01*
X8088873Y-23230817D02*
X8069825Y-23221293D01*
X8069825Y-23221293D02*
X8060301Y-23202246D01*
X8060301Y-23202246D02*
X8060301Y-23192722D01*
X8060301Y-23192722D02*
X8069825Y-23173674D01*
X8069825Y-23173674D02*
X8088873Y-23164150D01*
X8088873Y-23164150D02*
X8117444Y-23164150D01*
X8117444Y-23164150D02*
X8136492Y-23173674D01*
X8260301Y-23297484D02*
X8241254Y-23287960D01*
X8241254Y-23287960D02*
X8231730Y-23268912D01*
X8231730Y-23268912D02*
X8231730Y-23097484D01*
X8365063Y-23297484D02*
X8346015Y-23287960D01*
X8346015Y-23287960D02*
X8336492Y-23278436D01*
X8336492Y-23278436D02*
X8326968Y-23259388D01*
X8326968Y-23259388D02*
X8326968Y-23202246D01*
X8326968Y-23202246D02*
X8336492Y-23183198D01*
X8336492Y-23183198D02*
X8346015Y-23173674D01*
X8346015Y-23173674D02*
X8365063Y-23164150D01*
X8365063Y-23164150D02*
X8393635Y-23164150D01*
X8393635Y-23164150D02*
X8412682Y-23173674D01*
X8412682Y-23173674D02*
X8422206Y-23183198D01*
X8422206Y-23183198D02*
X8431730Y-23202246D01*
X8431730Y-23202246D02*
X8431730Y-23259388D01*
X8431730Y-23259388D02*
X8422206Y-23278436D01*
X8422206Y-23278436D02*
X8412682Y-23287960D01*
X8412682Y-23287960D02*
X8393635Y-23297484D01*
X8393635Y-23297484D02*
X8365063Y-23297484D01*
X8488873Y-23164150D02*
X8565063Y-23164150D01*
X8517444Y-23097484D02*
X8517444Y-23268912D01*
X8517444Y-23268912D02*
X8526968Y-23287960D01*
X8526968Y-23287960D02*
X8546016Y-23297484D01*
X8546016Y-23297484D02*
X8565063Y-23297484D01*
X8622206Y-23287960D02*
X8641254Y-23297484D01*
X8641254Y-23297484D02*
X8679349Y-23297484D01*
X8679349Y-23297484D02*
X8698397Y-23287960D01*
X8698397Y-23287960D02*
X8707920Y-23268912D01*
X8707920Y-23268912D02*
X8707920Y-23259388D01*
X8707920Y-23259388D02*
X8698397Y-23240341D01*
X8698397Y-23240341D02*
X8679349Y-23230817D01*
X8679349Y-23230817D02*
X8650777Y-23230817D01*
X8650777Y-23230817D02*
X8631730Y-23221293D01*
X8631730Y-23221293D02*
X8622206Y-23202246D01*
X8622206Y-23202246D02*
X8622206Y-23192722D01*
X8622206Y-23192722D02*
X8631730Y-23173674D01*
X8631730Y-23173674D02*
X8650777Y-23164150D01*
X8650777Y-23164150D02*
X8679349Y-23164150D01*
X8679349Y-23164150D02*
X8698397Y-23173674D01*
X8774587Y-23373674D02*
X8784111Y-23364150D01*
X8784111Y-23364150D02*
X8803158Y-23335579D01*
X8803158Y-23335579D02*
X8812682Y-23316531D01*
X8812682Y-23316531D02*
X8822206Y-23287960D01*
X8822206Y-23287960D02*
X8831730Y-23240341D01*
X8831730Y-23240341D02*
X8831730Y-23202246D01*
X8831730Y-23202246D02*
X8822206Y-23154627D01*
X8822206Y-23154627D02*
X8812682Y-23126055D01*
X8812682Y-23126055D02*
X8803158Y-23107008D01*
X8803158Y-23107008D02*
X8784111Y-23078436D01*
X8784111Y-23078436D02*
X8774587Y-23068912D01*
D11*
X2090000Y-23420000D02*
X2190000Y-23520000D01*
X2190000Y-23420000D02*
X2090000Y-23520000D01*
X2190000Y-23470000D02*
G75*
G02*
X2090000Y-23470000I-50000J0D01*
G01*
X2090000Y-23470000D02*
G75*
G02*
X2190000Y-23470000I50000J0D01*
G01*
D10*
X2555539Y-23561484D02*
X2441253Y-23561484D01*
X2498396Y-23561484D02*
X2498396Y-23361484D01*
X2498396Y-23361484D02*
X2479348Y-23390055D01*
X2479348Y-23390055D02*
X2460301Y-23409103D01*
X2460301Y-23409103D02*
X2441253Y-23418627D01*
X2641253Y-23542436D02*
X2650777Y-23551960D01*
X2650777Y-23551960D02*
X2641253Y-23561484D01*
X2641253Y-23561484D02*
X2631729Y-23551960D01*
X2631729Y-23551960D02*
X2641253Y-23542436D01*
X2641253Y-23542436D02*
X2641253Y-23561484D01*
X2774586Y-23361484D02*
X2793634Y-23361484D01*
X2793634Y-23361484D02*
X2812682Y-23371008D01*
X2812682Y-23371008D02*
X2822205Y-23380531D01*
X2822205Y-23380531D02*
X2831729Y-23399579D01*
X2831729Y-23399579D02*
X2841253Y-23437674D01*
X2841253Y-23437674D02*
X2841253Y-23485293D01*
X2841253Y-23485293D02*
X2831729Y-23523388D01*
X2831729Y-23523388D02*
X2822205Y-23542436D01*
X2822205Y-23542436D02*
X2812682Y-23551960D01*
X2812682Y-23551960D02*
X2793634Y-23561484D01*
X2793634Y-23561484D02*
X2774586Y-23561484D01*
X2774586Y-23561484D02*
X2755539Y-23551960D01*
X2755539Y-23551960D02*
X2746015Y-23542436D01*
X2746015Y-23542436D02*
X2736491Y-23523388D01*
X2736491Y-23523388D02*
X2726967Y-23485293D01*
X2726967Y-23485293D02*
X2726967Y-23437674D01*
X2726967Y-23437674D02*
X2736491Y-23399579D01*
X2736491Y-23399579D02*
X2746015Y-23380531D01*
X2746015Y-23380531D02*
X2755539Y-23371008D01*
X2755539Y-23371008D02*
X2774586Y-23361484D01*
X2965062Y-23361484D02*
X2984110Y-23361484D01*
X2984110Y-23361484D02*
X3003158Y-23371008D01*
X3003158Y-23371008D02*
X3012682Y-23380531D01*
X3012682Y-23380531D02*
X3022205Y-23399579D01*
X3022205Y-23399579D02*
X3031729Y-23437674D01*
X3031729Y-23437674D02*
X3031729Y-23485293D01*
X3031729Y-23485293D02*
X3022205Y-23523388D01*
X3022205Y-23523388D02*
X3012682Y-23542436D01*
X3012682Y-23542436D02*
X3003158Y-23551960D01*
X3003158Y-23551960D02*
X2984110Y-23561484D01*
X2984110Y-23561484D02*
X2965062Y-23561484D01*
X2965062Y-23561484D02*
X2946015Y-23551960D01*
X2946015Y-23551960D02*
X2936491Y-23542436D01*
X2936491Y-23542436D02*
X2926967Y-23523388D01*
X2926967Y-23523388D02*
X2917443Y-23485293D01*
X2917443Y-23485293D02*
X2917443Y-23437674D01*
X2917443Y-23437674D02*
X2926967Y-23399579D01*
X2926967Y-23399579D02*
X2936491Y-23380531D01*
X2936491Y-23380531D02*
X2946015Y-23371008D01*
X2946015Y-23371008D02*
X2965062Y-23361484D01*
X3155539Y-23361484D02*
X3174586Y-23361484D01*
X3174586Y-23361484D02*
X3193634Y-23371008D01*
X3193634Y-23371008D02*
X3203158Y-23380531D01*
X3203158Y-23380531D02*
X3212682Y-23399579D01*
X3212682Y-23399579D02*
X3222205Y-23437674D01*
X3222205Y-23437674D02*
X3222205Y-23485293D01*
X3222205Y-23485293D02*
X3212682Y-23523388D01*
X3212682Y-23523388D02*
X3203158Y-23542436D01*
X3203158Y-23542436D02*
X3193634Y-23551960D01*
X3193634Y-23551960D02*
X3174586Y-23561484D01*
X3174586Y-23561484D02*
X3155539Y-23561484D01*
X3155539Y-23561484D02*
X3136491Y-23551960D01*
X3136491Y-23551960D02*
X3126967Y-23542436D01*
X3126967Y-23542436D02*
X3117443Y-23523388D01*
X3117443Y-23523388D02*
X3107920Y-23485293D01*
X3107920Y-23485293D02*
X3107920Y-23437674D01*
X3107920Y-23437674D02*
X3117443Y-23399579D01*
X3117443Y-23399579D02*
X3126967Y-23380531D01*
X3126967Y-23380531D02*
X3136491Y-23371008D01*
X3136491Y-23371008D02*
X3155539Y-23361484D01*
X3307920Y-23561484D02*
X3307920Y-23428150D01*
X3307920Y-23447198D02*
X3317443Y-23437674D01*
X3317443Y-23437674D02*
X3336491Y-23428150D01*
X3336491Y-23428150D02*
X3365063Y-23428150D01*
X3365063Y-23428150D02*
X3384110Y-23437674D01*
X3384110Y-23437674D02*
X3393634Y-23456722D01*
X3393634Y-23456722D02*
X3393634Y-23561484D01*
X3393634Y-23456722D02*
X3403158Y-23437674D01*
X3403158Y-23437674D02*
X3422205Y-23428150D01*
X3422205Y-23428150D02*
X3450777Y-23428150D01*
X3450777Y-23428150D02*
X3469824Y-23437674D01*
X3469824Y-23437674D02*
X3479348Y-23456722D01*
X3479348Y-23456722D02*
X3479348Y-23561484D01*
X3574586Y-23561484D02*
X3574586Y-23428150D01*
X3574586Y-23447198D02*
X3584110Y-23437674D01*
X3584110Y-23437674D02*
X3603158Y-23428150D01*
X3603158Y-23428150D02*
X3631729Y-23428150D01*
X3631729Y-23428150D02*
X3650777Y-23437674D01*
X3650777Y-23437674D02*
X3660301Y-23456722D01*
X3660301Y-23456722D02*
X3660301Y-23561484D01*
X3660301Y-23456722D02*
X3669824Y-23437674D01*
X3669824Y-23437674D02*
X3688872Y-23428150D01*
X3688872Y-23428150D02*
X3717443Y-23428150D01*
X3717443Y-23428150D02*
X3736491Y-23437674D01*
X3736491Y-23437674D02*
X3746015Y-23456722D01*
X3746015Y-23456722D02*
X3746015Y-23561484D01*
X4136491Y-23351960D02*
X3965063Y-23609103D01*
X4393634Y-23361484D02*
X4412682Y-23361484D01*
X4412682Y-23361484D02*
X4431729Y-23371008D01*
X4431729Y-23371008D02*
X4441253Y-23380531D01*
X4441253Y-23380531D02*
X4450777Y-23399579D01*
X4450777Y-23399579D02*
X4460301Y-23437674D01*
X4460301Y-23437674D02*
X4460301Y-23485293D01*
X4460301Y-23485293D02*
X4450777Y-23523388D01*
X4450777Y-23523388D02*
X4441253Y-23542436D01*
X4441253Y-23542436D02*
X4431729Y-23551960D01*
X4431729Y-23551960D02*
X4412682Y-23561484D01*
X4412682Y-23561484D02*
X4393634Y-23561484D01*
X4393634Y-23561484D02*
X4374587Y-23551960D01*
X4374587Y-23551960D02*
X4365063Y-23542436D01*
X4365063Y-23542436D02*
X4355539Y-23523388D01*
X4355539Y-23523388D02*
X4346015Y-23485293D01*
X4346015Y-23485293D02*
X4346015Y-23437674D01*
X4346015Y-23437674D02*
X4355539Y-23399579D01*
X4355539Y-23399579D02*
X4365063Y-23380531D01*
X4365063Y-23380531D02*
X4374587Y-23371008D01*
X4374587Y-23371008D02*
X4393634Y-23361484D01*
X4546015Y-23542436D02*
X4555539Y-23551960D01*
X4555539Y-23551960D02*
X4546015Y-23561484D01*
X4546015Y-23561484D02*
X4536491Y-23551960D01*
X4536491Y-23551960D02*
X4546015Y-23542436D01*
X4546015Y-23542436D02*
X4546015Y-23561484D01*
X4679348Y-23361484D02*
X4698396Y-23361484D01*
X4698396Y-23361484D02*
X4717444Y-23371008D01*
X4717444Y-23371008D02*
X4726968Y-23380531D01*
X4726968Y-23380531D02*
X4736491Y-23399579D01*
X4736491Y-23399579D02*
X4746015Y-23437674D01*
X4746015Y-23437674D02*
X4746015Y-23485293D01*
X4746015Y-23485293D02*
X4736491Y-23523388D01*
X4736491Y-23523388D02*
X4726968Y-23542436D01*
X4726968Y-23542436D02*
X4717444Y-23551960D01*
X4717444Y-23551960D02*
X4698396Y-23561484D01*
X4698396Y-23561484D02*
X4679348Y-23561484D01*
X4679348Y-23561484D02*
X4660301Y-23551960D01*
X4660301Y-23551960D02*
X4650777Y-23542436D01*
X4650777Y-23542436D02*
X4641253Y-23523388D01*
X4641253Y-23523388D02*
X4631729Y-23485293D01*
X4631729Y-23485293D02*
X4631729Y-23437674D01*
X4631729Y-23437674D02*
X4641253Y-23399579D01*
X4641253Y-23399579D02*
X4650777Y-23380531D01*
X4650777Y-23380531D02*
X4660301Y-23371008D01*
X4660301Y-23371008D02*
X4679348Y-23361484D01*
X4812682Y-23361484D02*
X4936491Y-23361484D01*
X4936491Y-23361484D02*
X4869825Y-23437674D01*
X4869825Y-23437674D02*
X4898396Y-23437674D01*
X4898396Y-23437674D02*
X4917444Y-23447198D01*
X4917444Y-23447198D02*
X4926968Y-23456722D01*
X4926968Y-23456722D02*
X4936491Y-23475769D01*
X4936491Y-23475769D02*
X4936491Y-23523388D01*
X4936491Y-23523388D02*
X4926968Y-23542436D01*
X4926968Y-23542436D02*
X4917444Y-23551960D01*
X4917444Y-23551960D02*
X4898396Y-23561484D01*
X4898396Y-23561484D02*
X4841253Y-23561484D01*
X4841253Y-23561484D02*
X4822206Y-23551960D01*
X4822206Y-23551960D02*
X4812682Y-23542436D01*
X5031729Y-23561484D02*
X5069825Y-23561484D01*
X5069825Y-23561484D02*
X5088872Y-23551960D01*
X5088872Y-23551960D02*
X5098396Y-23542436D01*
X5098396Y-23542436D02*
X5117444Y-23513865D01*
X5117444Y-23513865D02*
X5126968Y-23475769D01*
X5126968Y-23475769D02*
X5126968Y-23399579D01*
X5126968Y-23399579D02*
X5117444Y-23380531D01*
X5117444Y-23380531D02*
X5107920Y-23371008D01*
X5107920Y-23371008D02*
X5088872Y-23361484D01*
X5088872Y-23361484D02*
X5050777Y-23361484D01*
X5050777Y-23361484D02*
X5031729Y-23371008D01*
X5031729Y-23371008D02*
X5022206Y-23380531D01*
X5022206Y-23380531D02*
X5012682Y-23399579D01*
X5012682Y-23399579D02*
X5012682Y-23447198D01*
X5012682Y-23447198D02*
X5022206Y-23466246D01*
X5022206Y-23466246D02*
X5031729Y-23475769D01*
X5031729Y-23475769D02*
X5050777Y-23485293D01*
X5050777Y-23485293D02*
X5088872Y-23485293D01*
X5088872Y-23485293D02*
X5107920Y-23475769D01*
X5107920Y-23475769D02*
X5117444Y-23466246D01*
X5117444Y-23466246D02*
X5126968Y-23447198D01*
X5298396Y-23428150D02*
X5298396Y-23561484D01*
X5250777Y-23351960D02*
X5203158Y-23494817D01*
X5203158Y-23494817D02*
X5326968Y-23494817D01*
X5393634Y-23361484D02*
X5393634Y-23399579D01*
X5469825Y-23361484D02*
X5469825Y-23399579D01*
X5765063Y-23637674D02*
X5755539Y-23628150D01*
X5755539Y-23628150D02*
X5736491Y-23599579D01*
X5736491Y-23599579D02*
X5726968Y-23580531D01*
X5726968Y-23580531D02*
X5717444Y-23551960D01*
X5717444Y-23551960D02*
X5707920Y-23504341D01*
X5707920Y-23504341D02*
X5707920Y-23466246D01*
X5707920Y-23466246D02*
X5717444Y-23418627D01*
X5717444Y-23418627D02*
X5726968Y-23390055D01*
X5726968Y-23390055D02*
X5736491Y-23371008D01*
X5736491Y-23371008D02*
X5755539Y-23342436D01*
X5755539Y-23342436D02*
X5765063Y-23332912D01*
X5822206Y-23361484D02*
X5946015Y-23361484D01*
X5946015Y-23361484D02*
X5879348Y-23437674D01*
X5879348Y-23437674D02*
X5907920Y-23437674D01*
X5907920Y-23437674D02*
X5926968Y-23447198D01*
X5926968Y-23447198D02*
X5936491Y-23456722D01*
X5936491Y-23456722D02*
X5946015Y-23475769D01*
X5946015Y-23475769D02*
X5946015Y-23523388D01*
X5946015Y-23523388D02*
X5936491Y-23542436D01*
X5936491Y-23542436D02*
X5926968Y-23551960D01*
X5926968Y-23551960D02*
X5907920Y-23561484D01*
X5907920Y-23561484D02*
X5850777Y-23561484D01*
X5850777Y-23561484D02*
X5831729Y-23551960D01*
X5831729Y-23551960D02*
X5822206Y-23542436D01*
X6022206Y-23380531D02*
X6031729Y-23371008D01*
X6031729Y-23371008D02*
X6050777Y-23361484D01*
X6050777Y-23361484D02*
X6098396Y-23361484D01*
X6098396Y-23361484D02*
X6117444Y-23371008D01*
X6117444Y-23371008D02*
X6126968Y-23380531D01*
X6126968Y-23380531D02*
X6136491Y-23399579D01*
X6136491Y-23399579D02*
X6136491Y-23418627D01*
X6136491Y-23418627D02*
X6126968Y-23447198D01*
X6126968Y-23447198D02*
X6012682Y-23561484D01*
X6012682Y-23561484D02*
X6136491Y-23561484D01*
X6374587Y-23561484D02*
X6374587Y-23361484D01*
X6460301Y-23561484D02*
X6460301Y-23456722D01*
X6460301Y-23456722D02*
X6450777Y-23437674D01*
X6450777Y-23437674D02*
X6431730Y-23428150D01*
X6431730Y-23428150D02*
X6403158Y-23428150D01*
X6403158Y-23428150D02*
X6384110Y-23437674D01*
X6384110Y-23437674D02*
X6374587Y-23447198D01*
X6584110Y-23561484D02*
X6565063Y-23551960D01*
X6565063Y-23551960D02*
X6555539Y-23542436D01*
X6555539Y-23542436D02*
X6546015Y-23523388D01*
X6546015Y-23523388D02*
X6546015Y-23466246D01*
X6546015Y-23466246D02*
X6555539Y-23447198D01*
X6555539Y-23447198D02*
X6565063Y-23437674D01*
X6565063Y-23437674D02*
X6584110Y-23428150D01*
X6584110Y-23428150D02*
X6612682Y-23428150D01*
X6612682Y-23428150D02*
X6631730Y-23437674D01*
X6631730Y-23437674D02*
X6641253Y-23447198D01*
X6641253Y-23447198D02*
X6650777Y-23466246D01*
X6650777Y-23466246D02*
X6650777Y-23523388D01*
X6650777Y-23523388D02*
X6641253Y-23542436D01*
X6641253Y-23542436D02*
X6631730Y-23551960D01*
X6631730Y-23551960D02*
X6612682Y-23561484D01*
X6612682Y-23561484D02*
X6584110Y-23561484D01*
X6765063Y-23561484D02*
X6746015Y-23551960D01*
X6746015Y-23551960D02*
X6736491Y-23532912D01*
X6736491Y-23532912D02*
X6736491Y-23361484D01*
X6917444Y-23551960D02*
X6898396Y-23561484D01*
X6898396Y-23561484D02*
X6860301Y-23561484D01*
X6860301Y-23561484D02*
X6841253Y-23551960D01*
X6841253Y-23551960D02*
X6831730Y-23532912D01*
X6831730Y-23532912D02*
X6831730Y-23456722D01*
X6831730Y-23456722D02*
X6841253Y-23437674D01*
X6841253Y-23437674D02*
X6860301Y-23428150D01*
X6860301Y-23428150D02*
X6898396Y-23428150D01*
X6898396Y-23428150D02*
X6917444Y-23437674D01*
X6917444Y-23437674D02*
X6926968Y-23456722D01*
X6926968Y-23456722D02*
X6926968Y-23475769D01*
X6926968Y-23475769D02*
X6831730Y-23494817D01*
X7003158Y-23551960D02*
X7022206Y-23561484D01*
X7022206Y-23561484D02*
X7060301Y-23561484D01*
X7060301Y-23561484D02*
X7079349Y-23551960D01*
X7079349Y-23551960D02*
X7088872Y-23532912D01*
X7088872Y-23532912D02*
X7088872Y-23523388D01*
X7088872Y-23523388D02*
X7079349Y-23504341D01*
X7079349Y-23504341D02*
X7060301Y-23494817D01*
X7060301Y-23494817D02*
X7031730Y-23494817D01*
X7031730Y-23494817D02*
X7012682Y-23485293D01*
X7012682Y-23485293D02*
X7003158Y-23466246D01*
X7003158Y-23466246D02*
X7003158Y-23456722D01*
X7003158Y-23456722D02*
X7012682Y-23437674D01*
X7012682Y-23437674D02*
X7031730Y-23428150D01*
X7031730Y-23428150D02*
X7060301Y-23428150D01*
X7060301Y-23428150D02*
X7079349Y-23437674D01*
X7155539Y-23637674D02*
X7165063Y-23628150D01*
X7165063Y-23628150D02*
X7184111Y-23599579D01*
X7184111Y-23599579D02*
X7193634Y-23580531D01*
X7193634Y-23580531D02*
X7203158Y-23551960D01*
X7203158Y-23551960D02*
X7212682Y-23504341D01*
X7212682Y-23504341D02*
X7212682Y-23466246D01*
X7212682Y-23466246D02*
X7203158Y-23418627D01*
X7203158Y-23418627D02*
X7193634Y-23390055D01*
X7193634Y-23390055D02*
X7184111Y-23371008D01*
X7184111Y-23371008D02*
X7165063Y-23342436D01*
X7165063Y-23342436D02*
X7155539Y-23332912D01*
D12*
X2080000Y-23679000D02*
X2190000Y-23789000D01*
X2190000Y-23679000D02*
X2080000Y-23789000D01*
X2135000Y-23679000D02*
X2135000Y-23789000D01*
X2080000Y-23734000D02*
X2190000Y-23734000D01*
D10*
X2555539Y-23825484D02*
X2441253Y-23825484D01*
X2498396Y-23825484D02*
X2498396Y-23625484D01*
X2498396Y-23625484D02*
X2479348Y-23654055D01*
X2479348Y-23654055D02*
X2460301Y-23673103D01*
X2460301Y-23673103D02*
X2441253Y-23682627D01*
X2641253Y-23806436D02*
X2650777Y-23815960D01*
X2650777Y-23815960D02*
X2641253Y-23825484D01*
X2641253Y-23825484D02*
X2631729Y-23815960D01*
X2631729Y-23815960D02*
X2641253Y-23806436D01*
X2641253Y-23806436D02*
X2641253Y-23825484D01*
X2841253Y-23825484D02*
X2726967Y-23825484D01*
X2784110Y-23825484D02*
X2784110Y-23625484D01*
X2784110Y-23625484D02*
X2765063Y-23654055D01*
X2765063Y-23654055D02*
X2746015Y-23673103D01*
X2746015Y-23673103D02*
X2726967Y-23682627D01*
X2965062Y-23625484D02*
X2984110Y-23625484D01*
X2984110Y-23625484D02*
X3003158Y-23635008D01*
X3003158Y-23635008D02*
X3012682Y-23644531D01*
X3012682Y-23644531D02*
X3022205Y-23663579D01*
X3022205Y-23663579D02*
X3031729Y-23701674D01*
X3031729Y-23701674D02*
X3031729Y-23749293D01*
X3031729Y-23749293D02*
X3022205Y-23787388D01*
X3022205Y-23787388D02*
X3012682Y-23806436D01*
X3012682Y-23806436D02*
X3003158Y-23815960D01*
X3003158Y-23815960D02*
X2984110Y-23825484D01*
X2984110Y-23825484D02*
X2965062Y-23825484D01*
X2965062Y-23825484D02*
X2946015Y-23815960D01*
X2946015Y-23815960D02*
X2936491Y-23806436D01*
X2936491Y-23806436D02*
X2926967Y-23787388D01*
X2926967Y-23787388D02*
X2917443Y-23749293D01*
X2917443Y-23749293D02*
X2917443Y-23701674D01*
X2917443Y-23701674D02*
X2926967Y-23663579D01*
X2926967Y-23663579D02*
X2936491Y-23644531D01*
X2936491Y-23644531D02*
X2946015Y-23635008D01*
X2946015Y-23635008D02*
X2965062Y-23625484D01*
X3155539Y-23625484D02*
X3174586Y-23625484D01*
X3174586Y-23625484D02*
X3193634Y-23635008D01*
X3193634Y-23635008D02*
X3203158Y-23644531D01*
X3203158Y-23644531D02*
X3212682Y-23663579D01*
X3212682Y-23663579D02*
X3222205Y-23701674D01*
X3222205Y-23701674D02*
X3222205Y-23749293D01*
X3222205Y-23749293D02*
X3212682Y-23787388D01*
X3212682Y-23787388D02*
X3203158Y-23806436D01*
X3203158Y-23806436D02*
X3193634Y-23815960D01*
X3193634Y-23815960D02*
X3174586Y-23825484D01*
X3174586Y-23825484D02*
X3155539Y-23825484D01*
X3155539Y-23825484D02*
X3136491Y-23815960D01*
X3136491Y-23815960D02*
X3126967Y-23806436D01*
X3126967Y-23806436D02*
X3117443Y-23787388D01*
X3117443Y-23787388D02*
X3107920Y-23749293D01*
X3107920Y-23749293D02*
X3107920Y-23701674D01*
X3107920Y-23701674D02*
X3117443Y-23663579D01*
X3117443Y-23663579D02*
X3126967Y-23644531D01*
X3126967Y-23644531D02*
X3136491Y-23635008D01*
X3136491Y-23635008D02*
X3155539Y-23625484D01*
X3307920Y-23825484D02*
X3307920Y-23692150D01*
X3307920Y-23711198D02*
X3317443Y-23701674D01*
X3317443Y-23701674D02*
X3336491Y-23692150D01*
X3336491Y-23692150D02*
X3365063Y-23692150D01*
X3365063Y-23692150D02*
X3384110Y-23701674D01*
X3384110Y-23701674D02*
X3393634Y-23720722D01*
X3393634Y-23720722D02*
X3393634Y-23825484D01*
X3393634Y-23720722D02*
X3403158Y-23701674D01*
X3403158Y-23701674D02*
X3422205Y-23692150D01*
X3422205Y-23692150D02*
X3450777Y-23692150D01*
X3450777Y-23692150D02*
X3469824Y-23701674D01*
X3469824Y-23701674D02*
X3479348Y-23720722D01*
X3479348Y-23720722D02*
X3479348Y-23825484D01*
X3574586Y-23825484D02*
X3574586Y-23692150D01*
X3574586Y-23711198D02*
X3584110Y-23701674D01*
X3584110Y-23701674D02*
X3603158Y-23692150D01*
X3603158Y-23692150D02*
X3631729Y-23692150D01*
X3631729Y-23692150D02*
X3650777Y-23701674D01*
X3650777Y-23701674D02*
X3660301Y-23720722D01*
X3660301Y-23720722D02*
X3660301Y-23825484D01*
X3660301Y-23720722D02*
X3669824Y-23701674D01*
X3669824Y-23701674D02*
X3688872Y-23692150D01*
X3688872Y-23692150D02*
X3717443Y-23692150D01*
X3717443Y-23692150D02*
X3736491Y-23701674D01*
X3736491Y-23701674D02*
X3746015Y-23720722D01*
X3746015Y-23720722D02*
X3746015Y-23825484D01*
X4136491Y-23615960D02*
X3965063Y-23873103D01*
X4393634Y-23625484D02*
X4412682Y-23625484D01*
X4412682Y-23625484D02*
X4431729Y-23635008D01*
X4431729Y-23635008D02*
X4441253Y-23644531D01*
X4441253Y-23644531D02*
X4450777Y-23663579D01*
X4450777Y-23663579D02*
X4460301Y-23701674D01*
X4460301Y-23701674D02*
X4460301Y-23749293D01*
X4460301Y-23749293D02*
X4450777Y-23787388D01*
X4450777Y-23787388D02*
X4441253Y-23806436D01*
X4441253Y-23806436D02*
X4431729Y-23815960D01*
X4431729Y-23815960D02*
X4412682Y-23825484D01*
X4412682Y-23825484D02*
X4393634Y-23825484D01*
X4393634Y-23825484D02*
X4374587Y-23815960D01*
X4374587Y-23815960D02*
X4365063Y-23806436D01*
X4365063Y-23806436D02*
X4355539Y-23787388D01*
X4355539Y-23787388D02*
X4346015Y-23749293D01*
X4346015Y-23749293D02*
X4346015Y-23701674D01*
X4346015Y-23701674D02*
X4355539Y-23663579D01*
X4355539Y-23663579D02*
X4365063Y-23644531D01*
X4365063Y-23644531D02*
X4374587Y-23635008D01*
X4374587Y-23635008D02*
X4393634Y-23625484D01*
X4546015Y-23806436D02*
X4555539Y-23815960D01*
X4555539Y-23815960D02*
X4546015Y-23825484D01*
X4546015Y-23825484D02*
X4536491Y-23815960D01*
X4536491Y-23815960D02*
X4546015Y-23806436D01*
X4546015Y-23806436D02*
X4546015Y-23825484D01*
X4679348Y-23625484D02*
X4698396Y-23625484D01*
X4698396Y-23625484D02*
X4717444Y-23635008D01*
X4717444Y-23635008D02*
X4726968Y-23644531D01*
X4726968Y-23644531D02*
X4736491Y-23663579D01*
X4736491Y-23663579D02*
X4746015Y-23701674D01*
X4746015Y-23701674D02*
X4746015Y-23749293D01*
X4746015Y-23749293D02*
X4736491Y-23787388D01*
X4736491Y-23787388D02*
X4726968Y-23806436D01*
X4726968Y-23806436D02*
X4717444Y-23815960D01*
X4717444Y-23815960D02*
X4698396Y-23825484D01*
X4698396Y-23825484D02*
X4679348Y-23825484D01*
X4679348Y-23825484D02*
X4660301Y-23815960D01*
X4660301Y-23815960D02*
X4650777Y-23806436D01*
X4650777Y-23806436D02*
X4641253Y-23787388D01*
X4641253Y-23787388D02*
X4631729Y-23749293D01*
X4631729Y-23749293D02*
X4631729Y-23701674D01*
X4631729Y-23701674D02*
X4641253Y-23663579D01*
X4641253Y-23663579D02*
X4650777Y-23644531D01*
X4650777Y-23644531D02*
X4660301Y-23635008D01*
X4660301Y-23635008D02*
X4679348Y-23625484D01*
X4917444Y-23692150D02*
X4917444Y-23825484D01*
X4869825Y-23615960D02*
X4822206Y-23758817D01*
X4822206Y-23758817D02*
X4946015Y-23758817D01*
X5003158Y-23625484D02*
X5126968Y-23625484D01*
X5126968Y-23625484D02*
X5060301Y-23701674D01*
X5060301Y-23701674D02*
X5088872Y-23701674D01*
X5088872Y-23701674D02*
X5107920Y-23711198D01*
X5107920Y-23711198D02*
X5117444Y-23720722D01*
X5117444Y-23720722D02*
X5126968Y-23739769D01*
X5126968Y-23739769D02*
X5126968Y-23787388D01*
X5126968Y-23787388D02*
X5117444Y-23806436D01*
X5117444Y-23806436D02*
X5107920Y-23815960D01*
X5107920Y-23815960D02*
X5088872Y-23825484D01*
X5088872Y-23825484D02*
X5031729Y-23825484D01*
X5031729Y-23825484D02*
X5012682Y-23815960D01*
X5012682Y-23815960D02*
X5003158Y-23806436D01*
X5193634Y-23625484D02*
X5317444Y-23625484D01*
X5317444Y-23625484D02*
X5250777Y-23701674D01*
X5250777Y-23701674D02*
X5279349Y-23701674D01*
X5279349Y-23701674D02*
X5298396Y-23711198D01*
X5298396Y-23711198D02*
X5307920Y-23720722D01*
X5307920Y-23720722D02*
X5317444Y-23739769D01*
X5317444Y-23739769D02*
X5317444Y-23787388D01*
X5317444Y-23787388D02*
X5307920Y-23806436D01*
X5307920Y-23806436D02*
X5298396Y-23815960D01*
X5298396Y-23815960D02*
X5279349Y-23825484D01*
X5279349Y-23825484D02*
X5222206Y-23825484D01*
X5222206Y-23825484D02*
X5203158Y-23815960D01*
X5203158Y-23815960D02*
X5193634Y-23806436D01*
X5393634Y-23625484D02*
X5393634Y-23663579D01*
X5469825Y-23625484D02*
X5469825Y-23663579D01*
X5765063Y-23901674D02*
X5755539Y-23892150D01*
X5755539Y-23892150D02*
X5736491Y-23863579D01*
X5736491Y-23863579D02*
X5726968Y-23844531D01*
X5726968Y-23844531D02*
X5717444Y-23815960D01*
X5717444Y-23815960D02*
X5707920Y-23768341D01*
X5707920Y-23768341D02*
X5707920Y-23730246D01*
X5707920Y-23730246D02*
X5717444Y-23682627D01*
X5717444Y-23682627D02*
X5726968Y-23654055D01*
X5726968Y-23654055D02*
X5736491Y-23635008D01*
X5736491Y-23635008D02*
X5755539Y-23606436D01*
X5755539Y-23606436D02*
X5765063Y-23596912D01*
X5926968Y-23692150D02*
X5926968Y-23825484D01*
X5879348Y-23615960D02*
X5831729Y-23758817D01*
X5831729Y-23758817D02*
X5955539Y-23758817D01*
X6184110Y-23825484D02*
X6184110Y-23625484D01*
X6269825Y-23825484D02*
X6269825Y-23720722D01*
X6269825Y-23720722D02*
X6260301Y-23701674D01*
X6260301Y-23701674D02*
X6241253Y-23692150D01*
X6241253Y-23692150D02*
X6212682Y-23692150D01*
X6212682Y-23692150D02*
X6193634Y-23701674D01*
X6193634Y-23701674D02*
X6184110Y-23711198D01*
X6393634Y-23825484D02*
X6374587Y-23815960D01*
X6374587Y-23815960D02*
X6365063Y-23806436D01*
X6365063Y-23806436D02*
X6355539Y-23787388D01*
X6355539Y-23787388D02*
X6355539Y-23730246D01*
X6355539Y-23730246D02*
X6365063Y-23711198D01*
X6365063Y-23711198D02*
X6374587Y-23701674D01*
X6374587Y-23701674D02*
X6393634Y-23692150D01*
X6393634Y-23692150D02*
X6422206Y-23692150D01*
X6422206Y-23692150D02*
X6441253Y-23701674D01*
X6441253Y-23701674D02*
X6450777Y-23711198D01*
X6450777Y-23711198D02*
X6460301Y-23730246D01*
X6460301Y-23730246D02*
X6460301Y-23787388D01*
X6460301Y-23787388D02*
X6450777Y-23806436D01*
X6450777Y-23806436D02*
X6441253Y-23815960D01*
X6441253Y-23815960D02*
X6422206Y-23825484D01*
X6422206Y-23825484D02*
X6393634Y-23825484D01*
X6574587Y-23825484D02*
X6555539Y-23815960D01*
X6555539Y-23815960D02*
X6546015Y-23796912D01*
X6546015Y-23796912D02*
X6546015Y-23625484D01*
X6726968Y-23815960D02*
X6707920Y-23825484D01*
X6707920Y-23825484D02*
X6669825Y-23825484D01*
X6669825Y-23825484D02*
X6650777Y-23815960D01*
X6650777Y-23815960D02*
X6641253Y-23796912D01*
X6641253Y-23796912D02*
X6641253Y-23720722D01*
X6641253Y-23720722D02*
X6650777Y-23701674D01*
X6650777Y-23701674D02*
X6669825Y-23692150D01*
X6669825Y-23692150D02*
X6707920Y-23692150D01*
X6707920Y-23692150D02*
X6726968Y-23701674D01*
X6726968Y-23701674D02*
X6736491Y-23720722D01*
X6736491Y-23720722D02*
X6736491Y-23739769D01*
X6736491Y-23739769D02*
X6641253Y-23758817D01*
X6812682Y-23815960D02*
X6831730Y-23825484D01*
X6831730Y-23825484D02*
X6869825Y-23825484D01*
X6869825Y-23825484D02*
X6888872Y-23815960D01*
X6888872Y-23815960D02*
X6898396Y-23796912D01*
X6898396Y-23796912D02*
X6898396Y-23787388D01*
X6898396Y-23787388D02*
X6888872Y-23768341D01*
X6888872Y-23768341D02*
X6869825Y-23758817D01*
X6869825Y-23758817D02*
X6841253Y-23758817D01*
X6841253Y-23758817D02*
X6822206Y-23749293D01*
X6822206Y-23749293D02*
X6812682Y-23730246D01*
X6812682Y-23730246D02*
X6812682Y-23720722D01*
X6812682Y-23720722D02*
X6822206Y-23701674D01*
X6822206Y-23701674D02*
X6841253Y-23692150D01*
X6841253Y-23692150D02*
X6869825Y-23692150D01*
X6869825Y-23692150D02*
X6888872Y-23701674D01*
X6965063Y-23901674D02*
X6974587Y-23892150D01*
X6974587Y-23892150D02*
X6993634Y-23863579D01*
X6993634Y-23863579D02*
X7003158Y-23844531D01*
X7003158Y-23844531D02*
X7012682Y-23815960D01*
X7012682Y-23815960D02*
X7022206Y-23768341D01*
X7022206Y-23768341D02*
X7022206Y-23730246D01*
X7022206Y-23730246D02*
X7012682Y-23682627D01*
X7012682Y-23682627D02*
X7003158Y-23654055D01*
X7003158Y-23654055D02*
X6993634Y-23635008D01*
X6993634Y-23635008D02*
X6974587Y-23606436D01*
X6974587Y-23606436D02*
X6965063Y-23596912D01*
D13*
X2070000Y-23938000D02*
X2190000Y-24058000D01*
X2190000Y-23938000D02*
X2070000Y-24058000D01*
X2172427Y-24040427D02*
X2172427Y-23955573D01*
X2087573Y-23955573D01*
X2087573Y-24040427D01*
X2172427Y-24040427D01*
D10*
X2555539Y-24089484D02*
X2441253Y-24089484D01*
X2498396Y-24089484D02*
X2498396Y-23889484D01*
X2498396Y-23889484D02*
X2479348Y-23918055D01*
X2479348Y-23918055D02*
X2460301Y-23937103D01*
X2460301Y-23937103D02*
X2441253Y-23946627D01*
X2641253Y-24070436D02*
X2650777Y-24079960D01*
X2650777Y-24079960D02*
X2641253Y-24089484D01*
X2641253Y-24089484D02*
X2631729Y-24079960D01*
X2631729Y-24079960D02*
X2641253Y-24070436D01*
X2641253Y-24070436D02*
X2641253Y-24089484D01*
X2726967Y-23908531D02*
X2736491Y-23899008D01*
X2736491Y-23899008D02*
X2755539Y-23889484D01*
X2755539Y-23889484D02*
X2803158Y-23889484D01*
X2803158Y-23889484D02*
X2822205Y-23899008D01*
X2822205Y-23899008D02*
X2831729Y-23908531D01*
X2831729Y-23908531D02*
X2841253Y-23927579D01*
X2841253Y-23927579D02*
X2841253Y-23946627D01*
X2841253Y-23946627D02*
X2831729Y-23975198D01*
X2831729Y-23975198D02*
X2717444Y-24089484D01*
X2717444Y-24089484D02*
X2841253Y-24089484D01*
X2965062Y-23889484D02*
X2984110Y-23889484D01*
X2984110Y-23889484D02*
X3003158Y-23899008D01*
X3003158Y-23899008D02*
X3012682Y-23908531D01*
X3012682Y-23908531D02*
X3022205Y-23927579D01*
X3022205Y-23927579D02*
X3031729Y-23965674D01*
X3031729Y-23965674D02*
X3031729Y-24013293D01*
X3031729Y-24013293D02*
X3022205Y-24051388D01*
X3022205Y-24051388D02*
X3012682Y-24070436D01*
X3012682Y-24070436D02*
X3003158Y-24079960D01*
X3003158Y-24079960D02*
X2984110Y-24089484D01*
X2984110Y-24089484D02*
X2965062Y-24089484D01*
X2965062Y-24089484D02*
X2946015Y-24079960D01*
X2946015Y-24079960D02*
X2936491Y-24070436D01*
X2936491Y-24070436D02*
X2926967Y-24051388D01*
X2926967Y-24051388D02*
X2917443Y-24013293D01*
X2917443Y-24013293D02*
X2917443Y-23965674D01*
X2917443Y-23965674D02*
X2926967Y-23927579D01*
X2926967Y-23927579D02*
X2936491Y-23908531D01*
X2936491Y-23908531D02*
X2946015Y-23899008D01*
X2946015Y-23899008D02*
X2965062Y-23889484D01*
X3155539Y-23889484D02*
X3174586Y-23889484D01*
X3174586Y-23889484D02*
X3193634Y-23899008D01*
X3193634Y-23899008D02*
X3203158Y-23908531D01*
X3203158Y-23908531D02*
X3212682Y-23927579D01*
X3212682Y-23927579D02*
X3222205Y-23965674D01*
X3222205Y-23965674D02*
X3222205Y-24013293D01*
X3222205Y-24013293D02*
X3212682Y-24051388D01*
X3212682Y-24051388D02*
X3203158Y-24070436D01*
X3203158Y-24070436D02*
X3193634Y-24079960D01*
X3193634Y-24079960D02*
X3174586Y-24089484D01*
X3174586Y-24089484D02*
X3155539Y-24089484D01*
X3155539Y-24089484D02*
X3136491Y-24079960D01*
X3136491Y-24079960D02*
X3126967Y-24070436D01*
X3126967Y-24070436D02*
X3117443Y-24051388D01*
X3117443Y-24051388D02*
X3107920Y-24013293D01*
X3107920Y-24013293D02*
X3107920Y-23965674D01*
X3107920Y-23965674D02*
X3117443Y-23927579D01*
X3117443Y-23927579D02*
X3126967Y-23908531D01*
X3126967Y-23908531D02*
X3136491Y-23899008D01*
X3136491Y-23899008D02*
X3155539Y-23889484D01*
X3307920Y-24089484D02*
X3307920Y-23956150D01*
X3307920Y-23975198D02*
X3317443Y-23965674D01*
X3317443Y-23965674D02*
X3336491Y-23956150D01*
X3336491Y-23956150D02*
X3365063Y-23956150D01*
X3365063Y-23956150D02*
X3384110Y-23965674D01*
X3384110Y-23965674D02*
X3393634Y-23984722D01*
X3393634Y-23984722D02*
X3393634Y-24089484D01*
X3393634Y-23984722D02*
X3403158Y-23965674D01*
X3403158Y-23965674D02*
X3422205Y-23956150D01*
X3422205Y-23956150D02*
X3450777Y-23956150D01*
X3450777Y-23956150D02*
X3469824Y-23965674D01*
X3469824Y-23965674D02*
X3479348Y-23984722D01*
X3479348Y-23984722D02*
X3479348Y-24089484D01*
X3574586Y-24089484D02*
X3574586Y-23956150D01*
X3574586Y-23975198D02*
X3584110Y-23965674D01*
X3584110Y-23965674D02*
X3603158Y-23956150D01*
X3603158Y-23956150D02*
X3631729Y-23956150D01*
X3631729Y-23956150D02*
X3650777Y-23965674D01*
X3650777Y-23965674D02*
X3660301Y-23984722D01*
X3660301Y-23984722D02*
X3660301Y-24089484D01*
X3660301Y-23984722D02*
X3669824Y-23965674D01*
X3669824Y-23965674D02*
X3688872Y-23956150D01*
X3688872Y-23956150D02*
X3717443Y-23956150D01*
X3717443Y-23956150D02*
X3736491Y-23965674D01*
X3736491Y-23965674D02*
X3746015Y-23984722D01*
X3746015Y-23984722D02*
X3746015Y-24089484D01*
X4136491Y-23879960D02*
X3965063Y-24137103D01*
X4393634Y-23889484D02*
X4412682Y-23889484D01*
X4412682Y-23889484D02*
X4431729Y-23899008D01*
X4431729Y-23899008D02*
X4441253Y-23908531D01*
X4441253Y-23908531D02*
X4450777Y-23927579D01*
X4450777Y-23927579D02*
X4460301Y-23965674D01*
X4460301Y-23965674D02*
X4460301Y-24013293D01*
X4460301Y-24013293D02*
X4450777Y-24051388D01*
X4450777Y-24051388D02*
X4441253Y-24070436D01*
X4441253Y-24070436D02*
X4431729Y-24079960D01*
X4431729Y-24079960D02*
X4412682Y-24089484D01*
X4412682Y-24089484D02*
X4393634Y-24089484D01*
X4393634Y-24089484D02*
X4374587Y-24079960D01*
X4374587Y-24079960D02*
X4365063Y-24070436D01*
X4365063Y-24070436D02*
X4355539Y-24051388D01*
X4355539Y-24051388D02*
X4346015Y-24013293D01*
X4346015Y-24013293D02*
X4346015Y-23965674D01*
X4346015Y-23965674D02*
X4355539Y-23927579D01*
X4355539Y-23927579D02*
X4365063Y-23908531D01*
X4365063Y-23908531D02*
X4374587Y-23899008D01*
X4374587Y-23899008D02*
X4393634Y-23889484D01*
X4546015Y-24070436D02*
X4555539Y-24079960D01*
X4555539Y-24079960D02*
X4546015Y-24089484D01*
X4546015Y-24089484D02*
X4536491Y-24079960D01*
X4536491Y-24079960D02*
X4546015Y-24070436D01*
X4546015Y-24070436D02*
X4546015Y-24089484D01*
X4679348Y-23889484D02*
X4698396Y-23889484D01*
X4698396Y-23889484D02*
X4717444Y-23899008D01*
X4717444Y-23899008D02*
X4726968Y-23908531D01*
X4726968Y-23908531D02*
X4736491Y-23927579D01*
X4736491Y-23927579D02*
X4746015Y-23965674D01*
X4746015Y-23965674D02*
X4746015Y-24013293D01*
X4746015Y-24013293D02*
X4736491Y-24051388D01*
X4736491Y-24051388D02*
X4726968Y-24070436D01*
X4726968Y-24070436D02*
X4717444Y-24079960D01*
X4717444Y-24079960D02*
X4698396Y-24089484D01*
X4698396Y-24089484D02*
X4679348Y-24089484D01*
X4679348Y-24089484D02*
X4660301Y-24079960D01*
X4660301Y-24079960D02*
X4650777Y-24070436D01*
X4650777Y-24070436D02*
X4641253Y-24051388D01*
X4641253Y-24051388D02*
X4631729Y-24013293D01*
X4631729Y-24013293D02*
X4631729Y-23965674D01*
X4631729Y-23965674D02*
X4641253Y-23927579D01*
X4641253Y-23927579D02*
X4650777Y-23908531D01*
X4650777Y-23908531D02*
X4660301Y-23899008D01*
X4660301Y-23899008D02*
X4679348Y-23889484D01*
X4917444Y-23956150D02*
X4917444Y-24089484D01*
X4869825Y-23879960D02*
X4822206Y-24022817D01*
X4822206Y-24022817D02*
X4946015Y-24022817D01*
X5003158Y-23889484D02*
X5136491Y-23889484D01*
X5136491Y-23889484D02*
X5050777Y-24089484D01*
X5203158Y-23908531D02*
X5212682Y-23899008D01*
X5212682Y-23899008D02*
X5231729Y-23889484D01*
X5231729Y-23889484D02*
X5279349Y-23889484D01*
X5279349Y-23889484D02*
X5298396Y-23899008D01*
X5298396Y-23899008D02*
X5307920Y-23908531D01*
X5307920Y-23908531D02*
X5317444Y-23927579D01*
X5317444Y-23927579D02*
X5317444Y-23946627D01*
X5317444Y-23946627D02*
X5307920Y-23975198D01*
X5307920Y-23975198D02*
X5193634Y-24089484D01*
X5193634Y-24089484D02*
X5317444Y-24089484D01*
X5393634Y-23889484D02*
X5393634Y-23927579D01*
X5469825Y-23889484D02*
X5469825Y-23927579D01*
X5765063Y-24165674D02*
X5755539Y-24156150D01*
X5755539Y-24156150D02*
X5736491Y-24127579D01*
X5736491Y-24127579D02*
X5726968Y-24108531D01*
X5726968Y-24108531D02*
X5717444Y-24079960D01*
X5717444Y-24079960D02*
X5707920Y-24032341D01*
X5707920Y-24032341D02*
X5707920Y-23994246D01*
X5707920Y-23994246D02*
X5717444Y-23946627D01*
X5717444Y-23946627D02*
X5726968Y-23918055D01*
X5726968Y-23918055D02*
X5736491Y-23899008D01*
X5736491Y-23899008D02*
X5755539Y-23870436D01*
X5755539Y-23870436D02*
X5765063Y-23860912D01*
X5879348Y-23889484D02*
X5898396Y-23889484D01*
X5898396Y-23889484D02*
X5917444Y-23899008D01*
X5917444Y-23899008D02*
X5926968Y-23908531D01*
X5926968Y-23908531D02*
X5936491Y-23927579D01*
X5936491Y-23927579D02*
X5946015Y-23965674D01*
X5946015Y-23965674D02*
X5946015Y-24013293D01*
X5946015Y-24013293D02*
X5936491Y-24051388D01*
X5936491Y-24051388D02*
X5926968Y-24070436D01*
X5926968Y-24070436D02*
X5917444Y-24079960D01*
X5917444Y-24079960D02*
X5898396Y-24089484D01*
X5898396Y-24089484D02*
X5879348Y-24089484D01*
X5879348Y-24089484D02*
X5860301Y-24079960D01*
X5860301Y-24079960D02*
X5850777Y-24070436D01*
X5850777Y-24070436D02*
X5841253Y-24051388D01*
X5841253Y-24051388D02*
X5831729Y-24013293D01*
X5831729Y-24013293D02*
X5831729Y-23965674D01*
X5831729Y-23965674D02*
X5841253Y-23927579D01*
X5841253Y-23927579D02*
X5850777Y-23908531D01*
X5850777Y-23908531D02*
X5860301Y-23899008D01*
X5860301Y-23899008D02*
X5879348Y-23889484D01*
X6184110Y-24089484D02*
X6184110Y-23889484D01*
X6269825Y-24089484D02*
X6269825Y-23984722D01*
X6269825Y-23984722D02*
X6260301Y-23965674D01*
X6260301Y-23965674D02*
X6241253Y-23956150D01*
X6241253Y-23956150D02*
X6212682Y-23956150D01*
X6212682Y-23956150D02*
X6193634Y-23965674D01*
X6193634Y-23965674D02*
X6184110Y-23975198D01*
X6393634Y-24089484D02*
X6374587Y-24079960D01*
X6374587Y-24079960D02*
X6365063Y-24070436D01*
X6365063Y-24070436D02*
X6355539Y-24051388D01*
X6355539Y-24051388D02*
X6355539Y-23994246D01*
X6355539Y-23994246D02*
X6365063Y-23975198D01*
X6365063Y-23975198D02*
X6374587Y-23965674D01*
X6374587Y-23965674D02*
X6393634Y-23956150D01*
X6393634Y-23956150D02*
X6422206Y-23956150D01*
X6422206Y-23956150D02*
X6441253Y-23965674D01*
X6441253Y-23965674D02*
X6450777Y-23975198D01*
X6450777Y-23975198D02*
X6460301Y-23994246D01*
X6460301Y-23994246D02*
X6460301Y-24051388D01*
X6460301Y-24051388D02*
X6450777Y-24070436D01*
X6450777Y-24070436D02*
X6441253Y-24079960D01*
X6441253Y-24079960D02*
X6422206Y-24089484D01*
X6422206Y-24089484D02*
X6393634Y-24089484D01*
X6574587Y-24089484D02*
X6555539Y-24079960D01*
X6555539Y-24079960D02*
X6546015Y-24060912D01*
X6546015Y-24060912D02*
X6546015Y-23889484D01*
X6726968Y-24079960D02*
X6707920Y-24089484D01*
X6707920Y-24089484D02*
X6669825Y-24089484D01*
X6669825Y-24089484D02*
X6650777Y-24079960D01*
X6650777Y-24079960D02*
X6641253Y-24060912D01*
X6641253Y-24060912D02*
X6641253Y-23984722D01*
X6641253Y-23984722D02*
X6650777Y-23965674D01*
X6650777Y-23965674D02*
X6669825Y-23956150D01*
X6669825Y-23956150D02*
X6707920Y-23956150D01*
X6707920Y-23956150D02*
X6726968Y-23965674D01*
X6726968Y-23965674D02*
X6736491Y-23984722D01*
X6736491Y-23984722D02*
X6736491Y-24003769D01*
X6736491Y-24003769D02*
X6641253Y-24022817D01*
X6812682Y-24079960D02*
X6831730Y-24089484D01*
X6831730Y-24089484D02*
X6869825Y-24089484D01*
X6869825Y-24089484D02*
X6888872Y-24079960D01*
X6888872Y-24079960D02*
X6898396Y-24060912D01*
X6898396Y-24060912D02*
X6898396Y-24051388D01*
X6898396Y-24051388D02*
X6888872Y-24032341D01*
X6888872Y-24032341D02*
X6869825Y-24022817D01*
X6869825Y-24022817D02*
X6841253Y-24022817D01*
X6841253Y-24022817D02*
X6822206Y-24013293D01*
X6822206Y-24013293D02*
X6812682Y-23994246D01*
X6812682Y-23994246D02*
X6812682Y-23984722D01*
X6812682Y-23984722D02*
X6822206Y-23965674D01*
X6822206Y-23965674D02*
X6841253Y-23956150D01*
X6841253Y-23956150D02*
X6869825Y-23956150D01*
X6869825Y-23956150D02*
X6888872Y-23965674D01*
X7136492Y-24013293D02*
X7288873Y-24013293D01*
X7212682Y-24089484D02*
X7212682Y-23937103D01*
X7622206Y-23889484D02*
X7584111Y-23889484D01*
X7584111Y-23889484D02*
X7565063Y-23899008D01*
X7565063Y-23899008D02*
X7555539Y-23908531D01*
X7555539Y-23908531D02*
X7536492Y-23937103D01*
X7536492Y-23937103D02*
X7526968Y-23975198D01*
X7526968Y-23975198D02*
X7526968Y-24051388D01*
X7526968Y-24051388D02*
X7536492Y-24070436D01*
X7536492Y-24070436D02*
X7546015Y-24079960D01*
X7546015Y-24079960D02*
X7565063Y-24089484D01*
X7565063Y-24089484D02*
X7603158Y-24089484D01*
X7603158Y-24089484D02*
X7622206Y-24079960D01*
X7622206Y-24079960D02*
X7631730Y-24070436D01*
X7631730Y-24070436D02*
X7641253Y-24051388D01*
X7641253Y-24051388D02*
X7641253Y-24003769D01*
X7641253Y-24003769D02*
X7631730Y-23984722D01*
X7631730Y-23984722D02*
X7622206Y-23975198D01*
X7622206Y-23975198D02*
X7603158Y-23965674D01*
X7603158Y-23965674D02*
X7565063Y-23965674D01*
X7565063Y-23965674D02*
X7546015Y-23975198D01*
X7546015Y-23975198D02*
X7536492Y-23984722D01*
X7536492Y-23984722D02*
X7526968Y-24003769D01*
X7869825Y-24079960D02*
X7888873Y-24089484D01*
X7888873Y-24089484D02*
X7926968Y-24089484D01*
X7926968Y-24089484D02*
X7946015Y-24079960D01*
X7946015Y-24079960D02*
X7955539Y-24060912D01*
X7955539Y-24060912D02*
X7955539Y-24051388D01*
X7955539Y-24051388D02*
X7946015Y-24032341D01*
X7946015Y-24032341D02*
X7926968Y-24022817D01*
X7926968Y-24022817D02*
X7898396Y-24022817D01*
X7898396Y-24022817D02*
X7879349Y-24013293D01*
X7879349Y-24013293D02*
X7869825Y-23994246D01*
X7869825Y-23994246D02*
X7869825Y-23984722D01*
X7869825Y-23984722D02*
X7879349Y-23965674D01*
X7879349Y-23965674D02*
X7898396Y-23956150D01*
X7898396Y-23956150D02*
X7926968Y-23956150D01*
X7926968Y-23956150D02*
X7946015Y-23965674D01*
X8069825Y-24089484D02*
X8050777Y-24079960D01*
X8050777Y-24079960D02*
X8041254Y-24060912D01*
X8041254Y-24060912D02*
X8041254Y-23889484D01*
X8174587Y-24089484D02*
X8155539Y-24079960D01*
X8155539Y-24079960D02*
X8146015Y-24070436D01*
X8146015Y-24070436D02*
X8136492Y-24051388D01*
X8136492Y-24051388D02*
X8136492Y-23994246D01*
X8136492Y-23994246D02*
X8146015Y-23975198D01*
X8146015Y-23975198D02*
X8155539Y-23965674D01*
X8155539Y-23965674D02*
X8174587Y-23956150D01*
X8174587Y-23956150D02*
X8203158Y-23956150D01*
X8203158Y-23956150D02*
X8222206Y-23965674D01*
X8222206Y-23965674D02*
X8231730Y-23975198D01*
X8231730Y-23975198D02*
X8241254Y-23994246D01*
X8241254Y-23994246D02*
X8241254Y-24051388D01*
X8241254Y-24051388D02*
X8231730Y-24070436D01*
X8231730Y-24070436D02*
X8222206Y-24079960D01*
X8222206Y-24079960D02*
X8203158Y-24089484D01*
X8203158Y-24089484D02*
X8174587Y-24089484D01*
X8298396Y-23956150D02*
X8374587Y-23956150D01*
X8326968Y-23889484D02*
X8326968Y-24060912D01*
X8326968Y-24060912D02*
X8336492Y-24079960D01*
X8336492Y-24079960D02*
X8355539Y-24089484D01*
X8355539Y-24089484D02*
X8374587Y-24089484D01*
X8431730Y-24079960D02*
X8450777Y-24089484D01*
X8450777Y-24089484D02*
X8488873Y-24089484D01*
X8488873Y-24089484D02*
X8507920Y-24079960D01*
X8507920Y-24079960D02*
X8517444Y-24060912D01*
X8517444Y-24060912D02*
X8517444Y-24051388D01*
X8517444Y-24051388D02*
X8507920Y-24032341D01*
X8507920Y-24032341D02*
X8488873Y-24022817D01*
X8488873Y-24022817D02*
X8460301Y-24022817D01*
X8460301Y-24022817D02*
X8441254Y-24013293D01*
X8441254Y-24013293D02*
X8431730Y-23994246D01*
X8431730Y-23994246D02*
X8431730Y-23984722D01*
X8431730Y-23984722D02*
X8441254Y-23965674D01*
X8441254Y-23965674D02*
X8460301Y-23956150D01*
X8460301Y-23956150D02*
X8488873Y-23956150D01*
X8488873Y-23956150D02*
X8507920Y-23965674D01*
X8584111Y-24165674D02*
X8593635Y-24156150D01*
X8593635Y-24156150D02*
X8612682Y-24127579D01*
X8612682Y-24127579D02*
X8622206Y-24108531D01*
X8622206Y-24108531D02*
X8631730Y-24079960D01*
X8631730Y-24079960D02*
X8641254Y-24032341D01*
X8641254Y-24032341D02*
X8641254Y-23994246D01*
X8641254Y-23994246D02*
X8631730Y-23946627D01*
X8631730Y-23946627D02*
X8622206Y-23918055D01*
X8622206Y-23918055D02*
X8612682Y-23899008D01*
X8612682Y-23899008D02*
X8593635Y-23870436D01*
X8593635Y-23870436D02*
X8584111Y-23860912D01*
X1990000Y-24162000D02*
X2190000Y-24362000D01*
X2190000Y-24162000D02*
X1990000Y-24362000D01*
X2090000Y-24362000D02*
X2190000Y-24262000D01*
X2090000Y-24162000D01*
X1990000Y-24262000D01*
X2090000Y-24362000D01*
X2441253Y-24172531D02*
X2450777Y-24163008D01*
X2450777Y-24163008D02*
X2469824Y-24153484D01*
X2469824Y-24153484D02*
X2517444Y-24153484D01*
X2517444Y-24153484D02*
X2536491Y-24163008D01*
X2536491Y-24163008D02*
X2546015Y-24172531D01*
X2546015Y-24172531D02*
X2555539Y-24191579D01*
X2555539Y-24191579D02*
X2555539Y-24210627D01*
X2555539Y-24210627D02*
X2546015Y-24239198D01*
X2546015Y-24239198D02*
X2431729Y-24353484D01*
X2431729Y-24353484D02*
X2555539Y-24353484D01*
X2641253Y-24334436D02*
X2650777Y-24343960D01*
X2650777Y-24343960D02*
X2641253Y-24353484D01*
X2641253Y-24353484D02*
X2631729Y-24343960D01*
X2631729Y-24343960D02*
X2641253Y-24334436D01*
X2641253Y-24334436D02*
X2641253Y-24353484D01*
X2774586Y-24153484D02*
X2793634Y-24153484D01*
X2793634Y-24153484D02*
X2812682Y-24163008D01*
X2812682Y-24163008D02*
X2822205Y-24172531D01*
X2822205Y-24172531D02*
X2831729Y-24191579D01*
X2831729Y-24191579D02*
X2841253Y-24229674D01*
X2841253Y-24229674D02*
X2841253Y-24277293D01*
X2841253Y-24277293D02*
X2831729Y-24315388D01*
X2831729Y-24315388D02*
X2822205Y-24334436D01*
X2822205Y-24334436D02*
X2812682Y-24343960D01*
X2812682Y-24343960D02*
X2793634Y-24353484D01*
X2793634Y-24353484D02*
X2774586Y-24353484D01*
X2774586Y-24353484D02*
X2755539Y-24343960D01*
X2755539Y-24343960D02*
X2746015Y-24334436D01*
X2746015Y-24334436D02*
X2736491Y-24315388D01*
X2736491Y-24315388D02*
X2726967Y-24277293D01*
X2726967Y-24277293D02*
X2726967Y-24229674D01*
X2726967Y-24229674D02*
X2736491Y-24191579D01*
X2736491Y-24191579D02*
X2746015Y-24172531D01*
X2746015Y-24172531D02*
X2755539Y-24163008D01*
X2755539Y-24163008D02*
X2774586Y-24153484D01*
X2965062Y-24153484D02*
X2984110Y-24153484D01*
X2984110Y-24153484D02*
X3003158Y-24163008D01*
X3003158Y-24163008D02*
X3012682Y-24172531D01*
X3012682Y-24172531D02*
X3022205Y-24191579D01*
X3022205Y-24191579D02*
X3031729Y-24229674D01*
X3031729Y-24229674D02*
X3031729Y-24277293D01*
X3031729Y-24277293D02*
X3022205Y-24315388D01*
X3022205Y-24315388D02*
X3012682Y-24334436D01*
X3012682Y-24334436D02*
X3003158Y-24343960D01*
X3003158Y-24343960D02*
X2984110Y-24353484D01*
X2984110Y-24353484D02*
X2965062Y-24353484D01*
X2965062Y-24353484D02*
X2946015Y-24343960D01*
X2946015Y-24343960D02*
X2936491Y-24334436D01*
X2936491Y-24334436D02*
X2926967Y-24315388D01*
X2926967Y-24315388D02*
X2917443Y-24277293D01*
X2917443Y-24277293D02*
X2917443Y-24229674D01*
X2917443Y-24229674D02*
X2926967Y-24191579D01*
X2926967Y-24191579D02*
X2936491Y-24172531D01*
X2936491Y-24172531D02*
X2946015Y-24163008D01*
X2946015Y-24163008D02*
X2965062Y-24153484D01*
X3155539Y-24153484D02*
X3174586Y-24153484D01*
X3174586Y-24153484D02*
X3193634Y-24163008D01*
X3193634Y-24163008D02*
X3203158Y-24172531D01*
X3203158Y-24172531D02*
X3212682Y-24191579D01*
X3212682Y-24191579D02*
X3222205Y-24229674D01*
X3222205Y-24229674D02*
X3222205Y-24277293D01*
X3222205Y-24277293D02*
X3212682Y-24315388D01*
X3212682Y-24315388D02*
X3203158Y-24334436D01*
X3203158Y-24334436D02*
X3193634Y-24343960D01*
X3193634Y-24343960D02*
X3174586Y-24353484D01*
X3174586Y-24353484D02*
X3155539Y-24353484D01*
X3155539Y-24353484D02*
X3136491Y-24343960D01*
X3136491Y-24343960D02*
X3126967Y-24334436D01*
X3126967Y-24334436D02*
X3117443Y-24315388D01*
X3117443Y-24315388D02*
X3107920Y-24277293D01*
X3107920Y-24277293D02*
X3107920Y-24229674D01*
X3107920Y-24229674D02*
X3117443Y-24191579D01*
X3117443Y-24191579D02*
X3126967Y-24172531D01*
X3126967Y-24172531D02*
X3136491Y-24163008D01*
X3136491Y-24163008D02*
X3155539Y-24153484D01*
X3307920Y-24353484D02*
X3307920Y-24220150D01*
X3307920Y-24239198D02*
X3317443Y-24229674D01*
X3317443Y-24229674D02*
X3336491Y-24220150D01*
X3336491Y-24220150D02*
X3365063Y-24220150D01*
X3365063Y-24220150D02*
X3384110Y-24229674D01*
X3384110Y-24229674D02*
X3393634Y-24248722D01*
X3393634Y-24248722D02*
X3393634Y-24353484D01*
X3393634Y-24248722D02*
X3403158Y-24229674D01*
X3403158Y-24229674D02*
X3422205Y-24220150D01*
X3422205Y-24220150D02*
X3450777Y-24220150D01*
X3450777Y-24220150D02*
X3469824Y-24229674D01*
X3469824Y-24229674D02*
X3479348Y-24248722D01*
X3479348Y-24248722D02*
X3479348Y-24353484D01*
X3574586Y-24353484D02*
X3574586Y-24220150D01*
X3574586Y-24239198D02*
X3584110Y-24229674D01*
X3584110Y-24229674D02*
X3603158Y-24220150D01*
X3603158Y-24220150D02*
X3631729Y-24220150D01*
X3631729Y-24220150D02*
X3650777Y-24229674D01*
X3650777Y-24229674D02*
X3660301Y-24248722D01*
X3660301Y-24248722D02*
X3660301Y-24353484D01*
X3660301Y-24248722D02*
X3669824Y-24229674D01*
X3669824Y-24229674D02*
X3688872Y-24220150D01*
X3688872Y-24220150D02*
X3717443Y-24220150D01*
X3717443Y-24220150D02*
X3736491Y-24229674D01*
X3736491Y-24229674D02*
X3746015Y-24248722D01*
X3746015Y-24248722D02*
X3746015Y-24353484D01*
X4136491Y-24143960D02*
X3965063Y-24401103D01*
X4393634Y-24153484D02*
X4412682Y-24153484D01*
X4412682Y-24153484D02*
X4431729Y-24163008D01*
X4431729Y-24163008D02*
X4441253Y-24172531D01*
X4441253Y-24172531D02*
X4450777Y-24191579D01*
X4450777Y-24191579D02*
X4460301Y-24229674D01*
X4460301Y-24229674D02*
X4460301Y-24277293D01*
X4460301Y-24277293D02*
X4450777Y-24315388D01*
X4450777Y-24315388D02*
X4441253Y-24334436D01*
X4441253Y-24334436D02*
X4431729Y-24343960D01*
X4431729Y-24343960D02*
X4412682Y-24353484D01*
X4412682Y-24353484D02*
X4393634Y-24353484D01*
X4393634Y-24353484D02*
X4374587Y-24343960D01*
X4374587Y-24343960D02*
X4365063Y-24334436D01*
X4365063Y-24334436D02*
X4355539Y-24315388D01*
X4355539Y-24315388D02*
X4346015Y-24277293D01*
X4346015Y-24277293D02*
X4346015Y-24229674D01*
X4346015Y-24229674D02*
X4355539Y-24191579D01*
X4355539Y-24191579D02*
X4365063Y-24172531D01*
X4365063Y-24172531D02*
X4374587Y-24163008D01*
X4374587Y-24163008D02*
X4393634Y-24153484D01*
X4546015Y-24334436D02*
X4555539Y-24343960D01*
X4555539Y-24343960D02*
X4546015Y-24353484D01*
X4546015Y-24353484D02*
X4536491Y-24343960D01*
X4536491Y-24343960D02*
X4546015Y-24334436D01*
X4546015Y-24334436D02*
X4546015Y-24353484D01*
X4679348Y-24153484D02*
X4698396Y-24153484D01*
X4698396Y-24153484D02*
X4717444Y-24163008D01*
X4717444Y-24163008D02*
X4726968Y-24172531D01*
X4726968Y-24172531D02*
X4736491Y-24191579D01*
X4736491Y-24191579D02*
X4746015Y-24229674D01*
X4746015Y-24229674D02*
X4746015Y-24277293D01*
X4746015Y-24277293D02*
X4736491Y-24315388D01*
X4736491Y-24315388D02*
X4726968Y-24334436D01*
X4726968Y-24334436D02*
X4717444Y-24343960D01*
X4717444Y-24343960D02*
X4698396Y-24353484D01*
X4698396Y-24353484D02*
X4679348Y-24353484D01*
X4679348Y-24353484D02*
X4660301Y-24343960D01*
X4660301Y-24343960D02*
X4650777Y-24334436D01*
X4650777Y-24334436D02*
X4641253Y-24315388D01*
X4641253Y-24315388D02*
X4631729Y-24277293D01*
X4631729Y-24277293D02*
X4631729Y-24229674D01*
X4631729Y-24229674D02*
X4641253Y-24191579D01*
X4641253Y-24191579D02*
X4650777Y-24172531D01*
X4650777Y-24172531D02*
X4660301Y-24163008D01*
X4660301Y-24163008D02*
X4679348Y-24153484D01*
X4812682Y-24153484D02*
X4946015Y-24153484D01*
X4946015Y-24153484D02*
X4860301Y-24353484D01*
X5050777Y-24239198D02*
X5031729Y-24229674D01*
X5031729Y-24229674D02*
X5022206Y-24220150D01*
X5022206Y-24220150D02*
X5012682Y-24201103D01*
X5012682Y-24201103D02*
X5012682Y-24191579D01*
X5012682Y-24191579D02*
X5022206Y-24172531D01*
X5022206Y-24172531D02*
X5031729Y-24163008D01*
X5031729Y-24163008D02*
X5050777Y-24153484D01*
X5050777Y-24153484D02*
X5088872Y-24153484D01*
X5088872Y-24153484D02*
X5107920Y-24163008D01*
X5107920Y-24163008D02*
X5117444Y-24172531D01*
X5117444Y-24172531D02*
X5126968Y-24191579D01*
X5126968Y-24191579D02*
X5126968Y-24201103D01*
X5126968Y-24201103D02*
X5117444Y-24220150D01*
X5117444Y-24220150D02*
X5107920Y-24229674D01*
X5107920Y-24229674D02*
X5088872Y-24239198D01*
X5088872Y-24239198D02*
X5050777Y-24239198D01*
X5050777Y-24239198D02*
X5031729Y-24248722D01*
X5031729Y-24248722D02*
X5022206Y-24258246D01*
X5022206Y-24258246D02*
X5012682Y-24277293D01*
X5012682Y-24277293D02*
X5012682Y-24315388D01*
X5012682Y-24315388D02*
X5022206Y-24334436D01*
X5022206Y-24334436D02*
X5031729Y-24343960D01*
X5031729Y-24343960D02*
X5050777Y-24353484D01*
X5050777Y-24353484D02*
X5088872Y-24353484D01*
X5088872Y-24353484D02*
X5107920Y-24343960D01*
X5107920Y-24343960D02*
X5117444Y-24334436D01*
X5117444Y-24334436D02*
X5126968Y-24315388D01*
X5126968Y-24315388D02*
X5126968Y-24277293D01*
X5126968Y-24277293D02*
X5117444Y-24258246D01*
X5117444Y-24258246D02*
X5107920Y-24248722D01*
X5107920Y-24248722D02*
X5088872Y-24239198D01*
X5193634Y-24153484D02*
X5326968Y-24153484D01*
X5326968Y-24153484D02*
X5241253Y-24353484D01*
X5393634Y-24153484D02*
X5393634Y-24191579D01*
X5469825Y-24153484D02*
X5469825Y-24191579D01*
X5765063Y-24429674D02*
X5755539Y-24420150D01*
X5755539Y-24420150D02*
X5736491Y-24391579D01*
X5736491Y-24391579D02*
X5726968Y-24372531D01*
X5726968Y-24372531D02*
X5717444Y-24343960D01*
X5717444Y-24343960D02*
X5707920Y-24296341D01*
X5707920Y-24296341D02*
X5707920Y-24258246D01*
X5707920Y-24258246D02*
X5717444Y-24210627D01*
X5717444Y-24210627D02*
X5726968Y-24182055D01*
X5726968Y-24182055D02*
X5736491Y-24163008D01*
X5736491Y-24163008D02*
X5755539Y-24134436D01*
X5755539Y-24134436D02*
X5765063Y-24124912D01*
X5879348Y-24153484D02*
X5898396Y-24153484D01*
X5898396Y-24153484D02*
X5917444Y-24163008D01*
X5917444Y-24163008D02*
X5926968Y-24172531D01*
X5926968Y-24172531D02*
X5936491Y-24191579D01*
X5936491Y-24191579D02*
X5946015Y-24229674D01*
X5946015Y-24229674D02*
X5946015Y-24277293D01*
X5946015Y-24277293D02*
X5936491Y-24315388D01*
X5936491Y-24315388D02*
X5926968Y-24334436D01*
X5926968Y-24334436D02*
X5917444Y-24343960D01*
X5917444Y-24343960D02*
X5898396Y-24353484D01*
X5898396Y-24353484D02*
X5879348Y-24353484D01*
X5879348Y-24353484D02*
X5860301Y-24343960D01*
X5860301Y-24343960D02*
X5850777Y-24334436D01*
X5850777Y-24334436D02*
X5841253Y-24315388D01*
X5841253Y-24315388D02*
X5831729Y-24277293D01*
X5831729Y-24277293D02*
X5831729Y-24229674D01*
X5831729Y-24229674D02*
X5841253Y-24191579D01*
X5841253Y-24191579D02*
X5850777Y-24172531D01*
X5850777Y-24172531D02*
X5860301Y-24163008D01*
X5860301Y-24163008D02*
X5879348Y-24153484D01*
X6184110Y-24353484D02*
X6184110Y-24153484D01*
X6269825Y-24353484D02*
X6269825Y-24248722D01*
X6269825Y-24248722D02*
X6260301Y-24229674D01*
X6260301Y-24229674D02*
X6241253Y-24220150D01*
X6241253Y-24220150D02*
X6212682Y-24220150D01*
X6212682Y-24220150D02*
X6193634Y-24229674D01*
X6193634Y-24229674D02*
X6184110Y-24239198D01*
X6393634Y-24353484D02*
X6374587Y-24343960D01*
X6374587Y-24343960D02*
X6365063Y-24334436D01*
X6365063Y-24334436D02*
X6355539Y-24315388D01*
X6355539Y-24315388D02*
X6355539Y-24258246D01*
X6355539Y-24258246D02*
X6365063Y-24239198D01*
X6365063Y-24239198D02*
X6374587Y-24229674D01*
X6374587Y-24229674D02*
X6393634Y-24220150D01*
X6393634Y-24220150D02*
X6422206Y-24220150D01*
X6422206Y-24220150D02*
X6441253Y-24229674D01*
X6441253Y-24229674D02*
X6450777Y-24239198D01*
X6450777Y-24239198D02*
X6460301Y-24258246D01*
X6460301Y-24258246D02*
X6460301Y-24315388D01*
X6460301Y-24315388D02*
X6450777Y-24334436D01*
X6450777Y-24334436D02*
X6441253Y-24343960D01*
X6441253Y-24343960D02*
X6422206Y-24353484D01*
X6422206Y-24353484D02*
X6393634Y-24353484D01*
X6574587Y-24353484D02*
X6555539Y-24343960D01*
X6555539Y-24343960D02*
X6546015Y-24324912D01*
X6546015Y-24324912D02*
X6546015Y-24153484D01*
X6726968Y-24343960D02*
X6707920Y-24353484D01*
X6707920Y-24353484D02*
X6669825Y-24353484D01*
X6669825Y-24353484D02*
X6650777Y-24343960D01*
X6650777Y-24343960D02*
X6641253Y-24324912D01*
X6641253Y-24324912D02*
X6641253Y-24248722D01*
X6641253Y-24248722D02*
X6650777Y-24229674D01*
X6650777Y-24229674D02*
X6669825Y-24220150D01*
X6669825Y-24220150D02*
X6707920Y-24220150D01*
X6707920Y-24220150D02*
X6726968Y-24229674D01*
X6726968Y-24229674D02*
X6736491Y-24248722D01*
X6736491Y-24248722D02*
X6736491Y-24267769D01*
X6736491Y-24267769D02*
X6641253Y-24286817D01*
X6812682Y-24343960D02*
X6831730Y-24353484D01*
X6831730Y-24353484D02*
X6869825Y-24353484D01*
X6869825Y-24353484D02*
X6888872Y-24343960D01*
X6888872Y-24343960D02*
X6898396Y-24324912D01*
X6898396Y-24324912D02*
X6898396Y-24315388D01*
X6898396Y-24315388D02*
X6888872Y-24296341D01*
X6888872Y-24296341D02*
X6869825Y-24286817D01*
X6869825Y-24286817D02*
X6841253Y-24286817D01*
X6841253Y-24286817D02*
X6822206Y-24277293D01*
X6822206Y-24277293D02*
X6812682Y-24258246D01*
X6812682Y-24258246D02*
X6812682Y-24248722D01*
X6812682Y-24248722D02*
X6822206Y-24229674D01*
X6822206Y-24229674D02*
X6841253Y-24220150D01*
X6841253Y-24220150D02*
X6869825Y-24220150D01*
X6869825Y-24220150D02*
X6888872Y-24229674D01*
X7136492Y-24277293D02*
X7288873Y-24277293D01*
X7212682Y-24353484D02*
X7212682Y-24201103D01*
X7622206Y-24153484D02*
X7584111Y-24153484D01*
X7584111Y-24153484D02*
X7565063Y-24163008D01*
X7565063Y-24163008D02*
X7555539Y-24172531D01*
X7555539Y-24172531D02*
X7536492Y-24201103D01*
X7536492Y-24201103D02*
X7526968Y-24239198D01*
X7526968Y-24239198D02*
X7526968Y-24315388D01*
X7526968Y-24315388D02*
X7536492Y-24334436D01*
X7536492Y-24334436D02*
X7546015Y-24343960D01*
X7546015Y-24343960D02*
X7565063Y-24353484D01*
X7565063Y-24353484D02*
X7603158Y-24353484D01*
X7603158Y-24353484D02*
X7622206Y-24343960D01*
X7622206Y-24343960D02*
X7631730Y-24334436D01*
X7631730Y-24334436D02*
X7641253Y-24315388D01*
X7641253Y-24315388D02*
X7641253Y-24267769D01*
X7641253Y-24267769D02*
X7631730Y-24248722D01*
X7631730Y-24248722D02*
X7622206Y-24239198D01*
X7622206Y-24239198D02*
X7603158Y-24229674D01*
X7603158Y-24229674D02*
X7565063Y-24229674D01*
X7565063Y-24229674D02*
X7546015Y-24239198D01*
X7546015Y-24239198D02*
X7536492Y-24248722D01*
X7536492Y-24248722D02*
X7526968Y-24267769D01*
X7869825Y-24343960D02*
X7888873Y-24353484D01*
X7888873Y-24353484D02*
X7926968Y-24353484D01*
X7926968Y-24353484D02*
X7946015Y-24343960D01*
X7946015Y-24343960D02*
X7955539Y-24324912D01*
X7955539Y-24324912D02*
X7955539Y-24315388D01*
X7955539Y-24315388D02*
X7946015Y-24296341D01*
X7946015Y-24296341D02*
X7926968Y-24286817D01*
X7926968Y-24286817D02*
X7898396Y-24286817D01*
X7898396Y-24286817D02*
X7879349Y-24277293D01*
X7879349Y-24277293D02*
X7869825Y-24258246D01*
X7869825Y-24258246D02*
X7869825Y-24248722D01*
X7869825Y-24248722D02*
X7879349Y-24229674D01*
X7879349Y-24229674D02*
X7898396Y-24220150D01*
X7898396Y-24220150D02*
X7926968Y-24220150D01*
X7926968Y-24220150D02*
X7946015Y-24229674D01*
X8069825Y-24353484D02*
X8050777Y-24343960D01*
X8050777Y-24343960D02*
X8041254Y-24324912D01*
X8041254Y-24324912D02*
X8041254Y-24153484D01*
X8174587Y-24353484D02*
X8155539Y-24343960D01*
X8155539Y-24343960D02*
X8146015Y-24334436D01*
X8146015Y-24334436D02*
X8136492Y-24315388D01*
X8136492Y-24315388D02*
X8136492Y-24258246D01*
X8136492Y-24258246D02*
X8146015Y-24239198D01*
X8146015Y-24239198D02*
X8155539Y-24229674D01*
X8155539Y-24229674D02*
X8174587Y-24220150D01*
X8174587Y-24220150D02*
X8203158Y-24220150D01*
X8203158Y-24220150D02*
X8222206Y-24229674D01*
X8222206Y-24229674D02*
X8231730Y-24239198D01*
X8231730Y-24239198D02*
X8241254Y-24258246D01*
X8241254Y-24258246D02*
X8241254Y-24315388D01*
X8241254Y-24315388D02*
X8231730Y-24334436D01*
X8231730Y-24334436D02*
X8222206Y-24343960D01*
X8222206Y-24343960D02*
X8203158Y-24353484D01*
X8203158Y-24353484D02*
X8174587Y-24353484D01*
X8298396Y-24220150D02*
X8374587Y-24220150D01*
X8326968Y-24153484D02*
X8326968Y-24324912D01*
X8326968Y-24324912D02*
X8336492Y-24343960D01*
X8336492Y-24343960D02*
X8355539Y-24353484D01*
X8355539Y-24353484D02*
X8374587Y-24353484D01*
X8431730Y-24343960D02*
X8450777Y-24353484D01*
X8450777Y-24353484D02*
X8488873Y-24353484D01*
X8488873Y-24353484D02*
X8507920Y-24343960D01*
X8507920Y-24343960D02*
X8517444Y-24324912D01*
X8517444Y-24324912D02*
X8517444Y-24315388D01*
X8517444Y-24315388D02*
X8507920Y-24296341D01*
X8507920Y-24296341D02*
X8488873Y-24286817D01*
X8488873Y-24286817D02*
X8460301Y-24286817D01*
X8460301Y-24286817D02*
X8441254Y-24277293D01*
X8441254Y-24277293D02*
X8431730Y-24258246D01*
X8431730Y-24258246D02*
X8431730Y-24248722D01*
X8431730Y-24248722D02*
X8441254Y-24229674D01*
X8441254Y-24229674D02*
X8460301Y-24220150D01*
X8460301Y-24220150D02*
X8488873Y-24220150D01*
X8488873Y-24220150D02*
X8507920Y-24229674D01*
X8584111Y-24429674D02*
X8593635Y-24420150D01*
X8593635Y-24420150D02*
X8612682Y-24391579D01*
X8612682Y-24391579D02*
X8622206Y-24372531D01*
X8622206Y-24372531D02*
X8631730Y-24343960D01*
X8631730Y-24343960D02*
X8641254Y-24296341D01*
X8641254Y-24296341D02*
X8641254Y-24258246D01*
X8641254Y-24258246D02*
X8631730Y-24210627D01*
X8631730Y-24210627D02*
X8622206Y-24182055D01*
X8622206Y-24182055D02*
X8612682Y-24163008D01*
X8612682Y-24163008D02*
X8593635Y-24134436D01*
X8593635Y-24134436D02*
X8584111Y-24124912D01*
X2090000Y-24482000D02*
X2090000Y-24682000D01*
X1990000Y-24582000D02*
X2190000Y-24582000D01*
X2190000Y-24582000D02*
G75*
G02*
X1990000Y-24582000I-100000J0D01*
G01*
X1990000Y-24582000D02*
G75*
G02*
X2190000Y-24582000I100000J0D01*
G01*
X2431729Y-24473484D02*
X2555539Y-24473484D01*
X2555539Y-24473484D02*
X2488872Y-24549674D01*
X2488872Y-24549674D02*
X2517444Y-24549674D01*
X2517444Y-24549674D02*
X2536491Y-24559198D01*
X2536491Y-24559198D02*
X2546015Y-24568722D01*
X2546015Y-24568722D02*
X2555539Y-24587769D01*
X2555539Y-24587769D02*
X2555539Y-24635388D01*
X2555539Y-24635388D02*
X2546015Y-24654436D01*
X2546015Y-24654436D02*
X2536491Y-24663960D01*
X2536491Y-24663960D02*
X2517444Y-24673484D01*
X2517444Y-24673484D02*
X2460301Y-24673484D01*
X2460301Y-24673484D02*
X2441253Y-24663960D01*
X2441253Y-24663960D02*
X2431729Y-24654436D01*
X2641253Y-24654436D02*
X2650777Y-24663960D01*
X2650777Y-24663960D02*
X2641253Y-24673484D01*
X2641253Y-24673484D02*
X2631729Y-24663960D01*
X2631729Y-24663960D02*
X2641253Y-24654436D01*
X2641253Y-24654436D02*
X2641253Y-24673484D01*
X2774586Y-24473484D02*
X2793634Y-24473484D01*
X2793634Y-24473484D02*
X2812682Y-24483008D01*
X2812682Y-24483008D02*
X2822205Y-24492531D01*
X2822205Y-24492531D02*
X2831729Y-24511579D01*
X2831729Y-24511579D02*
X2841253Y-24549674D01*
X2841253Y-24549674D02*
X2841253Y-24597293D01*
X2841253Y-24597293D02*
X2831729Y-24635388D01*
X2831729Y-24635388D02*
X2822205Y-24654436D01*
X2822205Y-24654436D02*
X2812682Y-24663960D01*
X2812682Y-24663960D02*
X2793634Y-24673484D01*
X2793634Y-24673484D02*
X2774586Y-24673484D01*
X2774586Y-24673484D02*
X2755539Y-24663960D01*
X2755539Y-24663960D02*
X2746015Y-24654436D01*
X2746015Y-24654436D02*
X2736491Y-24635388D01*
X2736491Y-24635388D02*
X2726967Y-24597293D01*
X2726967Y-24597293D02*
X2726967Y-24549674D01*
X2726967Y-24549674D02*
X2736491Y-24511579D01*
X2736491Y-24511579D02*
X2746015Y-24492531D01*
X2746015Y-24492531D02*
X2755539Y-24483008D01*
X2755539Y-24483008D02*
X2774586Y-24473484D01*
X2965062Y-24473484D02*
X2984110Y-24473484D01*
X2984110Y-24473484D02*
X3003158Y-24483008D01*
X3003158Y-24483008D02*
X3012682Y-24492531D01*
X3012682Y-24492531D02*
X3022205Y-24511579D01*
X3022205Y-24511579D02*
X3031729Y-24549674D01*
X3031729Y-24549674D02*
X3031729Y-24597293D01*
X3031729Y-24597293D02*
X3022205Y-24635388D01*
X3022205Y-24635388D02*
X3012682Y-24654436D01*
X3012682Y-24654436D02*
X3003158Y-24663960D01*
X3003158Y-24663960D02*
X2984110Y-24673484D01*
X2984110Y-24673484D02*
X2965062Y-24673484D01*
X2965062Y-24673484D02*
X2946015Y-24663960D01*
X2946015Y-24663960D02*
X2936491Y-24654436D01*
X2936491Y-24654436D02*
X2926967Y-24635388D01*
X2926967Y-24635388D02*
X2917443Y-24597293D01*
X2917443Y-24597293D02*
X2917443Y-24549674D01*
X2917443Y-24549674D02*
X2926967Y-24511579D01*
X2926967Y-24511579D02*
X2936491Y-24492531D01*
X2936491Y-24492531D02*
X2946015Y-24483008D01*
X2946015Y-24483008D02*
X2965062Y-24473484D01*
X3155539Y-24473484D02*
X3174586Y-24473484D01*
X3174586Y-24473484D02*
X3193634Y-24483008D01*
X3193634Y-24483008D02*
X3203158Y-24492531D01*
X3203158Y-24492531D02*
X3212682Y-24511579D01*
X3212682Y-24511579D02*
X3222205Y-24549674D01*
X3222205Y-24549674D02*
X3222205Y-24597293D01*
X3222205Y-24597293D02*
X3212682Y-24635388D01*
X3212682Y-24635388D02*
X3203158Y-24654436D01*
X3203158Y-24654436D02*
X3193634Y-24663960D01*
X3193634Y-24663960D02*
X3174586Y-24673484D01*
X3174586Y-24673484D02*
X3155539Y-24673484D01*
X3155539Y-24673484D02*
X3136491Y-24663960D01*
X3136491Y-24663960D02*
X3126967Y-24654436D01*
X3126967Y-24654436D02*
X3117443Y-24635388D01*
X3117443Y-24635388D02*
X3107920Y-24597293D01*
X3107920Y-24597293D02*
X3107920Y-24549674D01*
X3107920Y-24549674D02*
X3117443Y-24511579D01*
X3117443Y-24511579D02*
X3126967Y-24492531D01*
X3126967Y-24492531D02*
X3136491Y-24483008D01*
X3136491Y-24483008D02*
X3155539Y-24473484D01*
X3307920Y-24673484D02*
X3307920Y-24540150D01*
X3307920Y-24559198D02*
X3317443Y-24549674D01*
X3317443Y-24549674D02*
X3336491Y-24540150D01*
X3336491Y-24540150D02*
X3365063Y-24540150D01*
X3365063Y-24540150D02*
X3384110Y-24549674D01*
X3384110Y-24549674D02*
X3393634Y-24568722D01*
X3393634Y-24568722D02*
X3393634Y-24673484D01*
X3393634Y-24568722D02*
X3403158Y-24549674D01*
X3403158Y-24549674D02*
X3422205Y-24540150D01*
X3422205Y-24540150D02*
X3450777Y-24540150D01*
X3450777Y-24540150D02*
X3469824Y-24549674D01*
X3469824Y-24549674D02*
X3479348Y-24568722D01*
X3479348Y-24568722D02*
X3479348Y-24673484D01*
X3574586Y-24673484D02*
X3574586Y-24540150D01*
X3574586Y-24559198D02*
X3584110Y-24549674D01*
X3584110Y-24549674D02*
X3603158Y-24540150D01*
X3603158Y-24540150D02*
X3631729Y-24540150D01*
X3631729Y-24540150D02*
X3650777Y-24549674D01*
X3650777Y-24549674D02*
X3660301Y-24568722D01*
X3660301Y-24568722D02*
X3660301Y-24673484D01*
X3660301Y-24568722D02*
X3669824Y-24549674D01*
X3669824Y-24549674D02*
X3688872Y-24540150D01*
X3688872Y-24540150D02*
X3717443Y-24540150D01*
X3717443Y-24540150D02*
X3736491Y-24549674D01*
X3736491Y-24549674D02*
X3746015Y-24568722D01*
X3746015Y-24568722D02*
X3746015Y-24673484D01*
X4136491Y-24463960D02*
X3965063Y-24721103D01*
X4393634Y-24473484D02*
X4412682Y-24473484D01*
X4412682Y-24473484D02*
X4431729Y-24483008D01*
X4431729Y-24483008D02*
X4441253Y-24492531D01*
X4441253Y-24492531D02*
X4450777Y-24511579D01*
X4450777Y-24511579D02*
X4460301Y-24549674D01*
X4460301Y-24549674D02*
X4460301Y-24597293D01*
X4460301Y-24597293D02*
X4450777Y-24635388D01*
X4450777Y-24635388D02*
X4441253Y-24654436D01*
X4441253Y-24654436D02*
X4431729Y-24663960D01*
X4431729Y-24663960D02*
X4412682Y-24673484D01*
X4412682Y-24673484D02*
X4393634Y-24673484D01*
X4393634Y-24673484D02*
X4374587Y-24663960D01*
X4374587Y-24663960D02*
X4365063Y-24654436D01*
X4365063Y-24654436D02*
X4355539Y-24635388D01*
X4355539Y-24635388D02*
X4346015Y-24597293D01*
X4346015Y-24597293D02*
X4346015Y-24549674D01*
X4346015Y-24549674D02*
X4355539Y-24511579D01*
X4355539Y-24511579D02*
X4365063Y-24492531D01*
X4365063Y-24492531D02*
X4374587Y-24483008D01*
X4374587Y-24483008D02*
X4393634Y-24473484D01*
X4546015Y-24654436D02*
X4555539Y-24663960D01*
X4555539Y-24663960D02*
X4546015Y-24673484D01*
X4546015Y-24673484D02*
X4536491Y-24663960D01*
X4536491Y-24663960D02*
X4546015Y-24654436D01*
X4546015Y-24654436D02*
X4546015Y-24673484D01*
X4746015Y-24673484D02*
X4631729Y-24673484D01*
X4688872Y-24673484D02*
X4688872Y-24473484D01*
X4688872Y-24473484D02*
X4669825Y-24502055D01*
X4669825Y-24502055D02*
X4650777Y-24521103D01*
X4650777Y-24521103D02*
X4631729Y-24530627D01*
X4936491Y-24673484D02*
X4822206Y-24673484D01*
X4879348Y-24673484D02*
X4879348Y-24473484D01*
X4879348Y-24473484D02*
X4860301Y-24502055D01*
X4860301Y-24502055D02*
X4841253Y-24521103D01*
X4841253Y-24521103D02*
X4822206Y-24530627D01*
X5050777Y-24559198D02*
X5031729Y-24549674D01*
X5031729Y-24549674D02*
X5022206Y-24540150D01*
X5022206Y-24540150D02*
X5012682Y-24521103D01*
X5012682Y-24521103D02*
X5012682Y-24511579D01*
X5012682Y-24511579D02*
X5022206Y-24492531D01*
X5022206Y-24492531D02*
X5031729Y-24483008D01*
X5031729Y-24483008D02*
X5050777Y-24473484D01*
X5050777Y-24473484D02*
X5088872Y-24473484D01*
X5088872Y-24473484D02*
X5107920Y-24483008D01*
X5107920Y-24483008D02*
X5117444Y-24492531D01*
X5117444Y-24492531D02*
X5126968Y-24511579D01*
X5126968Y-24511579D02*
X5126968Y-24521103D01*
X5126968Y-24521103D02*
X5117444Y-24540150D01*
X5117444Y-24540150D02*
X5107920Y-24549674D01*
X5107920Y-24549674D02*
X5088872Y-24559198D01*
X5088872Y-24559198D02*
X5050777Y-24559198D01*
X5050777Y-24559198D02*
X5031729Y-24568722D01*
X5031729Y-24568722D02*
X5022206Y-24578246D01*
X5022206Y-24578246D02*
X5012682Y-24597293D01*
X5012682Y-24597293D02*
X5012682Y-24635388D01*
X5012682Y-24635388D02*
X5022206Y-24654436D01*
X5022206Y-24654436D02*
X5031729Y-24663960D01*
X5031729Y-24663960D02*
X5050777Y-24673484D01*
X5050777Y-24673484D02*
X5088872Y-24673484D01*
X5088872Y-24673484D02*
X5107920Y-24663960D01*
X5107920Y-24663960D02*
X5117444Y-24654436D01*
X5117444Y-24654436D02*
X5126968Y-24635388D01*
X5126968Y-24635388D02*
X5126968Y-24597293D01*
X5126968Y-24597293D02*
X5117444Y-24578246D01*
X5117444Y-24578246D02*
X5107920Y-24568722D01*
X5107920Y-24568722D02*
X5088872Y-24559198D01*
X5317444Y-24673484D02*
X5203158Y-24673484D01*
X5260301Y-24673484D02*
X5260301Y-24473484D01*
X5260301Y-24473484D02*
X5241253Y-24502055D01*
X5241253Y-24502055D02*
X5222206Y-24521103D01*
X5222206Y-24521103D02*
X5203158Y-24530627D01*
X5393634Y-24473484D02*
X5393634Y-24511579D01*
X5469825Y-24473484D02*
X5469825Y-24511579D01*
X5765063Y-24749674D02*
X5755539Y-24740150D01*
X5755539Y-24740150D02*
X5736491Y-24711579D01*
X5736491Y-24711579D02*
X5726968Y-24692531D01*
X5726968Y-24692531D02*
X5717444Y-24663960D01*
X5717444Y-24663960D02*
X5707920Y-24616341D01*
X5707920Y-24616341D02*
X5707920Y-24578246D01*
X5707920Y-24578246D02*
X5717444Y-24530627D01*
X5717444Y-24530627D02*
X5726968Y-24502055D01*
X5726968Y-24502055D02*
X5736491Y-24483008D01*
X5736491Y-24483008D02*
X5755539Y-24454436D01*
X5755539Y-24454436D02*
X5765063Y-24444912D01*
X5869825Y-24559198D02*
X5850777Y-24549674D01*
X5850777Y-24549674D02*
X5841253Y-24540150D01*
X5841253Y-24540150D02*
X5831729Y-24521103D01*
X5831729Y-24521103D02*
X5831729Y-24511579D01*
X5831729Y-24511579D02*
X5841253Y-24492531D01*
X5841253Y-24492531D02*
X5850777Y-24483008D01*
X5850777Y-24483008D02*
X5869825Y-24473484D01*
X5869825Y-24473484D02*
X5907920Y-24473484D01*
X5907920Y-24473484D02*
X5926968Y-24483008D01*
X5926968Y-24483008D02*
X5936491Y-24492531D01*
X5936491Y-24492531D02*
X5946015Y-24511579D01*
X5946015Y-24511579D02*
X5946015Y-24521103D01*
X5946015Y-24521103D02*
X5936491Y-24540150D01*
X5936491Y-24540150D02*
X5926968Y-24549674D01*
X5926968Y-24549674D02*
X5907920Y-24559198D01*
X5907920Y-24559198D02*
X5869825Y-24559198D01*
X5869825Y-24559198D02*
X5850777Y-24568722D01*
X5850777Y-24568722D02*
X5841253Y-24578246D01*
X5841253Y-24578246D02*
X5831729Y-24597293D01*
X5831729Y-24597293D02*
X5831729Y-24635388D01*
X5831729Y-24635388D02*
X5841253Y-24654436D01*
X5841253Y-24654436D02*
X5850777Y-24663960D01*
X5850777Y-24663960D02*
X5869825Y-24673484D01*
X5869825Y-24673484D02*
X5907920Y-24673484D01*
X5907920Y-24673484D02*
X5926968Y-24663960D01*
X5926968Y-24663960D02*
X5936491Y-24654436D01*
X5936491Y-24654436D02*
X5946015Y-24635388D01*
X5946015Y-24635388D02*
X5946015Y-24597293D01*
X5946015Y-24597293D02*
X5936491Y-24578246D01*
X5936491Y-24578246D02*
X5926968Y-24568722D01*
X5926968Y-24568722D02*
X5907920Y-24559198D01*
X6184110Y-24673484D02*
X6184110Y-24473484D01*
X6269825Y-24673484D02*
X6269825Y-24568722D01*
X6269825Y-24568722D02*
X6260301Y-24549674D01*
X6260301Y-24549674D02*
X6241253Y-24540150D01*
X6241253Y-24540150D02*
X6212682Y-24540150D01*
X6212682Y-24540150D02*
X6193634Y-24549674D01*
X6193634Y-24549674D02*
X6184110Y-24559198D01*
X6393634Y-24673484D02*
X6374587Y-24663960D01*
X6374587Y-24663960D02*
X6365063Y-24654436D01*
X6365063Y-24654436D02*
X6355539Y-24635388D01*
X6355539Y-24635388D02*
X6355539Y-24578246D01*
X6355539Y-24578246D02*
X6365063Y-24559198D01*
X6365063Y-24559198D02*
X6374587Y-24549674D01*
X6374587Y-24549674D02*
X6393634Y-24540150D01*
X6393634Y-24540150D02*
X6422206Y-24540150D01*
X6422206Y-24540150D02*
X6441253Y-24549674D01*
X6441253Y-24549674D02*
X6450777Y-24559198D01*
X6450777Y-24559198D02*
X6460301Y-24578246D01*
X6460301Y-24578246D02*
X6460301Y-24635388D01*
X6460301Y-24635388D02*
X6450777Y-24654436D01*
X6450777Y-24654436D02*
X6441253Y-24663960D01*
X6441253Y-24663960D02*
X6422206Y-24673484D01*
X6422206Y-24673484D02*
X6393634Y-24673484D01*
X6574587Y-24673484D02*
X6555539Y-24663960D01*
X6555539Y-24663960D02*
X6546015Y-24644912D01*
X6546015Y-24644912D02*
X6546015Y-24473484D01*
X6726968Y-24663960D02*
X6707920Y-24673484D01*
X6707920Y-24673484D02*
X6669825Y-24673484D01*
X6669825Y-24673484D02*
X6650777Y-24663960D01*
X6650777Y-24663960D02*
X6641253Y-24644912D01*
X6641253Y-24644912D02*
X6641253Y-24568722D01*
X6641253Y-24568722D02*
X6650777Y-24549674D01*
X6650777Y-24549674D02*
X6669825Y-24540150D01*
X6669825Y-24540150D02*
X6707920Y-24540150D01*
X6707920Y-24540150D02*
X6726968Y-24549674D01*
X6726968Y-24549674D02*
X6736491Y-24568722D01*
X6736491Y-24568722D02*
X6736491Y-24587769D01*
X6736491Y-24587769D02*
X6641253Y-24606817D01*
X6812682Y-24663960D02*
X6831730Y-24673484D01*
X6831730Y-24673484D02*
X6869825Y-24673484D01*
X6869825Y-24673484D02*
X6888872Y-24663960D01*
X6888872Y-24663960D02*
X6898396Y-24644912D01*
X6898396Y-24644912D02*
X6898396Y-24635388D01*
X6898396Y-24635388D02*
X6888872Y-24616341D01*
X6888872Y-24616341D02*
X6869825Y-24606817D01*
X6869825Y-24606817D02*
X6841253Y-24606817D01*
X6841253Y-24606817D02*
X6822206Y-24597293D01*
X6822206Y-24597293D02*
X6812682Y-24578246D01*
X6812682Y-24578246D02*
X6812682Y-24568722D01*
X6812682Y-24568722D02*
X6822206Y-24549674D01*
X6822206Y-24549674D02*
X6841253Y-24540150D01*
X6841253Y-24540150D02*
X6869825Y-24540150D01*
X6869825Y-24540150D02*
X6888872Y-24549674D01*
X6965063Y-24749674D02*
X6974587Y-24740150D01*
X6974587Y-24740150D02*
X6993634Y-24711579D01*
X6993634Y-24711579D02*
X7003158Y-24692531D01*
X7003158Y-24692531D02*
X7012682Y-24663960D01*
X7012682Y-24663960D02*
X7022206Y-24616341D01*
X7022206Y-24616341D02*
X7022206Y-24578246D01*
X7022206Y-24578246D02*
X7012682Y-24530627D01*
X7012682Y-24530627D02*
X7003158Y-24502055D01*
X7003158Y-24502055D02*
X6993634Y-24483008D01*
X6993634Y-24483008D02*
X6974587Y-24454436D01*
X6974587Y-24454436D02*
X6965063Y-24444912D01*
M02*
