; NON-PLATED HOLES START AT T1
; THROUGH (PLATED) HOLES START AT T100
M48
INCH
T1C0.086614
T100C0.035000
T101C0.030000
T102C0.031497
T103C0.040000
T104C0.035050
%
T1
X000878Y031123
X000878Y000778
X042256Y000778
X042256Y031123
T100
X004256Y022778
X004256Y018778
T101
X025256Y026778
X026256Y026778
X019256Y026778
X020256Y026778
X017256Y023778
X025256Y023778
X026256Y023778
X017256Y026778
X020256Y023778
X019256Y023778
X021256Y026778
X018256Y026778
X022256Y026778
X021256Y023778
X022256Y023778
X018256Y023778
X028256Y026778
X023256Y023778
X028256Y023778
X023256Y026778
X029256Y026778
X027256Y023778
X016256Y026778
X024256Y026778
X027256Y026778
X029256Y023778
X024256Y023778
X016256Y023778
T102
X034256Y028763
X029256Y003763
X002256Y003763
X002256Y027778
X034256Y027778
X029256Y002778
X002256Y028763
X002256Y002778
T103
X028878Y029778
X038256Y026778
X004878Y029778
X038256Y014778
X038256Y020156
X038256Y022778
X012878Y029778
X022256Y029778
X018256Y029778
X033256Y005778
X035878Y005778
X002256Y015778
X038256Y010778
X038256Y016156
X041256Y005778
X014256Y029778
X037256Y005778
X031878Y005778
X026256Y029778
X016878Y029778
X038256Y028156
X006256Y029778
X010256Y029778
X020878Y029778
X038256Y024156
X002256Y014400
X008878Y029778
X038256Y018778
X039878Y005778
X024878Y029778
X038256Y012156
X030256Y029778
T104
X011250Y015793
X016257Y005778
X018260Y015793
X014254Y015793
X020263Y015793
X009247Y005778
X019262Y015793
X020263Y005778
X018260Y005778
X014254Y005778
X019262Y005778
X009247Y015793
X011250Y005778
X016257Y015793
X012252Y015793
X013253Y015793
X008246Y015793
X022266Y005778
X021265Y015793
X015256Y015793
X017259Y015793
X010249Y005778
X015256Y005778
X017259Y005778
X010249Y015793
X021265Y005778
X013253Y005778
X008246Y005778
X012252Y005778
X022266Y015793
T00
M30
