; NON-PLATED HOLES START AT T1
; THROUGH (PLATED) HOLES START AT T100
M48
INCH
T1C0.086614
T100C0.035050
T101C0.030000
T102C0.040000
%
T1
X001035Y030364
X001035Y001114
X043835Y030364
X043835Y001114
T100
X019493Y006066
X012483Y006066
X015488Y016081
X005473Y016081
X019493Y016081
X015488Y006066
X005473Y006066
X012483Y016081
X017490Y016081
X013485Y006066
X011482Y006066
X014486Y016081
X014486Y006066
X013485Y016081
X017490Y006066
X011482Y016081
X006475Y016081
X010480Y006066
X016489Y016081
X010480Y016081
X016489Y006066
X006475Y006066
X007476Y016081
X008477Y006066
X009479Y016081
X018492Y006066
X009479Y006066
X018492Y016081
X007476Y006066
X008477Y016081
T101
X032483Y022066
X013483Y019067
X010483Y019067
X027483Y019067
X004483Y022066
X024483Y019067
X007483Y022066
X014483Y019067
X026483Y022066
X003483Y022066
X031483Y019067
X006483Y019067
X023483Y019067
X014483Y022066
X003483Y019067
X026483Y019067
X023483Y022066
X031483Y022066
X006483Y022066
X032483Y019067
X013483Y022066
X010483Y022066
X004483Y019067
X027483Y022066
X007483Y019067
X024483Y022066
X015483Y022066
X034483Y022066
X022483Y019067
X009483Y019067
X011483Y022066
X008483Y019067
X002483Y022066
X028483Y022066
X029483Y022066
X030483Y022066
X033483Y022066
X021483Y022066
X012483Y019067
X005483Y019067
X025483Y022066
X030483Y019067
X021483Y019067
X033483Y019067
X012483Y022066
X005483Y022066
X025483Y019067
X015483Y019067
X034483Y019067
X009483Y022066
X008483Y022066
X022483Y022066
X011483Y019067
X028483Y019067
X029483Y019067
X002483Y019067
T102
X040483Y025066
X032861Y027066
X015861Y027066
X034483Y006067
X040483Y015689
X027483Y027066
X024861Y027066
X010483Y027066
X003861Y027066
X006483Y027066
X031483Y027066
X040483Y017067
X023483Y027066
X030483Y006067
X011861Y027066
X041105Y006067
X020861Y027066
X014483Y027066
X028861Y027066
X040483Y029066
X007861Y027066
X042483Y006067
X040483Y027689
X029105Y006067
X040483Y023689
X040483Y019689
X019483Y027066
X038483Y006067
X002483Y027066
X040483Y021067
X037105Y006067
X033105Y006067
T00
M30
