; NON-PLATED HOLES START AT T1
; THROUGH (PLATED) HOLES START AT T100
M48
INCH
T1C0.086614
T100C0.040000
T101C0.030000
T102C0.035000
T103C0.035050
T104C0.031497
%
T1
X000878Y031366
X000878Y001021
X042256Y031366
X042256Y001021
T100
X012878Y030021
X014256Y030021
X038256Y023021
X038256Y028399
X038256Y027021
X039878Y006021
X008878Y030021
X006256Y030021
X038256Y011021
X038256Y024399
X038256Y012399
X004878Y030021
X020878Y030021
X030256Y030021
X033256Y006021
X038256Y016399
X022256Y030021
X024878Y030021
X010256Y030021
X038256Y015021
X038256Y020399
X002256Y014643
X031878Y006021
X038256Y019021
X002256Y016021
X041256Y006021
X016878Y030021
X026256Y030021
X035878Y006021
X037256Y006021
X028878Y030021
X018256Y030021
T101
X027256Y027021
X019256Y024021
X016256Y027021
X018256Y024021
X020256Y027021
X025256Y027021
X023256Y024021
X028256Y027021
X022256Y027021
X024256Y024021
X021256Y027021
X017256Y024021
X029256Y027021
X026256Y024021
X026256Y027021
X029256Y024021
X017256Y027021
X024256Y027021
X021256Y024021
X028256Y024021
X023256Y027021
X025256Y024021
X022256Y024021
X020256Y024021
X018256Y027021
X016256Y024021
X019256Y027021
X027256Y024021
T102
X004256Y023021
X004256Y019021
T103
X017259Y006021
X022266Y016035
X011250Y006021
X014254Y016035
X009247Y016035
X013253Y006021
X019262Y016035
X015256Y016035
X020263Y006021
X011250Y016035
X022266Y006021
X014254Y006021
X017259Y016035
X019262Y006021
X020263Y016035
X015256Y006021
X013253Y016035
X009247Y006021
X016257Y006021
X018260Y016035
X021264Y006021
X010249Y016035
X008246Y006021
X012251Y006021
X008246Y016035
X012251Y016035
X016257Y016035
X010249Y006021
X018260Y006021
X021264Y016035
T104
X002256Y028021
X002256Y003021
X002256Y004005
X034256Y028021
X002256Y029005
X029256Y004005
X029256Y003021
X034256Y029005
T00
M30
