G04 MADE WITH FRITZING*
G04 WWW.FRITZING.ORG*
G04 DOUBLE SIDED*
G04 HOLES PLATED*
G04 CONTOUR ON CENTER OF CONTOUR VECTOR*
%ASAXBY*%
%FSLAX23Y23*%
%MOIN*%
%OFA0B0*%
%SFA1.0B1.0*%
%ADD10C,0.062992*%
%ADD11C,0.070000*%
%ADD12C,0.074106*%
%ADD13C,0.080000*%
%ADD14C,0.075000*%
%ADD15R,0.062992X0.062992*%
%ADD16R,0.080000X0.080000*%
%ADD17C,0.024000*%
%ADD18R,0.001000X0.001000*%
%LNCOPPER0*%
G90*
G70*
G54D10*
X2926Y302D03*
X2926Y401D03*
X3426Y2802D03*
X3426Y2901D03*
X226Y302D03*
X226Y401D03*
X226Y2802D03*
X226Y2901D03*
G54D11*
X1626Y2402D03*
X2826Y2702D03*
X1726Y2402D03*
X2926Y2702D03*
X1826Y2402D03*
X1926Y2402D03*
X2026Y2402D03*
X2126Y2402D03*
X2926Y2402D03*
X2826Y2402D03*
X2726Y2402D03*
X2626Y2402D03*
X2226Y2402D03*
X2426Y2402D03*
X2326Y2402D03*
X2526Y2402D03*
X2426Y2702D03*
X2526Y2702D03*
X2626Y2702D03*
X2726Y2702D03*
X2226Y2702D03*
X2326Y2702D03*
X1826Y2702D03*
X1926Y2702D03*
X2026Y2702D03*
X2126Y2702D03*
X1626Y2702D03*
X1726Y2702D03*
G54D12*
X825Y602D03*
X925Y602D03*
X1025Y602D03*
X1125Y602D03*
X1225Y602D03*
X1325Y602D03*
X1425Y602D03*
X1526Y602D03*
X1626Y602D03*
X1726Y602D03*
X1826Y602D03*
X1926Y602D03*
X2026Y602D03*
X2126Y602D03*
X2227Y602D03*
X825Y1604D03*
X925Y1604D03*
X1025Y1604D03*
X1125Y1604D03*
X1225Y1604D03*
X1325Y1604D03*
X1425Y1604D03*
X1526Y1604D03*
X1626Y1604D03*
X1726Y1604D03*
X1826Y1604D03*
X1926Y1604D03*
X2026Y1604D03*
X2126Y1604D03*
X2227Y1604D03*
G54D13*
X226Y1464D03*
X226Y1602D03*
X3826Y2840D03*
X3826Y2702D03*
X3826Y2440D03*
X3826Y2302D03*
X3826Y2040D03*
X3826Y1902D03*
X3826Y1640D03*
X3826Y1502D03*
X1688Y3002D03*
X1826Y3002D03*
X2088Y3002D03*
X2226Y3002D03*
X3726Y602D03*
X3588Y602D03*
X3326Y602D03*
X3188Y602D03*
X3826Y1240D03*
X3826Y1102D03*
X2488Y3002D03*
X2626Y3002D03*
X2888Y3002D03*
X3026Y3002D03*
X488Y3002D03*
X626Y3002D03*
X888Y3002D03*
X1026Y3002D03*
X1288Y3002D03*
X1426Y3002D03*
X4126Y602D03*
X3988Y602D03*
G54D14*
X426Y2302D03*
X426Y1902D03*
G54D15*
X2926Y302D03*
X3426Y2802D03*
X226Y302D03*
X226Y2802D03*
G54D16*
X226Y1464D03*
X3826Y2840D03*
X3826Y2440D03*
X3826Y2040D03*
X3826Y1640D03*
X1688Y3002D03*
X2088Y3002D03*
X3726Y602D03*
X3326Y602D03*
X3826Y1240D03*
X2488Y3002D03*
X2888Y3002D03*
X488Y3002D03*
X888Y3002D03*
X1288Y3002D03*
X4126Y602D03*
G54D17*
X3226Y2702D02*
X3326Y2802D01*
D02*
X926Y2202D02*
X925Y1621D01*
D02*
X1026Y2302D02*
X926Y2202D01*
D02*
X2426Y2302D02*
X1026Y2302D01*
D02*
X2515Y2392D02*
X2426Y2302D01*
D02*
X2717Y2690D02*
X2534Y2415D01*
D02*
X3326Y2802D02*
X3410Y2802D01*
D02*
X2941Y2702D02*
X3226Y2702D01*
D02*
X125Y404D02*
X127Y1504D01*
D02*
X127Y1504D02*
X211Y1588D01*
D02*
X215Y313D02*
X125Y404D01*
D02*
X426Y501D02*
X237Y313D01*
D02*
X827Y503D02*
X426Y501D01*
D02*
X912Y590D02*
X827Y503D01*
D02*
X226Y1622D02*
X226Y2786D01*
D02*
X2226Y2903D02*
X2036Y2713D01*
D02*
X2427Y2903D02*
X2226Y2903D01*
D02*
X2326Y2802D02*
X2236Y2713D01*
D02*
X2825Y2802D02*
X2326Y2802D01*
D02*
X2625Y1602D02*
X2625Y601D01*
D02*
X2882Y2983D02*
X2825Y2802D01*
D02*
X2477Y2985D02*
X2427Y2903D01*
D02*
X2075Y2987D02*
X1835Y2713D01*
D02*
X4127Y702D02*
X4126Y622D01*
D02*
X4026Y803D02*
X4127Y702D01*
D02*
X2924Y803D02*
X4026Y803D01*
D02*
X2525Y403D02*
X2924Y803D01*
D02*
X2525Y504D02*
X2226Y504D01*
D02*
X2226Y504D02*
X2139Y590D01*
D02*
X2726Y1703D02*
X2625Y1602D01*
D02*
X2726Y2387D02*
X2726Y1703D01*
D02*
X2625Y601D02*
X2525Y504D01*
D02*
X2226Y402D02*
X2525Y403D01*
D02*
X2924Y601D02*
X2525Y201D01*
D02*
X2525Y201D02*
X2226Y201D01*
D02*
X2226Y201D02*
X2125Y302D01*
D02*
X2125Y302D02*
X1224Y302D01*
D02*
X1224Y302D02*
X937Y590D01*
D02*
X3168Y602D02*
X2924Y601D01*
D02*
X2126Y502D02*
X2226Y402D01*
D02*
X1538Y590D02*
X1626Y502D01*
D02*
X1626Y502D02*
X2126Y502D01*
D02*
X3526Y702D02*
X2924Y702D01*
D02*
X2924Y702D02*
X2525Y302D01*
D02*
X2525Y302D02*
X2226Y302D01*
D02*
X2226Y302D02*
X2125Y403D01*
D02*
X2125Y403D02*
X1224Y403D01*
D02*
X1224Y403D02*
X1037Y590D01*
D02*
X3577Y619D02*
X3526Y702D01*
D02*
X826Y1402D02*
X726Y1502D01*
D02*
X726Y1502D02*
X326Y1502D01*
D02*
X326Y1502D02*
X244Y1471D01*
D02*
X825Y620D02*
X826Y1402D01*
D02*
X2415Y2413D02*
X2326Y2502D01*
D02*
X526Y1502D02*
X326Y1502D01*
D02*
X326Y1502D02*
X244Y1471D01*
D02*
X826Y1802D02*
X526Y1502D01*
D02*
X826Y2302D02*
X826Y1802D01*
D02*
X1026Y2502D02*
X826Y2302D01*
D02*
X2326Y2502D02*
X1026Y2502D01*
D02*
X3177Y585D02*
X3126Y502D01*
D02*
X3126Y502D02*
X3126Y402D01*
D02*
X3126Y402D02*
X3026Y301D01*
D02*
X3026Y301D02*
X2941Y302D01*
D02*
X2911Y2702D02*
X2841Y2702D01*
D02*
X2726Y2702D02*
X2811Y2702D01*
G54D18*
X1622Y2737D02*
X1630Y2737D01*
X1722Y2737D02*
X1730Y2737D01*
X1822Y2737D02*
X1830Y2737D01*
X1922Y2737D02*
X1930Y2737D01*
X2022Y2737D02*
X2030Y2737D01*
X2122Y2737D02*
X2130Y2737D01*
X2222Y2737D02*
X2230Y2737D01*
X2322Y2737D02*
X2330Y2737D01*
X2422Y2737D02*
X2430Y2737D01*
X2522Y2737D02*
X2530Y2737D01*
X2622Y2737D02*
X2630Y2737D01*
X2722Y2737D02*
X2730Y2737D01*
X2822Y2737D02*
X2830Y2737D01*
X2922Y2737D02*
X2930Y2737D01*
X1617Y2736D02*
X1634Y2736D01*
X1717Y2736D02*
X1734Y2736D01*
X1817Y2736D02*
X1834Y2736D01*
X1917Y2736D02*
X1934Y2736D01*
X2017Y2736D02*
X2034Y2736D01*
X2117Y2736D02*
X2134Y2736D01*
X2217Y2736D02*
X2234Y2736D01*
X2317Y2736D02*
X2334Y2736D01*
X2417Y2736D02*
X2434Y2736D01*
X2517Y2736D02*
X2534Y2736D01*
X2617Y2736D02*
X2634Y2736D01*
X2717Y2736D02*
X2734Y2736D01*
X2817Y2736D02*
X2834Y2736D01*
X2917Y2736D02*
X2934Y2736D01*
X1614Y2735D02*
X1637Y2735D01*
X1714Y2735D02*
X1737Y2735D01*
X1814Y2735D02*
X1837Y2735D01*
X1914Y2735D02*
X1937Y2735D01*
X2014Y2735D02*
X2037Y2735D01*
X2114Y2735D02*
X2137Y2735D01*
X2214Y2735D02*
X2237Y2735D01*
X2314Y2735D02*
X2337Y2735D01*
X2414Y2735D02*
X2437Y2735D01*
X2514Y2735D02*
X2537Y2735D01*
X2614Y2735D02*
X2637Y2735D01*
X2714Y2735D02*
X2737Y2735D01*
X2814Y2735D02*
X2837Y2735D01*
X2914Y2735D02*
X2937Y2735D01*
X1612Y2734D02*
X1640Y2734D01*
X1712Y2734D02*
X1740Y2734D01*
X1812Y2734D02*
X1840Y2734D01*
X1912Y2734D02*
X1940Y2734D01*
X2012Y2734D02*
X2040Y2734D01*
X2112Y2734D02*
X2140Y2734D01*
X2212Y2734D02*
X2240Y2734D01*
X2312Y2734D02*
X2340Y2734D01*
X2412Y2734D02*
X2440Y2734D01*
X2512Y2734D02*
X2540Y2734D01*
X2612Y2734D02*
X2640Y2734D01*
X2712Y2734D02*
X2740Y2734D01*
X2812Y2734D02*
X2840Y2734D01*
X2912Y2734D02*
X2940Y2734D01*
X1610Y2733D02*
X1642Y2733D01*
X1710Y2733D02*
X1742Y2733D01*
X1810Y2733D02*
X1842Y2733D01*
X1910Y2733D02*
X1942Y2733D01*
X2010Y2733D02*
X2042Y2733D01*
X2110Y2733D02*
X2142Y2733D01*
X2210Y2733D02*
X2242Y2733D01*
X2310Y2733D02*
X2342Y2733D01*
X2410Y2733D02*
X2442Y2733D01*
X2510Y2733D02*
X2542Y2733D01*
X2610Y2733D02*
X2642Y2733D01*
X2710Y2733D02*
X2742Y2733D01*
X2810Y2733D02*
X2842Y2733D01*
X2910Y2733D02*
X2942Y2733D01*
X1608Y2732D02*
X1644Y2732D01*
X1708Y2732D02*
X1744Y2732D01*
X1808Y2732D02*
X1844Y2732D01*
X1908Y2732D02*
X1944Y2732D01*
X2008Y2732D02*
X2044Y2732D01*
X2108Y2732D02*
X2144Y2732D01*
X2208Y2732D02*
X2244Y2732D01*
X2308Y2732D02*
X2344Y2732D01*
X2408Y2732D02*
X2443Y2732D01*
X2508Y2732D02*
X2543Y2732D01*
X2608Y2732D02*
X2643Y2732D01*
X2708Y2732D02*
X2743Y2732D01*
X2808Y2732D02*
X2843Y2732D01*
X2908Y2732D02*
X2943Y2732D01*
X1606Y2731D02*
X1645Y2731D01*
X1706Y2731D02*
X1745Y2731D01*
X1806Y2731D02*
X1845Y2731D01*
X1906Y2731D02*
X1945Y2731D01*
X2006Y2731D02*
X2045Y2731D01*
X2106Y2731D02*
X2145Y2731D01*
X2206Y2731D02*
X2245Y2731D01*
X2306Y2731D02*
X2345Y2731D01*
X2406Y2731D02*
X2445Y2731D01*
X2506Y2731D02*
X2545Y2731D01*
X2606Y2731D02*
X2645Y2731D01*
X2706Y2731D02*
X2745Y2731D01*
X2806Y2731D02*
X2845Y2731D01*
X2906Y2731D02*
X2945Y2731D01*
X1605Y2730D02*
X1647Y2730D01*
X1705Y2730D02*
X1747Y2730D01*
X1805Y2730D02*
X1847Y2730D01*
X1905Y2730D02*
X1947Y2730D01*
X2005Y2730D02*
X2047Y2730D01*
X2105Y2730D02*
X2147Y2730D01*
X2205Y2730D02*
X2247Y2730D01*
X2305Y2730D02*
X2347Y2730D01*
X2405Y2730D02*
X2447Y2730D01*
X2505Y2730D02*
X2547Y2730D01*
X2605Y2730D02*
X2646Y2730D01*
X2705Y2730D02*
X2746Y2730D01*
X2805Y2730D02*
X2846Y2730D01*
X2905Y2730D02*
X2946Y2730D01*
X1604Y2729D02*
X1648Y2729D01*
X1704Y2729D02*
X1748Y2729D01*
X1804Y2729D02*
X1848Y2729D01*
X1904Y2729D02*
X1948Y2729D01*
X2004Y2729D02*
X2048Y2729D01*
X2104Y2729D02*
X2148Y2729D01*
X2204Y2729D02*
X2248Y2729D01*
X2304Y2729D02*
X2348Y2729D01*
X2404Y2729D02*
X2448Y2729D01*
X2504Y2729D02*
X2548Y2729D01*
X2604Y2729D02*
X2648Y2729D01*
X2704Y2729D02*
X2748Y2729D01*
X2804Y2729D02*
X2848Y2729D01*
X2904Y2729D02*
X2948Y2729D01*
X1603Y2728D02*
X1649Y2728D01*
X1703Y2728D02*
X1749Y2728D01*
X1803Y2728D02*
X1849Y2728D01*
X1903Y2728D02*
X1949Y2728D01*
X2003Y2728D02*
X2049Y2728D01*
X2103Y2728D02*
X2149Y2728D01*
X2203Y2728D02*
X2249Y2728D01*
X2302Y2728D02*
X2349Y2728D01*
X2402Y2728D02*
X2449Y2728D01*
X2502Y2728D02*
X2549Y2728D01*
X2602Y2728D02*
X2649Y2728D01*
X2702Y2728D02*
X2749Y2728D01*
X2802Y2728D02*
X2849Y2728D01*
X2902Y2728D02*
X2949Y2728D01*
X1602Y2727D02*
X1650Y2727D01*
X1702Y2727D02*
X1750Y2727D01*
X1801Y2727D02*
X1850Y2727D01*
X1901Y2727D02*
X1950Y2727D01*
X2001Y2727D02*
X2050Y2727D01*
X2101Y2727D02*
X2150Y2727D01*
X2201Y2727D02*
X2250Y2727D01*
X2301Y2727D02*
X2350Y2727D01*
X2401Y2727D02*
X2450Y2727D01*
X2501Y2727D02*
X2550Y2727D01*
X2601Y2727D02*
X2650Y2727D01*
X2701Y2727D02*
X2750Y2727D01*
X2801Y2727D02*
X2850Y2727D01*
X2901Y2727D02*
X2950Y2727D01*
X1601Y2726D02*
X1651Y2726D01*
X1701Y2726D02*
X1751Y2726D01*
X1801Y2726D02*
X1851Y2726D01*
X1901Y2726D02*
X1951Y2726D01*
X2001Y2726D02*
X2051Y2726D01*
X2101Y2726D02*
X2151Y2726D01*
X2201Y2726D02*
X2251Y2726D01*
X2301Y2726D02*
X2351Y2726D01*
X2400Y2726D02*
X2451Y2726D01*
X2500Y2726D02*
X2551Y2726D01*
X2600Y2726D02*
X2651Y2726D01*
X2700Y2726D02*
X2751Y2726D01*
X2800Y2726D02*
X2851Y2726D01*
X2900Y2726D02*
X2951Y2726D01*
X1600Y2725D02*
X1652Y2725D01*
X1700Y2725D02*
X1752Y2725D01*
X1800Y2725D02*
X1852Y2725D01*
X1900Y2725D02*
X1952Y2725D01*
X2000Y2725D02*
X2052Y2725D01*
X2100Y2725D02*
X2152Y2725D01*
X2200Y2725D02*
X2252Y2725D01*
X2300Y2725D02*
X2352Y2725D01*
X2400Y2725D02*
X2452Y2725D01*
X2500Y2725D02*
X2552Y2725D01*
X2600Y2725D02*
X2652Y2725D01*
X2700Y2725D02*
X2752Y2725D01*
X2800Y2725D02*
X2852Y2725D01*
X2900Y2725D02*
X2952Y2725D01*
X1599Y2724D02*
X1653Y2724D01*
X1699Y2724D02*
X1753Y2724D01*
X1799Y2724D02*
X1853Y2724D01*
X1899Y2724D02*
X1953Y2724D01*
X1999Y2724D02*
X2053Y2724D01*
X2099Y2724D02*
X2153Y2724D01*
X2199Y2724D02*
X2253Y2724D01*
X2299Y2724D02*
X2353Y2724D01*
X2399Y2724D02*
X2453Y2724D01*
X2499Y2724D02*
X2553Y2724D01*
X2599Y2724D02*
X2653Y2724D01*
X2699Y2724D02*
X2753Y2724D01*
X2799Y2724D02*
X2853Y2724D01*
X2899Y2724D02*
X2953Y2724D01*
X1598Y2723D02*
X1653Y2723D01*
X1698Y2723D02*
X1753Y2723D01*
X1798Y2723D02*
X1853Y2723D01*
X1898Y2723D02*
X1953Y2723D01*
X1998Y2723D02*
X2053Y2723D01*
X2098Y2723D02*
X2153Y2723D01*
X2198Y2723D02*
X2253Y2723D01*
X2298Y2723D02*
X2353Y2723D01*
X2398Y2723D02*
X2453Y2723D01*
X2498Y2723D02*
X2553Y2723D01*
X2598Y2723D02*
X2653Y2723D01*
X2698Y2723D02*
X2753Y2723D01*
X2798Y2723D02*
X2853Y2723D01*
X2898Y2723D02*
X2953Y2723D01*
X1598Y2722D02*
X1654Y2722D01*
X1698Y2722D02*
X1754Y2722D01*
X1797Y2722D02*
X1854Y2722D01*
X1897Y2722D02*
X1954Y2722D01*
X1997Y2722D02*
X2054Y2722D01*
X2097Y2722D02*
X2154Y2722D01*
X2197Y2722D02*
X2254Y2722D01*
X2297Y2722D02*
X2354Y2722D01*
X2397Y2722D02*
X2454Y2722D01*
X2497Y2722D02*
X2554Y2722D01*
X2597Y2722D02*
X2654Y2722D01*
X2697Y2722D02*
X2754Y2722D01*
X2797Y2722D02*
X2854Y2722D01*
X2897Y2722D02*
X2954Y2722D01*
X1597Y2721D02*
X1655Y2721D01*
X1697Y2721D02*
X1755Y2721D01*
X1797Y2721D02*
X1855Y2721D01*
X1897Y2721D02*
X1955Y2721D01*
X1997Y2721D02*
X2055Y2721D01*
X2097Y2721D02*
X2155Y2721D01*
X2197Y2721D02*
X2255Y2721D01*
X2297Y2721D02*
X2355Y2721D01*
X2397Y2721D02*
X2455Y2721D01*
X2497Y2721D02*
X2555Y2721D01*
X2597Y2721D02*
X2655Y2721D01*
X2697Y2721D02*
X2755Y2721D01*
X2797Y2721D02*
X2855Y2721D01*
X2897Y2721D02*
X2955Y2721D01*
X1596Y2720D02*
X1655Y2720D01*
X1696Y2720D02*
X1755Y2720D01*
X1796Y2720D02*
X1855Y2720D01*
X1896Y2720D02*
X1955Y2720D01*
X1996Y2720D02*
X2055Y2720D01*
X2096Y2720D02*
X2155Y2720D01*
X2196Y2720D02*
X2255Y2720D01*
X2296Y2720D02*
X2355Y2720D01*
X2396Y2720D02*
X2455Y2720D01*
X2496Y2720D02*
X2555Y2720D01*
X2596Y2720D02*
X2655Y2720D01*
X2696Y2720D02*
X2755Y2720D01*
X2796Y2720D02*
X2855Y2720D01*
X2896Y2720D02*
X2955Y2720D01*
X1596Y2719D02*
X1656Y2719D01*
X1696Y2719D02*
X1756Y2719D01*
X1796Y2719D02*
X1856Y2719D01*
X1896Y2719D02*
X1956Y2719D01*
X1996Y2719D02*
X2056Y2719D01*
X2096Y2719D02*
X2156Y2719D01*
X2196Y2719D02*
X2256Y2719D01*
X2296Y2719D02*
X2356Y2719D01*
X2396Y2719D02*
X2456Y2719D01*
X2496Y2719D02*
X2556Y2719D01*
X2596Y2719D02*
X2656Y2719D01*
X2696Y2719D02*
X2756Y2719D01*
X2796Y2719D02*
X2856Y2719D01*
X2896Y2719D02*
X2956Y2719D01*
X1595Y2718D02*
X1656Y2718D01*
X1695Y2718D02*
X1756Y2718D01*
X1795Y2718D02*
X1856Y2718D01*
X1895Y2718D02*
X1956Y2718D01*
X1995Y2718D02*
X2056Y2718D01*
X2095Y2718D02*
X2156Y2718D01*
X2195Y2718D02*
X2256Y2718D01*
X2295Y2718D02*
X2356Y2718D01*
X2395Y2718D02*
X2456Y2718D01*
X2495Y2718D02*
X2556Y2718D01*
X2595Y2718D02*
X2656Y2718D01*
X2695Y2718D02*
X2756Y2718D01*
X2795Y2718D02*
X2856Y2718D01*
X2895Y2718D02*
X2956Y2718D01*
X1595Y2717D02*
X1622Y2717D01*
X1630Y2717D02*
X1657Y2717D01*
X1695Y2717D02*
X1722Y2717D01*
X1730Y2717D02*
X1757Y2717D01*
X1795Y2717D02*
X1822Y2717D01*
X1830Y2717D02*
X1857Y2717D01*
X1895Y2717D02*
X1922Y2717D01*
X1930Y2717D02*
X1957Y2717D01*
X1995Y2717D02*
X2022Y2717D01*
X2030Y2717D02*
X2057Y2717D01*
X2095Y2717D02*
X2122Y2717D01*
X2130Y2717D02*
X2157Y2717D01*
X2195Y2717D02*
X2222Y2717D01*
X2230Y2717D02*
X2257Y2717D01*
X2295Y2717D02*
X2322Y2717D01*
X2330Y2717D02*
X2357Y2717D01*
X2395Y2717D02*
X2422Y2717D01*
X2430Y2717D02*
X2457Y2717D01*
X2495Y2717D02*
X2522Y2717D01*
X2530Y2717D02*
X2557Y2717D01*
X2595Y2717D02*
X2622Y2717D01*
X2630Y2717D02*
X2657Y2717D01*
X2695Y2717D02*
X2722Y2717D01*
X2730Y2717D02*
X2757Y2717D01*
X2795Y2717D02*
X2822Y2717D01*
X2830Y2717D02*
X2857Y2717D01*
X2895Y2717D02*
X2921Y2717D01*
X2930Y2717D02*
X2957Y2717D01*
X1594Y2716D02*
X1619Y2716D01*
X1633Y2716D02*
X1657Y2716D01*
X1694Y2716D02*
X1719Y2716D01*
X1733Y2716D02*
X1757Y2716D01*
X1794Y2716D02*
X1819Y2716D01*
X1833Y2716D02*
X1857Y2716D01*
X1894Y2716D02*
X1919Y2716D01*
X1933Y2716D02*
X1957Y2716D01*
X1994Y2716D02*
X2019Y2716D01*
X2033Y2716D02*
X2057Y2716D01*
X2094Y2716D02*
X2119Y2716D01*
X2133Y2716D02*
X2157Y2716D01*
X2194Y2716D02*
X2219Y2716D01*
X2233Y2716D02*
X2257Y2716D01*
X2294Y2716D02*
X2319Y2716D01*
X2333Y2716D02*
X2357Y2716D01*
X2394Y2716D02*
X2419Y2716D01*
X2433Y2716D02*
X2457Y2716D01*
X2494Y2716D02*
X2519Y2716D01*
X2533Y2716D02*
X2557Y2716D01*
X2594Y2716D02*
X2619Y2716D01*
X2633Y2716D02*
X2657Y2716D01*
X2694Y2716D02*
X2719Y2716D01*
X2733Y2716D02*
X2757Y2716D01*
X2794Y2716D02*
X2819Y2716D01*
X2833Y2716D02*
X2857Y2716D01*
X2894Y2716D02*
X2919Y2716D01*
X2933Y2716D02*
X2957Y2716D01*
X1594Y2715D02*
X1617Y2715D01*
X1635Y2715D02*
X1658Y2715D01*
X1694Y2715D02*
X1717Y2715D01*
X1735Y2715D02*
X1758Y2715D01*
X1794Y2715D02*
X1817Y2715D01*
X1835Y2715D02*
X1858Y2715D01*
X1894Y2715D02*
X1917Y2715D01*
X1935Y2715D02*
X1958Y2715D01*
X1994Y2715D02*
X2017Y2715D01*
X2034Y2715D02*
X2058Y2715D01*
X2094Y2715D02*
X2117Y2715D01*
X2134Y2715D02*
X2158Y2715D01*
X2194Y2715D02*
X2217Y2715D01*
X2234Y2715D02*
X2258Y2715D01*
X2294Y2715D02*
X2317Y2715D01*
X2334Y2715D02*
X2358Y2715D01*
X2394Y2715D02*
X2417Y2715D01*
X2434Y2715D02*
X2458Y2715D01*
X2494Y2715D02*
X2517Y2715D01*
X2534Y2715D02*
X2558Y2715D01*
X2594Y2715D02*
X2617Y2715D01*
X2634Y2715D02*
X2658Y2715D01*
X2694Y2715D02*
X2717Y2715D01*
X2734Y2715D02*
X2758Y2715D01*
X2794Y2715D02*
X2817Y2715D01*
X2834Y2715D02*
X2858Y2715D01*
X2894Y2715D02*
X2917Y2715D01*
X2934Y2715D02*
X2958Y2715D01*
X1594Y2714D02*
X1616Y2714D01*
X1636Y2714D02*
X1658Y2714D01*
X1694Y2714D02*
X1716Y2714D01*
X1736Y2714D02*
X1758Y2714D01*
X1794Y2714D02*
X1816Y2714D01*
X1836Y2714D02*
X1858Y2714D01*
X1894Y2714D02*
X1916Y2714D01*
X1936Y2714D02*
X1958Y2714D01*
X1994Y2714D02*
X2016Y2714D01*
X2036Y2714D02*
X2058Y2714D01*
X2093Y2714D02*
X2116Y2714D01*
X2136Y2714D02*
X2158Y2714D01*
X2193Y2714D02*
X2216Y2714D01*
X2236Y2714D02*
X2258Y2714D01*
X2293Y2714D02*
X2316Y2714D01*
X2336Y2714D02*
X2358Y2714D01*
X2393Y2714D02*
X2416Y2714D01*
X2436Y2714D02*
X2458Y2714D01*
X2493Y2714D02*
X2516Y2714D01*
X2536Y2714D02*
X2558Y2714D01*
X2593Y2714D02*
X2616Y2714D01*
X2636Y2714D02*
X2658Y2714D01*
X2693Y2714D02*
X2716Y2714D01*
X2736Y2714D02*
X2758Y2714D01*
X2793Y2714D02*
X2816Y2714D01*
X2836Y2714D02*
X2858Y2714D01*
X2893Y2714D02*
X2916Y2714D01*
X2936Y2714D02*
X2958Y2714D01*
X1593Y2713D02*
X1615Y2713D01*
X1637Y2713D02*
X1659Y2713D01*
X1693Y2713D02*
X1715Y2713D01*
X1737Y2713D02*
X1758Y2713D01*
X1793Y2713D02*
X1815Y2713D01*
X1837Y2713D02*
X1858Y2713D01*
X1893Y2713D02*
X1915Y2713D01*
X1937Y2713D02*
X1958Y2713D01*
X1993Y2713D02*
X2015Y2713D01*
X2037Y2713D02*
X2058Y2713D01*
X2093Y2713D02*
X2115Y2713D01*
X2137Y2713D02*
X2158Y2713D01*
X2193Y2713D02*
X2215Y2713D01*
X2237Y2713D02*
X2258Y2713D01*
X2293Y2713D02*
X2315Y2713D01*
X2337Y2713D02*
X2358Y2713D01*
X2393Y2713D02*
X2415Y2713D01*
X2437Y2713D02*
X2458Y2713D01*
X2493Y2713D02*
X2515Y2713D01*
X2537Y2713D02*
X2558Y2713D01*
X2593Y2713D02*
X2615Y2713D01*
X2637Y2713D02*
X2658Y2713D01*
X2693Y2713D02*
X2715Y2713D01*
X2737Y2713D02*
X2758Y2713D01*
X2793Y2713D02*
X2815Y2713D01*
X2837Y2713D02*
X2858Y2713D01*
X2893Y2713D02*
X2915Y2713D01*
X2937Y2713D02*
X2958Y2713D01*
X1593Y2712D02*
X1614Y2712D01*
X1638Y2712D02*
X1659Y2712D01*
X1693Y2712D02*
X1714Y2712D01*
X1738Y2712D02*
X1759Y2712D01*
X1793Y2712D02*
X1814Y2712D01*
X1838Y2712D02*
X1859Y2712D01*
X1893Y2712D02*
X1914Y2712D01*
X1938Y2712D02*
X1959Y2712D01*
X1993Y2712D02*
X2014Y2712D01*
X2038Y2712D02*
X2059Y2712D01*
X2093Y2712D02*
X2114Y2712D01*
X2138Y2712D02*
X2159Y2712D01*
X2193Y2712D02*
X2214Y2712D01*
X2238Y2712D02*
X2259Y2712D01*
X2293Y2712D02*
X2314Y2712D01*
X2338Y2712D02*
X2359Y2712D01*
X2393Y2712D02*
X2414Y2712D01*
X2438Y2712D02*
X2459Y2712D01*
X2493Y2712D02*
X2514Y2712D01*
X2538Y2712D02*
X2559Y2712D01*
X2593Y2712D02*
X2614Y2712D01*
X2638Y2712D02*
X2659Y2712D01*
X2693Y2712D02*
X2714Y2712D01*
X2738Y2712D02*
X2759Y2712D01*
X2793Y2712D02*
X2814Y2712D01*
X2838Y2712D02*
X2859Y2712D01*
X2893Y2712D02*
X2914Y2712D01*
X2938Y2712D02*
X2959Y2712D01*
X1593Y2711D02*
X1613Y2711D01*
X1639Y2711D02*
X1659Y2711D01*
X1693Y2711D02*
X1713Y2711D01*
X1739Y2711D02*
X1759Y2711D01*
X1793Y2711D02*
X1813Y2711D01*
X1839Y2711D02*
X1859Y2711D01*
X1893Y2711D02*
X1913Y2711D01*
X1939Y2711D02*
X1959Y2711D01*
X1993Y2711D02*
X2013Y2711D01*
X2039Y2711D02*
X2059Y2711D01*
X2093Y2711D02*
X2113Y2711D01*
X2139Y2711D02*
X2159Y2711D01*
X2193Y2711D02*
X2213Y2711D01*
X2239Y2711D02*
X2259Y2711D01*
X2293Y2711D02*
X2313Y2711D01*
X2339Y2711D02*
X2359Y2711D01*
X2392Y2711D02*
X2413Y2711D01*
X2439Y2711D02*
X2459Y2711D01*
X2492Y2711D02*
X2513Y2711D01*
X2539Y2711D02*
X2559Y2711D01*
X2592Y2711D02*
X2613Y2711D01*
X2638Y2711D02*
X2659Y2711D01*
X2692Y2711D02*
X2713Y2711D01*
X2738Y2711D02*
X2759Y2711D01*
X2792Y2711D02*
X2813Y2711D01*
X2838Y2711D02*
X2859Y2711D01*
X2892Y2711D02*
X2913Y2711D01*
X2938Y2711D02*
X2959Y2711D01*
X1592Y2710D02*
X1612Y2710D01*
X1639Y2710D02*
X1659Y2710D01*
X1692Y2710D02*
X1712Y2710D01*
X1739Y2710D02*
X1759Y2710D01*
X1792Y2710D02*
X1812Y2710D01*
X1839Y2710D02*
X1859Y2710D01*
X1892Y2710D02*
X1912Y2710D01*
X1939Y2710D02*
X1959Y2710D01*
X1992Y2710D02*
X2012Y2710D01*
X2039Y2710D02*
X2059Y2710D01*
X2092Y2710D02*
X2112Y2710D01*
X2139Y2710D02*
X2159Y2710D01*
X2192Y2710D02*
X2212Y2710D01*
X2239Y2710D02*
X2259Y2710D01*
X2292Y2710D02*
X2312Y2710D01*
X2339Y2710D02*
X2359Y2710D01*
X2392Y2710D02*
X2412Y2710D01*
X2439Y2710D02*
X2459Y2710D01*
X2492Y2710D02*
X2512Y2710D01*
X2539Y2710D02*
X2559Y2710D01*
X2592Y2710D02*
X2612Y2710D01*
X2639Y2710D02*
X2659Y2710D01*
X2692Y2710D02*
X2712Y2710D01*
X2739Y2710D02*
X2759Y2710D01*
X2792Y2710D02*
X2812Y2710D01*
X2839Y2710D02*
X2859Y2710D01*
X2892Y2710D02*
X2912Y2710D01*
X2939Y2710D02*
X2959Y2710D01*
X1592Y2709D02*
X1612Y2709D01*
X1640Y2709D02*
X1660Y2709D01*
X1692Y2709D02*
X1712Y2709D01*
X1740Y2709D02*
X1760Y2709D01*
X1792Y2709D02*
X1812Y2709D01*
X1840Y2709D02*
X1860Y2709D01*
X1892Y2709D02*
X1912Y2709D01*
X1940Y2709D02*
X1960Y2709D01*
X1992Y2709D02*
X2012Y2709D01*
X2040Y2709D02*
X2060Y2709D01*
X2092Y2709D02*
X2112Y2709D01*
X2140Y2709D02*
X2160Y2709D01*
X2192Y2709D02*
X2212Y2709D01*
X2240Y2709D02*
X2260Y2709D01*
X2292Y2709D02*
X2312Y2709D01*
X2340Y2709D02*
X2359Y2709D01*
X2392Y2709D02*
X2412Y2709D01*
X2440Y2709D02*
X2459Y2709D01*
X2492Y2709D02*
X2512Y2709D01*
X2540Y2709D02*
X2559Y2709D01*
X2592Y2709D02*
X2612Y2709D01*
X2640Y2709D02*
X2659Y2709D01*
X2692Y2709D02*
X2712Y2709D01*
X2740Y2709D02*
X2759Y2709D01*
X2792Y2709D02*
X2812Y2709D01*
X2840Y2709D02*
X2859Y2709D01*
X2892Y2709D02*
X2912Y2709D01*
X2940Y2709D02*
X2959Y2709D01*
X1592Y2708D02*
X1611Y2708D01*
X1640Y2708D02*
X1660Y2708D01*
X1692Y2708D02*
X1711Y2708D01*
X1740Y2708D02*
X1760Y2708D01*
X1792Y2708D02*
X1811Y2708D01*
X1840Y2708D02*
X1860Y2708D01*
X1892Y2708D02*
X1911Y2708D01*
X1940Y2708D02*
X1960Y2708D01*
X1992Y2708D02*
X2011Y2708D01*
X2040Y2708D02*
X2060Y2708D01*
X2092Y2708D02*
X2111Y2708D01*
X2140Y2708D02*
X2160Y2708D01*
X2192Y2708D02*
X2211Y2708D01*
X2240Y2708D02*
X2260Y2708D01*
X2292Y2708D02*
X2311Y2708D01*
X2340Y2708D02*
X2360Y2708D01*
X2392Y2708D02*
X2411Y2708D01*
X2440Y2708D02*
X2460Y2708D01*
X2492Y2708D02*
X2511Y2708D01*
X2540Y2708D02*
X2560Y2708D01*
X2592Y2708D02*
X2611Y2708D01*
X2640Y2708D02*
X2660Y2708D01*
X2692Y2708D02*
X2711Y2708D01*
X2740Y2708D02*
X2760Y2708D01*
X2792Y2708D02*
X2811Y2708D01*
X2840Y2708D02*
X2860Y2708D01*
X2892Y2708D02*
X2911Y2708D01*
X2940Y2708D02*
X2960Y2708D01*
X1592Y2707D02*
X1611Y2707D01*
X1641Y2707D02*
X1660Y2707D01*
X1692Y2707D02*
X1711Y2707D01*
X1741Y2707D02*
X1760Y2707D01*
X1792Y2707D02*
X1811Y2707D01*
X1841Y2707D02*
X1860Y2707D01*
X1892Y2707D02*
X1911Y2707D01*
X1941Y2707D02*
X1960Y2707D01*
X1992Y2707D02*
X2011Y2707D01*
X2041Y2707D02*
X2060Y2707D01*
X2092Y2707D02*
X2111Y2707D01*
X2141Y2707D02*
X2160Y2707D01*
X2192Y2707D02*
X2211Y2707D01*
X2241Y2707D02*
X2260Y2707D01*
X2292Y2707D02*
X2311Y2707D01*
X2341Y2707D02*
X2360Y2707D01*
X2392Y2707D02*
X2411Y2707D01*
X2441Y2707D02*
X2460Y2707D01*
X2492Y2707D02*
X2511Y2707D01*
X2541Y2707D02*
X2560Y2707D01*
X2592Y2707D02*
X2611Y2707D01*
X2641Y2707D02*
X2660Y2707D01*
X2692Y2707D02*
X2711Y2707D01*
X2741Y2707D02*
X2760Y2707D01*
X2792Y2707D02*
X2811Y2707D01*
X2841Y2707D02*
X2860Y2707D01*
X2892Y2707D02*
X2911Y2707D01*
X2941Y2707D02*
X2960Y2707D01*
X1592Y2706D02*
X1611Y2706D01*
X1641Y2706D02*
X1660Y2706D01*
X1692Y2706D02*
X1711Y2706D01*
X1741Y2706D02*
X1760Y2706D01*
X1792Y2706D02*
X1811Y2706D01*
X1841Y2706D02*
X1860Y2706D01*
X1892Y2706D02*
X1911Y2706D01*
X1941Y2706D02*
X1960Y2706D01*
X1992Y2706D02*
X2011Y2706D01*
X2041Y2706D02*
X2060Y2706D01*
X2092Y2706D02*
X2111Y2706D01*
X2141Y2706D02*
X2160Y2706D01*
X2192Y2706D02*
X2211Y2706D01*
X2241Y2706D02*
X2260Y2706D01*
X2291Y2706D02*
X2311Y2706D01*
X2341Y2706D02*
X2360Y2706D01*
X2391Y2706D02*
X2411Y2706D01*
X2441Y2706D02*
X2460Y2706D01*
X2491Y2706D02*
X2511Y2706D01*
X2541Y2706D02*
X2560Y2706D01*
X2591Y2706D02*
X2611Y2706D01*
X2641Y2706D02*
X2660Y2706D01*
X2691Y2706D02*
X2711Y2706D01*
X2741Y2706D02*
X2760Y2706D01*
X2791Y2706D02*
X2811Y2706D01*
X2841Y2706D02*
X2860Y2706D01*
X2891Y2706D02*
X2910Y2706D01*
X2941Y2706D02*
X2960Y2706D01*
X1592Y2705D02*
X1611Y2705D01*
X1641Y2705D02*
X1660Y2705D01*
X1691Y2705D02*
X1711Y2705D01*
X1741Y2705D02*
X1760Y2705D01*
X1791Y2705D02*
X1811Y2705D01*
X1841Y2705D02*
X1860Y2705D01*
X1891Y2705D02*
X1911Y2705D01*
X1941Y2705D02*
X1960Y2705D01*
X1991Y2705D02*
X2010Y2705D01*
X2041Y2705D02*
X2060Y2705D01*
X2091Y2705D02*
X2110Y2705D01*
X2141Y2705D02*
X2160Y2705D01*
X2191Y2705D02*
X2210Y2705D01*
X2241Y2705D02*
X2260Y2705D01*
X2291Y2705D02*
X2310Y2705D01*
X2341Y2705D02*
X2360Y2705D01*
X2391Y2705D02*
X2410Y2705D01*
X2441Y2705D02*
X2460Y2705D01*
X2491Y2705D02*
X2510Y2705D01*
X2541Y2705D02*
X2560Y2705D01*
X2591Y2705D02*
X2610Y2705D01*
X2641Y2705D02*
X2660Y2705D01*
X2691Y2705D02*
X2710Y2705D01*
X2741Y2705D02*
X2760Y2705D01*
X2791Y2705D02*
X2810Y2705D01*
X2841Y2705D02*
X2860Y2705D01*
X2891Y2705D02*
X2910Y2705D01*
X2941Y2705D02*
X2960Y2705D01*
X1591Y2704D02*
X1610Y2704D01*
X1641Y2704D02*
X1660Y2704D01*
X1691Y2704D02*
X1710Y2704D01*
X1741Y2704D02*
X1760Y2704D01*
X1791Y2704D02*
X1810Y2704D01*
X1841Y2704D02*
X1860Y2704D01*
X1891Y2704D02*
X1910Y2704D01*
X1941Y2704D02*
X1960Y2704D01*
X1991Y2704D02*
X2010Y2704D01*
X2041Y2704D02*
X2060Y2704D01*
X2091Y2704D02*
X2110Y2704D01*
X2141Y2704D02*
X2160Y2704D01*
X2191Y2704D02*
X2210Y2704D01*
X2241Y2704D02*
X2260Y2704D01*
X2291Y2704D02*
X2310Y2704D01*
X2341Y2704D02*
X2360Y2704D01*
X2391Y2704D02*
X2410Y2704D01*
X2441Y2704D02*
X2460Y2704D01*
X2491Y2704D02*
X2510Y2704D01*
X2541Y2704D02*
X2560Y2704D01*
X2591Y2704D02*
X2610Y2704D01*
X2641Y2704D02*
X2660Y2704D01*
X2691Y2704D02*
X2710Y2704D01*
X2741Y2704D02*
X2760Y2704D01*
X2791Y2704D02*
X2810Y2704D01*
X2841Y2704D02*
X2860Y2704D01*
X2891Y2704D02*
X2910Y2704D01*
X2941Y2704D02*
X2960Y2704D01*
X1591Y2703D02*
X1610Y2703D01*
X1641Y2703D02*
X1660Y2703D01*
X1691Y2703D02*
X1710Y2703D01*
X1741Y2703D02*
X1760Y2703D01*
X1791Y2703D02*
X1810Y2703D01*
X1841Y2703D02*
X1860Y2703D01*
X1891Y2703D02*
X1910Y2703D01*
X1941Y2703D02*
X1960Y2703D01*
X1991Y2703D02*
X2010Y2703D01*
X2041Y2703D02*
X2060Y2703D01*
X2091Y2703D02*
X2110Y2703D01*
X2141Y2703D02*
X2160Y2703D01*
X2191Y2703D02*
X2210Y2703D01*
X2241Y2703D02*
X2260Y2703D01*
X2291Y2703D02*
X2310Y2703D01*
X2341Y2703D02*
X2360Y2703D01*
X2391Y2703D02*
X2410Y2703D01*
X2441Y2703D02*
X2460Y2703D01*
X2491Y2703D02*
X2510Y2703D01*
X2541Y2703D02*
X2560Y2703D01*
X2591Y2703D02*
X2610Y2703D01*
X2641Y2703D02*
X2660Y2703D01*
X2691Y2703D02*
X2710Y2703D01*
X2741Y2703D02*
X2760Y2703D01*
X2791Y2703D02*
X2810Y2703D01*
X2841Y2703D02*
X2860Y2703D01*
X2891Y2703D02*
X2910Y2703D01*
X2941Y2703D02*
X2960Y2703D01*
X1591Y2702D02*
X1610Y2702D01*
X1641Y2702D02*
X1660Y2702D01*
X1691Y2702D02*
X1710Y2702D01*
X1741Y2702D02*
X1760Y2702D01*
X1791Y2702D02*
X1810Y2702D01*
X1841Y2702D02*
X1860Y2702D01*
X1891Y2702D02*
X1910Y2702D01*
X1941Y2702D02*
X1960Y2702D01*
X1991Y2702D02*
X2010Y2702D01*
X2041Y2702D02*
X2060Y2702D01*
X2091Y2702D02*
X2110Y2702D01*
X2141Y2702D02*
X2160Y2702D01*
X2191Y2702D02*
X2210Y2702D01*
X2241Y2702D02*
X2260Y2702D01*
X2291Y2702D02*
X2310Y2702D01*
X2341Y2702D02*
X2360Y2702D01*
X2391Y2702D02*
X2410Y2702D01*
X2441Y2702D02*
X2460Y2702D01*
X2491Y2702D02*
X2510Y2702D01*
X2541Y2702D02*
X2560Y2702D01*
X2591Y2702D02*
X2610Y2702D01*
X2641Y2702D02*
X2660Y2702D01*
X2691Y2702D02*
X2710Y2702D01*
X2741Y2702D02*
X2760Y2702D01*
X2791Y2702D02*
X2810Y2702D01*
X2841Y2702D02*
X2860Y2702D01*
X2891Y2702D02*
X2910Y2702D01*
X2941Y2702D02*
X2960Y2702D01*
X1591Y2701D02*
X1610Y2701D01*
X1641Y2701D02*
X1660Y2701D01*
X1691Y2701D02*
X1710Y2701D01*
X1741Y2701D02*
X1760Y2701D01*
X1791Y2701D02*
X1810Y2701D01*
X1841Y2701D02*
X1860Y2701D01*
X1891Y2701D02*
X1910Y2701D01*
X1941Y2701D02*
X1960Y2701D01*
X1991Y2701D02*
X2010Y2701D01*
X2041Y2701D02*
X2060Y2701D01*
X2091Y2701D02*
X2110Y2701D01*
X2141Y2701D02*
X2160Y2701D01*
X2191Y2701D02*
X2210Y2701D01*
X2241Y2701D02*
X2260Y2701D01*
X2291Y2701D02*
X2310Y2701D01*
X2341Y2701D02*
X2360Y2701D01*
X2391Y2701D02*
X2410Y2701D01*
X2441Y2701D02*
X2460Y2701D01*
X2491Y2701D02*
X2510Y2701D01*
X2541Y2701D02*
X2560Y2701D01*
X2591Y2701D02*
X2610Y2701D01*
X2641Y2701D02*
X2660Y2701D01*
X2691Y2701D02*
X2710Y2701D01*
X2741Y2701D02*
X2760Y2701D01*
X2791Y2701D02*
X2810Y2701D01*
X2841Y2701D02*
X2860Y2701D01*
X2891Y2701D02*
X2910Y2701D01*
X2941Y2701D02*
X2960Y2701D01*
X1591Y2700D02*
X1611Y2700D01*
X1641Y2700D02*
X1660Y2700D01*
X1691Y2700D02*
X1711Y2700D01*
X1741Y2700D02*
X1760Y2700D01*
X1791Y2700D02*
X1811Y2700D01*
X1841Y2700D02*
X1860Y2700D01*
X1891Y2700D02*
X1910Y2700D01*
X1941Y2700D02*
X1960Y2700D01*
X1991Y2700D02*
X2010Y2700D01*
X2041Y2700D02*
X2060Y2700D01*
X2091Y2700D02*
X2110Y2700D01*
X2141Y2700D02*
X2160Y2700D01*
X2191Y2700D02*
X2210Y2700D01*
X2241Y2700D02*
X2260Y2700D01*
X2291Y2700D02*
X2310Y2700D01*
X2341Y2700D02*
X2360Y2700D01*
X2391Y2700D02*
X2410Y2700D01*
X2441Y2700D02*
X2460Y2700D01*
X2491Y2700D02*
X2510Y2700D01*
X2541Y2700D02*
X2560Y2700D01*
X2591Y2700D02*
X2610Y2700D01*
X2641Y2700D02*
X2660Y2700D01*
X2691Y2700D02*
X2710Y2700D01*
X2741Y2700D02*
X2760Y2700D01*
X2791Y2700D02*
X2810Y2700D01*
X2841Y2700D02*
X2860Y2700D01*
X2891Y2700D02*
X2910Y2700D01*
X2941Y2700D02*
X2960Y2700D01*
X1592Y2699D02*
X1611Y2699D01*
X1641Y2699D02*
X1660Y2699D01*
X1692Y2699D02*
X1711Y2699D01*
X1741Y2699D02*
X1760Y2699D01*
X1792Y2699D02*
X1811Y2699D01*
X1841Y2699D02*
X1860Y2699D01*
X1892Y2699D02*
X1911Y2699D01*
X1941Y2699D02*
X1960Y2699D01*
X1992Y2699D02*
X2011Y2699D01*
X2041Y2699D02*
X2060Y2699D01*
X2091Y2699D02*
X2111Y2699D01*
X2141Y2699D02*
X2160Y2699D01*
X2191Y2699D02*
X2211Y2699D01*
X2241Y2699D02*
X2260Y2699D01*
X2291Y2699D02*
X2311Y2699D01*
X2341Y2699D02*
X2360Y2699D01*
X2391Y2699D02*
X2411Y2699D01*
X2441Y2699D02*
X2460Y2699D01*
X2491Y2699D02*
X2510Y2699D01*
X2541Y2699D02*
X2560Y2699D01*
X2591Y2699D02*
X2610Y2699D01*
X2641Y2699D02*
X2660Y2699D01*
X2691Y2699D02*
X2710Y2699D01*
X2741Y2699D02*
X2760Y2699D01*
X2791Y2699D02*
X2810Y2699D01*
X2841Y2699D02*
X2860Y2699D01*
X2891Y2699D02*
X2910Y2699D01*
X2941Y2699D02*
X2960Y2699D01*
X1592Y2698D02*
X1611Y2698D01*
X1641Y2698D02*
X1660Y2698D01*
X1692Y2698D02*
X1711Y2698D01*
X1741Y2698D02*
X1760Y2698D01*
X1792Y2698D02*
X1811Y2698D01*
X1841Y2698D02*
X1860Y2698D01*
X1892Y2698D02*
X1911Y2698D01*
X1941Y2698D02*
X1960Y2698D01*
X1992Y2698D02*
X2011Y2698D01*
X2041Y2698D02*
X2060Y2698D01*
X2092Y2698D02*
X2111Y2698D01*
X2141Y2698D02*
X2160Y2698D01*
X2192Y2698D02*
X2211Y2698D01*
X2241Y2698D02*
X2260Y2698D01*
X2292Y2698D02*
X2311Y2698D01*
X2341Y2698D02*
X2360Y2698D01*
X2392Y2698D02*
X2411Y2698D01*
X2441Y2698D02*
X2460Y2698D01*
X2492Y2698D02*
X2511Y2698D01*
X2541Y2698D02*
X2560Y2698D01*
X2592Y2698D02*
X2611Y2698D01*
X2641Y2698D02*
X2660Y2698D01*
X2692Y2698D02*
X2711Y2698D01*
X2741Y2698D02*
X2760Y2698D01*
X2792Y2698D02*
X2811Y2698D01*
X2841Y2698D02*
X2860Y2698D01*
X2891Y2698D02*
X2911Y2698D01*
X2941Y2698D02*
X2960Y2698D01*
X1592Y2697D02*
X1611Y2697D01*
X1641Y2697D02*
X1660Y2697D01*
X1692Y2697D02*
X1711Y2697D01*
X1740Y2697D02*
X1760Y2697D01*
X1792Y2697D02*
X1811Y2697D01*
X1840Y2697D02*
X1860Y2697D01*
X1892Y2697D02*
X1911Y2697D01*
X1940Y2697D02*
X1960Y2697D01*
X1992Y2697D02*
X2011Y2697D01*
X2040Y2697D02*
X2060Y2697D01*
X2092Y2697D02*
X2111Y2697D01*
X2140Y2697D02*
X2160Y2697D01*
X2192Y2697D02*
X2211Y2697D01*
X2240Y2697D02*
X2260Y2697D01*
X2292Y2697D02*
X2311Y2697D01*
X2340Y2697D02*
X2360Y2697D01*
X2392Y2697D02*
X2411Y2697D01*
X2440Y2697D02*
X2460Y2697D01*
X2492Y2697D02*
X2511Y2697D01*
X2540Y2697D02*
X2560Y2697D01*
X2592Y2697D02*
X2611Y2697D01*
X2640Y2697D02*
X2660Y2697D01*
X2692Y2697D02*
X2711Y2697D01*
X2740Y2697D02*
X2760Y2697D01*
X2792Y2697D02*
X2811Y2697D01*
X2840Y2697D02*
X2860Y2697D01*
X2892Y2697D02*
X2911Y2697D01*
X2940Y2697D02*
X2960Y2697D01*
X1592Y2696D02*
X1612Y2696D01*
X1640Y2696D02*
X1660Y2696D01*
X1692Y2696D02*
X1712Y2696D01*
X1740Y2696D02*
X1760Y2696D01*
X1792Y2696D02*
X1812Y2696D01*
X1840Y2696D02*
X1860Y2696D01*
X1892Y2696D02*
X1912Y2696D01*
X1940Y2696D02*
X1960Y2696D01*
X1992Y2696D02*
X2012Y2696D01*
X2040Y2696D02*
X2060Y2696D01*
X2092Y2696D02*
X2112Y2696D01*
X2140Y2696D02*
X2160Y2696D01*
X2192Y2696D02*
X2212Y2696D01*
X2240Y2696D02*
X2260Y2696D01*
X2292Y2696D02*
X2312Y2696D01*
X2340Y2696D02*
X2360Y2696D01*
X2392Y2696D02*
X2411Y2696D01*
X2440Y2696D02*
X2460Y2696D01*
X2492Y2696D02*
X2511Y2696D01*
X2540Y2696D02*
X2560Y2696D01*
X2592Y2696D02*
X2611Y2696D01*
X2640Y2696D02*
X2659Y2696D01*
X2692Y2696D02*
X2711Y2696D01*
X2740Y2696D02*
X2759Y2696D01*
X2792Y2696D02*
X2811Y2696D01*
X2840Y2696D02*
X2859Y2696D01*
X2892Y2696D02*
X2911Y2696D01*
X2940Y2696D02*
X2959Y2696D01*
X1592Y2695D02*
X1612Y2695D01*
X1640Y2695D02*
X1659Y2695D01*
X1692Y2695D02*
X1712Y2695D01*
X1739Y2695D02*
X1759Y2695D01*
X1792Y2695D02*
X1812Y2695D01*
X1839Y2695D02*
X1859Y2695D01*
X1892Y2695D02*
X1912Y2695D01*
X1939Y2695D02*
X1959Y2695D01*
X1992Y2695D02*
X2012Y2695D01*
X2039Y2695D02*
X2059Y2695D01*
X2092Y2695D02*
X2112Y2695D01*
X2139Y2695D02*
X2159Y2695D01*
X2192Y2695D02*
X2212Y2695D01*
X2239Y2695D02*
X2259Y2695D01*
X2292Y2695D02*
X2312Y2695D01*
X2339Y2695D02*
X2359Y2695D01*
X2392Y2695D02*
X2412Y2695D01*
X2439Y2695D02*
X2459Y2695D01*
X2492Y2695D02*
X2512Y2695D01*
X2539Y2695D02*
X2559Y2695D01*
X2592Y2695D02*
X2612Y2695D01*
X2639Y2695D02*
X2659Y2695D01*
X2692Y2695D02*
X2712Y2695D01*
X2739Y2695D02*
X2759Y2695D01*
X2792Y2695D02*
X2812Y2695D01*
X2839Y2695D02*
X2859Y2695D01*
X2892Y2695D02*
X2912Y2695D01*
X2939Y2695D02*
X2959Y2695D01*
X1593Y2694D02*
X1613Y2694D01*
X1639Y2694D02*
X1659Y2694D01*
X1693Y2694D02*
X1713Y2694D01*
X1739Y2694D02*
X1759Y2694D01*
X1793Y2694D02*
X1813Y2694D01*
X1839Y2694D02*
X1859Y2694D01*
X1892Y2694D02*
X1913Y2694D01*
X1939Y2694D02*
X1959Y2694D01*
X1992Y2694D02*
X2013Y2694D01*
X2039Y2694D02*
X2059Y2694D01*
X2092Y2694D02*
X2113Y2694D01*
X2139Y2694D02*
X2159Y2694D01*
X2192Y2694D02*
X2213Y2694D01*
X2239Y2694D02*
X2259Y2694D01*
X2292Y2694D02*
X2313Y2694D01*
X2339Y2694D02*
X2359Y2694D01*
X2392Y2694D02*
X2413Y2694D01*
X2439Y2694D02*
X2459Y2694D01*
X2492Y2694D02*
X2513Y2694D01*
X2539Y2694D02*
X2559Y2694D01*
X2592Y2694D02*
X2613Y2694D01*
X2639Y2694D02*
X2659Y2694D01*
X2692Y2694D02*
X2713Y2694D01*
X2739Y2694D02*
X2759Y2694D01*
X2792Y2694D02*
X2813Y2694D01*
X2839Y2694D02*
X2859Y2694D01*
X2892Y2694D02*
X2913Y2694D01*
X2939Y2694D02*
X2959Y2694D01*
X1593Y2693D02*
X1614Y2693D01*
X1638Y2693D02*
X1659Y2693D01*
X1693Y2693D02*
X1714Y2693D01*
X1738Y2693D02*
X1759Y2693D01*
X1793Y2693D02*
X1814Y2693D01*
X1838Y2693D02*
X1859Y2693D01*
X1893Y2693D02*
X1914Y2693D01*
X1938Y2693D02*
X1959Y2693D01*
X1993Y2693D02*
X2014Y2693D01*
X2038Y2693D02*
X2059Y2693D01*
X2093Y2693D02*
X2114Y2693D01*
X2138Y2693D02*
X2159Y2693D01*
X2193Y2693D02*
X2214Y2693D01*
X2238Y2693D02*
X2259Y2693D01*
X2293Y2693D02*
X2314Y2693D01*
X2338Y2693D02*
X2359Y2693D01*
X2393Y2693D02*
X2414Y2693D01*
X2438Y2693D02*
X2459Y2693D01*
X2493Y2693D02*
X2514Y2693D01*
X2538Y2693D02*
X2559Y2693D01*
X2593Y2693D02*
X2613Y2693D01*
X2638Y2693D02*
X2659Y2693D01*
X2693Y2693D02*
X2713Y2693D01*
X2738Y2693D02*
X2759Y2693D01*
X2793Y2693D02*
X2813Y2693D01*
X2838Y2693D02*
X2859Y2693D01*
X2893Y2693D02*
X2913Y2693D01*
X2938Y2693D02*
X2959Y2693D01*
X1593Y2692D02*
X1615Y2692D01*
X1637Y2692D02*
X1659Y2692D01*
X1693Y2692D02*
X1715Y2692D01*
X1737Y2692D02*
X1759Y2692D01*
X1793Y2692D02*
X1815Y2692D01*
X1837Y2692D02*
X1859Y2692D01*
X1893Y2692D02*
X1914Y2692D01*
X1937Y2692D02*
X1959Y2692D01*
X1993Y2692D02*
X2014Y2692D01*
X2037Y2692D02*
X2059Y2692D01*
X2093Y2692D02*
X2114Y2692D01*
X2137Y2692D02*
X2159Y2692D01*
X2193Y2692D02*
X2214Y2692D01*
X2237Y2692D02*
X2259Y2692D01*
X2293Y2692D02*
X2314Y2692D01*
X2337Y2692D02*
X2358Y2692D01*
X2393Y2692D02*
X2414Y2692D01*
X2437Y2692D02*
X2458Y2692D01*
X2493Y2692D02*
X2514Y2692D01*
X2537Y2692D02*
X2558Y2692D01*
X2593Y2692D02*
X2614Y2692D01*
X2637Y2692D02*
X2658Y2692D01*
X2693Y2692D02*
X2714Y2692D01*
X2737Y2692D02*
X2758Y2692D01*
X2793Y2692D02*
X2814Y2692D01*
X2837Y2692D02*
X2858Y2692D01*
X2893Y2692D02*
X2914Y2692D01*
X2937Y2692D02*
X2958Y2692D01*
X1593Y2691D02*
X1616Y2691D01*
X1636Y2691D02*
X1658Y2691D01*
X1693Y2691D02*
X1716Y2691D01*
X1736Y2691D02*
X1758Y2691D01*
X1793Y2691D02*
X1816Y2691D01*
X1836Y2691D02*
X1858Y2691D01*
X1893Y2691D02*
X1916Y2691D01*
X1936Y2691D02*
X1958Y2691D01*
X1993Y2691D02*
X2016Y2691D01*
X2036Y2691D02*
X2058Y2691D01*
X2093Y2691D02*
X2116Y2691D01*
X2136Y2691D02*
X2158Y2691D01*
X2193Y2691D02*
X2216Y2691D01*
X2236Y2691D02*
X2258Y2691D01*
X2293Y2691D02*
X2316Y2691D01*
X2336Y2691D02*
X2358Y2691D01*
X2393Y2691D02*
X2415Y2691D01*
X2436Y2691D02*
X2458Y2691D01*
X2493Y2691D02*
X2515Y2691D01*
X2536Y2691D02*
X2558Y2691D01*
X2593Y2691D02*
X2615Y2691D01*
X2636Y2691D02*
X2658Y2691D01*
X2693Y2691D02*
X2715Y2691D01*
X2736Y2691D02*
X2758Y2691D01*
X2793Y2691D02*
X2815Y2691D01*
X2836Y2691D02*
X2858Y2691D01*
X2893Y2691D02*
X2915Y2691D01*
X2936Y2691D02*
X2958Y2691D01*
X1594Y2690D02*
X1617Y2690D01*
X1635Y2690D02*
X1658Y2690D01*
X1694Y2690D02*
X1717Y2690D01*
X1735Y2690D02*
X1758Y2690D01*
X1794Y2690D02*
X1817Y2690D01*
X1835Y2690D02*
X1858Y2690D01*
X1894Y2690D02*
X1917Y2690D01*
X1935Y2690D02*
X1958Y2690D01*
X1994Y2690D02*
X2017Y2690D01*
X2035Y2690D02*
X2058Y2690D01*
X2094Y2690D02*
X2117Y2690D01*
X2135Y2690D02*
X2158Y2690D01*
X2194Y2690D02*
X2217Y2690D01*
X2235Y2690D02*
X2258Y2690D01*
X2294Y2690D02*
X2317Y2690D01*
X2335Y2690D02*
X2358Y2690D01*
X2394Y2690D02*
X2417Y2690D01*
X2435Y2690D02*
X2458Y2690D01*
X2494Y2690D02*
X2517Y2690D01*
X2535Y2690D02*
X2558Y2690D01*
X2594Y2690D02*
X2617Y2690D01*
X2635Y2690D02*
X2658Y2690D01*
X2694Y2690D02*
X2717Y2690D01*
X2735Y2690D02*
X2758Y2690D01*
X2794Y2690D02*
X2817Y2690D01*
X2835Y2690D02*
X2858Y2690D01*
X2894Y2690D02*
X2917Y2690D01*
X2935Y2690D02*
X2958Y2690D01*
X1594Y2689D02*
X1618Y2689D01*
X1633Y2689D02*
X1657Y2689D01*
X1694Y2689D02*
X1718Y2689D01*
X1733Y2689D02*
X1757Y2689D01*
X1794Y2689D02*
X1818Y2689D01*
X1833Y2689D02*
X1857Y2689D01*
X1894Y2689D02*
X1918Y2689D01*
X1933Y2689D02*
X1957Y2689D01*
X1994Y2689D02*
X2018Y2689D01*
X2033Y2689D02*
X2057Y2689D01*
X2094Y2689D02*
X2118Y2689D01*
X2133Y2689D02*
X2157Y2689D01*
X2194Y2689D02*
X2218Y2689D01*
X2233Y2689D02*
X2257Y2689D01*
X2294Y2689D02*
X2318Y2689D01*
X2333Y2689D02*
X2357Y2689D01*
X2394Y2689D02*
X2418Y2689D01*
X2433Y2689D02*
X2457Y2689D01*
X2494Y2689D02*
X2518Y2689D01*
X2533Y2689D02*
X2557Y2689D01*
X2594Y2689D02*
X2618Y2689D01*
X2633Y2689D02*
X2657Y2689D01*
X2694Y2689D02*
X2718Y2689D01*
X2733Y2689D02*
X2757Y2689D01*
X2794Y2689D02*
X2818Y2689D01*
X2833Y2689D02*
X2857Y2689D01*
X2894Y2689D02*
X2918Y2689D01*
X2933Y2689D02*
X2957Y2689D01*
X1595Y2688D02*
X1621Y2688D01*
X1631Y2688D02*
X1657Y2688D01*
X1695Y2688D02*
X1721Y2688D01*
X1731Y2688D02*
X1757Y2688D01*
X1795Y2688D02*
X1821Y2688D01*
X1831Y2688D02*
X1857Y2688D01*
X1895Y2688D02*
X1921Y2688D01*
X1931Y2688D02*
X1957Y2688D01*
X1995Y2688D02*
X2021Y2688D01*
X2031Y2688D02*
X2057Y2688D01*
X2095Y2688D02*
X2121Y2688D01*
X2131Y2688D02*
X2157Y2688D01*
X2195Y2688D02*
X2221Y2688D01*
X2231Y2688D02*
X2257Y2688D01*
X2295Y2688D02*
X2321Y2688D01*
X2331Y2688D02*
X2357Y2688D01*
X2395Y2688D02*
X2421Y2688D01*
X2431Y2688D02*
X2457Y2688D01*
X2495Y2688D02*
X2521Y2688D01*
X2531Y2688D02*
X2557Y2688D01*
X2595Y2688D02*
X2621Y2688D01*
X2631Y2688D02*
X2657Y2688D01*
X2694Y2688D02*
X2721Y2688D01*
X2731Y2688D02*
X2757Y2688D01*
X2794Y2688D02*
X2821Y2688D01*
X2831Y2688D02*
X2857Y2688D01*
X2894Y2688D02*
X2920Y2688D01*
X2931Y2688D02*
X2957Y2688D01*
X1595Y2687D02*
X1657Y2687D01*
X1695Y2687D02*
X1757Y2687D01*
X1795Y2687D02*
X1857Y2687D01*
X1895Y2687D02*
X1957Y2687D01*
X1995Y2687D02*
X2056Y2687D01*
X2095Y2687D02*
X2156Y2687D01*
X2195Y2687D02*
X2256Y2687D01*
X2295Y2687D02*
X2356Y2687D01*
X2395Y2687D02*
X2456Y2687D01*
X2495Y2687D02*
X2556Y2687D01*
X2595Y2687D02*
X2656Y2687D01*
X2695Y2687D02*
X2756Y2687D01*
X2795Y2687D02*
X2856Y2687D01*
X2895Y2687D02*
X2956Y2687D01*
X1596Y2686D02*
X1656Y2686D01*
X1696Y2686D02*
X1756Y2686D01*
X1796Y2686D02*
X1856Y2686D01*
X1896Y2686D02*
X1956Y2686D01*
X1996Y2686D02*
X2056Y2686D01*
X2096Y2686D02*
X2156Y2686D01*
X2196Y2686D02*
X2256Y2686D01*
X2296Y2686D02*
X2356Y2686D01*
X2395Y2686D02*
X2456Y2686D01*
X2495Y2686D02*
X2556Y2686D01*
X2595Y2686D02*
X2656Y2686D01*
X2695Y2686D02*
X2756Y2686D01*
X2795Y2686D02*
X2856Y2686D01*
X2895Y2686D02*
X2956Y2686D01*
X1596Y2685D02*
X1656Y2685D01*
X1696Y2685D02*
X1756Y2685D01*
X1796Y2685D02*
X1856Y2685D01*
X1896Y2685D02*
X1955Y2685D01*
X1996Y2685D02*
X2055Y2685D01*
X2096Y2685D02*
X2155Y2685D01*
X2196Y2685D02*
X2255Y2685D01*
X2296Y2685D02*
X2355Y2685D01*
X2396Y2685D02*
X2455Y2685D01*
X2496Y2685D02*
X2555Y2685D01*
X2596Y2685D02*
X2655Y2685D01*
X2696Y2685D02*
X2755Y2685D01*
X2796Y2685D02*
X2855Y2685D01*
X2896Y2685D02*
X2955Y2685D01*
X1597Y2684D02*
X1655Y2684D01*
X1697Y2684D02*
X1755Y2684D01*
X1797Y2684D02*
X1855Y2684D01*
X1897Y2684D02*
X1955Y2684D01*
X1997Y2684D02*
X2055Y2684D01*
X2097Y2684D02*
X2155Y2684D01*
X2197Y2684D02*
X2255Y2684D01*
X2297Y2684D02*
X2355Y2684D01*
X2397Y2684D02*
X2455Y2684D01*
X2497Y2684D02*
X2555Y2684D01*
X2597Y2684D02*
X2655Y2684D01*
X2697Y2684D02*
X2755Y2684D01*
X2797Y2684D02*
X2855Y2684D01*
X2897Y2684D02*
X2955Y2684D01*
X1597Y2683D02*
X1654Y2683D01*
X1697Y2683D02*
X1754Y2683D01*
X1797Y2683D02*
X1854Y2683D01*
X1897Y2683D02*
X1954Y2683D01*
X1997Y2683D02*
X2054Y2683D01*
X2097Y2683D02*
X2154Y2683D01*
X2197Y2683D02*
X2254Y2683D01*
X2297Y2683D02*
X2354Y2683D01*
X2397Y2683D02*
X2454Y2683D01*
X2497Y2683D02*
X2554Y2683D01*
X2597Y2683D02*
X2654Y2683D01*
X2697Y2683D02*
X2754Y2683D01*
X2797Y2683D02*
X2854Y2683D01*
X2897Y2683D02*
X2954Y2683D01*
X1598Y2682D02*
X1654Y2682D01*
X1698Y2682D02*
X1754Y2682D01*
X1798Y2682D02*
X1854Y2682D01*
X1898Y2682D02*
X1954Y2682D01*
X1998Y2682D02*
X2054Y2682D01*
X2098Y2682D02*
X2154Y2682D01*
X2198Y2682D02*
X2254Y2682D01*
X2298Y2682D02*
X2354Y2682D01*
X2398Y2682D02*
X2454Y2682D01*
X2498Y2682D02*
X2554Y2682D01*
X2598Y2682D02*
X2654Y2682D01*
X2698Y2682D02*
X2754Y2682D01*
X2798Y2682D02*
X2853Y2682D01*
X2898Y2682D02*
X2953Y2682D01*
X1599Y2681D02*
X1653Y2681D01*
X1699Y2681D02*
X1753Y2681D01*
X1799Y2681D02*
X1853Y2681D01*
X1899Y2681D02*
X1953Y2681D01*
X1999Y2681D02*
X2053Y2681D01*
X2099Y2681D02*
X2153Y2681D01*
X2199Y2681D02*
X2253Y2681D01*
X2299Y2681D02*
X2353Y2681D01*
X2399Y2681D02*
X2453Y2681D01*
X2499Y2681D02*
X2553Y2681D01*
X2599Y2681D02*
X2653Y2681D01*
X2699Y2681D02*
X2753Y2681D01*
X2799Y2681D02*
X2853Y2681D01*
X2899Y2681D02*
X2953Y2681D01*
X1599Y2680D02*
X1652Y2680D01*
X1699Y2680D02*
X1752Y2680D01*
X1799Y2680D02*
X1852Y2680D01*
X1899Y2680D02*
X1952Y2680D01*
X1999Y2680D02*
X2052Y2680D01*
X2099Y2680D02*
X2152Y2680D01*
X2199Y2680D02*
X2252Y2680D01*
X2299Y2680D02*
X2352Y2680D01*
X2399Y2680D02*
X2452Y2680D01*
X2499Y2680D02*
X2552Y2680D01*
X2599Y2680D02*
X2652Y2680D01*
X2699Y2680D02*
X2752Y2680D01*
X2799Y2680D02*
X2852Y2680D01*
X2899Y2680D02*
X2952Y2680D01*
X1600Y2679D02*
X1651Y2679D01*
X1700Y2679D02*
X1751Y2679D01*
X1800Y2679D02*
X1851Y2679D01*
X1900Y2679D02*
X1951Y2679D01*
X2000Y2679D02*
X2051Y2679D01*
X2100Y2679D02*
X2151Y2679D01*
X2200Y2679D02*
X2251Y2679D01*
X2300Y2679D02*
X2351Y2679D01*
X2400Y2679D02*
X2451Y2679D01*
X2500Y2679D02*
X2551Y2679D01*
X2600Y2679D02*
X2651Y2679D01*
X2700Y2679D02*
X2751Y2679D01*
X2800Y2679D02*
X2851Y2679D01*
X2900Y2679D02*
X2951Y2679D01*
X1601Y2678D02*
X1650Y2678D01*
X1701Y2678D02*
X1750Y2678D01*
X1801Y2678D02*
X1850Y2678D01*
X1901Y2678D02*
X1950Y2678D01*
X2001Y2678D02*
X2050Y2678D01*
X2101Y2678D02*
X2150Y2678D01*
X2201Y2678D02*
X2250Y2678D01*
X2301Y2678D02*
X2350Y2678D01*
X2401Y2678D02*
X2450Y2678D01*
X2501Y2678D02*
X2550Y2678D01*
X2601Y2678D02*
X2650Y2678D01*
X2701Y2678D02*
X2750Y2678D01*
X2801Y2678D02*
X2850Y2678D01*
X2901Y2678D02*
X2950Y2678D01*
X1602Y2677D02*
X1649Y2677D01*
X1702Y2677D02*
X1749Y2677D01*
X1802Y2677D02*
X1849Y2677D01*
X1902Y2677D02*
X1949Y2677D01*
X2002Y2677D02*
X2049Y2677D01*
X2102Y2677D02*
X2149Y2677D01*
X2202Y2677D02*
X2249Y2677D01*
X2302Y2677D02*
X2349Y2677D01*
X2402Y2677D02*
X2449Y2677D01*
X2502Y2677D02*
X2549Y2677D01*
X2602Y2677D02*
X2649Y2677D01*
X2702Y2677D02*
X2749Y2677D01*
X2802Y2677D02*
X2849Y2677D01*
X2902Y2677D02*
X2949Y2677D01*
X1603Y2676D02*
X1648Y2676D01*
X1703Y2676D02*
X1748Y2676D01*
X1803Y2676D02*
X1848Y2676D01*
X1903Y2676D02*
X1948Y2676D01*
X2003Y2676D02*
X2048Y2676D01*
X2103Y2676D02*
X2148Y2676D01*
X2203Y2676D02*
X2248Y2676D01*
X2303Y2676D02*
X2348Y2676D01*
X2403Y2676D02*
X2448Y2676D01*
X2503Y2676D02*
X2548Y2676D01*
X2603Y2676D02*
X2648Y2676D01*
X2703Y2676D02*
X2748Y2676D01*
X2803Y2676D02*
X2848Y2676D01*
X2903Y2676D02*
X2948Y2676D01*
X1605Y2675D02*
X1647Y2675D01*
X1705Y2675D02*
X1747Y2675D01*
X1805Y2675D02*
X1847Y2675D01*
X1905Y2675D02*
X1947Y2675D01*
X2005Y2675D02*
X2047Y2675D01*
X2105Y2675D02*
X2147Y2675D01*
X2205Y2675D02*
X2247Y2675D01*
X2305Y2675D02*
X2347Y2675D01*
X2405Y2675D02*
X2447Y2675D01*
X2505Y2675D02*
X2547Y2675D01*
X2604Y2675D02*
X2647Y2675D01*
X2704Y2675D02*
X2747Y2675D01*
X2804Y2675D02*
X2847Y2675D01*
X2904Y2675D02*
X2947Y2675D01*
X1606Y2674D02*
X1646Y2674D01*
X1706Y2674D02*
X1746Y2674D01*
X1806Y2674D02*
X1846Y2674D01*
X1906Y2674D02*
X1946Y2674D01*
X2006Y2674D02*
X2046Y2674D01*
X2106Y2674D02*
X2146Y2674D01*
X2206Y2674D02*
X2246Y2674D01*
X2306Y2674D02*
X2346Y2674D01*
X2406Y2674D02*
X2446Y2674D01*
X2506Y2674D02*
X2546Y2674D01*
X2606Y2674D02*
X2645Y2674D01*
X2706Y2674D02*
X2745Y2674D01*
X2806Y2674D02*
X2845Y2674D01*
X2906Y2674D02*
X2945Y2674D01*
X1608Y2673D02*
X1644Y2673D01*
X1708Y2673D02*
X1744Y2673D01*
X1808Y2673D02*
X1844Y2673D01*
X1908Y2673D02*
X1944Y2673D01*
X2008Y2673D02*
X2044Y2673D01*
X2108Y2673D02*
X2144Y2673D01*
X2207Y2673D02*
X2244Y2673D01*
X2307Y2673D02*
X2344Y2673D01*
X2407Y2673D02*
X2444Y2673D01*
X2507Y2673D02*
X2544Y2673D01*
X2607Y2673D02*
X2644Y2673D01*
X2707Y2673D02*
X2744Y2673D01*
X2807Y2673D02*
X2844Y2673D01*
X2907Y2673D02*
X2944Y2673D01*
X1609Y2672D02*
X1642Y2672D01*
X1709Y2672D02*
X1742Y2672D01*
X1809Y2672D02*
X1842Y2672D01*
X1909Y2672D02*
X1942Y2672D01*
X2009Y2672D02*
X2042Y2672D01*
X2109Y2672D02*
X2142Y2672D01*
X2209Y2672D02*
X2242Y2672D01*
X2309Y2672D02*
X2342Y2672D01*
X2409Y2672D02*
X2442Y2672D01*
X2509Y2672D02*
X2542Y2672D01*
X2609Y2672D02*
X2642Y2672D01*
X2709Y2672D02*
X2742Y2672D01*
X2809Y2672D02*
X2842Y2672D01*
X2909Y2672D02*
X2942Y2672D01*
X1611Y2671D02*
X1640Y2671D01*
X1711Y2671D02*
X1740Y2671D01*
X1811Y2671D02*
X1840Y2671D01*
X1911Y2671D02*
X1940Y2671D01*
X2011Y2671D02*
X2040Y2671D01*
X2111Y2671D02*
X2140Y2671D01*
X2211Y2671D02*
X2240Y2671D01*
X2311Y2671D02*
X2340Y2671D01*
X2411Y2671D02*
X2440Y2671D01*
X2511Y2671D02*
X2540Y2671D01*
X2611Y2671D02*
X2640Y2671D01*
X2711Y2671D02*
X2740Y2671D01*
X2811Y2671D02*
X2840Y2671D01*
X2911Y2671D02*
X2940Y2671D01*
X1614Y2670D02*
X1638Y2670D01*
X1714Y2670D02*
X1738Y2670D01*
X1814Y2670D02*
X1838Y2670D01*
X1914Y2670D02*
X1938Y2670D01*
X2013Y2670D02*
X2038Y2670D01*
X2113Y2670D02*
X2138Y2670D01*
X2213Y2670D02*
X2238Y2670D01*
X2313Y2670D02*
X2338Y2670D01*
X2413Y2670D02*
X2438Y2670D01*
X2513Y2670D02*
X2538Y2670D01*
X2613Y2670D02*
X2638Y2670D01*
X2713Y2670D02*
X2738Y2670D01*
X2813Y2670D02*
X2838Y2670D01*
X2913Y2670D02*
X2938Y2670D01*
X1616Y2669D02*
X1635Y2669D01*
X1716Y2669D02*
X1735Y2669D01*
X1816Y2669D02*
X1835Y2669D01*
X1916Y2669D02*
X1935Y2669D01*
X2016Y2669D02*
X2035Y2669D01*
X2116Y2669D02*
X2135Y2669D01*
X2216Y2669D02*
X2235Y2669D01*
X2316Y2669D02*
X2335Y2669D01*
X2416Y2669D02*
X2435Y2669D01*
X2516Y2669D02*
X2535Y2669D01*
X2616Y2669D02*
X2635Y2669D01*
X2716Y2669D02*
X2735Y2669D01*
X2816Y2669D02*
X2835Y2669D01*
X2916Y2669D02*
X2935Y2669D01*
X1620Y2668D02*
X1631Y2668D01*
X1720Y2668D02*
X1731Y2668D01*
X1820Y2668D02*
X1831Y2668D01*
X1920Y2668D02*
X1931Y2668D01*
X2020Y2668D02*
X2031Y2668D01*
X2120Y2668D02*
X2131Y2668D01*
X2220Y2668D02*
X2231Y2668D01*
X2320Y2668D02*
X2331Y2668D01*
X2420Y2668D02*
X2431Y2668D01*
X2520Y2668D02*
X2531Y2668D01*
X2620Y2668D02*
X2631Y2668D01*
X2720Y2668D02*
X2731Y2668D01*
X2820Y2668D02*
X2831Y2668D01*
X2920Y2668D02*
X2931Y2668D01*
X1622Y2437D02*
X1630Y2437D01*
X1722Y2437D02*
X1730Y2437D01*
X1822Y2437D02*
X1830Y2437D01*
X1922Y2437D02*
X1930Y2437D01*
X2022Y2437D02*
X2030Y2437D01*
X2122Y2437D02*
X2130Y2437D01*
X2222Y2437D02*
X2230Y2437D01*
X2322Y2437D02*
X2330Y2437D01*
X2422Y2437D02*
X2430Y2437D01*
X2522Y2437D02*
X2530Y2437D01*
X2622Y2437D02*
X2630Y2437D01*
X2722Y2437D02*
X2730Y2437D01*
X2822Y2437D02*
X2830Y2437D01*
X2922Y2437D02*
X2930Y2437D01*
X1617Y2436D02*
X1634Y2436D01*
X1717Y2436D02*
X1734Y2436D01*
X1817Y2436D02*
X1834Y2436D01*
X1917Y2436D02*
X1934Y2436D01*
X2017Y2436D02*
X2034Y2436D01*
X2117Y2436D02*
X2134Y2436D01*
X2217Y2436D02*
X2234Y2436D01*
X2317Y2436D02*
X2334Y2436D01*
X2417Y2436D02*
X2434Y2436D01*
X2517Y2436D02*
X2534Y2436D01*
X2617Y2436D02*
X2634Y2436D01*
X2717Y2436D02*
X2734Y2436D01*
X2817Y2436D02*
X2834Y2436D01*
X2917Y2436D02*
X2934Y2436D01*
X1614Y2435D02*
X1637Y2435D01*
X1714Y2435D02*
X1737Y2435D01*
X1814Y2435D02*
X1837Y2435D01*
X1914Y2435D02*
X1937Y2435D01*
X2014Y2435D02*
X2037Y2435D01*
X2114Y2435D02*
X2137Y2435D01*
X2214Y2435D02*
X2237Y2435D01*
X2314Y2435D02*
X2337Y2435D01*
X2414Y2435D02*
X2437Y2435D01*
X2514Y2435D02*
X2537Y2435D01*
X2614Y2435D02*
X2637Y2435D01*
X2714Y2435D02*
X2737Y2435D01*
X2814Y2435D02*
X2837Y2435D01*
X2914Y2435D02*
X2937Y2435D01*
X1612Y2434D02*
X1640Y2434D01*
X1712Y2434D02*
X1740Y2434D01*
X1812Y2434D02*
X1840Y2434D01*
X1912Y2434D02*
X1940Y2434D01*
X2012Y2434D02*
X2040Y2434D01*
X2112Y2434D02*
X2140Y2434D01*
X2212Y2434D02*
X2240Y2434D01*
X2312Y2434D02*
X2340Y2434D01*
X2412Y2434D02*
X2440Y2434D01*
X2512Y2434D02*
X2540Y2434D01*
X2612Y2434D02*
X2640Y2434D01*
X2712Y2434D02*
X2740Y2434D01*
X2812Y2434D02*
X2840Y2434D01*
X2912Y2434D02*
X2940Y2434D01*
X1610Y2433D02*
X1642Y2433D01*
X1710Y2433D02*
X1742Y2433D01*
X1810Y2433D02*
X1842Y2433D01*
X1910Y2433D02*
X1942Y2433D01*
X2010Y2433D02*
X2042Y2433D01*
X2110Y2433D02*
X2142Y2433D01*
X2210Y2433D02*
X2242Y2433D01*
X2310Y2433D02*
X2342Y2433D01*
X2410Y2433D02*
X2442Y2433D01*
X2510Y2433D02*
X2542Y2433D01*
X2610Y2433D02*
X2642Y2433D01*
X2710Y2433D02*
X2742Y2433D01*
X2810Y2433D02*
X2842Y2433D01*
X2910Y2433D02*
X2942Y2433D01*
X1608Y2432D02*
X1644Y2432D01*
X1708Y2432D02*
X1744Y2432D01*
X1808Y2432D02*
X1844Y2432D01*
X1908Y2432D02*
X1944Y2432D01*
X2008Y2432D02*
X2044Y2432D01*
X2108Y2432D02*
X2144Y2432D01*
X2208Y2432D02*
X2244Y2432D01*
X2308Y2432D02*
X2344Y2432D01*
X2408Y2432D02*
X2444Y2432D01*
X2508Y2432D02*
X2544Y2432D01*
X2608Y2432D02*
X2644Y2432D01*
X2708Y2432D02*
X2743Y2432D01*
X2808Y2432D02*
X2843Y2432D01*
X2908Y2432D02*
X2943Y2432D01*
X1606Y2431D02*
X1645Y2431D01*
X1706Y2431D02*
X1745Y2431D01*
X1806Y2431D02*
X1845Y2431D01*
X1906Y2431D02*
X1945Y2431D01*
X2006Y2431D02*
X2045Y2431D01*
X2106Y2431D02*
X2145Y2431D01*
X2206Y2431D02*
X2245Y2431D01*
X2306Y2431D02*
X2345Y2431D01*
X2406Y2431D02*
X2445Y2431D01*
X2506Y2431D02*
X2545Y2431D01*
X2606Y2431D02*
X2645Y2431D01*
X2706Y2431D02*
X2745Y2431D01*
X2806Y2431D02*
X2845Y2431D01*
X2906Y2431D02*
X2945Y2431D01*
X1605Y2430D02*
X1647Y2430D01*
X1705Y2430D02*
X1747Y2430D01*
X1805Y2430D02*
X1847Y2430D01*
X1905Y2430D02*
X1947Y2430D01*
X2005Y2430D02*
X2047Y2430D01*
X2105Y2430D02*
X2147Y2430D01*
X2205Y2430D02*
X2247Y2430D01*
X2305Y2430D02*
X2347Y2430D01*
X2405Y2430D02*
X2447Y2430D01*
X2505Y2430D02*
X2547Y2430D01*
X2605Y2430D02*
X2647Y2430D01*
X2705Y2430D02*
X2747Y2430D01*
X2805Y2430D02*
X2846Y2430D01*
X2905Y2430D02*
X2946Y2430D01*
X1604Y2429D02*
X1648Y2429D01*
X1704Y2429D02*
X1748Y2429D01*
X1804Y2429D02*
X1848Y2429D01*
X1904Y2429D02*
X1948Y2429D01*
X2004Y2429D02*
X2048Y2429D01*
X2104Y2429D02*
X2148Y2429D01*
X2204Y2429D02*
X2248Y2429D01*
X2304Y2429D02*
X2348Y2429D01*
X2404Y2429D02*
X2448Y2429D01*
X2504Y2429D02*
X2548Y2429D01*
X2604Y2429D02*
X2648Y2429D01*
X2704Y2429D02*
X2748Y2429D01*
X2803Y2429D02*
X2848Y2429D01*
X2903Y2429D02*
X2948Y2429D01*
X1603Y2428D02*
X1649Y2428D01*
X1703Y2428D02*
X1749Y2428D01*
X1803Y2428D02*
X1849Y2428D01*
X1903Y2428D02*
X1949Y2428D01*
X2003Y2428D02*
X2049Y2428D01*
X2102Y2428D02*
X2149Y2428D01*
X2202Y2428D02*
X2249Y2428D01*
X2302Y2428D02*
X2349Y2428D01*
X2402Y2428D02*
X2449Y2428D01*
X2502Y2428D02*
X2549Y2428D01*
X2602Y2428D02*
X2649Y2428D01*
X2702Y2428D02*
X2749Y2428D01*
X2802Y2428D02*
X2849Y2428D01*
X2902Y2428D02*
X2949Y2428D01*
X1601Y2427D02*
X1650Y2427D01*
X1701Y2427D02*
X1750Y2427D01*
X1801Y2427D02*
X1850Y2427D01*
X1901Y2427D02*
X1950Y2427D01*
X2001Y2427D02*
X2050Y2427D01*
X2101Y2427D02*
X2150Y2427D01*
X2201Y2427D02*
X2250Y2427D01*
X2301Y2427D02*
X2350Y2427D01*
X2401Y2427D02*
X2450Y2427D01*
X2501Y2427D02*
X2550Y2427D01*
X2601Y2427D02*
X2650Y2427D01*
X2701Y2427D02*
X2750Y2427D01*
X2801Y2427D02*
X2850Y2427D01*
X2901Y2427D02*
X2950Y2427D01*
X1601Y2426D02*
X1651Y2426D01*
X1701Y2426D02*
X1751Y2426D01*
X1801Y2426D02*
X1851Y2426D01*
X1901Y2426D02*
X1951Y2426D01*
X2001Y2426D02*
X2051Y2426D01*
X2101Y2426D02*
X2151Y2426D01*
X2200Y2426D02*
X2251Y2426D01*
X2300Y2426D02*
X2351Y2426D01*
X2400Y2426D02*
X2451Y2426D01*
X2500Y2426D02*
X2551Y2426D01*
X2600Y2426D02*
X2651Y2426D01*
X2700Y2426D02*
X2751Y2426D01*
X2800Y2426D02*
X2851Y2426D01*
X2900Y2426D02*
X2951Y2426D01*
X1600Y2425D02*
X1652Y2425D01*
X1700Y2425D02*
X1752Y2425D01*
X1800Y2425D02*
X1852Y2425D01*
X1900Y2425D02*
X1952Y2425D01*
X2000Y2425D02*
X2052Y2425D01*
X2100Y2425D02*
X2152Y2425D01*
X2200Y2425D02*
X2252Y2425D01*
X2300Y2425D02*
X2352Y2425D01*
X2400Y2425D02*
X2452Y2425D01*
X2500Y2425D02*
X2552Y2425D01*
X2600Y2425D02*
X2652Y2425D01*
X2700Y2425D02*
X2752Y2425D01*
X2800Y2425D02*
X2852Y2425D01*
X2899Y2425D02*
X2952Y2425D01*
X1599Y2424D02*
X1653Y2424D01*
X1699Y2424D02*
X1753Y2424D01*
X1799Y2424D02*
X1853Y2424D01*
X1899Y2424D02*
X1953Y2424D01*
X1999Y2424D02*
X2053Y2424D01*
X2099Y2424D02*
X2153Y2424D01*
X2199Y2424D02*
X2253Y2424D01*
X2299Y2424D02*
X2353Y2424D01*
X2399Y2424D02*
X2453Y2424D01*
X2499Y2424D02*
X2553Y2424D01*
X2599Y2424D02*
X2653Y2424D01*
X2699Y2424D02*
X2753Y2424D01*
X2799Y2424D02*
X2853Y2424D01*
X2899Y2424D02*
X2953Y2424D01*
X1598Y2423D02*
X1653Y2423D01*
X1698Y2423D02*
X1753Y2423D01*
X1798Y2423D02*
X1853Y2423D01*
X1898Y2423D02*
X1953Y2423D01*
X1998Y2423D02*
X2053Y2423D01*
X2098Y2423D02*
X2153Y2423D01*
X2198Y2423D02*
X2253Y2423D01*
X2298Y2423D02*
X2353Y2423D01*
X2398Y2423D02*
X2453Y2423D01*
X2498Y2423D02*
X2553Y2423D01*
X2598Y2423D02*
X2653Y2423D01*
X2698Y2423D02*
X2753Y2423D01*
X2798Y2423D02*
X2853Y2423D01*
X2898Y2423D02*
X2953Y2423D01*
X1598Y2422D02*
X1654Y2422D01*
X1697Y2422D02*
X1754Y2422D01*
X1797Y2422D02*
X1854Y2422D01*
X1897Y2422D02*
X1954Y2422D01*
X1997Y2422D02*
X2054Y2422D01*
X2097Y2422D02*
X2154Y2422D01*
X2197Y2422D02*
X2254Y2422D01*
X2297Y2422D02*
X2354Y2422D01*
X2397Y2422D02*
X2454Y2422D01*
X2497Y2422D02*
X2554Y2422D01*
X2597Y2422D02*
X2654Y2422D01*
X2697Y2422D02*
X2754Y2422D01*
X2797Y2422D02*
X2854Y2422D01*
X2897Y2422D02*
X2954Y2422D01*
X1597Y2421D02*
X1655Y2421D01*
X1697Y2421D02*
X1755Y2421D01*
X1797Y2421D02*
X1855Y2421D01*
X1897Y2421D02*
X1955Y2421D01*
X1997Y2421D02*
X2055Y2421D01*
X2097Y2421D02*
X2155Y2421D01*
X2197Y2421D02*
X2255Y2421D01*
X2297Y2421D02*
X2355Y2421D01*
X2397Y2421D02*
X2455Y2421D01*
X2497Y2421D02*
X2555Y2421D01*
X2597Y2421D02*
X2655Y2421D01*
X2697Y2421D02*
X2755Y2421D01*
X2797Y2421D02*
X2855Y2421D01*
X2897Y2421D02*
X2955Y2421D01*
X1596Y2420D02*
X1655Y2420D01*
X1696Y2420D02*
X1755Y2420D01*
X1796Y2420D02*
X1855Y2420D01*
X1896Y2420D02*
X1955Y2420D01*
X1996Y2420D02*
X2055Y2420D01*
X2096Y2420D02*
X2155Y2420D01*
X2196Y2420D02*
X2255Y2420D01*
X2296Y2420D02*
X2355Y2420D01*
X2396Y2420D02*
X2455Y2420D01*
X2496Y2420D02*
X2555Y2420D01*
X2596Y2420D02*
X2655Y2420D01*
X2696Y2420D02*
X2755Y2420D01*
X2796Y2420D02*
X2855Y2420D01*
X2896Y2420D02*
X2955Y2420D01*
X1596Y2419D02*
X1656Y2419D01*
X1696Y2419D02*
X1756Y2419D01*
X1796Y2419D02*
X1856Y2419D01*
X1896Y2419D02*
X1956Y2419D01*
X1996Y2419D02*
X2056Y2419D01*
X2096Y2419D02*
X2156Y2419D01*
X2196Y2419D02*
X2256Y2419D01*
X2296Y2419D02*
X2356Y2419D01*
X2396Y2419D02*
X2456Y2419D01*
X2496Y2419D02*
X2556Y2419D01*
X2596Y2419D02*
X2656Y2419D01*
X2696Y2419D02*
X2756Y2419D01*
X2796Y2419D02*
X2856Y2419D01*
X2896Y2419D02*
X2956Y2419D01*
X1595Y2418D02*
X1656Y2418D01*
X1695Y2418D02*
X1756Y2418D01*
X1795Y2418D02*
X1856Y2418D01*
X1895Y2418D02*
X1956Y2418D01*
X1995Y2418D02*
X2056Y2418D01*
X2095Y2418D02*
X2156Y2418D01*
X2195Y2418D02*
X2256Y2418D01*
X2295Y2418D02*
X2356Y2418D01*
X2395Y2418D02*
X2456Y2418D01*
X2495Y2418D02*
X2556Y2418D01*
X2595Y2418D02*
X2656Y2418D01*
X2695Y2418D02*
X2756Y2418D01*
X2795Y2418D02*
X2856Y2418D01*
X2895Y2418D02*
X2956Y2418D01*
X1595Y2417D02*
X1622Y2417D01*
X1630Y2417D02*
X1657Y2417D01*
X1695Y2417D02*
X1722Y2417D01*
X1730Y2417D02*
X1757Y2417D01*
X1795Y2417D02*
X1822Y2417D01*
X1830Y2417D02*
X1857Y2417D01*
X1895Y2417D02*
X1922Y2417D01*
X1930Y2417D02*
X1957Y2417D01*
X1995Y2417D02*
X2022Y2417D01*
X2030Y2417D02*
X2057Y2417D01*
X2095Y2417D02*
X2122Y2417D01*
X2130Y2417D02*
X2157Y2417D01*
X2195Y2417D02*
X2221Y2417D01*
X2230Y2417D02*
X2257Y2417D01*
X2295Y2417D02*
X2321Y2417D01*
X2330Y2417D02*
X2357Y2417D01*
X2395Y2417D02*
X2421Y2417D01*
X2430Y2417D02*
X2457Y2417D01*
X2495Y2417D02*
X2521Y2417D01*
X2530Y2417D02*
X2557Y2417D01*
X2595Y2417D02*
X2621Y2417D01*
X2630Y2417D02*
X2657Y2417D01*
X2695Y2417D02*
X2721Y2417D01*
X2730Y2417D02*
X2757Y2417D01*
X2795Y2417D02*
X2821Y2417D01*
X2830Y2417D02*
X2857Y2417D01*
X2895Y2417D02*
X2921Y2417D01*
X2930Y2417D02*
X2957Y2417D01*
X1594Y2416D02*
X1619Y2416D01*
X1633Y2416D02*
X1657Y2416D01*
X1694Y2416D02*
X1719Y2416D01*
X1733Y2416D02*
X1757Y2416D01*
X1794Y2416D02*
X1819Y2416D01*
X1833Y2416D02*
X1857Y2416D01*
X1894Y2416D02*
X1919Y2416D01*
X1933Y2416D02*
X1957Y2416D01*
X1994Y2416D02*
X2019Y2416D01*
X2033Y2416D02*
X2057Y2416D01*
X2094Y2416D02*
X2119Y2416D01*
X2133Y2416D02*
X2157Y2416D01*
X2194Y2416D02*
X2219Y2416D01*
X2233Y2416D02*
X2257Y2416D01*
X2294Y2416D02*
X2319Y2416D01*
X2333Y2416D02*
X2357Y2416D01*
X2394Y2416D02*
X2419Y2416D01*
X2433Y2416D02*
X2457Y2416D01*
X2494Y2416D02*
X2519Y2416D01*
X2533Y2416D02*
X2557Y2416D01*
X2594Y2416D02*
X2619Y2416D01*
X2633Y2416D02*
X2657Y2416D01*
X2694Y2416D02*
X2719Y2416D01*
X2733Y2416D02*
X2757Y2416D01*
X2794Y2416D02*
X2819Y2416D01*
X2833Y2416D02*
X2857Y2416D01*
X2894Y2416D02*
X2919Y2416D01*
X2933Y2416D02*
X2957Y2416D01*
X1594Y2415D02*
X1617Y2415D01*
X1635Y2415D02*
X1658Y2415D01*
X1694Y2415D02*
X1717Y2415D01*
X1735Y2415D02*
X1758Y2415D01*
X1794Y2415D02*
X1817Y2415D01*
X1835Y2415D02*
X1858Y2415D01*
X1894Y2415D02*
X1917Y2415D01*
X1935Y2415D02*
X1958Y2415D01*
X1994Y2415D02*
X2017Y2415D01*
X2035Y2415D02*
X2058Y2415D01*
X2094Y2415D02*
X2117Y2415D01*
X2135Y2415D02*
X2158Y2415D01*
X2194Y2415D02*
X2217Y2415D01*
X2235Y2415D02*
X2258Y2415D01*
X2294Y2415D02*
X2317Y2415D01*
X2335Y2415D02*
X2358Y2415D01*
X2394Y2415D02*
X2417Y2415D01*
X2434Y2415D02*
X2458Y2415D01*
X2494Y2415D02*
X2517Y2415D01*
X2534Y2415D02*
X2558Y2415D01*
X2594Y2415D02*
X2617Y2415D01*
X2634Y2415D02*
X2658Y2415D01*
X2694Y2415D02*
X2717Y2415D01*
X2734Y2415D02*
X2758Y2415D01*
X2794Y2415D02*
X2817Y2415D01*
X2834Y2415D02*
X2858Y2415D01*
X2894Y2415D02*
X2917Y2415D01*
X2934Y2415D02*
X2958Y2415D01*
X1594Y2414D02*
X1616Y2414D01*
X1636Y2414D02*
X1658Y2414D01*
X1694Y2414D02*
X1716Y2414D01*
X1736Y2414D02*
X1758Y2414D01*
X1794Y2414D02*
X1816Y2414D01*
X1836Y2414D02*
X1858Y2414D01*
X1894Y2414D02*
X1916Y2414D01*
X1936Y2414D02*
X1958Y2414D01*
X1993Y2414D02*
X2016Y2414D01*
X2036Y2414D02*
X2058Y2414D01*
X2093Y2414D02*
X2116Y2414D01*
X2136Y2414D02*
X2158Y2414D01*
X2193Y2414D02*
X2216Y2414D01*
X2236Y2414D02*
X2258Y2414D01*
X2293Y2414D02*
X2316Y2414D01*
X2336Y2414D02*
X2358Y2414D01*
X2393Y2414D02*
X2416Y2414D01*
X2436Y2414D02*
X2458Y2414D01*
X2493Y2414D02*
X2516Y2414D01*
X2536Y2414D02*
X2558Y2414D01*
X2593Y2414D02*
X2616Y2414D01*
X2636Y2414D02*
X2658Y2414D01*
X2693Y2414D02*
X2716Y2414D01*
X2736Y2414D02*
X2758Y2414D01*
X2793Y2414D02*
X2816Y2414D01*
X2836Y2414D02*
X2858Y2414D01*
X2893Y2414D02*
X2916Y2414D01*
X2936Y2414D02*
X2958Y2414D01*
X1593Y2413D02*
X1615Y2413D01*
X1637Y2413D02*
X1659Y2413D01*
X1693Y2413D02*
X1715Y2413D01*
X1737Y2413D02*
X1758Y2413D01*
X1793Y2413D02*
X1815Y2413D01*
X1837Y2413D02*
X1858Y2413D01*
X1893Y2413D02*
X1915Y2413D01*
X1937Y2413D02*
X1958Y2413D01*
X1993Y2413D02*
X2015Y2413D01*
X2037Y2413D02*
X2058Y2413D01*
X2093Y2413D02*
X2115Y2413D01*
X2137Y2413D02*
X2158Y2413D01*
X2193Y2413D02*
X2215Y2413D01*
X2237Y2413D02*
X2258Y2413D01*
X2293Y2413D02*
X2315Y2413D01*
X2337Y2413D02*
X2358Y2413D01*
X2393Y2413D02*
X2415Y2413D01*
X2437Y2413D02*
X2458Y2413D01*
X2493Y2413D02*
X2515Y2413D01*
X2537Y2413D02*
X2558Y2413D01*
X2593Y2413D02*
X2615Y2413D01*
X2637Y2413D02*
X2658Y2413D01*
X2693Y2413D02*
X2715Y2413D01*
X2737Y2413D02*
X2758Y2413D01*
X2793Y2413D02*
X2815Y2413D01*
X2837Y2413D02*
X2858Y2413D01*
X2893Y2413D02*
X2915Y2413D01*
X2937Y2413D02*
X2958Y2413D01*
X1593Y2412D02*
X1614Y2412D01*
X1638Y2412D02*
X1659Y2412D01*
X1693Y2412D02*
X1714Y2412D01*
X1738Y2412D02*
X1759Y2412D01*
X1793Y2412D02*
X1814Y2412D01*
X1838Y2412D02*
X1859Y2412D01*
X1893Y2412D02*
X1914Y2412D01*
X1938Y2412D02*
X1959Y2412D01*
X1993Y2412D02*
X2014Y2412D01*
X2038Y2412D02*
X2059Y2412D01*
X2093Y2412D02*
X2114Y2412D01*
X2138Y2412D02*
X2159Y2412D01*
X2193Y2412D02*
X2214Y2412D01*
X2238Y2412D02*
X2259Y2412D01*
X2293Y2412D02*
X2314Y2412D01*
X2338Y2412D02*
X2359Y2412D01*
X2393Y2412D02*
X2414Y2412D01*
X2438Y2412D02*
X2459Y2412D01*
X2493Y2412D02*
X2514Y2412D01*
X2538Y2412D02*
X2559Y2412D01*
X2593Y2412D02*
X2614Y2412D01*
X2638Y2412D02*
X2659Y2412D01*
X2693Y2412D02*
X2714Y2412D01*
X2738Y2412D02*
X2759Y2412D01*
X2793Y2412D02*
X2814Y2412D01*
X2838Y2412D02*
X2859Y2412D01*
X2893Y2412D02*
X2914Y2412D01*
X2938Y2412D02*
X2959Y2412D01*
X1593Y2411D02*
X1613Y2411D01*
X1639Y2411D02*
X1659Y2411D01*
X1693Y2411D02*
X1713Y2411D01*
X1739Y2411D02*
X1759Y2411D01*
X1793Y2411D02*
X1813Y2411D01*
X1839Y2411D02*
X1859Y2411D01*
X1893Y2411D02*
X1913Y2411D01*
X1939Y2411D02*
X1959Y2411D01*
X1993Y2411D02*
X2013Y2411D01*
X2039Y2411D02*
X2059Y2411D01*
X2093Y2411D02*
X2113Y2411D01*
X2139Y2411D02*
X2159Y2411D01*
X2193Y2411D02*
X2213Y2411D01*
X2239Y2411D02*
X2259Y2411D01*
X2292Y2411D02*
X2313Y2411D01*
X2339Y2411D02*
X2359Y2411D01*
X2392Y2411D02*
X2413Y2411D01*
X2439Y2411D02*
X2459Y2411D01*
X2492Y2411D02*
X2513Y2411D01*
X2539Y2411D02*
X2559Y2411D01*
X2592Y2411D02*
X2613Y2411D01*
X2639Y2411D02*
X2659Y2411D01*
X2692Y2411D02*
X2713Y2411D01*
X2739Y2411D02*
X2759Y2411D01*
X2792Y2411D02*
X2813Y2411D01*
X2839Y2411D02*
X2859Y2411D01*
X2892Y2411D02*
X2913Y2411D01*
X2938Y2411D02*
X2959Y2411D01*
X1592Y2410D02*
X1612Y2410D01*
X1639Y2410D02*
X1659Y2410D01*
X1692Y2410D02*
X1712Y2410D01*
X1739Y2410D02*
X1759Y2410D01*
X1792Y2410D02*
X1812Y2410D01*
X1839Y2410D02*
X1859Y2410D01*
X1892Y2410D02*
X1912Y2410D01*
X1939Y2410D02*
X1959Y2410D01*
X1992Y2410D02*
X2012Y2410D01*
X2039Y2410D02*
X2059Y2410D01*
X2092Y2410D02*
X2112Y2410D01*
X2139Y2410D02*
X2159Y2410D01*
X2192Y2410D02*
X2212Y2410D01*
X2239Y2410D02*
X2259Y2410D01*
X2292Y2410D02*
X2312Y2410D01*
X2339Y2410D02*
X2359Y2410D01*
X2392Y2410D02*
X2412Y2410D01*
X2439Y2410D02*
X2459Y2410D01*
X2492Y2410D02*
X2512Y2410D01*
X2539Y2410D02*
X2559Y2410D01*
X2592Y2410D02*
X2612Y2410D01*
X2639Y2410D02*
X2659Y2410D01*
X2692Y2410D02*
X2712Y2410D01*
X2739Y2410D02*
X2759Y2410D01*
X2792Y2410D02*
X2812Y2410D01*
X2839Y2410D02*
X2859Y2410D01*
X2892Y2410D02*
X2912Y2410D01*
X2939Y2410D02*
X2959Y2410D01*
X1592Y2409D02*
X1612Y2409D01*
X1640Y2409D02*
X1660Y2409D01*
X1692Y2409D02*
X1712Y2409D01*
X1740Y2409D02*
X1760Y2409D01*
X1792Y2409D02*
X1812Y2409D01*
X1840Y2409D02*
X1860Y2409D01*
X1892Y2409D02*
X1912Y2409D01*
X1940Y2409D02*
X1960Y2409D01*
X1992Y2409D02*
X2012Y2409D01*
X2040Y2409D02*
X2060Y2409D01*
X2092Y2409D02*
X2112Y2409D01*
X2140Y2409D02*
X2160Y2409D01*
X2192Y2409D02*
X2212Y2409D01*
X2240Y2409D02*
X2260Y2409D01*
X2292Y2409D02*
X2312Y2409D01*
X2340Y2409D02*
X2359Y2409D01*
X2392Y2409D02*
X2412Y2409D01*
X2440Y2409D02*
X2459Y2409D01*
X2492Y2409D02*
X2512Y2409D01*
X2540Y2409D02*
X2559Y2409D01*
X2592Y2409D02*
X2612Y2409D01*
X2640Y2409D02*
X2659Y2409D01*
X2692Y2409D02*
X2712Y2409D01*
X2740Y2409D02*
X2759Y2409D01*
X2792Y2409D02*
X2812Y2409D01*
X2840Y2409D02*
X2859Y2409D01*
X2892Y2409D02*
X2912Y2409D01*
X2940Y2409D02*
X2959Y2409D01*
X1592Y2408D02*
X1611Y2408D01*
X1640Y2408D02*
X1660Y2408D01*
X1692Y2408D02*
X1711Y2408D01*
X1740Y2408D02*
X1760Y2408D01*
X1792Y2408D02*
X1811Y2408D01*
X1840Y2408D02*
X1860Y2408D01*
X1892Y2408D02*
X1911Y2408D01*
X1940Y2408D02*
X1960Y2408D01*
X1992Y2408D02*
X2011Y2408D01*
X2040Y2408D02*
X2060Y2408D01*
X2092Y2408D02*
X2111Y2408D01*
X2140Y2408D02*
X2160Y2408D01*
X2192Y2408D02*
X2211Y2408D01*
X2240Y2408D02*
X2260Y2408D01*
X2292Y2408D02*
X2311Y2408D01*
X2340Y2408D02*
X2360Y2408D01*
X2392Y2408D02*
X2411Y2408D01*
X2440Y2408D02*
X2460Y2408D01*
X2492Y2408D02*
X2511Y2408D01*
X2540Y2408D02*
X2560Y2408D01*
X2592Y2408D02*
X2611Y2408D01*
X2640Y2408D02*
X2660Y2408D01*
X2692Y2408D02*
X2711Y2408D01*
X2740Y2408D02*
X2760Y2408D01*
X2792Y2408D02*
X2811Y2408D01*
X2840Y2408D02*
X2860Y2408D01*
X2892Y2408D02*
X2911Y2408D01*
X2940Y2408D02*
X2960Y2408D01*
X1592Y2407D02*
X1611Y2407D01*
X1641Y2407D02*
X1660Y2407D01*
X1692Y2407D02*
X1711Y2407D01*
X1741Y2407D02*
X1760Y2407D01*
X1792Y2407D02*
X1811Y2407D01*
X1841Y2407D02*
X1860Y2407D01*
X1892Y2407D02*
X1911Y2407D01*
X1941Y2407D02*
X1960Y2407D01*
X1992Y2407D02*
X2011Y2407D01*
X2041Y2407D02*
X2060Y2407D01*
X2092Y2407D02*
X2111Y2407D01*
X2141Y2407D02*
X2160Y2407D01*
X2192Y2407D02*
X2211Y2407D01*
X2241Y2407D02*
X2260Y2407D01*
X2292Y2407D02*
X2311Y2407D01*
X2341Y2407D02*
X2360Y2407D01*
X2392Y2407D02*
X2411Y2407D01*
X2441Y2407D02*
X2460Y2407D01*
X2492Y2407D02*
X2511Y2407D01*
X2541Y2407D02*
X2560Y2407D01*
X2592Y2407D02*
X2611Y2407D01*
X2641Y2407D02*
X2660Y2407D01*
X2692Y2407D02*
X2711Y2407D01*
X2741Y2407D02*
X2760Y2407D01*
X2792Y2407D02*
X2811Y2407D01*
X2841Y2407D02*
X2860Y2407D01*
X2892Y2407D02*
X2911Y2407D01*
X2941Y2407D02*
X2960Y2407D01*
X1592Y2406D02*
X1611Y2406D01*
X1641Y2406D02*
X1660Y2406D01*
X1692Y2406D02*
X1711Y2406D01*
X1741Y2406D02*
X1760Y2406D01*
X1792Y2406D02*
X1811Y2406D01*
X1841Y2406D02*
X1860Y2406D01*
X1892Y2406D02*
X1911Y2406D01*
X1941Y2406D02*
X1960Y2406D01*
X1992Y2406D02*
X2011Y2406D01*
X2041Y2406D02*
X2060Y2406D01*
X2092Y2406D02*
X2111Y2406D01*
X2141Y2406D02*
X2160Y2406D01*
X2192Y2406D02*
X2211Y2406D01*
X2241Y2406D02*
X2260Y2406D01*
X2291Y2406D02*
X2311Y2406D01*
X2341Y2406D02*
X2360Y2406D01*
X2391Y2406D02*
X2411Y2406D01*
X2441Y2406D02*
X2460Y2406D01*
X2491Y2406D02*
X2511Y2406D01*
X2541Y2406D02*
X2560Y2406D01*
X2591Y2406D02*
X2611Y2406D01*
X2641Y2406D02*
X2660Y2406D01*
X2691Y2406D02*
X2711Y2406D01*
X2741Y2406D02*
X2760Y2406D01*
X2791Y2406D02*
X2811Y2406D01*
X2841Y2406D02*
X2860Y2406D01*
X2891Y2406D02*
X2910Y2406D01*
X2941Y2406D02*
X2960Y2406D01*
X1592Y2405D02*
X1611Y2405D01*
X1641Y2405D02*
X1660Y2405D01*
X1691Y2405D02*
X1711Y2405D01*
X1741Y2405D02*
X1760Y2405D01*
X1791Y2405D02*
X1811Y2405D01*
X1841Y2405D02*
X1860Y2405D01*
X1891Y2405D02*
X1911Y2405D01*
X1941Y2405D02*
X1960Y2405D01*
X1991Y2405D02*
X2010Y2405D01*
X2041Y2405D02*
X2060Y2405D01*
X2091Y2405D02*
X2110Y2405D01*
X2141Y2405D02*
X2160Y2405D01*
X2191Y2405D02*
X2210Y2405D01*
X2241Y2405D02*
X2260Y2405D01*
X2291Y2405D02*
X2310Y2405D01*
X2341Y2405D02*
X2360Y2405D01*
X2391Y2405D02*
X2410Y2405D01*
X2441Y2405D02*
X2460Y2405D01*
X2491Y2405D02*
X2510Y2405D01*
X2541Y2405D02*
X2560Y2405D01*
X2591Y2405D02*
X2610Y2405D01*
X2641Y2405D02*
X2660Y2405D01*
X2691Y2405D02*
X2710Y2405D01*
X2741Y2405D02*
X2760Y2405D01*
X2791Y2405D02*
X2810Y2405D01*
X2841Y2405D02*
X2860Y2405D01*
X2891Y2405D02*
X2910Y2405D01*
X2941Y2405D02*
X2960Y2405D01*
X1591Y2404D02*
X1610Y2404D01*
X1641Y2404D02*
X1660Y2404D01*
X1691Y2404D02*
X1710Y2404D01*
X1741Y2404D02*
X1760Y2404D01*
X1791Y2404D02*
X1810Y2404D01*
X1841Y2404D02*
X1860Y2404D01*
X1891Y2404D02*
X1910Y2404D01*
X1941Y2404D02*
X1960Y2404D01*
X1991Y2404D02*
X2010Y2404D01*
X2041Y2404D02*
X2060Y2404D01*
X2091Y2404D02*
X2110Y2404D01*
X2141Y2404D02*
X2160Y2404D01*
X2191Y2404D02*
X2210Y2404D01*
X2241Y2404D02*
X2260Y2404D01*
X2291Y2404D02*
X2310Y2404D01*
X2341Y2404D02*
X2360Y2404D01*
X2391Y2404D02*
X2410Y2404D01*
X2441Y2404D02*
X2460Y2404D01*
X2491Y2404D02*
X2510Y2404D01*
X2541Y2404D02*
X2560Y2404D01*
X2591Y2404D02*
X2610Y2404D01*
X2641Y2404D02*
X2660Y2404D01*
X2691Y2404D02*
X2710Y2404D01*
X2741Y2404D02*
X2760Y2404D01*
X2791Y2404D02*
X2810Y2404D01*
X2841Y2404D02*
X2860Y2404D01*
X2891Y2404D02*
X2910Y2404D01*
X2941Y2404D02*
X2960Y2404D01*
X1591Y2403D02*
X1610Y2403D01*
X1641Y2403D02*
X1660Y2403D01*
X1691Y2403D02*
X1710Y2403D01*
X1741Y2403D02*
X1760Y2403D01*
X1791Y2403D02*
X1810Y2403D01*
X1841Y2403D02*
X1860Y2403D01*
X1891Y2403D02*
X1910Y2403D01*
X1941Y2403D02*
X1960Y2403D01*
X1991Y2403D02*
X2010Y2403D01*
X2041Y2403D02*
X2060Y2403D01*
X2091Y2403D02*
X2110Y2403D01*
X2141Y2403D02*
X2160Y2403D01*
X2191Y2403D02*
X2210Y2403D01*
X2241Y2403D02*
X2260Y2403D01*
X2291Y2403D02*
X2310Y2403D01*
X2341Y2403D02*
X2360Y2403D01*
X2391Y2403D02*
X2410Y2403D01*
X2441Y2403D02*
X2460Y2403D01*
X2491Y2403D02*
X2510Y2403D01*
X2541Y2403D02*
X2560Y2403D01*
X2591Y2403D02*
X2610Y2403D01*
X2641Y2403D02*
X2660Y2403D01*
X2691Y2403D02*
X2710Y2403D01*
X2741Y2403D02*
X2760Y2403D01*
X2791Y2403D02*
X2810Y2403D01*
X2841Y2403D02*
X2860Y2403D01*
X2891Y2403D02*
X2910Y2403D01*
X2941Y2403D02*
X2960Y2403D01*
X1591Y2402D02*
X1610Y2402D01*
X1641Y2402D02*
X1660Y2402D01*
X1691Y2402D02*
X1710Y2402D01*
X1741Y2402D02*
X1760Y2402D01*
X1791Y2402D02*
X1810Y2402D01*
X1841Y2402D02*
X1860Y2402D01*
X1891Y2402D02*
X1910Y2402D01*
X1941Y2402D02*
X1960Y2402D01*
X1991Y2402D02*
X2010Y2402D01*
X2041Y2402D02*
X2060Y2402D01*
X2091Y2402D02*
X2110Y2402D01*
X2141Y2402D02*
X2160Y2402D01*
X2191Y2402D02*
X2210Y2402D01*
X2241Y2402D02*
X2260Y2402D01*
X2291Y2402D02*
X2310Y2402D01*
X2341Y2402D02*
X2360Y2402D01*
X2391Y2402D02*
X2410Y2402D01*
X2441Y2402D02*
X2460Y2402D01*
X2491Y2402D02*
X2510Y2402D01*
X2541Y2402D02*
X2560Y2402D01*
X2591Y2402D02*
X2610Y2402D01*
X2641Y2402D02*
X2660Y2402D01*
X2691Y2402D02*
X2710Y2402D01*
X2741Y2402D02*
X2760Y2402D01*
X2791Y2402D02*
X2810Y2402D01*
X2841Y2402D02*
X2860Y2402D01*
X2891Y2402D02*
X2910Y2402D01*
X2941Y2402D02*
X2960Y2402D01*
X1591Y2401D02*
X1610Y2401D01*
X1641Y2401D02*
X1660Y2401D01*
X1691Y2401D02*
X1710Y2401D01*
X1741Y2401D02*
X1760Y2401D01*
X1791Y2401D02*
X1810Y2401D01*
X1841Y2401D02*
X1860Y2401D01*
X1891Y2401D02*
X1910Y2401D01*
X1941Y2401D02*
X1960Y2401D01*
X1991Y2401D02*
X2010Y2401D01*
X2041Y2401D02*
X2060Y2401D01*
X2091Y2401D02*
X2110Y2401D01*
X2141Y2401D02*
X2160Y2401D01*
X2191Y2401D02*
X2210Y2401D01*
X2241Y2401D02*
X2260Y2401D01*
X2291Y2401D02*
X2310Y2401D01*
X2341Y2401D02*
X2360Y2401D01*
X2391Y2401D02*
X2410Y2401D01*
X2441Y2401D02*
X2460Y2401D01*
X2491Y2401D02*
X2510Y2401D01*
X2541Y2401D02*
X2560Y2401D01*
X2591Y2401D02*
X2610Y2401D01*
X2641Y2401D02*
X2660Y2401D01*
X2691Y2401D02*
X2710Y2401D01*
X2741Y2401D02*
X2760Y2401D01*
X2791Y2401D02*
X2810Y2401D01*
X2841Y2401D02*
X2860Y2401D01*
X2891Y2401D02*
X2910Y2401D01*
X2941Y2401D02*
X2960Y2401D01*
X1591Y2400D02*
X1611Y2400D01*
X1641Y2400D02*
X1660Y2400D01*
X1691Y2400D02*
X1711Y2400D01*
X1741Y2400D02*
X1760Y2400D01*
X1791Y2400D02*
X1811Y2400D01*
X1841Y2400D02*
X1860Y2400D01*
X1891Y2400D02*
X1910Y2400D01*
X1941Y2400D02*
X1960Y2400D01*
X1991Y2400D02*
X2010Y2400D01*
X2041Y2400D02*
X2060Y2400D01*
X2091Y2400D02*
X2110Y2400D01*
X2141Y2400D02*
X2160Y2400D01*
X2191Y2400D02*
X2210Y2400D01*
X2241Y2400D02*
X2260Y2400D01*
X2291Y2400D02*
X2310Y2400D01*
X2341Y2400D02*
X2360Y2400D01*
X2391Y2400D02*
X2410Y2400D01*
X2441Y2400D02*
X2460Y2400D01*
X2491Y2400D02*
X2510Y2400D01*
X2541Y2400D02*
X2560Y2400D01*
X2591Y2400D02*
X2610Y2400D01*
X2641Y2400D02*
X2660Y2400D01*
X2691Y2400D02*
X2710Y2400D01*
X2741Y2400D02*
X2760Y2400D01*
X2791Y2400D02*
X2810Y2400D01*
X2841Y2400D02*
X2860Y2400D01*
X2891Y2400D02*
X2910Y2400D01*
X2941Y2400D02*
X2960Y2400D01*
X1592Y2399D02*
X1611Y2399D01*
X1641Y2399D02*
X1660Y2399D01*
X1692Y2399D02*
X1711Y2399D01*
X1741Y2399D02*
X1760Y2399D01*
X1792Y2399D02*
X1811Y2399D01*
X1841Y2399D02*
X1860Y2399D01*
X1892Y2399D02*
X1911Y2399D01*
X1941Y2399D02*
X1960Y2399D01*
X1992Y2399D02*
X2011Y2399D01*
X2041Y2399D02*
X2060Y2399D01*
X2091Y2399D02*
X2111Y2399D01*
X2141Y2399D02*
X2160Y2399D01*
X2191Y2399D02*
X2211Y2399D01*
X2241Y2399D02*
X2260Y2399D01*
X2291Y2399D02*
X2311Y2399D01*
X2341Y2399D02*
X2360Y2399D01*
X2391Y2399D02*
X2411Y2399D01*
X2441Y2399D02*
X2460Y2399D01*
X2491Y2399D02*
X2511Y2399D01*
X2541Y2399D02*
X2560Y2399D01*
X2591Y2399D02*
X2610Y2399D01*
X2641Y2399D02*
X2660Y2399D01*
X2691Y2399D02*
X2710Y2399D01*
X2741Y2399D02*
X2760Y2399D01*
X2791Y2399D02*
X2810Y2399D01*
X2841Y2399D02*
X2860Y2399D01*
X2891Y2399D02*
X2910Y2399D01*
X2941Y2399D02*
X2960Y2399D01*
X1592Y2398D02*
X1611Y2398D01*
X1641Y2398D02*
X1660Y2398D01*
X1692Y2398D02*
X1711Y2398D01*
X1741Y2398D02*
X1760Y2398D01*
X1792Y2398D02*
X1811Y2398D01*
X1841Y2398D02*
X1860Y2398D01*
X1892Y2398D02*
X1911Y2398D01*
X1941Y2398D02*
X1960Y2398D01*
X1992Y2398D02*
X2011Y2398D01*
X2041Y2398D02*
X2060Y2398D01*
X2092Y2398D02*
X2111Y2398D01*
X2141Y2398D02*
X2160Y2398D01*
X2192Y2398D02*
X2211Y2398D01*
X2241Y2398D02*
X2260Y2398D01*
X2292Y2398D02*
X2311Y2398D01*
X2341Y2398D02*
X2360Y2398D01*
X2392Y2398D02*
X2411Y2398D01*
X2441Y2398D02*
X2460Y2398D01*
X2492Y2398D02*
X2511Y2398D01*
X2541Y2398D02*
X2560Y2398D01*
X2592Y2398D02*
X2611Y2398D01*
X2641Y2398D02*
X2660Y2398D01*
X2692Y2398D02*
X2711Y2398D01*
X2741Y2398D02*
X2760Y2398D01*
X2792Y2398D02*
X2811Y2398D01*
X2841Y2398D02*
X2860Y2398D01*
X2892Y2398D02*
X2911Y2398D01*
X2941Y2398D02*
X2960Y2398D01*
X1592Y2397D02*
X1611Y2397D01*
X1640Y2397D02*
X1660Y2397D01*
X1692Y2397D02*
X1711Y2397D01*
X1740Y2397D02*
X1760Y2397D01*
X1792Y2397D02*
X1811Y2397D01*
X1840Y2397D02*
X1860Y2397D01*
X1892Y2397D02*
X1911Y2397D01*
X1940Y2397D02*
X1960Y2397D01*
X1992Y2397D02*
X2011Y2397D01*
X2040Y2397D02*
X2060Y2397D01*
X2092Y2397D02*
X2111Y2397D01*
X2140Y2397D02*
X2160Y2397D01*
X2192Y2397D02*
X2211Y2397D01*
X2240Y2397D02*
X2260Y2397D01*
X2292Y2397D02*
X2311Y2397D01*
X2340Y2397D02*
X2360Y2397D01*
X2392Y2397D02*
X2411Y2397D01*
X2440Y2397D02*
X2460Y2397D01*
X2492Y2397D02*
X2511Y2397D01*
X2540Y2397D02*
X2560Y2397D01*
X2592Y2397D02*
X2611Y2397D01*
X2640Y2397D02*
X2660Y2397D01*
X2692Y2397D02*
X2711Y2397D01*
X2740Y2397D02*
X2760Y2397D01*
X2792Y2397D02*
X2811Y2397D01*
X2840Y2397D02*
X2860Y2397D01*
X2892Y2397D02*
X2911Y2397D01*
X2940Y2397D02*
X2960Y2397D01*
X1592Y2396D02*
X1612Y2396D01*
X1640Y2396D02*
X1660Y2396D01*
X1692Y2396D02*
X1712Y2396D01*
X1740Y2396D02*
X1760Y2396D01*
X1792Y2396D02*
X1812Y2396D01*
X1840Y2396D02*
X1860Y2396D01*
X1892Y2396D02*
X1912Y2396D01*
X1940Y2396D02*
X1960Y2396D01*
X1992Y2396D02*
X2012Y2396D01*
X2040Y2396D02*
X2060Y2396D01*
X2092Y2396D02*
X2112Y2396D01*
X2140Y2396D02*
X2160Y2396D01*
X2192Y2396D02*
X2212Y2396D01*
X2240Y2396D02*
X2260Y2396D01*
X2292Y2396D02*
X2312Y2396D01*
X2340Y2396D02*
X2360Y2396D01*
X2392Y2396D02*
X2412Y2396D01*
X2440Y2396D02*
X2460Y2396D01*
X2492Y2396D02*
X2511Y2396D01*
X2540Y2396D02*
X2560Y2396D01*
X2592Y2396D02*
X2611Y2396D01*
X2640Y2396D02*
X2659Y2396D01*
X2692Y2396D02*
X2711Y2396D01*
X2740Y2396D02*
X2759Y2396D01*
X2792Y2396D02*
X2811Y2396D01*
X2840Y2396D02*
X2859Y2396D01*
X2892Y2396D02*
X2911Y2396D01*
X2940Y2396D02*
X2959Y2396D01*
X1592Y2395D02*
X1612Y2395D01*
X1639Y2395D02*
X1659Y2395D01*
X1692Y2395D02*
X1712Y2395D01*
X1739Y2395D02*
X1759Y2395D01*
X1792Y2395D02*
X1812Y2395D01*
X1839Y2395D02*
X1859Y2395D01*
X1892Y2395D02*
X1912Y2395D01*
X1939Y2395D02*
X1959Y2395D01*
X1992Y2395D02*
X2012Y2395D01*
X2039Y2395D02*
X2059Y2395D01*
X2092Y2395D02*
X2112Y2395D01*
X2139Y2395D02*
X2159Y2395D01*
X2192Y2395D02*
X2212Y2395D01*
X2239Y2395D02*
X2259Y2395D01*
X2292Y2395D02*
X2312Y2395D01*
X2339Y2395D02*
X2359Y2395D01*
X2392Y2395D02*
X2412Y2395D01*
X2439Y2395D02*
X2459Y2395D01*
X2492Y2395D02*
X2512Y2395D01*
X2539Y2395D02*
X2559Y2395D01*
X2592Y2395D02*
X2612Y2395D01*
X2639Y2395D02*
X2659Y2395D01*
X2692Y2395D02*
X2712Y2395D01*
X2739Y2395D02*
X2759Y2395D01*
X2792Y2395D02*
X2812Y2395D01*
X2839Y2395D02*
X2859Y2395D01*
X2892Y2395D02*
X2912Y2395D01*
X2939Y2395D02*
X2959Y2395D01*
X1593Y2394D02*
X1613Y2394D01*
X1639Y2394D02*
X1659Y2394D01*
X1693Y2394D02*
X1713Y2394D01*
X1739Y2394D02*
X1759Y2394D01*
X1793Y2394D02*
X1813Y2394D01*
X1839Y2394D02*
X1859Y2394D01*
X1893Y2394D02*
X1913Y2394D01*
X1939Y2394D02*
X1959Y2394D01*
X1992Y2394D02*
X2013Y2394D01*
X2039Y2394D02*
X2059Y2394D01*
X2092Y2394D02*
X2113Y2394D01*
X2139Y2394D02*
X2159Y2394D01*
X2192Y2394D02*
X2213Y2394D01*
X2239Y2394D02*
X2259Y2394D01*
X2292Y2394D02*
X2313Y2394D01*
X2339Y2394D02*
X2359Y2394D01*
X2392Y2394D02*
X2413Y2394D01*
X2439Y2394D02*
X2459Y2394D01*
X2492Y2394D02*
X2513Y2394D01*
X2539Y2394D02*
X2559Y2394D01*
X2592Y2394D02*
X2613Y2394D01*
X2639Y2394D02*
X2659Y2394D01*
X2692Y2394D02*
X2713Y2394D01*
X2739Y2394D02*
X2759Y2394D01*
X2792Y2394D02*
X2813Y2394D01*
X2839Y2394D02*
X2859Y2394D01*
X2892Y2394D02*
X2913Y2394D01*
X2939Y2394D02*
X2959Y2394D01*
X1593Y2393D02*
X1614Y2393D01*
X1638Y2393D02*
X1659Y2393D01*
X1693Y2393D02*
X1714Y2393D01*
X1738Y2393D02*
X1759Y2393D01*
X1793Y2393D02*
X1814Y2393D01*
X1838Y2393D02*
X1859Y2393D01*
X1893Y2393D02*
X1914Y2393D01*
X1938Y2393D02*
X1959Y2393D01*
X1993Y2393D02*
X2014Y2393D01*
X2038Y2393D02*
X2059Y2393D01*
X2093Y2393D02*
X2114Y2393D01*
X2138Y2393D02*
X2159Y2393D01*
X2193Y2393D02*
X2214Y2393D01*
X2238Y2393D02*
X2259Y2393D01*
X2293Y2393D02*
X2314Y2393D01*
X2338Y2393D02*
X2359Y2393D01*
X2393Y2393D02*
X2414Y2393D01*
X2438Y2393D02*
X2459Y2393D01*
X2493Y2393D02*
X2514Y2393D01*
X2538Y2393D02*
X2559Y2393D01*
X2593Y2393D02*
X2614Y2393D01*
X2638Y2393D02*
X2659Y2393D01*
X2693Y2393D02*
X2713Y2393D01*
X2738Y2393D02*
X2759Y2393D01*
X2793Y2393D02*
X2813Y2393D01*
X2838Y2393D02*
X2859Y2393D01*
X2893Y2393D02*
X2913Y2393D01*
X2938Y2393D02*
X2959Y2393D01*
X1593Y2392D02*
X1615Y2392D01*
X1637Y2392D02*
X1659Y2392D01*
X1693Y2392D02*
X1715Y2392D01*
X1737Y2392D02*
X1759Y2392D01*
X1793Y2392D02*
X1815Y2392D01*
X1837Y2392D02*
X1859Y2392D01*
X1893Y2392D02*
X1915Y2392D01*
X1937Y2392D02*
X1959Y2392D01*
X1993Y2392D02*
X2015Y2392D01*
X2037Y2392D02*
X2059Y2392D01*
X2093Y2392D02*
X2114Y2392D01*
X2137Y2392D02*
X2159Y2392D01*
X2193Y2392D02*
X2214Y2392D01*
X2237Y2392D02*
X2258Y2392D01*
X2293Y2392D02*
X2314Y2392D01*
X2337Y2392D02*
X2358Y2392D01*
X2393Y2392D02*
X2414Y2392D01*
X2437Y2392D02*
X2458Y2392D01*
X2493Y2392D02*
X2514Y2392D01*
X2537Y2392D02*
X2558Y2392D01*
X2593Y2392D02*
X2614Y2392D01*
X2637Y2392D02*
X2658Y2392D01*
X2693Y2392D02*
X2714Y2392D01*
X2737Y2392D02*
X2758Y2392D01*
X2793Y2392D02*
X2814Y2392D01*
X2837Y2392D02*
X2858Y2392D01*
X2893Y2392D02*
X2914Y2392D01*
X2937Y2392D02*
X2958Y2392D01*
X1593Y2391D02*
X1616Y2391D01*
X1636Y2391D02*
X1658Y2391D01*
X1693Y2391D02*
X1716Y2391D01*
X1736Y2391D02*
X1758Y2391D01*
X1793Y2391D02*
X1816Y2391D01*
X1836Y2391D02*
X1858Y2391D01*
X1893Y2391D02*
X1916Y2391D01*
X1936Y2391D02*
X1958Y2391D01*
X1993Y2391D02*
X2016Y2391D01*
X2036Y2391D02*
X2058Y2391D01*
X2093Y2391D02*
X2116Y2391D01*
X2136Y2391D02*
X2158Y2391D01*
X2193Y2391D02*
X2216Y2391D01*
X2236Y2391D02*
X2258Y2391D01*
X2293Y2391D02*
X2316Y2391D01*
X2336Y2391D02*
X2358Y2391D01*
X2393Y2391D02*
X2416Y2391D01*
X2436Y2391D02*
X2458Y2391D01*
X2493Y2391D02*
X2515Y2391D01*
X2536Y2391D02*
X2558Y2391D01*
X2593Y2391D02*
X2615Y2391D01*
X2636Y2391D02*
X2658Y2391D01*
X2693Y2391D02*
X2715Y2391D01*
X2736Y2391D02*
X2758Y2391D01*
X2793Y2391D02*
X2815Y2391D01*
X2836Y2391D02*
X2858Y2391D01*
X2893Y2391D02*
X2915Y2391D01*
X2936Y2391D02*
X2958Y2391D01*
X1594Y2390D02*
X1617Y2390D01*
X1635Y2390D02*
X1658Y2390D01*
X1694Y2390D02*
X1717Y2390D01*
X1735Y2390D02*
X1758Y2390D01*
X1794Y2390D02*
X1817Y2390D01*
X1835Y2390D02*
X1858Y2390D01*
X1894Y2390D02*
X1917Y2390D01*
X1935Y2390D02*
X1958Y2390D01*
X1994Y2390D02*
X2017Y2390D01*
X2035Y2390D02*
X2058Y2390D01*
X2094Y2390D02*
X2117Y2390D01*
X2135Y2390D02*
X2158Y2390D01*
X2194Y2390D02*
X2217Y2390D01*
X2235Y2390D02*
X2258Y2390D01*
X2294Y2390D02*
X2317Y2390D01*
X2335Y2390D02*
X2358Y2390D01*
X2394Y2390D02*
X2417Y2390D01*
X2435Y2390D02*
X2458Y2390D01*
X2494Y2390D02*
X2517Y2390D01*
X2535Y2390D02*
X2558Y2390D01*
X2594Y2390D02*
X2617Y2390D01*
X2635Y2390D02*
X2658Y2390D01*
X2694Y2390D02*
X2717Y2390D01*
X2735Y2390D02*
X2758Y2390D01*
X2794Y2390D02*
X2817Y2390D01*
X2835Y2390D02*
X2858Y2390D01*
X2894Y2390D02*
X2917Y2390D01*
X2935Y2390D02*
X2958Y2390D01*
X1594Y2389D02*
X1618Y2389D01*
X1633Y2389D02*
X1657Y2389D01*
X1694Y2389D02*
X1718Y2389D01*
X1733Y2389D02*
X1757Y2389D01*
X1794Y2389D02*
X1818Y2389D01*
X1833Y2389D02*
X1857Y2389D01*
X1894Y2389D02*
X1918Y2389D01*
X1933Y2389D02*
X1957Y2389D01*
X1994Y2389D02*
X2018Y2389D01*
X2033Y2389D02*
X2057Y2389D01*
X2094Y2389D02*
X2118Y2389D01*
X2133Y2389D02*
X2157Y2389D01*
X2194Y2389D02*
X2218Y2389D01*
X2233Y2389D02*
X2257Y2389D01*
X2294Y2389D02*
X2318Y2389D01*
X2333Y2389D02*
X2357Y2389D01*
X2394Y2389D02*
X2418Y2389D01*
X2433Y2389D02*
X2457Y2389D01*
X2494Y2389D02*
X2518Y2389D01*
X2533Y2389D02*
X2557Y2389D01*
X2594Y2389D02*
X2618Y2389D01*
X2633Y2389D02*
X2657Y2389D01*
X2694Y2389D02*
X2718Y2389D01*
X2733Y2389D02*
X2757Y2389D01*
X2794Y2389D02*
X2818Y2389D01*
X2833Y2389D02*
X2857Y2389D01*
X2894Y2389D02*
X2918Y2389D01*
X2933Y2389D02*
X2957Y2389D01*
X1595Y2388D02*
X1621Y2388D01*
X1631Y2388D02*
X1657Y2388D01*
X1695Y2388D02*
X1721Y2388D01*
X1731Y2388D02*
X1757Y2388D01*
X1795Y2388D02*
X1821Y2388D01*
X1831Y2388D02*
X1857Y2388D01*
X1895Y2388D02*
X1921Y2388D01*
X1931Y2388D02*
X1957Y2388D01*
X1995Y2388D02*
X2021Y2388D01*
X2031Y2388D02*
X2057Y2388D01*
X2095Y2388D02*
X2121Y2388D01*
X2131Y2388D02*
X2157Y2388D01*
X2195Y2388D02*
X2221Y2388D01*
X2231Y2388D02*
X2257Y2388D01*
X2295Y2388D02*
X2321Y2388D01*
X2331Y2388D02*
X2357Y2388D01*
X2395Y2388D02*
X2421Y2388D01*
X2431Y2388D02*
X2457Y2388D01*
X2495Y2388D02*
X2521Y2388D01*
X2531Y2388D02*
X2557Y2388D01*
X2595Y2388D02*
X2621Y2388D01*
X2631Y2388D02*
X2657Y2388D01*
X2695Y2388D02*
X2721Y2388D01*
X2731Y2388D02*
X2757Y2388D01*
X2794Y2388D02*
X2821Y2388D01*
X2831Y2388D02*
X2857Y2388D01*
X2894Y2388D02*
X2921Y2388D01*
X2931Y2388D02*
X2957Y2388D01*
X1595Y2387D02*
X1657Y2387D01*
X1695Y2387D02*
X1757Y2387D01*
X1795Y2387D02*
X1857Y2387D01*
X1895Y2387D02*
X1956Y2387D01*
X1995Y2387D02*
X2056Y2387D01*
X2095Y2387D02*
X2156Y2387D01*
X2195Y2387D02*
X2256Y2387D01*
X2295Y2387D02*
X2356Y2387D01*
X2395Y2387D02*
X2456Y2387D01*
X2495Y2387D02*
X2556Y2387D01*
X2595Y2387D02*
X2656Y2387D01*
X2695Y2387D02*
X2756Y2387D01*
X2795Y2387D02*
X2856Y2387D01*
X2895Y2387D02*
X2956Y2387D01*
X1596Y2386D02*
X1656Y2386D01*
X1696Y2386D02*
X1756Y2386D01*
X1796Y2386D02*
X1856Y2386D01*
X1896Y2386D02*
X1956Y2386D01*
X1996Y2386D02*
X2056Y2386D01*
X2096Y2386D02*
X2156Y2386D01*
X2196Y2386D02*
X2256Y2386D01*
X2296Y2386D02*
X2356Y2386D01*
X2396Y2386D02*
X2456Y2386D01*
X2495Y2386D02*
X2556Y2386D01*
X2595Y2386D02*
X2656Y2386D01*
X2695Y2386D02*
X2756Y2386D01*
X2795Y2386D02*
X2856Y2386D01*
X2895Y2386D02*
X2956Y2386D01*
X1596Y2385D02*
X1656Y2385D01*
X1696Y2385D02*
X1756Y2385D01*
X1796Y2385D02*
X1855Y2385D01*
X1896Y2385D02*
X1955Y2385D01*
X1996Y2385D02*
X2055Y2385D01*
X2096Y2385D02*
X2155Y2385D01*
X2196Y2385D02*
X2255Y2385D01*
X2296Y2385D02*
X2355Y2385D01*
X2396Y2385D02*
X2455Y2385D01*
X2496Y2385D02*
X2555Y2385D01*
X2596Y2385D02*
X2655Y2385D01*
X2696Y2385D02*
X2755Y2385D01*
X2796Y2385D02*
X2855Y2385D01*
X2896Y2385D02*
X2955Y2385D01*
X1597Y2384D02*
X1655Y2384D01*
X1697Y2384D02*
X1755Y2384D01*
X1797Y2384D02*
X1855Y2384D01*
X1897Y2384D02*
X1955Y2384D01*
X1997Y2384D02*
X2055Y2384D01*
X2097Y2384D02*
X2155Y2384D01*
X2197Y2384D02*
X2255Y2384D01*
X2297Y2384D02*
X2355Y2384D01*
X2397Y2384D02*
X2455Y2384D01*
X2497Y2384D02*
X2555Y2384D01*
X2597Y2384D02*
X2655Y2384D01*
X2697Y2384D02*
X2755Y2384D01*
X2797Y2384D02*
X2855Y2384D01*
X2897Y2384D02*
X2955Y2384D01*
X1597Y2383D02*
X1654Y2383D01*
X1697Y2383D02*
X1754Y2383D01*
X1797Y2383D02*
X1854Y2383D01*
X1897Y2383D02*
X1954Y2383D01*
X1997Y2383D02*
X2054Y2383D01*
X2097Y2383D02*
X2154Y2383D01*
X2197Y2383D02*
X2254Y2383D01*
X2297Y2383D02*
X2354Y2383D01*
X2397Y2383D02*
X2454Y2383D01*
X2497Y2383D02*
X2554Y2383D01*
X2597Y2383D02*
X2654Y2383D01*
X2697Y2383D02*
X2754Y2383D01*
X2797Y2383D02*
X2854Y2383D01*
X2897Y2383D02*
X2954Y2383D01*
X1598Y2382D02*
X1654Y2382D01*
X1698Y2382D02*
X1754Y2382D01*
X1798Y2382D02*
X1854Y2382D01*
X1898Y2382D02*
X1954Y2382D01*
X1998Y2382D02*
X2054Y2382D01*
X2098Y2382D02*
X2154Y2382D01*
X2198Y2382D02*
X2254Y2382D01*
X2298Y2382D02*
X2354Y2382D01*
X2398Y2382D02*
X2454Y2382D01*
X2498Y2382D02*
X2554Y2382D01*
X2598Y2382D02*
X2653Y2382D01*
X2698Y2382D02*
X2753Y2382D01*
X2798Y2382D02*
X2853Y2382D01*
X2898Y2382D02*
X2953Y2382D01*
X1599Y2381D02*
X1653Y2381D01*
X1699Y2381D02*
X1753Y2381D01*
X1799Y2381D02*
X1853Y2381D01*
X1899Y2381D02*
X1953Y2381D01*
X1999Y2381D02*
X2053Y2381D01*
X2099Y2381D02*
X2153Y2381D01*
X2199Y2381D02*
X2253Y2381D01*
X2299Y2381D02*
X2353Y2381D01*
X2399Y2381D02*
X2453Y2381D01*
X2499Y2381D02*
X2553Y2381D01*
X2599Y2381D02*
X2653Y2381D01*
X2699Y2381D02*
X2753Y2381D01*
X2799Y2381D02*
X2853Y2381D01*
X2899Y2381D02*
X2953Y2381D01*
X1600Y2380D02*
X1652Y2380D01*
X1700Y2380D02*
X1752Y2380D01*
X1799Y2380D02*
X1852Y2380D01*
X1899Y2380D02*
X1952Y2380D01*
X1999Y2380D02*
X2052Y2380D01*
X2099Y2380D02*
X2152Y2380D01*
X2199Y2380D02*
X2252Y2380D01*
X2299Y2380D02*
X2352Y2380D01*
X2399Y2380D02*
X2452Y2380D01*
X2499Y2380D02*
X2552Y2380D01*
X2599Y2380D02*
X2652Y2380D01*
X2699Y2380D02*
X2752Y2380D01*
X2799Y2380D02*
X2852Y2380D01*
X2899Y2380D02*
X2952Y2380D01*
X1600Y2379D02*
X1651Y2379D01*
X1700Y2379D02*
X1751Y2379D01*
X1800Y2379D02*
X1851Y2379D01*
X1900Y2379D02*
X1951Y2379D01*
X2000Y2379D02*
X2051Y2379D01*
X2100Y2379D02*
X2151Y2379D01*
X2200Y2379D02*
X2251Y2379D01*
X2300Y2379D02*
X2351Y2379D01*
X2400Y2379D02*
X2451Y2379D01*
X2500Y2379D02*
X2551Y2379D01*
X2600Y2379D02*
X2651Y2379D01*
X2700Y2379D02*
X2751Y2379D01*
X2800Y2379D02*
X2851Y2379D01*
X2900Y2379D02*
X2951Y2379D01*
X1601Y2378D02*
X1650Y2378D01*
X1701Y2378D02*
X1750Y2378D01*
X1801Y2378D02*
X1850Y2378D01*
X1901Y2378D02*
X1950Y2378D01*
X2001Y2378D02*
X2050Y2378D01*
X2101Y2378D02*
X2150Y2378D01*
X2201Y2378D02*
X2250Y2378D01*
X2301Y2378D02*
X2350Y2378D01*
X2401Y2378D02*
X2450Y2378D01*
X2501Y2378D02*
X2550Y2378D01*
X2601Y2378D02*
X2650Y2378D01*
X2701Y2378D02*
X2750Y2378D01*
X2801Y2378D02*
X2850Y2378D01*
X2901Y2378D02*
X2950Y2378D01*
X1602Y2377D02*
X1649Y2377D01*
X1702Y2377D02*
X1749Y2377D01*
X1802Y2377D02*
X1849Y2377D01*
X1902Y2377D02*
X1949Y2377D01*
X2002Y2377D02*
X2049Y2377D01*
X2102Y2377D02*
X2149Y2377D01*
X2202Y2377D02*
X2249Y2377D01*
X2302Y2377D02*
X2349Y2377D01*
X2402Y2377D02*
X2449Y2377D01*
X2502Y2377D02*
X2549Y2377D01*
X2602Y2377D02*
X2649Y2377D01*
X2702Y2377D02*
X2749Y2377D01*
X2802Y2377D02*
X2849Y2377D01*
X2902Y2377D02*
X2949Y2377D01*
X1603Y2376D02*
X1648Y2376D01*
X1703Y2376D02*
X1748Y2376D01*
X1803Y2376D02*
X1848Y2376D01*
X1903Y2376D02*
X1948Y2376D01*
X2003Y2376D02*
X2048Y2376D01*
X2103Y2376D02*
X2148Y2376D01*
X2203Y2376D02*
X2248Y2376D01*
X2303Y2376D02*
X2348Y2376D01*
X2403Y2376D02*
X2448Y2376D01*
X2503Y2376D02*
X2548Y2376D01*
X2603Y2376D02*
X2648Y2376D01*
X2703Y2376D02*
X2748Y2376D01*
X2803Y2376D02*
X2848Y2376D01*
X2903Y2376D02*
X2948Y2376D01*
X1605Y2375D02*
X1647Y2375D01*
X1705Y2375D02*
X1747Y2375D01*
X1805Y2375D02*
X1847Y2375D01*
X1905Y2375D02*
X1947Y2375D01*
X2005Y2375D02*
X2047Y2375D01*
X2105Y2375D02*
X2147Y2375D01*
X2205Y2375D02*
X2247Y2375D01*
X2305Y2375D02*
X2347Y2375D01*
X2405Y2375D02*
X2447Y2375D01*
X2505Y2375D02*
X2547Y2375D01*
X2605Y2375D02*
X2647Y2375D01*
X2705Y2375D02*
X2747Y2375D01*
X2805Y2375D02*
X2847Y2375D01*
X2904Y2375D02*
X2947Y2375D01*
X1606Y2374D02*
X1646Y2374D01*
X1706Y2374D02*
X1746Y2374D01*
X1806Y2374D02*
X1846Y2374D01*
X1906Y2374D02*
X1946Y2374D01*
X2006Y2374D02*
X2046Y2374D01*
X2106Y2374D02*
X2146Y2374D01*
X2206Y2374D02*
X2246Y2374D01*
X2306Y2374D02*
X2346Y2374D01*
X2406Y2374D02*
X2445Y2374D01*
X2506Y2374D02*
X2545Y2374D01*
X2606Y2374D02*
X2645Y2374D01*
X2706Y2374D02*
X2745Y2374D01*
X2806Y2374D02*
X2845Y2374D01*
X2906Y2374D02*
X2945Y2374D01*
X1608Y2373D02*
X1644Y2373D01*
X1708Y2373D02*
X1744Y2373D01*
X1808Y2373D02*
X1844Y2373D01*
X1908Y2373D02*
X1944Y2373D01*
X2008Y2373D02*
X2044Y2373D01*
X2108Y2373D02*
X2144Y2373D01*
X2208Y2373D02*
X2244Y2373D01*
X2308Y2373D02*
X2344Y2373D01*
X2408Y2373D02*
X2444Y2373D01*
X2507Y2373D02*
X2544Y2373D01*
X2607Y2373D02*
X2644Y2373D01*
X2707Y2373D02*
X2744Y2373D01*
X2807Y2373D02*
X2844Y2373D01*
X2907Y2373D02*
X2944Y2373D01*
X1609Y2372D02*
X1642Y2372D01*
X1709Y2372D02*
X1742Y2372D01*
X1809Y2372D02*
X1842Y2372D01*
X1909Y2372D02*
X1942Y2372D01*
X2009Y2372D02*
X2042Y2372D01*
X2109Y2372D02*
X2142Y2372D01*
X2209Y2372D02*
X2242Y2372D01*
X2309Y2372D02*
X2342Y2372D01*
X2409Y2372D02*
X2442Y2372D01*
X2509Y2372D02*
X2542Y2372D01*
X2609Y2372D02*
X2642Y2372D01*
X2709Y2372D02*
X2742Y2372D01*
X2809Y2372D02*
X2842Y2372D01*
X2909Y2372D02*
X2942Y2372D01*
X1611Y2371D02*
X1640Y2371D01*
X1711Y2371D02*
X1740Y2371D01*
X1811Y2371D02*
X1840Y2371D01*
X1911Y2371D02*
X1940Y2371D01*
X2011Y2371D02*
X2040Y2371D01*
X2111Y2371D02*
X2140Y2371D01*
X2211Y2371D02*
X2240Y2371D01*
X2311Y2371D02*
X2340Y2371D01*
X2411Y2371D02*
X2440Y2371D01*
X2511Y2371D02*
X2540Y2371D01*
X2611Y2371D02*
X2640Y2371D01*
X2711Y2371D02*
X2740Y2371D01*
X2811Y2371D02*
X2840Y2371D01*
X2911Y2371D02*
X2940Y2371D01*
X1614Y2370D02*
X1638Y2370D01*
X1714Y2370D02*
X1738Y2370D01*
X1814Y2370D02*
X1838Y2370D01*
X1914Y2370D02*
X1938Y2370D01*
X2014Y2370D02*
X2038Y2370D01*
X2114Y2370D02*
X2138Y2370D01*
X2214Y2370D02*
X2238Y2370D01*
X2314Y2370D02*
X2338Y2370D01*
X2414Y2370D02*
X2438Y2370D01*
X2514Y2370D02*
X2538Y2370D01*
X2613Y2370D02*
X2638Y2370D01*
X2713Y2370D02*
X2738Y2370D01*
X2813Y2370D02*
X2838Y2370D01*
X2913Y2370D02*
X2938Y2370D01*
X1616Y2369D02*
X1635Y2369D01*
X1716Y2369D02*
X1735Y2369D01*
X1816Y2369D02*
X1835Y2369D01*
X1916Y2369D02*
X1935Y2369D01*
X2016Y2369D02*
X2035Y2369D01*
X2116Y2369D02*
X2135Y2369D01*
X2216Y2369D02*
X2235Y2369D01*
X2316Y2369D02*
X2335Y2369D01*
X2416Y2369D02*
X2435Y2369D01*
X2516Y2369D02*
X2535Y2369D01*
X2616Y2369D02*
X2635Y2369D01*
X2716Y2369D02*
X2735Y2369D01*
X2816Y2369D02*
X2835Y2369D01*
X2916Y2369D02*
X2935Y2369D01*
X1621Y2368D02*
X1631Y2368D01*
X1720Y2368D02*
X1731Y2368D01*
X1820Y2368D02*
X1831Y2368D01*
X1920Y2368D02*
X1931Y2368D01*
X2020Y2368D02*
X2031Y2368D01*
X2120Y2368D02*
X2131Y2368D01*
X2220Y2368D02*
X2231Y2368D01*
X2320Y2368D02*
X2331Y2368D01*
X2420Y2368D02*
X2431Y2368D01*
X2520Y2368D02*
X2531Y2368D01*
X2620Y2368D02*
X2631Y2368D01*
X2720Y2368D02*
X2731Y2368D01*
X2820Y2368D02*
X2831Y2368D01*
X2920Y2368D02*
X2931Y2368D01*
X818Y1640D02*
X832Y1640D01*
X918Y1640D02*
X932Y1640D01*
X1018Y1640D02*
X1033Y1640D01*
X1118Y1640D02*
X1133Y1640D01*
X1218Y1640D02*
X1233Y1640D01*
X1318Y1640D02*
X1333Y1640D01*
X1418Y1640D02*
X1433Y1640D01*
X1519Y1640D02*
X1533Y1640D01*
X1619Y1640D02*
X1633Y1640D01*
X1719Y1640D02*
X1733Y1640D01*
X1819Y1640D02*
X1834Y1640D01*
X1919Y1640D02*
X1934Y1640D01*
X2019Y1640D02*
X2034Y1640D01*
X2119Y1640D02*
X2134Y1640D01*
X2219Y1640D02*
X2234Y1640D01*
X814Y1639D02*
X836Y1639D01*
X914Y1639D02*
X936Y1639D01*
X1014Y1639D02*
X1036Y1639D01*
X1115Y1639D02*
X1136Y1639D01*
X1215Y1639D02*
X1236Y1639D01*
X1315Y1639D02*
X1336Y1639D01*
X1415Y1639D02*
X1437Y1639D01*
X1515Y1639D02*
X1537Y1639D01*
X1615Y1639D02*
X1637Y1639D01*
X1715Y1639D02*
X1737Y1639D01*
X1815Y1639D02*
X1837Y1639D01*
X1916Y1639D02*
X1937Y1639D01*
X2016Y1639D02*
X2037Y1639D01*
X2116Y1639D02*
X2137Y1639D01*
X2216Y1639D02*
X2238Y1639D01*
X811Y1638D02*
X839Y1638D01*
X912Y1638D02*
X939Y1638D01*
X1012Y1638D02*
X1039Y1638D01*
X1112Y1638D02*
X1139Y1638D01*
X1212Y1638D02*
X1239Y1638D01*
X1312Y1638D02*
X1339Y1638D01*
X1412Y1638D02*
X1439Y1638D01*
X1512Y1638D02*
X1539Y1638D01*
X1612Y1638D02*
X1640Y1638D01*
X1713Y1638D02*
X1740Y1638D01*
X1813Y1638D02*
X1840Y1638D01*
X1913Y1638D02*
X1940Y1638D01*
X2013Y1638D02*
X2040Y1638D01*
X2113Y1638D02*
X2140Y1638D01*
X2213Y1638D02*
X2240Y1638D01*
X809Y1637D02*
X841Y1637D01*
X909Y1637D02*
X941Y1637D01*
X1010Y1637D02*
X1041Y1637D01*
X1110Y1637D02*
X1141Y1637D01*
X1210Y1637D02*
X1241Y1637D01*
X1310Y1637D02*
X1341Y1637D01*
X1410Y1637D02*
X1441Y1637D01*
X1510Y1637D02*
X1542Y1637D01*
X1610Y1637D02*
X1642Y1637D01*
X1710Y1637D02*
X1742Y1637D01*
X1811Y1637D02*
X1842Y1637D01*
X1911Y1637D02*
X1942Y1637D01*
X2011Y1637D02*
X2042Y1637D01*
X2111Y1637D02*
X2142Y1637D01*
X2211Y1637D02*
X2242Y1637D01*
X807Y1636D02*
X843Y1636D01*
X907Y1636D02*
X943Y1636D01*
X1008Y1636D02*
X1043Y1636D01*
X1108Y1636D02*
X1143Y1636D01*
X1208Y1636D02*
X1243Y1636D01*
X1308Y1636D02*
X1343Y1636D01*
X1408Y1636D02*
X1443Y1636D01*
X1508Y1636D02*
X1544Y1636D01*
X1608Y1636D02*
X1644Y1636D01*
X1708Y1636D02*
X1744Y1636D01*
X1809Y1636D02*
X1844Y1636D01*
X1909Y1636D02*
X1944Y1636D01*
X2009Y1636D02*
X2044Y1636D01*
X2109Y1636D02*
X2144Y1636D01*
X2209Y1636D02*
X2244Y1636D01*
X806Y1635D02*
X844Y1635D01*
X906Y1635D02*
X945Y1635D01*
X1006Y1635D02*
X1045Y1635D01*
X1106Y1635D02*
X1145Y1635D01*
X1206Y1635D02*
X1245Y1635D01*
X1306Y1635D02*
X1345Y1635D01*
X1406Y1635D02*
X1445Y1635D01*
X1506Y1635D02*
X1545Y1635D01*
X1607Y1635D02*
X1645Y1635D01*
X1707Y1635D02*
X1746Y1635D01*
X1807Y1635D02*
X1846Y1635D01*
X1907Y1635D02*
X1946Y1635D01*
X2007Y1635D02*
X2046Y1635D01*
X2107Y1635D02*
X2146Y1635D01*
X2207Y1635D02*
X2246Y1635D01*
X804Y1634D02*
X846Y1634D01*
X904Y1634D02*
X946Y1634D01*
X1004Y1634D02*
X1046Y1634D01*
X1104Y1634D02*
X1146Y1634D01*
X1205Y1634D02*
X1246Y1634D01*
X1305Y1634D02*
X1347Y1634D01*
X1405Y1634D02*
X1447Y1634D01*
X1505Y1634D02*
X1547Y1634D01*
X1605Y1634D02*
X1647Y1634D01*
X1705Y1634D02*
X1747Y1634D01*
X1805Y1634D02*
X1847Y1634D01*
X1905Y1634D02*
X1947Y1634D01*
X2006Y1634D02*
X2047Y1634D01*
X2106Y1634D02*
X2148Y1634D01*
X2206Y1634D02*
X2248Y1634D01*
X803Y1633D02*
X847Y1633D01*
X903Y1633D02*
X947Y1633D01*
X1003Y1633D02*
X1048Y1633D01*
X1103Y1633D02*
X1148Y1633D01*
X1203Y1633D02*
X1248Y1633D01*
X1303Y1633D02*
X1348Y1633D01*
X1403Y1633D02*
X1448Y1633D01*
X1504Y1633D02*
X1548Y1633D01*
X1604Y1633D02*
X1648Y1633D01*
X1704Y1633D02*
X1748Y1633D01*
X1804Y1633D02*
X1849Y1633D01*
X1904Y1633D02*
X1949Y1633D01*
X2004Y1633D02*
X2049Y1633D01*
X2104Y1633D02*
X2149Y1633D01*
X2204Y1633D02*
X2249Y1633D01*
X801Y1632D02*
X849Y1632D01*
X902Y1632D02*
X949Y1632D01*
X1002Y1632D02*
X1049Y1632D01*
X1102Y1632D02*
X1149Y1632D01*
X1202Y1632D02*
X1249Y1632D01*
X1302Y1632D02*
X1349Y1632D01*
X1402Y1632D02*
X1449Y1632D01*
X1502Y1632D02*
X1549Y1632D01*
X1602Y1632D02*
X1650Y1632D01*
X1703Y1632D02*
X1750Y1632D01*
X1803Y1632D02*
X1850Y1632D01*
X1903Y1632D02*
X1950Y1632D01*
X2003Y1632D02*
X2050Y1632D01*
X2103Y1632D02*
X2150Y1632D01*
X2203Y1632D02*
X2250Y1632D01*
X800Y1631D02*
X850Y1631D01*
X900Y1631D02*
X950Y1631D01*
X1001Y1631D02*
X1050Y1631D01*
X1101Y1631D02*
X1150Y1631D01*
X1201Y1631D02*
X1250Y1631D01*
X1301Y1631D02*
X1350Y1631D01*
X1401Y1631D02*
X1450Y1631D01*
X1501Y1631D02*
X1551Y1631D01*
X1601Y1631D02*
X1651Y1631D01*
X1701Y1631D02*
X1751Y1631D01*
X1802Y1631D02*
X1851Y1631D01*
X1902Y1631D02*
X1951Y1631D01*
X2002Y1631D02*
X2051Y1631D01*
X2102Y1631D02*
X2151Y1631D01*
X2202Y1631D02*
X2251Y1631D01*
X799Y1630D02*
X851Y1630D01*
X899Y1630D02*
X951Y1630D01*
X999Y1630D02*
X1051Y1630D01*
X1100Y1630D02*
X1151Y1630D01*
X1200Y1630D02*
X1251Y1630D01*
X1300Y1630D02*
X1351Y1630D01*
X1400Y1630D02*
X1452Y1630D01*
X1500Y1630D02*
X1552Y1630D01*
X1600Y1630D02*
X1652Y1630D01*
X1700Y1630D02*
X1752Y1630D01*
X1800Y1630D02*
X1852Y1630D01*
X1901Y1630D02*
X1952Y1630D01*
X2001Y1630D02*
X2052Y1630D01*
X2101Y1630D02*
X2152Y1630D01*
X2201Y1630D02*
X2253Y1630D01*
X798Y1629D02*
X852Y1629D01*
X898Y1629D02*
X952Y1629D01*
X999Y1629D02*
X1052Y1629D01*
X1099Y1629D02*
X1152Y1629D01*
X1199Y1629D02*
X1252Y1629D01*
X1299Y1629D02*
X1352Y1629D01*
X1399Y1629D02*
X1452Y1629D01*
X1499Y1629D02*
X1553Y1629D01*
X1599Y1629D02*
X1653Y1629D01*
X1699Y1629D02*
X1753Y1629D01*
X1800Y1629D02*
X1853Y1629D01*
X1900Y1629D02*
X1953Y1629D01*
X2000Y1629D02*
X2053Y1629D01*
X2100Y1629D02*
X2153Y1629D01*
X2200Y1629D02*
X2253Y1629D01*
X797Y1628D02*
X853Y1628D01*
X898Y1628D02*
X953Y1628D01*
X998Y1628D02*
X1053Y1628D01*
X1098Y1628D02*
X1153Y1628D01*
X1198Y1628D02*
X1253Y1628D01*
X1298Y1628D02*
X1353Y1628D01*
X1398Y1628D02*
X1453Y1628D01*
X1498Y1628D02*
X1553Y1628D01*
X1598Y1628D02*
X1654Y1628D01*
X1699Y1628D02*
X1754Y1628D01*
X1799Y1628D02*
X1854Y1628D01*
X1899Y1628D02*
X1954Y1628D01*
X1999Y1628D02*
X2054Y1628D01*
X2099Y1628D02*
X2154Y1628D01*
X2199Y1628D02*
X2254Y1628D01*
X797Y1627D02*
X853Y1627D01*
X897Y1627D02*
X954Y1627D01*
X997Y1627D02*
X1054Y1627D01*
X1097Y1627D02*
X1154Y1627D01*
X1197Y1627D02*
X1254Y1627D01*
X1297Y1627D02*
X1354Y1627D01*
X1397Y1627D02*
X1454Y1627D01*
X1497Y1627D02*
X1554Y1627D01*
X1598Y1627D02*
X1654Y1627D01*
X1698Y1627D02*
X1755Y1627D01*
X1798Y1627D02*
X1855Y1627D01*
X1898Y1627D02*
X1955Y1627D01*
X1998Y1627D02*
X2055Y1627D01*
X2098Y1627D02*
X2155Y1627D01*
X2198Y1627D02*
X2255Y1627D01*
X796Y1626D02*
X854Y1626D01*
X896Y1626D02*
X954Y1626D01*
X996Y1626D02*
X1054Y1626D01*
X1096Y1626D02*
X1154Y1626D01*
X1196Y1626D02*
X1255Y1626D01*
X1297Y1626D02*
X1355Y1626D01*
X1397Y1626D02*
X1455Y1626D01*
X1497Y1626D02*
X1555Y1626D01*
X1597Y1626D02*
X1655Y1626D01*
X1697Y1626D02*
X1755Y1626D01*
X1797Y1626D02*
X1855Y1626D01*
X1897Y1626D02*
X1955Y1626D01*
X1997Y1626D02*
X2056Y1626D01*
X2098Y1626D02*
X2156Y1626D01*
X2198Y1626D02*
X2256Y1626D01*
X795Y1625D02*
X855Y1625D01*
X895Y1625D02*
X955Y1625D01*
X995Y1625D02*
X1055Y1625D01*
X1096Y1625D02*
X1155Y1625D01*
X1196Y1625D02*
X1255Y1625D01*
X1296Y1625D02*
X1355Y1625D01*
X1396Y1625D02*
X1456Y1625D01*
X1496Y1625D02*
X1556Y1625D01*
X1596Y1625D02*
X1656Y1625D01*
X1696Y1625D02*
X1756Y1625D01*
X1796Y1625D02*
X1856Y1625D01*
X1897Y1625D02*
X1956Y1625D01*
X1997Y1625D02*
X2056Y1625D01*
X2097Y1625D02*
X2156Y1625D01*
X2197Y1625D02*
X2257Y1625D01*
X795Y1624D02*
X855Y1624D01*
X895Y1624D02*
X956Y1624D01*
X995Y1624D02*
X1056Y1624D01*
X1095Y1624D02*
X1156Y1624D01*
X1195Y1624D02*
X1256Y1624D01*
X1295Y1624D02*
X1356Y1624D01*
X1395Y1624D02*
X1456Y1624D01*
X1495Y1624D02*
X1556Y1624D01*
X1596Y1624D02*
X1656Y1624D01*
X1696Y1624D02*
X1757Y1624D01*
X1796Y1624D02*
X1857Y1624D01*
X1896Y1624D02*
X1957Y1624D01*
X1996Y1624D02*
X2057Y1624D01*
X2096Y1624D02*
X2157Y1624D01*
X2196Y1624D02*
X2257Y1624D01*
X794Y1623D02*
X856Y1623D01*
X894Y1623D02*
X956Y1623D01*
X994Y1623D02*
X1056Y1623D01*
X1094Y1623D02*
X1156Y1623D01*
X1194Y1623D02*
X1257Y1623D01*
X1295Y1623D02*
X1357Y1623D01*
X1395Y1623D02*
X1457Y1623D01*
X1495Y1623D02*
X1557Y1623D01*
X1595Y1623D02*
X1657Y1623D01*
X1695Y1623D02*
X1757Y1623D01*
X1795Y1623D02*
X1857Y1623D01*
X1895Y1623D02*
X1957Y1623D01*
X1995Y1623D02*
X2058Y1623D01*
X2096Y1623D02*
X2158Y1623D01*
X2196Y1623D02*
X2258Y1623D01*
X793Y1622D02*
X857Y1622D01*
X893Y1622D02*
X957Y1622D01*
X994Y1622D02*
X1057Y1622D01*
X1094Y1622D02*
X1157Y1622D01*
X1194Y1622D02*
X1257Y1622D01*
X1294Y1622D02*
X1357Y1622D01*
X1394Y1622D02*
X1457Y1622D01*
X1494Y1622D02*
X1558Y1622D01*
X1594Y1622D02*
X1658Y1622D01*
X1694Y1622D02*
X1758Y1622D01*
X1795Y1622D02*
X1858Y1622D01*
X1895Y1622D02*
X1958Y1622D01*
X1995Y1622D02*
X2058Y1622D01*
X2095Y1622D02*
X2158Y1622D01*
X2195Y1622D02*
X2258Y1622D01*
X793Y1621D02*
X820Y1621D01*
X830Y1621D02*
X857Y1621D01*
X893Y1621D02*
X920Y1621D01*
X930Y1621D02*
X957Y1621D01*
X993Y1621D02*
X1020Y1621D01*
X1030Y1621D02*
X1057Y1621D01*
X1093Y1621D02*
X1121Y1621D01*
X1130Y1621D02*
X1158Y1621D01*
X1193Y1621D02*
X1221Y1621D01*
X1230Y1621D02*
X1258Y1621D01*
X1293Y1621D02*
X1321Y1621D01*
X1330Y1621D02*
X1358Y1621D01*
X1394Y1621D02*
X1421Y1621D01*
X1431Y1621D02*
X1458Y1621D01*
X1494Y1621D02*
X1521Y1621D01*
X1531Y1621D02*
X1558Y1621D01*
X1594Y1621D02*
X1621Y1621D01*
X1631Y1621D02*
X1658Y1621D01*
X1694Y1621D02*
X1721Y1621D01*
X1731Y1621D02*
X1758Y1621D01*
X1794Y1621D02*
X1822Y1621D01*
X1831Y1621D02*
X1858Y1621D01*
X1894Y1621D02*
X1922Y1621D01*
X1931Y1621D02*
X1959Y1621D01*
X1994Y1621D02*
X2022Y1621D01*
X2031Y1621D02*
X2059Y1621D01*
X2094Y1621D02*
X2122Y1621D01*
X2131Y1621D02*
X2159Y1621D01*
X2195Y1621D02*
X2222Y1621D01*
X2232Y1621D02*
X2259Y1621D01*
X792Y1620D02*
X817Y1620D01*
X833Y1620D02*
X858Y1620D01*
X892Y1620D02*
X917Y1620D01*
X933Y1620D02*
X958Y1620D01*
X993Y1620D02*
X1017Y1620D01*
X1033Y1620D02*
X1058Y1620D01*
X1093Y1620D02*
X1118Y1620D01*
X1133Y1620D02*
X1158Y1620D01*
X1193Y1620D02*
X1218Y1620D01*
X1233Y1620D02*
X1258Y1620D01*
X1293Y1620D02*
X1318Y1620D01*
X1333Y1620D02*
X1358Y1620D01*
X1393Y1620D02*
X1418Y1620D01*
X1434Y1620D02*
X1458Y1620D01*
X1493Y1620D02*
X1518Y1620D01*
X1534Y1620D02*
X1559Y1620D01*
X1593Y1620D02*
X1618Y1620D01*
X1634Y1620D02*
X1659Y1620D01*
X1693Y1620D02*
X1718Y1620D01*
X1734Y1620D02*
X1759Y1620D01*
X1794Y1620D02*
X1818Y1620D01*
X1834Y1620D02*
X1859Y1620D01*
X1894Y1620D02*
X1919Y1620D01*
X1934Y1620D02*
X1959Y1620D01*
X1994Y1620D02*
X2019Y1620D01*
X2034Y1620D02*
X2059Y1620D01*
X2094Y1620D02*
X2119Y1620D01*
X2134Y1620D02*
X2159Y1620D01*
X2194Y1620D02*
X2219Y1620D01*
X2235Y1620D02*
X2259Y1620D01*
X792Y1619D02*
X815Y1619D01*
X835Y1619D02*
X858Y1619D01*
X892Y1619D02*
X916Y1619D01*
X935Y1619D02*
X958Y1619D01*
X992Y1619D02*
X1016Y1619D01*
X1035Y1619D02*
X1058Y1619D01*
X1092Y1619D02*
X1116Y1619D01*
X1135Y1619D02*
X1158Y1619D01*
X1192Y1619D02*
X1216Y1619D01*
X1235Y1619D02*
X1259Y1619D01*
X1293Y1619D02*
X1316Y1619D01*
X1335Y1619D02*
X1359Y1619D01*
X1393Y1619D02*
X1416Y1619D01*
X1435Y1619D02*
X1459Y1619D01*
X1493Y1619D02*
X1516Y1619D01*
X1535Y1619D02*
X1559Y1619D01*
X1593Y1619D02*
X1616Y1619D01*
X1636Y1619D02*
X1659Y1619D01*
X1693Y1619D02*
X1717Y1619D01*
X1736Y1619D02*
X1759Y1619D01*
X1793Y1619D02*
X1817Y1619D01*
X1836Y1619D02*
X1859Y1619D01*
X1893Y1619D02*
X1917Y1619D01*
X1936Y1619D02*
X1959Y1619D01*
X1993Y1619D02*
X2017Y1619D01*
X2036Y1619D02*
X2060Y1619D01*
X2094Y1619D02*
X2117Y1619D01*
X2136Y1619D02*
X2160Y1619D01*
X2194Y1619D02*
X2217Y1619D01*
X2236Y1619D02*
X2260Y1619D01*
X791Y1618D02*
X814Y1618D01*
X836Y1618D02*
X859Y1618D01*
X892Y1618D02*
X914Y1618D01*
X936Y1618D02*
X959Y1618D01*
X992Y1618D02*
X1014Y1618D01*
X1036Y1618D02*
X1059Y1618D01*
X1092Y1618D02*
X1114Y1618D01*
X1136Y1618D02*
X1159Y1618D01*
X1192Y1618D02*
X1215Y1618D01*
X1236Y1618D02*
X1259Y1618D01*
X1292Y1618D02*
X1315Y1618D01*
X1337Y1618D02*
X1359Y1618D01*
X1392Y1618D02*
X1415Y1618D01*
X1437Y1618D02*
X1459Y1618D01*
X1492Y1618D02*
X1515Y1618D01*
X1537Y1618D02*
X1559Y1618D01*
X1592Y1618D02*
X1615Y1618D01*
X1637Y1618D02*
X1660Y1618D01*
X1693Y1618D02*
X1715Y1618D01*
X1737Y1618D02*
X1760Y1618D01*
X1793Y1618D02*
X1815Y1618D01*
X1837Y1618D02*
X1860Y1618D01*
X1893Y1618D02*
X1915Y1618D01*
X1937Y1618D02*
X1960Y1618D01*
X1993Y1618D02*
X2016Y1618D01*
X2037Y1618D02*
X2060Y1618D01*
X2093Y1618D02*
X2116Y1618D01*
X2138Y1618D02*
X2160Y1618D01*
X2193Y1618D02*
X2216Y1618D01*
X2238Y1618D02*
X2260Y1618D01*
X791Y1617D02*
X813Y1617D01*
X837Y1617D02*
X859Y1617D01*
X891Y1617D02*
X913Y1617D01*
X937Y1617D02*
X959Y1617D01*
X991Y1617D02*
X1013Y1617D01*
X1037Y1617D02*
X1059Y1617D01*
X1091Y1617D02*
X1113Y1617D01*
X1137Y1617D02*
X1159Y1617D01*
X1192Y1617D02*
X1213Y1617D01*
X1238Y1617D02*
X1259Y1617D01*
X1292Y1617D02*
X1314Y1617D01*
X1338Y1617D02*
X1360Y1617D01*
X1392Y1617D02*
X1414Y1617D01*
X1438Y1617D02*
X1460Y1617D01*
X1492Y1617D02*
X1514Y1617D01*
X1538Y1617D02*
X1560Y1617D01*
X1592Y1617D02*
X1614Y1617D01*
X1638Y1617D02*
X1660Y1617D01*
X1692Y1617D02*
X1714Y1617D01*
X1738Y1617D02*
X1760Y1617D01*
X1792Y1617D02*
X1814Y1617D01*
X1838Y1617D02*
X1860Y1617D01*
X1892Y1617D02*
X1914Y1617D01*
X1938Y1617D02*
X1960Y1617D01*
X1993Y1617D02*
X2014Y1617D01*
X2039Y1617D02*
X2060Y1617D01*
X2093Y1617D02*
X2115Y1617D01*
X2139Y1617D02*
X2161Y1617D01*
X2193Y1617D02*
X2215Y1617D01*
X2239Y1617D02*
X2261Y1617D01*
X791Y1616D02*
X812Y1616D01*
X838Y1616D02*
X859Y1616D01*
X891Y1616D02*
X912Y1616D01*
X938Y1616D02*
X959Y1616D01*
X991Y1616D02*
X1012Y1616D01*
X1038Y1616D02*
X1060Y1616D01*
X1091Y1616D02*
X1112Y1616D01*
X1139Y1616D02*
X1160Y1616D01*
X1191Y1616D02*
X1212Y1616D01*
X1239Y1616D02*
X1260Y1616D01*
X1291Y1616D02*
X1312Y1616D01*
X1339Y1616D02*
X1360Y1616D01*
X1391Y1616D02*
X1413Y1616D01*
X1439Y1616D02*
X1460Y1616D01*
X1492Y1616D02*
X1513Y1616D01*
X1539Y1616D02*
X1560Y1616D01*
X1592Y1616D02*
X1613Y1616D01*
X1639Y1616D02*
X1660Y1616D01*
X1692Y1616D02*
X1713Y1616D01*
X1739Y1616D02*
X1760Y1616D01*
X1792Y1616D02*
X1813Y1616D01*
X1839Y1616D02*
X1861Y1616D01*
X1892Y1616D02*
X1913Y1616D01*
X1940Y1616D02*
X1961Y1616D01*
X1992Y1616D02*
X2013Y1616D01*
X2040Y1616D02*
X2061Y1616D01*
X2092Y1616D02*
X2113Y1616D01*
X2140Y1616D02*
X2161Y1616D01*
X2192Y1616D02*
X2214Y1616D01*
X2240Y1616D02*
X2261Y1616D01*
X790Y1615D02*
X811Y1615D01*
X839Y1615D02*
X860Y1615D01*
X890Y1615D02*
X911Y1615D01*
X939Y1615D02*
X960Y1615D01*
X991Y1615D02*
X1011Y1615D01*
X1039Y1615D02*
X1060Y1615D01*
X1091Y1615D02*
X1111Y1615D01*
X1139Y1615D02*
X1160Y1615D01*
X1191Y1615D02*
X1211Y1615D01*
X1240Y1615D02*
X1260Y1615D01*
X1291Y1615D02*
X1312Y1615D01*
X1340Y1615D02*
X1360Y1615D01*
X1391Y1615D02*
X1412Y1615D01*
X1440Y1615D02*
X1460Y1615D01*
X1491Y1615D02*
X1512Y1615D01*
X1540Y1615D02*
X1561Y1615D01*
X1591Y1615D02*
X1612Y1615D01*
X1640Y1615D02*
X1661Y1615D01*
X1691Y1615D02*
X1712Y1615D01*
X1740Y1615D02*
X1761Y1615D01*
X1792Y1615D02*
X1812Y1615D01*
X1840Y1615D02*
X1861Y1615D01*
X1892Y1615D02*
X1912Y1615D01*
X1940Y1615D02*
X1961Y1615D01*
X1992Y1615D02*
X2012Y1615D01*
X2041Y1615D02*
X2061Y1615D01*
X2092Y1615D02*
X2113Y1615D01*
X2141Y1615D02*
X2161Y1615D01*
X2192Y1615D02*
X2213Y1615D01*
X2241Y1615D02*
X2261Y1615D01*
X790Y1614D02*
X810Y1614D01*
X840Y1614D02*
X860Y1614D01*
X890Y1614D02*
X910Y1614D01*
X940Y1614D02*
X960Y1614D01*
X990Y1614D02*
X1010Y1614D01*
X1040Y1614D02*
X1060Y1614D01*
X1090Y1614D02*
X1110Y1614D01*
X1140Y1614D02*
X1160Y1614D01*
X1191Y1614D02*
X1211Y1614D01*
X1240Y1614D02*
X1260Y1614D01*
X1291Y1614D02*
X1311Y1614D01*
X1341Y1614D02*
X1361Y1614D01*
X1391Y1614D02*
X1411Y1614D01*
X1441Y1614D02*
X1461Y1614D01*
X1491Y1614D02*
X1511Y1614D01*
X1541Y1614D02*
X1561Y1614D01*
X1591Y1614D02*
X1611Y1614D01*
X1641Y1614D02*
X1661Y1614D01*
X1691Y1614D02*
X1711Y1614D01*
X1741Y1614D02*
X1761Y1614D01*
X1791Y1614D02*
X1811Y1614D01*
X1841Y1614D02*
X1861Y1614D01*
X1891Y1614D02*
X1911Y1614D01*
X1941Y1614D02*
X1961Y1614D01*
X1992Y1614D02*
X2012Y1614D01*
X2041Y1614D02*
X2061Y1614D01*
X2092Y1614D02*
X2112Y1614D01*
X2142Y1614D02*
X2162Y1614D01*
X2192Y1614D02*
X2212Y1614D01*
X2242Y1614D02*
X2262Y1614D01*
X790Y1613D02*
X809Y1613D01*
X841Y1613D02*
X860Y1613D01*
X890Y1613D02*
X910Y1613D01*
X941Y1613D02*
X960Y1613D01*
X990Y1613D02*
X1010Y1613D01*
X1041Y1613D02*
X1060Y1613D01*
X1090Y1613D02*
X1110Y1613D01*
X1141Y1613D02*
X1161Y1613D01*
X1190Y1613D02*
X1210Y1613D01*
X1241Y1613D02*
X1261Y1613D01*
X1290Y1613D02*
X1310Y1613D01*
X1341Y1613D02*
X1361Y1613D01*
X1391Y1613D02*
X1410Y1613D01*
X1441Y1613D02*
X1461Y1613D01*
X1491Y1613D02*
X1510Y1613D01*
X1541Y1613D02*
X1561Y1613D01*
X1591Y1613D02*
X1610Y1613D01*
X1642Y1613D02*
X1661Y1613D01*
X1691Y1613D02*
X1711Y1613D01*
X1742Y1613D02*
X1761Y1613D01*
X1791Y1613D02*
X1811Y1613D01*
X1842Y1613D02*
X1862Y1613D01*
X1891Y1613D02*
X1911Y1613D01*
X1942Y1613D02*
X1962Y1613D01*
X1991Y1613D02*
X2011Y1613D01*
X2042Y1613D02*
X2062Y1613D01*
X2091Y1613D02*
X2111Y1613D01*
X2142Y1613D02*
X2162Y1613D01*
X2192Y1613D02*
X2211Y1613D01*
X2242Y1613D02*
X2262Y1613D01*
X789Y1612D02*
X809Y1612D01*
X841Y1612D02*
X860Y1612D01*
X890Y1612D02*
X909Y1612D01*
X941Y1612D02*
X961Y1612D01*
X990Y1612D02*
X1009Y1612D01*
X1041Y1612D02*
X1061Y1612D01*
X1090Y1612D02*
X1109Y1612D01*
X1142Y1612D02*
X1161Y1612D01*
X1190Y1612D02*
X1209Y1612D01*
X1242Y1612D02*
X1261Y1612D01*
X1290Y1612D02*
X1309Y1612D01*
X1342Y1612D02*
X1361Y1612D01*
X1390Y1612D02*
X1410Y1612D01*
X1442Y1612D02*
X1461Y1612D01*
X1490Y1612D02*
X1510Y1612D01*
X1542Y1612D02*
X1561Y1612D01*
X1590Y1612D02*
X1610Y1612D01*
X1642Y1612D02*
X1662Y1612D01*
X1691Y1612D02*
X1710Y1612D01*
X1742Y1612D02*
X1762Y1612D01*
X1791Y1612D02*
X1810Y1612D01*
X1842Y1612D02*
X1862Y1612D01*
X1891Y1612D02*
X1910Y1612D01*
X1943Y1612D02*
X1962Y1612D01*
X1991Y1612D02*
X2010Y1612D01*
X2043Y1612D02*
X2062Y1612D01*
X2091Y1612D02*
X2111Y1612D01*
X2143Y1612D02*
X2162Y1612D01*
X2191Y1612D02*
X2211Y1612D01*
X2243Y1612D02*
X2262Y1612D01*
X789Y1611D02*
X808Y1611D01*
X842Y1611D02*
X861Y1611D01*
X889Y1611D02*
X908Y1611D01*
X942Y1611D02*
X961Y1611D01*
X989Y1611D02*
X1009Y1611D01*
X1042Y1611D02*
X1061Y1611D01*
X1090Y1611D02*
X1109Y1611D01*
X1142Y1611D02*
X1161Y1611D01*
X1190Y1611D02*
X1209Y1611D01*
X1242Y1611D02*
X1261Y1611D01*
X1290Y1611D02*
X1309Y1611D01*
X1342Y1611D02*
X1361Y1611D01*
X1390Y1611D02*
X1409Y1611D01*
X1442Y1611D02*
X1462Y1611D01*
X1490Y1611D02*
X1509Y1611D01*
X1543Y1611D02*
X1562Y1611D01*
X1590Y1611D02*
X1609Y1611D01*
X1643Y1611D02*
X1662Y1611D01*
X1690Y1611D02*
X1709Y1611D01*
X1743Y1611D02*
X1762Y1611D01*
X1790Y1611D02*
X1810Y1611D01*
X1843Y1611D02*
X1862Y1611D01*
X1891Y1611D02*
X1910Y1611D01*
X1943Y1611D02*
X1962Y1611D01*
X1991Y1611D02*
X2010Y1611D01*
X2043Y1611D02*
X2062Y1611D01*
X2091Y1611D02*
X2110Y1611D01*
X2143Y1611D02*
X2162Y1611D01*
X2191Y1611D02*
X2210Y1611D01*
X2243Y1611D02*
X2263Y1611D01*
X789Y1610D02*
X808Y1610D01*
X842Y1610D02*
X861Y1610D01*
X889Y1610D02*
X908Y1610D01*
X942Y1610D02*
X961Y1610D01*
X989Y1610D02*
X1008Y1610D01*
X1042Y1610D02*
X1061Y1610D01*
X1089Y1610D02*
X1108Y1610D01*
X1142Y1610D02*
X1161Y1610D01*
X1190Y1610D02*
X1208Y1610D01*
X1243Y1610D02*
X1261Y1610D01*
X1290Y1610D02*
X1309Y1610D01*
X1343Y1610D02*
X1362Y1610D01*
X1390Y1610D02*
X1409Y1610D01*
X1443Y1610D02*
X1462Y1610D01*
X1490Y1610D02*
X1509Y1610D01*
X1543Y1610D02*
X1562Y1610D01*
X1590Y1610D02*
X1609Y1610D01*
X1643Y1610D02*
X1662Y1610D01*
X1690Y1610D02*
X1709Y1610D01*
X1743Y1610D02*
X1762Y1610D01*
X1790Y1610D02*
X1809Y1610D01*
X1843Y1610D02*
X1862Y1610D01*
X1890Y1610D02*
X1909Y1610D01*
X1943Y1610D02*
X1962Y1610D01*
X1991Y1610D02*
X2009Y1610D01*
X2044Y1610D02*
X2062Y1610D01*
X2091Y1610D02*
X2110Y1610D01*
X2144Y1610D02*
X2163Y1610D01*
X2191Y1610D02*
X2210Y1610D01*
X2244Y1610D02*
X2263Y1610D01*
X789Y1609D02*
X808Y1609D01*
X842Y1609D02*
X861Y1609D01*
X889Y1609D02*
X908Y1609D01*
X942Y1609D02*
X961Y1609D01*
X989Y1609D02*
X1008Y1609D01*
X1043Y1609D02*
X1061Y1609D01*
X1089Y1609D02*
X1108Y1609D01*
X1143Y1609D02*
X1161Y1609D01*
X1189Y1609D02*
X1208Y1609D01*
X1243Y1609D02*
X1262Y1609D01*
X1290Y1609D02*
X1308Y1609D01*
X1343Y1609D02*
X1362Y1609D01*
X1390Y1609D02*
X1408Y1609D01*
X1443Y1609D02*
X1462Y1609D01*
X1490Y1609D02*
X1509Y1609D01*
X1543Y1609D02*
X1562Y1609D01*
X1590Y1609D02*
X1609Y1609D01*
X1643Y1609D02*
X1662Y1609D01*
X1690Y1609D02*
X1709Y1609D01*
X1743Y1609D02*
X1762Y1609D01*
X1790Y1609D02*
X1809Y1609D01*
X1844Y1609D02*
X1862Y1609D01*
X1890Y1609D02*
X1909Y1609D01*
X1944Y1609D02*
X1962Y1609D01*
X1990Y1609D02*
X2009Y1609D01*
X2044Y1609D02*
X2063Y1609D01*
X2091Y1609D02*
X2109Y1609D01*
X2144Y1609D02*
X2163Y1609D01*
X2191Y1609D02*
X2209Y1609D01*
X2244Y1609D02*
X2263Y1609D01*
X789Y1608D02*
X807Y1608D01*
X843Y1608D02*
X861Y1608D01*
X889Y1608D02*
X907Y1608D01*
X943Y1608D02*
X961Y1608D01*
X989Y1608D02*
X1008Y1608D01*
X1043Y1608D02*
X1062Y1608D01*
X1089Y1608D02*
X1108Y1608D01*
X1143Y1608D02*
X1162Y1608D01*
X1189Y1608D02*
X1208Y1608D01*
X1243Y1608D02*
X1262Y1608D01*
X1289Y1608D02*
X1308Y1608D01*
X1343Y1608D02*
X1362Y1608D01*
X1389Y1608D02*
X1408Y1608D01*
X1443Y1608D02*
X1462Y1608D01*
X1490Y1608D02*
X1508Y1608D01*
X1543Y1608D02*
X1562Y1608D01*
X1590Y1608D02*
X1608Y1608D01*
X1644Y1608D02*
X1662Y1608D01*
X1690Y1608D02*
X1708Y1608D01*
X1744Y1608D02*
X1762Y1608D01*
X1790Y1608D02*
X1809Y1608D01*
X1844Y1608D02*
X1863Y1608D01*
X1890Y1608D02*
X1909Y1608D01*
X1944Y1608D02*
X1963Y1608D01*
X1990Y1608D02*
X2009Y1608D01*
X2044Y1608D02*
X2063Y1608D01*
X2090Y1608D02*
X2109Y1608D01*
X2144Y1608D02*
X2163Y1608D01*
X2191Y1608D02*
X2209Y1608D01*
X2244Y1608D02*
X2263Y1608D01*
X789Y1607D02*
X807Y1607D01*
X843Y1607D02*
X861Y1607D01*
X889Y1607D02*
X907Y1607D01*
X943Y1607D02*
X961Y1607D01*
X989Y1607D02*
X1007Y1607D01*
X1043Y1607D02*
X1062Y1607D01*
X1089Y1607D02*
X1108Y1607D01*
X1143Y1607D02*
X1162Y1607D01*
X1189Y1607D02*
X1208Y1607D01*
X1243Y1607D02*
X1262Y1607D01*
X1289Y1607D02*
X1308Y1607D01*
X1343Y1607D02*
X1362Y1607D01*
X1389Y1607D02*
X1408Y1607D01*
X1444Y1607D02*
X1462Y1607D01*
X1489Y1607D02*
X1508Y1607D01*
X1544Y1607D02*
X1562Y1607D01*
X1590Y1607D02*
X1608Y1607D01*
X1644Y1607D02*
X1662Y1607D01*
X1690Y1607D02*
X1708Y1607D01*
X1744Y1607D02*
X1763Y1607D01*
X1790Y1607D02*
X1808Y1607D01*
X1844Y1607D02*
X1863Y1607D01*
X1890Y1607D02*
X1909Y1607D01*
X1944Y1607D02*
X1963Y1607D01*
X1990Y1607D02*
X2009Y1607D01*
X2044Y1607D02*
X2063Y1607D01*
X2090Y1607D02*
X2109Y1607D01*
X2144Y1607D02*
X2163Y1607D01*
X2190Y1607D02*
X2209Y1607D01*
X2245Y1607D02*
X2263Y1607D01*
X789Y1606D02*
X807Y1606D01*
X843Y1606D02*
X861Y1606D01*
X889Y1606D02*
X907Y1606D01*
X943Y1606D02*
X962Y1606D01*
X989Y1606D02*
X1007Y1606D01*
X1043Y1606D02*
X1062Y1606D01*
X1089Y1606D02*
X1108Y1606D01*
X1143Y1606D02*
X1162Y1606D01*
X1189Y1606D02*
X1208Y1606D01*
X1243Y1606D02*
X1262Y1606D01*
X1289Y1606D02*
X1308Y1606D01*
X1343Y1606D02*
X1362Y1606D01*
X1389Y1606D02*
X1408Y1606D01*
X1444Y1606D02*
X1462Y1606D01*
X1489Y1606D02*
X1508Y1606D01*
X1544Y1606D02*
X1562Y1606D01*
X1590Y1606D02*
X1608Y1606D01*
X1644Y1606D02*
X1662Y1606D01*
X1690Y1606D02*
X1708Y1606D01*
X1744Y1606D02*
X1763Y1606D01*
X1790Y1606D02*
X1808Y1606D01*
X1844Y1606D02*
X1863Y1606D01*
X1890Y1606D02*
X1909Y1606D01*
X1944Y1606D02*
X1963Y1606D01*
X1990Y1606D02*
X2009Y1606D01*
X2044Y1606D02*
X2063Y1606D01*
X2090Y1606D02*
X2109Y1606D01*
X2145Y1606D02*
X2163Y1606D01*
X2190Y1606D02*
X2209Y1606D01*
X2245Y1606D02*
X2263Y1606D01*
X788Y1605D02*
X807Y1605D01*
X843Y1605D02*
X861Y1605D01*
X889Y1605D02*
X907Y1605D01*
X943Y1605D02*
X962Y1605D01*
X989Y1605D02*
X1007Y1605D01*
X1043Y1605D02*
X1062Y1605D01*
X1089Y1605D02*
X1107Y1605D01*
X1143Y1605D02*
X1162Y1605D01*
X1189Y1605D02*
X1208Y1605D01*
X1243Y1605D02*
X1262Y1605D01*
X1289Y1605D02*
X1308Y1605D01*
X1344Y1605D02*
X1362Y1605D01*
X1389Y1605D02*
X1408Y1605D01*
X1444Y1605D02*
X1462Y1605D01*
X1489Y1605D02*
X1508Y1605D01*
X1544Y1605D02*
X1562Y1605D01*
X1590Y1605D02*
X1608Y1605D01*
X1644Y1605D02*
X1662Y1605D01*
X1690Y1605D02*
X1708Y1605D01*
X1744Y1605D02*
X1763Y1605D01*
X1790Y1605D02*
X1808Y1605D01*
X1844Y1605D02*
X1863Y1605D01*
X1890Y1605D02*
X1908Y1605D01*
X1944Y1605D02*
X1963Y1605D01*
X1990Y1605D02*
X2009Y1605D01*
X2044Y1605D02*
X2063Y1605D01*
X2090Y1605D02*
X2109Y1605D01*
X2145Y1605D02*
X2163Y1605D01*
X2190Y1605D02*
X2209Y1605D01*
X2245Y1605D02*
X2263Y1605D01*
X788Y1604D02*
X807Y1604D01*
X843Y1604D02*
X862Y1604D01*
X889Y1604D02*
X907Y1604D01*
X943Y1604D02*
X962Y1604D01*
X989Y1604D02*
X1007Y1604D01*
X1043Y1604D02*
X1062Y1604D01*
X1089Y1604D02*
X1107Y1604D01*
X1143Y1604D02*
X1162Y1604D01*
X1189Y1604D02*
X1207Y1604D01*
X1243Y1604D02*
X1262Y1604D01*
X1289Y1604D02*
X1308Y1604D01*
X1344Y1604D02*
X1362Y1604D01*
X1389Y1604D02*
X1408Y1604D01*
X1444Y1604D02*
X1462Y1604D01*
X1489Y1604D02*
X1508Y1604D01*
X1544Y1604D02*
X1562Y1604D01*
X1589Y1604D02*
X1608Y1604D01*
X1644Y1604D02*
X1663Y1604D01*
X1690Y1604D02*
X1708Y1604D01*
X1744Y1604D02*
X1763Y1604D01*
X1790Y1604D02*
X1808Y1604D01*
X1844Y1604D02*
X1863Y1604D01*
X1890Y1604D02*
X1908Y1604D01*
X1944Y1604D02*
X1963Y1604D01*
X1990Y1604D02*
X2009Y1604D01*
X2045Y1604D02*
X2063Y1604D01*
X2090Y1604D02*
X2109Y1604D01*
X2145Y1604D02*
X2163Y1604D01*
X2190Y1604D02*
X2209Y1604D01*
X2245Y1604D02*
X2263Y1604D01*
X788Y1603D02*
X807Y1603D01*
X843Y1603D02*
X861Y1603D01*
X889Y1603D02*
X907Y1603D01*
X943Y1603D02*
X962Y1603D01*
X989Y1603D02*
X1007Y1603D01*
X1043Y1603D02*
X1062Y1603D01*
X1089Y1603D02*
X1107Y1603D01*
X1143Y1603D02*
X1162Y1603D01*
X1189Y1603D02*
X1208Y1603D01*
X1243Y1603D02*
X1262Y1603D01*
X1289Y1603D02*
X1308Y1603D01*
X1344Y1603D02*
X1362Y1603D01*
X1389Y1603D02*
X1408Y1603D01*
X1444Y1603D02*
X1462Y1603D01*
X1489Y1603D02*
X1508Y1603D01*
X1544Y1603D02*
X1562Y1603D01*
X1590Y1603D02*
X1608Y1603D01*
X1644Y1603D02*
X1662Y1603D01*
X1690Y1603D02*
X1708Y1603D01*
X1744Y1603D02*
X1763Y1603D01*
X1790Y1603D02*
X1808Y1603D01*
X1844Y1603D02*
X1863Y1603D01*
X1890Y1603D02*
X1908Y1603D01*
X1944Y1603D02*
X1963Y1603D01*
X1990Y1603D02*
X2009Y1603D01*
X2044Y1603D02*
X2063Y1603D01*
X2090Y1603D02*
X2109Y1603D01*
X2145Y1603D02*
X2163Y1603D01*
X2190Y1603D02*
X2209Y1603D01*
X2245Y1603D02*
X2263Y1603D01*
X789Y1602D02*
X807Y1602D01*
X843Y1602D02*
X861Y1602D01*
X889Y1602D02*
X907Y1602D01*
X943Y1602D02*
X962Y1602D01*
X989Y1602D02*
X1007Y1602D01*
X1043Y1602D02*
X1062Y1602D01*
X1089Y1602D02*
X1107Y1602D01*
X1143Y1602D02*
X1162Y1602D01*
X1189Y1602D02*
X1208Y1602D01*
X1243Y1602D02*
X1262Y1602D01*
X1289Y1602D02*
X1308Y1602D01*
X1343Y1602D02*
X1362Y1602D01*
X1389Y1602D02*
X1408Y1602D01*
X1444Y1602D02*
X1462Y1602D01*
X1489Y1602D02*
X1508Y1602D01*
X1544Y1602D02*
X1562Y1602D01*
X1590Y1602D02*
X1608Y1602D01*
X1644Y1602D02*
X1662Y1602D01*
X1690Y1602D02*
X1708Y1602D01*
X1744Y1602D02*
X1763Y1602D01*
X1790Y1602D02*
X1808Y1602D01*
X1844Y1602D02*
X1863Y1602D01*
X1890Y1602D02*
X1909Y1602D01*
X1944Y1602D02*
X1963Y1602D01*
X1990Y1602D02*
X2009Y1602D01*
X2044Y1602D02*
X2063Y1602D01*
X2090Y1602D02*
X2109Y1602D01*
X2145Y1602D02*
X2163Y1602D01*
X2190Y1602D02*
X2209Y1602D01*
X2245Y1602D02*
X2263Y1602D01*
X789Y1601D02*
X807Y1601D01*
X843Y1601D02*
X861Y1601D01*
X889Y1601D02*
X907Y1601D01*
X943Y1601D02*
X961Y1601D01*
X989Y1601D02*
X1007Y1601D01*
X1043Y1601D02*
X1062Y1601D01*
X1089Y1601D02*
X1108Y1601D01*
X1143Y1601D02*
X1162Y1601D01*
X1189Y1601D02*
X1208Y1601D01*
X1243Y1601D02*
X1262Y1601D01*
X1289Y1601D02*
X1308Y1601D01*
X1343Y1601D02*
X1362Y1601D01*
X1389Y1601D02*
X1408Y1601D01*
X1444Y1601D02*
X1462Y1601D01*
X1489Y1601D02*
X1508Y1601D01*
X1544Y1601D02*
X1562Y1601D01*
X1590Y1601D02*
X1608Y1601D01*
X1644Y1601D02*
X1662Y1601D01*
X1690Y1601D02*
X1708Y1601D01*
X1744Y1601D02*
X1763Y1601D01*
X1790Y1601D02*
X1808Y1601D01*
X1844Y1601D02*
X1863Y1601D01*
X1890Y1601D02*
X1909Y1601D01*
X1944Y1601D02*
X1963Y1601D01*
X1990Y1601D02*
X2009Y1601D01*
X2044Y1601D02*
X2063Y1601D01*
X2090Y1601D02*
X2109Y1601D01*
X2144Y1601D02*
X2163Y1601D01*
X2190Y1601D02*
X2209Y1601D01*
X2245Y1601D02*
X2263Y1601D01*
X789Y1600D02*
X807Y1600D01*
X843Y1600D02*
X861Y1600D01*
X889Y1600D02*
X907Y1600D01*
X943Y1600D02*
X961Y1600D01*
X989Y1600D02*
X1008Y1600D01*
X1043Y1600D02*
X1062Y1600D01*
X1089Y1600D02*
X1108Y1600D01*
X1143Y1600D02*
X1162Y1600D01*
X1189Y1600D02*
X1208Y1600D01*
X1243Y1600D02*
X1262Y1600D01*
X1289Y1600D02*
X1308Y1600D01*
X1343Y1600D02*
X1362Y1600D01*
X1389Y1600D02*
X1408Y1600D01*
X1443Y1600D02*
X1462Y1600D01*
X1490Y1600D02*
X1508Y1600D01*
X1544Y1600D02*
X1562Y1600D01*
X1590Y1600D02*
X1608Y1600D01*
X1644Y1600D02*
X1662Y1600D01*
X1690Y1600D02*
X1708Y1600D01*
X1744Y1600D02*
X1762Y1600D01*
X1790Y1600D02*
X1809Y1600D01*
X1844Y1600D02*
X1863Y1600D01*
X1890Y1600D02*
X1909Y1600D01*
X1944Y1600D02*
X1963Y1600D01*
X1990Y1600D02*
X2009Y1600D01*
X2044Y1600D02*
X2063Y1600D01*
X2090Y1600D02*
X2109Y1600D01*
X2144Y1600D02*
X2163Y1600D01*
X2190Y1600D02*
X2209Y1600D01*
X2244Y1600D02*
X2263Y1600D01*
X789Y1599D02*
X808Y1599D01*
X842Y1599D02*
X861Y1599D01*
X889Y1599D02*
X908Y1599D01*
X942Y1599D02*
X961Y1599D01*
X989Y1599D02*
X1008Y1599D01*
X1043Y1599D02*
X1061Y1599D01*
X1089Y1599D02*
X1108Y1599D01*
X1143Y1599D02*
X1161Y1599D01*
X1189Y1599D02*
X1208Y1599D01*
X1243Y1599D02*
X1262Y1599D01*
X1289Y1599D02*
X1308Y1599D01*
X1343Y1599D02*
X1362Y1599D01*
X1390Y1599D02*
X1408Y1599D01*
X1443Y1599D02*
X1462Y1599D01*
X1490Y1599D02*
X1508Y1599D01*
X1543Y1599D02*
X1562Y1599D01*
X1590Y1599D02*
X1609Y1599D01*
X1643Y1599D02*
X1662Y1599D01*
X1690Y1599D02*
X1709Y1599D01*
X1744Y1599D02*
X1762Y1599D01*
X1790Y1599D02*
X1809Y1599D01*
X1844Y1599D02*
X1862Y1599D01*
X1890Y1599D02*
X1909Y1599D01*
X1944Y1599D02*
X1963Y1599D01*
X1990Y1599D02*
X2009Y1599D01*
X2044Y1599D02*
X2063Y1599D01*
X2091Y1599D02*
X2109Y1599D01*
X2144Y1599D02*
X2163Y1599D01*
X2191Y1599D02*
X2209Y1599D01*
X2244Y1599D02*
X2263Y1599D01*
X789Y1598D02*
X808Y1598D01*
X842Y1598D02*
X861Y1598D01*
X889Y1598D02*
X908Y1598D01*
X942Y1598D02*
X961Y1598D01*
X989Y1598D02*
X1008Y1598D01*
X1042Y1598D02*
X1061Y1598D01*
X1089Y1598D02*
X1108Y1598D01*
X1142Y1598D02*
X1161Y1598D01*
X1190Y1598D02*
X1208Y1598D01*
X1243Y1598D02*
X1261Y1598D01*
X1290Y1598D02*
X1309Y1598D01*
X1343Y1598D02*
X1362Y1598D01*
X1390Y1598D02*
X1409Y1598D01*
X1443Y1598D02*
X1462Y1598D01*
X1490Y1598D02*
X1509Y1598D01*
X1543Y1598D02*
X1562Y1598D01*
X1590Y1598D02*
X1609Y1598D01*
X1643Y1598D02*
X1662Y1598D01*
X1690Y1598D02*
X1709Y1598D01*
X1743Y1598D02*
X1762Y1598D01*
X1790Y1598D02*
X1809Y1598D01*
X1843Y1598D02*
X1862Y1598D01*
X1890Y1598D02*
X1909Y1598D01*
X1943Y1598D02*
X1962Y1598D01*
X1991Y1598D02*
X2009Y1598D01*
X2044Y1598D02*
X2062Y1598D01*
X2091Y1598D02*
X2110Y1598D01*
X2144Y1598D02*
X2163Y1598D01*
X2191Y1598D02*
X2210Y1598D01*
X2244Y1598D02*
X2263Y1598D01*
X789Y1597D02*
X808Y1597D01*
X842Y1597D02*
X861Y1597D01*
X889Y1597D02*
X908Y1597D01*
X942Y1597D02*
X961Y1597D01*
X989Y1597D02*
X1008Y1597D01*
X1042Y1597D02*
X1061Y1597D01*
X1090Y1597D02*
X1109Y1597D01*
X1142Y1597D02*
X1161Y1597D01*
X1190Y1597D02*
X1209Y1597D01*
X1242Y1597D02*
X1261Y1597D01*
X1290Y1597D02*
X1309Y1597D01*
X1342Y1597D02*
X1361Y1597D01*
X1390Y1597D02*
X1409Y1597D01*
X1443Y1597D02*
X1462Y1597D01*
X1490Y1597D02*
X1509Y1597D01*
X1543Y1597D02*
X1562Y1597D01*
X1590Y1597D02*
X1609Y1597D01*
X1643Y1597D02*
X1662Y1597D01*
X1690Y1597D02*
X1709Y1597D01*
X1743Y1597D02*
X1762Y1597D01*
X1790Y1597D02*
X1810Y1597D01*
X1843Y1597D02*
X1862Y1597D01*
X1891Y1597D02*
X1910Y1597D01*
X1943Y1597D02*
X1962Y1597D01*
X1991Y1597D02*
X2010Y1597D01*
X2043Y1597D02*
X2062Y1597D01*
X2091Y1597D02*
X2110Y1597D01*
X2143Y1597D02*
X2162Y1597D01*
X2191Y1597D02*
X2210Y1597D01*
X2244Y1597D02*
X2263Y1597D01*
X789Y1596D02*
X809Y1596D01*
X841Y1596D02*
X861Y1596D01*
X890Y1596D02*
X909Y1596D01*
X941Y1596D02*
X961Y1596D01*
X990Y1596D02*
X1009Y1596D01*
X1041Y1596D02*
X1061Y1596D01*
X1090Y1596D02*
X1109Y1596D01*
X1142Y1596D02*
X1161Y1596D01*
X1190Y1596D02*
X1209Y1596D01*
X1242Y1596D02*
X1261Y1596D01*
X1290Y1596D02*
X1309Y1596D01*
X1342Y1596D02*
X1361Y1596D01*
X1390Y1596D02*
X1410Y1596D01*
X1442Y1596D02*
X1461Y1596D01*
X1490Y1596D02*
X1510Y1596D01*
X1542Y1596D02*
X1561Y1596D01*
X1590Y1596D02*
X1610Y1596D01*
X1642Y1596D02*
X1662Y1596D01*
X1691Y1596D02*
X1710Y1596D01*
X1742Y1596D02*
X1762Y1596D01*
X1791Y1596D02*
X1810Y1596D01*
X1842Y1596D02*
X1862Y1596D01*
X1891Y1596D02*
X1910Y1596D01*
X1943Y1596D02*
X1962Y1596D01*
X1991Y1596D02*
X2010Y1596D01*
X2043Y1596D02*
X2062Y1596D01*
X2091Y1596D02*
X2110Y1596D01*
X2143Y1596D02*
X2162Y1596D01*
X2191Y1596D02*
X2211Y1596D01*
X2243Y1596D02*
X2262Y1596D01*
X790Y1595D02*
X809Y1595D01*
X841Y1595D02*
X860Y1595D01*
X890Y1595D02*
X909Y1595D01*
X941Y1595D02*
X960Y1595D01*
X990Y1595D02*
X1010Y1595D01*
X1041Y1595D02*
X1061Y1595D01*
X1090Y1595D02*
X1110Y1595D01*
X1141Y1595D02*
X1161Y1595D01*
X1190Y1595D02*
X1210Y1595D01*
X1241Y1595D02*
X1261Y1595D01*
X1290Y1595D02*
X1310Y1595D01*
X1341Y1595D02*
X1361Y1595D01*
X1390Y1595D02*
X1410Y1595D01*
X1441Y1595D02*
X1461Y1595D01*
X1491Y1595D02*
X1510Y1595D01*
X1542Y1595D02*
X1561Y1595D01*
X1591Y1595D02*
X1610Y1595D01*
X1642Y1595D02*
X1661Y1595D01*
X1691Y1595D02*
X1710Y1595D01*
X1742Y1595D02*
X1761Y1595D01*
X1791Y1595D02*
X1811Y1595D01*
X1842Y1595D02*
X1862Y1595D01*
X1891Y1595D02*
X1911Y1595D01*
X1942Y1595D02*
X1962Y1595D01*
X1991Y1595D02*
X2011Y1595D01*
X2042Y1595D02*
X2062Y1595D01*
X2091Y1595D02*
X2111Y1595D01*
X2142Y1595D02*
X2162Y1595D01*
X2191Y1595D02*
X2211Y1595D01*
X2242Y1595D02*
X2262Y1595D01*
X790Y1594D02*
X810Y1594D01*
X840Y1594D02*
X860Y1594D01*
X890Y1594D02*
X910Y1594D01*
X940Y1594D02*
X960Y1594D01*
X990Y1594D02*
X1010Y1594D01*
X1040Y1594D02*
X1060Y1594D01*
X1090Y1594D02*
X1110Y1594D01*
X1140Y1594D02*
X1160Y1594D01*
X1190Y1594D02*
X1210Y1594D01*
X1241Y1594D02*
X1261Y1594D01*
X1291Y1594D02*
X1311Y1594D01*
X1341Y1594D02*
X1361Y1594D01*
X1391Y1594D02*
X1411Y1594D01*
X1441Y1594D02*
X1461Y1594D01*
X1491Y1594D02*
X1511Y1594D01*
X1541Y1594D02*
X1561Y1594D01*
X1591Y1594D02*
X1611Y1594D01*
X1641Y1594D02*
X1661Y1594D01*
X1691Y1594D02*
X1711Y1594D01*
X1741Y1594D02*
X1761Y1594D01*
X1791Y1594D02*
X1811Y1594D01*
X1841Y1594D02*
X1861Y1594D01*
X1891Y1594D02*
X1911Y1594D01*
X1941Y1594D02*
X1961Y1594D01*
X1991Y1594D02*
X2011Y1594D01*
X2042Y1594D02*
X2062Y1594D01*
X2092Y1594D02*
X2112Y1594D01*
X2142Y1594D02*
X2162Y1594D01*
X2192Y1594D02*
X2212Y1594D01*
X2242Y1594D02*
X2262Y1594D01*
X790Y1593D02*
X811Y1593D01*
X839Y1593D02*
X860Y1593D01*
X890Y1593D02*
X911Y1593D01*
X939Y1593D02*
X960Y1593D01*
X991Y1593D02*
X1011Y1593D01*
X1039Y1593D02*
X1060Y1593D01*
X1091Y1593D02*
X1111Y1593D01*
X1140Y1593D02*
X1160Y1593D01*
X1191Y1593D02*
X1211Y1593D01*
X1240Y1593D02*
X1260Y1593D01*
X1291Y1593D02*
X1311Y1593D01*
X1340Y1593D02*
X1360Y1593D01*
X1391Y1593D02*
X1412Y1593D01*
X1440Y1593D02*
X1460Y1593D01*
X1491Y1593D02*
X1512Y1593D01*
X1540Y1593D02*
X1561Y1593D01*
X1591Y1593D02*
X1612Y1593D01*
X1640Y1593D02*
X1661Y1593D01*
X1691Y1593D02*
X1712Y1593D01*
X1740Y1593D02*
X1761Y1593D01*
X1792Y1593D02*
X1812Y1593D01*
X1840Y1593D02*
X1861Y1593D01*
X1892Y1593D02*
X1912Y1593D01*
X1941Y1593D02*
X1961Y1593D01*
X1992Y1593D02*
X2012Y1593D01*
X2041Y1593D02*
X2061Y1593D01*
X2092Y1593D02*
X2112Y1593D01*
X2141Y1593D02*
X2161Y1593D01*
X2192Y1593D02*
X2213Y1593D01*
X2241Y1593D02*
X2261Y1593D01*
X791Y1592D02*
X812Y1592D01*
X838Y1592D02*
X859Y1592D01*
X891Y1592D02*
X912Y1592D01*
X938Y1592D02*
X959Y1592D01*
X991Y1592D02*
X1012Y1592D01*
X1039Y1592D02*
X1060Y1592D01*
X1091Y1592D02*
X1112Y1592D01*
X1139Y1592D02*
X1160Y1592D01*
X1191Y1592D02*
X1212Y1592D01*
X1239Y1592D02*
X1260Y1592D01*
X1291Y1592D02*
X1312Y1592D01*
X1339Y1592D02*
X1360Y1592D01*
X1391Y1592D02*
X1412Y1592D01*
X1439Y1592D02*
X1460Y1592D01*
X1492Y1592D02*
X1513Y1592D01*
X1539Y1592D02*
X1560Y1592D01*
X1592Y1592D02*
X1613Y1592D01*
X1639Y1592D02*
X1660Y1592D01*
X1692Y1592D02*
X1713Y1592D01*
X1739Y1592D02*
X1760Y1592D01*
X1792Y1592D02*
X1813Y1592D01*
X1840Y1592D02*
X1861Y1592D01*
X1892Y1592D02*
X1913Y1592D01*
X1940Y1592D02*
X1961Y1592D01*
X1992Y1592D02*
X2013Y1592D01*
X2040Y1592D02*
X2061Y1592D01*
X2092Y1592D02*
X2113Y1592D01*
X2140Y1592D02*
X2161Y1592D01*
X2192Y1592D02*
X2213Y1592D01*
X2240Y1592D02*
X2261Y1592D01*
X791Y1591D02*
X813Y1591D01*
X837Y1591D02*
X859Y1591D01*
X891Y1591D02*
X913Y1591D01*
X937Y1591D02*
X959Y1591D01*
X991Y1591D02*
X1013Y1591D01*
X1037Y1591D02*
X1059Y1591D01*
X1091Y1591D02*
X1113Y1591D01*
X1138Y1591D02*
X1159Y1591D01*
X1191Y1591D02*
X1213Y1591D01*
X1238Y1591D02*
X1259Y1591D01*
X1292Y1591D02*
X1313Y1591D01*
X1338Y1591D02*
X1360Y1591D01*
X1392Y1591D02*
X1413Y1591D01*
X1438Y1591D02*
X1460Y1591D01*
X1492Y1591D02*
X1514Y1591D01*
X1538Y1591D02*
X1560Y1591D01*
X1592Y1591D02*
X1614Y1591D01*
X1638Y1591D02*
X1660Y1591D01*
X1692Y1591D02*
X1714Y1591D01*
X1738Y1591D02*
X1760Y1591D01*
X1792Y1591D02*
X1814Y1591D01*
X1839Y1591D02*
X1860Y1591D01*
X1892Y1591D02*
X1914Y1591D01*
X1939Y1591D02*
X1960Y1591D01*
X1993Y1591D02*
X2014Y1591D01*
X2039Y1591D02*
X2060Y1591D01*
X2093Y1591D02*
X2114Y1591D01*
X2139Y1591D02*
X2161Y1591D01*
X2193Y1591D02*
X2214Y1591D01*
X2239Y1591D02*
X2261Y1591D01*
X791Y1590D02*
X814Y1590D01*
X836Y1590D02*
X859Y1590D01*
X891Y1590D02*
X914Y1590D01*
X936Y1590D02*
X959Y1590D01*
X992Y1590D02*
X1014Y1590D01*
X1036Y1590D02*
X1059Y1590D01*
X1092Y1590D02*
X1114Y1590D01*
X1136Y1590D02*
X1159Y1590D01*
X1192Y1590D02*
X1214Y1590D01*
X1237Y1590D02*
X1259Y1590D01*
X1292Y1590D02*
X1315Y1590D01*
X1337Y1590D02*
X1359Y1590D01*
X1392Y1590D02*
X1415Y1590D01*
X1437Y1590D02*
X1459Y1590D01*
X1492Y1590D02*
X1515Y1590D01*
X1537Y1590D02*
X1559Y1590D01*
X1592Y1590D02*
X1615Y1590D01*
X1637Y1590D02*
X1660Y1590D01*
X1692Y1590D02*
X1715Y1590D01*
X1737Y1590D02*
X1760Y1590D01*
X1793Y1590D02*
X1815Y1590D01*
X1837Y1590D02*
X1860Y1590D01*
X1893Y1590D02*
X1915Y1590D01*
X1937Y1590D02*
X1960Y1590D01*
X1993Y1590D02*
X2015Y1590D01*
X2038Y1590D02*
X2060Y1590D01*
X2093Y1590D02*
X2116Y1590D01*
X2138Y1590D02*
X2160Y1590D01*
X2193Y1590D02*
X2216Y1590D01*
X2238Y1590D02*
X2260Y1590D01*
X792Y1589D02*
X815Y1589D01*
X835Y1589D02*
X858Y1589D01*
X892Y1589D02*
X915Y1589D01*
X935Y1589D02*
X958Y1589D01*
X992Y1589D02*
X1015Y1589D01*
X1035Y1589D02*
X1058Y1589D01*
X1092Y1589D02*
X1116Y1589D01*
X1135Y1589D02*
X1159Y1589D01*
X1192Y1589D02*
X1216Y1589D01*
X1235Y1589D02*
X1259Y1589D01*
X1292Y1589D02*
X1316Y1589D01*
X1335Y1589D02*
X1359Y1589D01*
X1393Y1589D02*
X1416Y1589D01*
X1436Y1589D02*
X1459Y1589D01*
X1493Y1589D02*
X1516Y1589D01*
X1536Y1589D02*
X1559Y1589D01*
X1593Y1589D02*
X1616Y1589D01*
X1636Y1589D02*
X1659Y1589D01*
X1693Y1589D02*
X1716Y1589D01*
X1736Y1589D02*
X1759Y1589D01*
X1793Y1589D02*
X1816Y1589D01*
X1836Y1589D02*
X1859Y1589D01*
X1893Y1589D02*
X1917Y1589D01*
X1936Y1589D02*
X1960Y1589D01*
X1993Y1589D02*
X2017Y1589D01*
X2036Y1589D02*
X2060Y1589D01*
X2093Y1589D02*
X2117Y1589D01*
X2136Y1589D02*
X2160Y1589D01*
X2194Y1589D02*
X2217Y1589D01*
X2237Y1589D02*
X2260Y1589D01*
X792Y1588D02*
X817Y1588D01*
X833Y1588D02*
X858Y1588D01*
X892Y1588D02*
X917Y1588D01*
X933Y1588D02*
X958Y1588D01*
X993Y1588D02*
X1017Y1588D01*
X1033Y1588D02*
X1058Y1588D01*
X1093Y1588D02*
X1117Y1588D01*
X1133Y1588D02*
X1158Y1588D01*
X1193Y1588D02*
X1217Y1588D01*
X1234Y1588D02*
X1258Y1588D01*
X1293Y1588D02*
X1318Y1588D01*
X1334Y1588D02*
X1358Y1588D01*
X1393Y1588D02*
X1418Y1588D01*
X1434Y1588D02*
X1458Y1588D01*
X1493Y1588D02*
X1518Y1588D01*
X1534Y1588D02*
X1559Y1588D01*
X1593Y1588D02*
X1618Y1588D01*
X1634Y1588D02*
X1659Y1588D01*
X1693Y1588D02*
X1718Y1588D01*
X1734Y1588D02*
X1759Y1588D01*
X1794Y1588D02*
X1818Y1588D01*
X1834Y1588D02*
X1859Y1588D01*
X1894Y1588D02*
X1918Y1588D01*
X1934Y1588D02*
X1959Y1588D01*
X1994Y1588D02*
X2018Y1588D01*
X2035Y1588D02*
X2059Y1588D01*
X2094Y1588D02*
X2119Y1588D01*
X2135Y1588D02*
X2159Y1588D01*
X2194Y1588D02*
X2219Y1588D01*
X2235Y1588D02*
X2259Y1588D01*
X793Y1587D02*
X820Y1587D01*
X830Y1587D02*
X857Y1587D01*
X893Y1587D02*
X920Y1587D01*
X930Y1587D02*
X957Y1587D01*
X993Y1587D02*
X1020Y1587D01*
X1031Y1587D02*
X1057Y1587D01*
X1093Y1587D02*
X1120Y1587D01*
X1131Y1587D02*
X1158Y1587D01*
X1193Y1587D02*
X1220Y1587D01*
X1231Y1587D02*
X1258Y1587D01*
X1293Y1587D02*
X1320Y1587D01*
X1331Y1587D02*
X1358Y1587D01*
X1394Y1587D02*
X1420Y1587D01*
X1431Y1587D02*
X1458Y1587D01*
X1494Y1587D02*
X1521Y1587D01*
X1531Y1587D02*
X1558Y1587D01*
X1594Y1587D02*
X1621Y1587D01*
X1631Y1587D02*
X1658Y1587D01*
X1694Y1587D02*
X1721Y1587D01*
X1731Y1587D02*
X1758Y1587D01*
X1794Y1587D02*
X1821Y1587D01*
X1832Y1587D02*
X1859Y1587D01*
X1894Y1587D02*
X1921Y1587D01*
X1932Y1587D02*
X1959Y1587D01*
X1994Y1587D02*
X2021Y1587D01*
X2032Y1587D02*
X2059Y1587D01*
X2094Y1587D02*
X2121Y1587D01*
X2132Y1587D02*
X2159Y1587D01*
X2195Y1587D02*
X2221Y1587D01*
X2232Y1587D02*
X2259Y1587D01*
X793Y1586D02*
X857Y1586D01*
X893Y1586D02*
X957Y1586D01*
X993Y1586D02*
X1057Y1586D01*
X1094Y1586D02*
X1157Y1586D01*
X1194Y1586D02*
X1257Y1586D01*
X1294Y1586D02*
X1357Y1586D01*
X1394Y1586D02*
X1457Y1586D01*
X1494Y1586D02*
X1558Y1586D01*
X1594Y1586D02*
X1658Y1586D01*
X1694Y1586D02*
X1758Y1586D01*
X1795Y1586D02*
X1858Y1586D01*
X1895Y1586D02*
X1958Y1586D01*
X1995Y1586D02*
X2058Y1586D01*
X2095Y1586D02*
X2158Y1586D01*
X2195Y1586D02*
X2259Y1586D01*
X794Y1585D02*
X856Y1585D01*
X894Y1585D02*
X956Y1585D01*
X994Y1585D02*
X1056Y1585D01*
X1094Y1585D02*
X1157Y1585D01*
X1194Y1585D02*
X1257Y1585D01*
X1294Y1585D02*
X1357Y1585D01*
X1395Y1585D02*
X1457Y1585D01*
X1495Y1585D02*
X1557Y1585D01*
X1595Y1585D02*
X1657Y1585D01*
X1695Y1585D02*
X1757Y1585D01*
X1795Y1585D02*
X1857Y1585D01*
X1895Y1585D02*
X1958Y1585D01*
X1995Y1585D02*
X2058Y1585D01*
X2095Y1585D02*
X2158Y1585D01*
X2196Y1585D02*
X2258Y1585D01*
X794Y1584D02*
X856Y1584D01*
X895Y1584D02*
X956Y1584D01*
X995Y1584D02*
X1056Y1584D01*
X1095Y1584D02*
X1156Y1584D01*
X1195Y1584D02*
X1256Y1584D01*
X1295Y1584D02*
X1356Y1584D01*
X1395Y1584D02*
X1456Y1584D01*
X1495Y1584D02*
X1556Y1584D01*
X1595Y1584D02*
X1657Y1584D01*
X1696Y1584D02*
X1757Y1584D01*
X1796Y1584D02*
X1857Y1584D01*
X1896Y1584D02*
X1957Y1584D01*
X1996Y1584D02*
X2057Y1584D01*
X2096Y1584D02*
X2157Y1584D01*
X2196Y1584D02*
X2257Y1584D01*
X795Y1583D02*
X855Y1583D01*
X895Y1583D02*
X955Y1583D01*
X995Y1583D02*
X1055Y1583D01*
X1095Y1583D02*
X1155Y1583D01*
X1196Y1583D02*
X1255Y1583D01*
X1296Y1583D02*
X1356Y1583D01*
X1396Y1583D02*
X1456Y1583D01*
X1496Y1583D02*
X1556Y1583D01*
X1596Y1583D02*
X1656Y1583D01*
X1696Y1583D02*
X1756Y1583D01*
X1796Y1583D02*
X1856Y1583D01*
X1896Y1583D02*
X1956Y1583D01*
X1997Y1583D02*
X2056Y1583D01*
X2097Y1583D02*
X2157Y1583D01*
X2197Y1583D02*
X2257Y1583D01*
X796Y1582D02*
X854Y1582D01*
X896Y1582D02*
X954Y1582D01*
X996Y1582D02*
X1054Y1582D01*
X1096Y1582D02*
X1155Y1582D01*
X1196Y1582D02*
X1255Y1582D01*
X1296Y1582D02*
X1355Y1582D01*
X1397Y1582D02*
X1455Y1582D01*
X1497Y1582D02*
X1555Y1582D01*
X1597Y1582D02*
X1655Y1582D01*
X1697Y1582D02*
X1755Y1582D01*
X1797Y1582D02*
X1855Y1582D01*
X1897Y1582D02*
X1956Y1582D01*
X1997Y1582D02*
X2056Y1582D01*
X2097Y1582D02*
X2156Y1582D01*
X2198Y1582D02*
X2256Y1582D01*
X796Y1581D02*
X853Y1581D01*
X897Y1581D02*
X954Y1581D01*
X997Y1581D02*
X1054Y1581D01*
X1097Y1581D02*
X1154Y1581D01*
X1197Y1581D02*
X1254Y1581D01*
X1297Y1581D02*
X1354Y1581D01*
X1397Y1581D02*
X1454Y1581D01*
X1497Y1581D02*
X1554Y1581D01*
X1598Y1581D02*
X1655Y1581D01*
X1698Y1581D02*
X1755Y1581D01*
X1798Y1581D02*
X1855Y1581D01*
X1898Y1581D02*
X1955Y1581D01*
X1998Y1581D02*
X2055Y1581D01*
X2098Y1581D02*
X2155Y1581D01*
X2198Y1581D02*
X2255Y1581D01*
X797Y1580D02*
X853Y1580D01*
X897Y1580D02*
X953Y1580D01*
X998Y1580D02*
X1053Y1580D01*
X1098Y1580D02*
X1153Y1580D01*
X1198Y1580D02*
X1253Y1580D01*
X1298Y1580D02*
X1353Y1580D01*
X1398Y1580D02*
X1453Y1580D01*
X1498Y1580D02*
X1554Y1580D01*
X1598Y1580D02*
X1654Y1580D01*
X1698Y1580D02*
X1754Y1580D01*
X1799Y1580D02*
X1854Y1580D01*
X1899Y1580D02*
X1954Y1580D01*
X1999Y1580D02*
X2054Y1580D01*
X2099Y1580D02*
X2154Y1580D01*
X2199Y1580D02*
X2255Y1580D01*
X798Y1579D02*
X852Y1579D01*
X898Y1579D02*
X952Y1579D01*
X998Y1579D02*
X1052Y1579D01*
X1099Y1579D02*
X1152Y1579D01*
X1199Y1579D02*
X1252Y1579D01*
X1299Y1579D02*
X1352Y1579D01*
X1399Y1579D02*
X1453Y1579D01*
X1499Y1579D02*
X1553Y1579D01*
X1599Y1579D02*
X1653Y1579D01*
X1699Y1579D02*
X1753Y1579D01*
X1799Y1579D02*
X1853Y1579D01*
X1900Y1579D02*
X1953Y1579D01*
X2000Y1579D02*
X2053Y1579D01*
X2100Y1579D02*
X2153Y1579D01*
X2200Y1579D02*
X2254Y1579D01*
X799Y1578D02*
X851Y1578D01*
X899Y1578D02*
X951Y1578D01*
X999Y1578D02*
X1051Y1578D01*
X1099Y1578D02*
X1151Y1578D01*
X1200Y1578D02*
X1251Y1578D01*
X1300Y1578D02*
X1352Y1578D01*
X1400Y1578D02*
X1452Y1578D01*
X1500Y1578D02*
X1552Y1578D01*
X1600Y1578D02*
X1652Y1578D01*
X1700Y1578D02*
X1752Y1578D01*
X1800Y1578D02*
X1852Y1578D01*
X1900Y1578D02*
X1952Y1578D01*
X2001Y1578D02*
X2052Y1578D01*
X2101Y1578D02*
X2153Y1578D01*
X2201Y1578D02*
X2253Y1578D01*
X800Y1577D02*
X850Y1577D01*
X900Y1577D02*
X950Y1577D01*
X1000Y1577D02*
X1050Y1577D01*
X1100Y1577D02*
X1150Y1577D01*
X1201Y1577D02*
X1250Y1577D01*
X1301Y1577D02*
X1351Y1577D01*
X1401Y1577D02*
X1451Y1577D01*
X1501Y1577D02*
X1551Y1577D01*
X1601Y1577D02*
X1651Y1577D01*
X1701Y1577D02*
X1751Y1577D01*
X1801Y1577D02*
X1851Y1577D01*
X1901Y1577D02*
X1951Y1577D01*
X2002Y1577D02*
X2051Y1577D01*
X2102Y1577D02*
X2152Y1577D01*
X2202Y1577D02*
X2252Y1577D01*
X801Y1576D02*
X849Y1576D01*
X901Y1576D02*
X949Y1576D01*
X1001Y1576D02*
X1049Y1576D01*
X1102Y1576D02*
X1149Y1576D01*
X1202Y1576D02*
X1249Y1576D01*
X1302Y1576D02*
X1349Y1576D01*
X1402Y1576D02*
X1450Y1576D01*
X1502Y1576D02*
X1550Y1576D01*
X1602Y1576D02*
X1650Y1576D01*
X1702Y1576D02*
X1750Y1576D01*
X1802Y1576D02*
X1850Y1576D01*
X1903Y1576D02*
X1950Y1576D01*
X2003Y1576D02*
X2050Y1576D01*
X2103Y1576D02*
X2150Y1576D01*
X2203Y1576D02*
X2251Y1576D01*
X802Y1575D02*
X848Y1575D01*
X903Y1575D02*
X948Y1575D01*
X1003Y1575D02*
X1048Y1575D01*
X1103Y1575D02*
X1148Y1575D01*
X1203Y1575D02*
X1248Y1575D01*
X1303Y1575D02*
X1348Y1575D01*
X1403Y1575D02*
X1448Y1575D01*
X1503Y1575D02*
X1548Y1575D01*
X1603Y1575D02*
X1649Y1575D01*
X1704Y1575D02*
X1749Y1575D01*
X1804Y1575D02*
X1849Y1575D01*
X1904Y1575D02*
X1949Y1575D01*
X2004Y1575D02*
X2049Y1575D01*
X2104Y1575D02*
X2149Y1575D01*
X2204Y1575D02*
X2249Y1575D01*
X804Y1574D02*
X846Y1574D01*
X904Y1574D02*
X946Y1574D01*
X1004Y1574D02*
X1046Y1574D01*
X1104Y1574D02*
X1147Y1574D01*
X1204Y1574D02*
X1247Y1574D01*
X1304Y1574D02*
X1347Y1574D01*
X1405Y1574D02*
X1447Y1574D01*
X1505Y1574D02*
X1547Y1574D01*
X1605Y1574D02*
X1647Y1574D01*
X1705Y1574D02*
X1747Y1574D01*
X1805Y1574D02*
X1847Y1574D01*
X1905Y1574D02*
X1948Y1574D01*
X2005Y1574D02*
X2048Y1574D01*
X2105Y1574D02*
X2148Y1574D01*
X2206Y1574D02*
X2248Y1574D01*
X805Y1573D02*
X845Y1573D01*
X905Y1573D02*
X945Y1573D01*
X1006Y1573D02*
X1045Y1573D01*
X1106Y1573D02*
X1145Y1573D01*
X1206Y1573D02*
X1245Y1573D01*
X1306Y1573D02*
X1345Y1573D01*
X1406Y1573D02*
X1445Y1573D01*
X1506Y1573D02*
X1546Y1573D01*
X1606Y1573D02*
X1646Y1573D01*
X1706Y1573D02*
X1746Y1573D01*
X1807Y1573D02*
X1846Y1573D01*
X1907Y1573D02*
X1946Y1573D01*
X2007Y1573D02*
X2046Y1573D01*
X2107Y1573D02*
X2146Y1573D01*
X2207Y1573D02*
X2246Y1573D01*
X807Y1572D02*
X843Y1572D01*
X907Y1572D02*
X943Y1572D01*
X1007Y1572D02*
X1043Y1572D01*
X1107Y1572D02*
X1143Y1572D01*
X1208Y1572D02*
X1243Y1572D01*
X1308Y1572D02*
X1344Y1572D01*
X1408Y1572D02*
X1444Y1572D01*
X1508Y1572D02*
X1544Y1572D01*
X1608Y1572D02*
X1644Y1572D01*
X1708Y1572D02*
X1744Y1572D01*
X1808Y1572D02*
X1844Y1572D01*
X1908Y1572D02*
X1944Y1572D01*
X2009Y1572D02*
X2044Y1572D01*
X2109Y1572D02*
X2145Y1572D01*
X2209Y1572D02*
X2245Y1572D01*
X809Y1571D02*
X841Y1571D01*
X909Y1571D02*
X941Y1571D01*
X1009Y1571D02*
X1041Y1571D01*
X1109Y1571D02*
X1141Y1571D01*
X1209Y1571D02*
X1242Y1571D01*
X1310Y1571D02*
X1342Y1571D01*
X1410Y1571D02*
X1442Y1571D01*
X1510Y1571D02*
X1542Y1571D01*
X1610Y1571D02*
X1642Y1571D01*
X1710Y1571D02*
X1742Y1571D01*
X1810Y1571D02*
X1842Y1571D01*
X1910Y1571D02*
X1942Y1571D01*
X2010Y1571D02*
X2043Y1571D01*
X2111Y1571D02*
X2143Y1571D01*
X2211Y1571D02*
X2243Y1571D01*
X811Y1570D02*
X839Y1570D01*
X911Y1570D02*
X939Y1570D01*
X1011Y1570D02*
X1039Y1570D01*
X1111Y1570D02*
X1139Y1570D01*
X1212Y1570D02*
X1239Y1570D01*
X1312Y1570D02*
X1340Y1570D01*
X1412Y1570D02*
X1440Y1570D01*
X1512Y1570D02*
X1540Y1570D01*
X1612Y1570D02*
X1640Y1570D01*
X1712Y1570D02*
X1740Y1570D01*
X1812Y1570D02*
X1840Y1570D01*
X1912Y1570D02*
X1940Y1570D01*
X2013Y1570D02*
X2040Y1570D01*
X2113Y1570D02*
X2141Y1570D01*
X2213Y1570D02*
X2241Y1570D01*
X814Y1569D02*
X836Y1569D01*
X914Y1569D02*
X936Y1569D01*
X1014Y1569D02*
X1036Y1569D01*
X1114Y1569D02*
X1137Y1569D01*
X1214Y1569D02*
X1237Y1569D01*
X1314Y1569D02*
X1337Y1569D01*
X1414Y1569D02*
X1437Y1569D01*
X1515Y1569D02*
X1537Y1569D01*
X1615Y1569D02*
X1637Y1569D01*
X1715Y1569D02*
X1737Y1569D01*
X1815Y1569D02*
X1838Y1569D01*
X1915Y1569D02*
X1938Y1569D01*
X2015Y1569D02*
X2038Y1569D01*
X2115Y1569D02*
X2138Y1569D01*
X2215Y1569D02*
X2238Y1569D01*
X817Y1568D02*
X833Y1568D01*
X917Y1568D02*
X933Y1568D01*
X1017Y1568D02*
X1033Y1568D01*
X1117Y1568D02*
X1133Y1568D01*
X1218Y1568D02*
X1233Y1568D01*
X1318Y1568D02*
X1334Y1568D01*
X1418Y1568D02*
X1434Y1568D01*
X1518Y1568D02*
X1534Y1568D01*
X1618Y1568D02*
X1634Y1568D01*
X1718Y1568D02*
X1734Y1568D01*
X1818Y1568D02*
X1834Y1568D01*
X1918Y1568D02*
X1934Y1568D01*
X2019Y1568D02*
X2034Y1568D01*
X2119Y1568D02*
X2135Y1568D01*
X2219Y1568D02*
X2235Y1568D01*
X823Y1567D02*
X827Y1567D01*
X923Y1567D02*
X927Y1567D01*
X1023Y1567D02*
X1027Y1567D01*
X1124Y1567D02*
X1127Y1567D01*
X1224Y1567D02*
X1227Y1567D01*
X1324Y1567D02*
X1327Y1567D01*
X1424Y1567D02*
X1427Y1567D01*
X1524Y1567D02*
X1528Y1567D01*
X1624Y1567D02*
X1628Y1567D01*
X1724Y1567D02*
X1728Y1567D01*
X1825Y1567D02*
X1828Y1567D01*
X1925Y1567D02*
X1928Y1567D01*
X2025Y1567D02*
X2028Y1567D01*
X2125Y1567D02*
X2128Y1567D01*
X2225Y1567D02*
X2229Y1567D01*
X819Y639D02*
X831Y639D01*
X919Y639D02*
X931Y639D01*
X1020Y639D02*
X1031Y639D01*
X1120Y639D02*
X1131Y639D01*
X1220Y639D02*
X1231Y639D01*
X1320Y639D02*
X1331Y639D01*
X1420Y639D02*
X1431Y639D01*
X1520Y639D02*
X1532Y639D01*
X1620Y639D02*
X1632Y639D01*
X1720Y639D02*
X1732Y639D01*
X1821Y639D02*
X1832Y639D01*
X1921Y639D02*
X1932Y639D01*
X2021Y639D02*
X2032Y639D01*
X2121Y639D02*
X2132Y639D01*
X2221Y639D02*
X2232Y639D01*
X815Y638D02*
X835Y638D01*
X915Y638D02*
X935Y638D01*
X1015Y638D02*
X1035Y638D01*
X1116Y638D02*
X1135Y638D01*
X1216Y638D02*
X1235Y638D01*
X1316Y638D02*
X1335Y638D01*
X1416Y638D02*
X1436Y638D01*
X1516Y638D02*
X1536Y638D01*
X1616Y638D02*
X1636Y638D01*
X1716Y638D02*
X1736Y638D01*
X1816Y638D02*
X1836Y638D01*
X1917Y638D02*
X1936Y638D01*
X2017Y638D02*
X2036Y638D01*
X2117Y638D02*
X2136Y638D01*
X2217Y638D02*
X2237Y638D01*
X812Y637D02*
X838Y637D01*
X912Y637D02*
X938Y637D01*
X1013Y637D02*
X1038Y637D01*
X1113Y637D02*
X1138Y637D01*
X1213Y637D02*
X1238Y637D01*
X1313Y637D02*
X1338Y637D01*
X1413Y637D02*
X1438Y637D01*
X1513Y637D02*
X1539Y637D01*
X1613Y637D02*
X1639Y637D01*
X1713Y637D02*
X1739Y637D01*
X1814Y637D02*
X1839Y637D01*
X1914Y637D02*
X1939Y637D01*
X2014Y637D02*
X2039Y637D01*
X2114Y637D02*
X2139Y637D01*
X2214Y637D02*
X2239Y637D01*
X810Y636D02*
X840Y636D01*
X910Y636D02*
X940Y636D01*
X1010Y636D02*
X1040Y636D01*
X1110Y636D02*
X1140Y636D01*
X1210Y636D02*
X1241Y636D01*
X1311Y636D02*
X1341Y636D01*
X1411Y636D02*
X1441Y636D01*
X1511Y636D02*
X1541Y636D01*
X1611Y636D02*
X1641Y636D01*
X1711Y636D02*
X1741Y636D01*
X1811Y636D02*
X1841Y636D01*
X1911Y636D02*
X1941Y636D01*
X2011Y636D02*
X2042Y636D01*
X2112Y636D02*
X2142Y636D01*
X2212Y636D02*
X2242Y636D01*
X808Y635D02*
X842Y635D01*
X908Y635D02*
X942Y635D01*
X1008Y635D02*
X1042Y635D01*
X1108Y635D02*
X1142Y635D01*
X1208Y635D02*
X1243Y635D01*
X1309Y635D02*
X1343Y635D01*
X1409Y635D02*
X1443Y635D01*
X1509Y635D02*
X1543Y635D01*
X1609Y635D02*
X1643Y635D01*
X1709Y635D02*
X1743Y635D01*
X1809Y635D02*
X1843Y635D01*
X1909Y635D02*
X1943Y635D01*
X2009Y635D02*
X2044Y635D01*
X2110Y635D02*
X2144Y635D01*
X2210Y635D02*
X2244Y635D01*
X806Y634D02*
X844Y634D01*
X906Y634D02*
X944Y634D01*
X1006Y634D02*
X1044Y634D01*
X1107Y634D02*
X1144Y634D01*
X1207Y634D02*
X1244Y634D01*
X1307Y634D02*
X1344Y634D01*
X1407Y634D02*
X1445Y634D01*
X1507Y634D02*
X1545Y634D01*
X1607Y634D02*
X1645Y634D01*
X1707Y634D02*
X1745Y634D01*
X1807Y634D02*
X1845Y634D01*
X1908Y634D02*
X1945Y634D01*
X2008Y634D02*
X2045Y634D01*
X2108Y634D02*
X2145Y634D01*
X2208Y634D02*
X2246Y634D01*
X805Y633D02*
X845Y633D01*
X905Y633D02*
X946Y633D01*
X1005Y633D02*
X1046Y633D01*
X1105Y633D02*
X1146Y633D01*
X1205Y633D02*
X1246Y633D01*
X1305Y633D02*
X1346Y633D01*
X1405Y633D02*
X1446Y633D01*
X1505Y633D02*
X1546Y633D01*
X1606Y633D02*
X1646Y633D01*
X1706Y633D02*
X1747Y633D01*
X1806Y633D02*
X1847Y633D01*
X1906Y633D02*
X1947Y633D01*
X2006Y633D02*
X2047Y633D01*
X2106Y633D02*
X2147Y633D01*
X2206Y633D02*
X2247Y633D01*
X803Y632D02*
X847Y632D01*
X903Y632D02*
X947Y632D01*
X1003Y632D02*
X1047Y632D01*
X1104Y632D02*
X1147Y632D01*
X1204Y632D02*
X1247Y632D01*
X1304Y632D02*
X1347Y632D01*
X1404Y632D02*
X1448Y632D01*
X1504Y632D02*
X1548Y632D01*
X1604Y632D02*
X1648Y632D01*
X1704Y632D02*
X1748Y632D01*
X1804Y632D02*
X1848Y632D01*
X1905Y632D02*
X1948Y632D01*
X2005Y632D02*
X2048Y632D01*
X2105Y632D02*
X2148Y632D01*
X2205Y632D02*
X2249Y632D01*
X802Y631D02*
X848Y631D01*
X902Y631D02*
X948Y631D01*
X1002Y631D02*
X1048Y631D01*
X1102Y631D02*
X1149Y631D01*
X1202Y631D02*
X1249Y631D01*
X1302Y631D02*
X1349Y631D01*
X1403Y631D02*
X1449Y631D01*
X1503Y631D02*
X1549Y631D01*
X1603Y631D02*
X1649Y631D01*
X1703Y631D02*
X1749Y631D01*
X1803Y631D02*
X1849Y631D01*
X1903Y631D02*
X1950Y631D01*
X2003Y631D02*
X2050Y631D01*
X2103Y631D02*
X2150Y631D01*
X2204Y631D02*
X2250Y631D01*
X801Y630D02*
X849Y630D01*
X901Y630D02*
X949Y630D01*
X1001Y630D02*
X1050Y630D01*
X1101Y630D02*
X1150Y630D01*
X1201Y630D02*
X1250Y630D01*
X1301Y630D02*
X1350Y630D01*
X1401Y630D02*
X1450Y630D01*
X1502Y630D02*
X1550Y630D01*
X1602Y630D02*
X1650Y630D01*
X1702Y630D02*
X1750Y630D01*
X1802Y630D02*
X1851Y630D01*
X1902Y630D02*
X1951Y630D01*
X2002Y630D02*
X2051Y630D01*
X2102Y630D02*
X2151Y630D01*
X2202Y630D02*
X2251Y630D01*
X800Y629D02*
X850Y629D01*
X900Y629D02*
X951Y629D01*
X1000Y629D02*
X1051Y629D01*
X1100Y629D02*
X1151Y629D01*
X1200Y629D02*
X1251Y629D01*
X1300Y629D02*
X1351Y629D01*
X1400Y629D02*
X1451Y629D01*
X1500Y629D02*
X1551Y629D01*
X1601Y629D02*
X1651Y629D01*
X1701Y629D02*
X1752Y629D01*
X1801Y629D02*
X1852Y629D01*
X1901Y629D02*
X1952Y629D01*
X2001Y629D02*
X2052Y629D01*
X2101Y629D02*
X2152Y629D01*
X2201Y629D02*
X2252Y629D01*
X799Y628D02*
X851Y628D01*
X899Y628D02*
X952Y628D01*
X999Y628D02*
X1052Y628D01*
X1099Y628D02*
X1152Y628D01*
X1199Y628D02*
X1252Y628D01*
X1299Y628D02*
X1352Y628D01*
X1399Y628D02*
X1452Y628D01*
X1499Y628D02*
X1552Y628D01*
X1600Y628D02*
X1652Y628D01*
X1700Y628D02*
X1753Y628D01*
X1800Y628D02*
X1853Y628D01*
X1900Y628D02*
X1953Y628D01*
X2000Y628D02*
X2053Y628D01*
X2100Y628D02*
X2153Y628D01*
X2200Y628D02*
X2253Y628D01*
X798Y627D02*
X852Y627D01*
X898Y627D02*
X952Y627D01*
X998Y627D02*
X1053Y627D01*
X1098Y627D02*
X1153Y627D01*
X1198Y627D02*
X1253Y627D01*
X1298Y627D02*
X1353Y627D01*
X1398Y627D02*
X1453Y627D01*
X1499Y627D02*
X1553Y627D01*
X1599Y627D02*
X1653Y627D01*
X1699Y627D02*
X1753Y627D01*
X1799Y627D02*
X1854Y627D01*
X1899Y627D02*
X1954Y627D01*
X1999Y627D02*
X2054Y627D01*
X2099Y627D02*
X2154Y627D01*
X2199Y627D02*
X2254Y627D01*
X797Y626D02*
X853Y626D01*
X897Y626D02*
X953Y626D01*
X997Y626D02*
X1053Y626D01*
X1097Y626D02*
X1154Y626D01*
X1197Y626D02*
X1254Y626D01*
X1297Y626D02*
X1354Y626D01*
X1398Y626D02*
X1454Y626D01*
X1498Y626D02*
X1554Y626D01*
X1598Y626D02*
X1654Y626D01*
X1698Y626D02*
X1754Y626D01*
X1798Y626D02*
X1854Y626D01*
X1898Y626D02*
X1955Y626D01*
X1998Y626D02*
X2055Y626D01*
X2099Y626D02*
X2155Y626D01*
X2199Y626D02*
X2255Y626D01*
X796Y625D02*
X854Y625D01*
X896Y625D02*
X954Y625D01*
X996Y625D02*
X1054Y625D01*
X1096Y625D02*
X1154Y625D01*
X1197Y625D02*
X1254Y625D01*
X1297Y625D02*
X1354Y625D01*
X1397Y625D02*
X1455Y625D01*
X1497Y625D02*
X1555Y625D01*
X1597Y625D02*
X1655Y625D01*
X1697Y625D02*
X1755Y625D01*
X1797Y625D02*
X1855Y625D01*
X1898Y625D02*
X1955Y625D01*
X1998Y625D02*
X2055Y625D01*
X2098Y625D02*
X2156Y625D01*
X2198Y625D02*
X2256Y625D01*
X795Y624D02*
X855Y624D01*
X896Y624D02*
X955Y624D01*
X996Y624D02*
X1055Y624D01*
X1096Y624D02*
X1155Y624D01*
X1196Y624D02*
X1255Y624D01*
X1296Y624D02*
X1355Y624D01*
X1396Y624D02*
X1455Y624D01*
X1496Y624D02*
X1555Y624D01*
X1596Y624D02*
X1656Y624D01*
X1697Y624D02*
X1756Y624D01*
X1797Y624D02*
X1856Y624D01*
X1897Y624D02*
X1956Y624D01*
X1997Y624D02*
X2056Y624D01*
X2097Y624D02*
X2156Y624D01*
X2197Y624D02*
X2256Y624D01*
X795Y623D02*
X855Y623D01*
X895Y623D02*
X955Y623D01*
X995Y623D02*
X1056Y623D01*
X1095Y623D02*
X1156Y623D01*
X1195Y623D02*
X1256Y623D01*
X1295Y623D02*
X1356Y623D01*
X1395Y623D02*
X1456Y623D01*
X1496Y623D02*
X1556Y623D01*
X1596Y623D02*
X1656Y623D01*
X1696Y623D02*
X1756Y623D01*
X1796Y623D02*
X1857Y623D01*
X1896Y623D02*
X1957Y623D01*
X1996Y623D02*
X2057Y623D01*
X2096Y623D02*
X2157Y623D01*
X2196Y623D02*
X2257Y623D01*
X794Y622D02*
X856Y622D01*
X894Y622D02*
X956Y622D01*
X994Y622D02*
X1056Y622D01*
X1095Y622D02*
X1156Y622D01*
X1195Y622D02*
X1256Y622D01*
X1295Y622D02*
X1356Y622D01*
X1395Y622D02*
X1457Y622D01*
X1495Y622D02*
X1557Y622D01*
X1595Y622D02*
X1657Y622D01*
X1695Y622D02*
X1757Y622D01*
X1795Y622D02*
X1857Y622D01*
X1896Y622D02*
X1957Y622D01*
X1996Y622D02*
X2057Y622D01*
X2096Y622D02*
X2157Y622D01*
X2196Y622D02*
X2258Y622D01*
X794Y621D02*
X856Y621D01*
X894Y621D02*
X957Y621D01*
X994Y621D02*
X1057Y621D01*
X1094Y621D02*
X1157Y621D01*
X1194Y621D02*
X1257Y621D01*
X1294Y621D02*
X1357Y621D01*
X1394Y621D02*
X1457Y621D01*
X1494Y621D02*
X1557Y621D01*
X1595Y621D02*
X1657Y621D01*
X1695Y621D02*
X1758Y621D01*
X1795Y621D02*
X1858Y621D01*
X1895Y621D02*
X1958Y621D01*
X1995Y621D02*
X2058Y621D01*
X2095Y621D02*
X2158Y621D01*
X2195Y621D02*
X2258Y621D01*
X793Y620D02*
X823Y620D01*
X827Y620D02*
X857Y620D01*
X893Y620D02*
X923Y620D01*
X927Y620D02*
X957Y620D01*
X993Y620D02*
X1023Y620D01*
X1027Y620D02*
X1057Y620D01*
X1093Y620D02*
X1123Y620D01*
X1127Y620D02*
X1157Y620D01*
X1193Y620D02*
X1224Y620D01*
X1227Y620D02*
X1257Y620D01*
X1294Y620D02*
X1324Y620D01*
X1328Y620D02*
X1358Y620D01*
X1394Y620D02*
X1424Y620D01*
X1428Y620D02*
X1458Y620D01*
X1494Y620D02*
X1524Y620D01*
X1528Y620D02*
X1558Y620D01*
X1594Y620D02*
X1624Y620D01*
X1628Y620D02*
X1658Y620D01*
X1694Y620D02*
X1724Y620D01*
X1728Y620D02*
X1758Y620D01*
X1794Y620D02*
X1824Y620D01*
X1828Y620D02*
X1858Y620D01*
X1894Y620D02*
X1924Y620D01*
X1928Y620D02*
X1958Y620D01*
X1995Y620D02*
X2025Y620D01*
X2028Y620D02*
X2059Y620D01*
X2095Y620D02*
X2125Y620D01*
X2129Y620D02*
X2159Y620D01*
X2195Y620D02*
X2225Y620D01*
X2229Y620D02*
X2259Y620D01*
X792Y619D02*
X818Y619D01*
X832Y619D02*
X857Y619D01*
X893Y619D02*
X918Y619D01*
X932Y619D02*
X958Y619D01*
X993Y619D02*
X1018Y619D01*
X1032Y619D02*
X1058Y619D01*
X1093Y619D02*
X1118Y619D01*
X1132Y619D02*
X1158Y619D01*
X1193Y619D02*
X1218Y619D01*
X1233Y619D02*
X1258Y619D01*
X1293Y619D02*
X1319Y619D01*
X1333Y619D02*
X1358Y619D01*
X1393Y619D02*
X1419Y619D01*
X1433Y619D02*
X1458Y619D01*
X1493Y619D02*
X1519Y619D01*
X1533Y619D02*
X1558Y619D01*
X1594Y619D02*
X1619Y619D01*
X1633Y619D02*
X1658Y619D01*
X1694Y619D02*
X1719Y619D01*
X1733Y619D02*
X1759Y619D01*
X1794Y619D02*
X1819Y619D01*
X1833Y619D02*
X1859Y619D01*
X1894Y619D02*
X1919Y619D01*
X1933Y619D02*
X1959Y619D01*
X1994Y619D02*
X2019Y619D01*
X2034Y619D02*
X2059Y619D01*
X2094Y619D02*
X2120Y619D01*
X2134Y619D02*
X2159Y619D01*
X2194Y619D02*
X2220Y619D01*
X2234Y619D02*
X2259Y619D01*
X792Y618D02*
X816Y618D01*
X834Y618D02*
X858Y618D01*
X892Y618D02*
X916Y618D01*
X934Y618D02*
X958Y618D01*
X992Y618D02*
X1016Y618D01*
X1034Y618D02*
X1058Y618D01*
X1092Y618D02*
X1116Y618D01*
X1134Y618D02*
X1158Y618D01*
X1193Y618D02*
X1216Y618D01*
X1234Y618D02*
X1258Y618D01*
X1293Y618D02*
X1317Y618D01*
X1335Y618D02*
X1359Y618D01*
X1393Y618D02*
X1417Y618D01*
X1435Y618D02*
X1459Y618D01*
X1493Y618D02*
X1517Y618D01*
X1535Y618D02*
X1559Y618D01*
X1593Y618D02*
X1617Y618D01*
X1635Y618D02*
X1659Y618D01*
X1693Y618D02*
X1717Y618D01*
X1735Y618D02*
X1759Y618D01*
X1793Y618D02*
X1817Y618D01*
X1835Y618D02*
X1859Y618D01*
X1893Y618D02*
X1917Y618D01*
X1935Y618D02*
X1959Y618D01*
X1994Y618D02*
X2018Y618D01*
X2035Y618D02*
X2059Y618D01*
X2094Y618D02*
X2118Y618D01*
X2136Y618D02*
X2160Y618D01*
X2194Y618D02*
X2218Y618D01*
X2236Y618D02*
X2260Y618D01*
X792Y617D02*
X814Y617D01*
X836Y617D02*
X858Y617D01*
X892Y617D02*
X915Y617D01*
X936Y617D02*
X959Y617D01*
X992Y617D02*
X1015Y617D01*
X1036Y617D02*
X1059Y617D01*
X1092Y617D02*
X1115Y617D01*
X1136Y617D02*
X1159Y617D01*
X1192Y617D02*
X1215Y617D01*
X1236Y617D02*
X1259Y617D01*
X1292Y617D02*
X1315Y617D01*
X1336Y617D02*
X1359Y617D01*
X1392Y617D02*
X1415Y617D01*
X1436Y617D02*
X1459Y617D01*
X1492Y617D02*
X1515Y617D01*
X1536Y617D02*
X1559Y617D01*
X1593Y617D02*
X1615Y617D01*
X1637Y617D02*
X1659Y617D01*
X1693Y617D02*
X1716Y617D01*
X1737Y617D02*
X1760Y617D01*
X1793Y617D02*
X1816Y617D01*
X1837Y617D02*
X1860Y617D01*
X1893Y617D02*
X1916Y617D01*
X1937Y617D02*
X1960Y617D01*
X1993Y617D02*
X2016Y617D01*
X2037Y617D02*
X2060Y617D01*
X2093Y617D02*
X2116Y617D01*
X2137Y617D02*
X2160Y617D01*
X2193Y617D02*
X2216Y617D01*
X2237Y617D02*
X2260Y617D01*
X791Y616D02*
X813Y616D01*
X837Y616D02*
X859Y616D01*
X891Y616D02*
X913Y616D01*
X937Y616D02*
X959Y616D01*
X991Y616D02*
X1014Y616D01*
X1037Y616D02*
X1059Y616D01*
X1092Y616D02*
X1114Y616D01*
X1137Y616D02*
X1159Y616D01*
X1192Y616D02*
X1214Y616D01*
X1237Y616D02*
X1259Y616D01*
X1292Y616D02*
X1314Y616D01*
X1337Y616D02*
X1359Y616D01*
X1392Y616D02*
X1414Y616D01*
X1437Y616D02*
X1460Y616D01*
X1492Y616D02*
X1514Y616D01*
X1538Y616D02*
X1560Y616D01*
X1592Y616D02*
X1614Y616D01*
X1638Y616D02*
X1660Y616D01*
X1692Y616D02*
X1714Y616D01*
X1738Y616D02*
X1760Y616D01*
X1792Y616D02*
X1815Y616D01*
X1838Y616D02*
X1860Y616D01*
X1893Y616D02*
X1915Y616D01*
X1938Y616D02*
X1960Y616D01*
X1993Y616D02*
X2015Y616D01*
X2038Y616D02*
X2060Y616D01*
X2093Y616D02*
X2115Y616D01*
X2138Y616D02*
X2160Y616D01*
X2193Y616D02*
X2215Y616D01*
X2238Y616D02*
X2261Y616D01*
X791Y615D02*
X812Y615D01*
X838Y615D02*
X859Y615D01*
X891Y615D02*
X912Y615D01*
X938Y615D02*
X959Y615D01*
X991Y615D02*
X1012Y615D01*
X1038Y615D02*
X1059Y615D01*
X1091Y615D02*
X1113Y615D01*
X1138Y615D02*
X1160Y615D01*
X1191Y615D02*
X1213Y615D01*
X1238Y615D02*
X1260Y615D01*
X1291Y615D02*
X1313Y615D01*
X1338Y615D02*
X1360Y615D01*
X1392Y615D02*
X1413Y615D01*
X1439Y615D02*
X1460Y615D01*
X1492Y615D02*
X1513Y615D01*
X1539Y615D02*
X1560Y615D01*
X1592Y615D02*
X1613Y615D01*
X1639Y615D02*
X1660Y615D01*
X1692Y615D02*
X1713Y615D01*
X1739Y615D02*
X1760Y615D01*
X1792Y615D02*
X1813Y615D01*
X1839Y615D02*
X1860Y615D01*
X1892Y615D02*
X1914Y615D01*
X1939Y615D02*
X1961Y615D01*
X1992Y615D02*
X2014Y615D01*
X2039Y615D02*
X2061Y615D01*
X2092Y615D02*
X2114Y615D01*
X2139Y615D02*
X2161Y615D01*
X2193Y615D02*
X2214Y615D01*
X2240Y615D02*
X2261Y615D01*
X790Y614D02*
X811Y614D01*
X839Y614D02*
X860Y614D01*
X891Y614D02*
X911Y614D01*
X939Y614D02*
X960Y614D01*
X991Y614D02*
X1012Y614D01*
X1039Y614D02*
X1060Y614D01*
X1091Y614D02*
X1112Y614D01*
X1139Y614D02*
X1160Y614D01*
X1191Y614D02*
X1212Y614D01*
X1239Y614D02*
X1260Y614D01*
X1291Y614D02*
X1312Y614D01*
X1339Y614D02*
X1360Y614D01*
X1391Y614D02*
X1412Y614D01*
X1439Y614D02*
X1460Y614D01*
X1491Y614D02*
X1512Y614D01*
X1540Y614D02*
X1560Y614D01*
X1591Y614D02*
X1612Y614D01*
X1640Y614D02*
X1661Y614D01*
X1692Y614D02*
X1712Y614D01*
X1740Y614D02*
X1761Y614D01*
X1792Y614D02*
X1813Y614D01*
X1840Y614D02*
X1861Y614D01*
X1892Y614D02*
X1913Y614D01*
X1940Y614D02*
X1961Y614D01*
X1992Y614D02*
X2013Y614D01*
X2040Y614D02*
X2061Y614D01*
X2092Y614D02*
X2113Y614D01*
X2140Y614D02*
X2161Y614D01*
X2192Y614D02*
X2213Y614D01*
X2240Y614D02*
X2261Y614D01*
X790Y613D02*
X810Y613D01*
X840Y613D02*
X860Y613D01*
X890Y613D02*
X911Y613D01*
X940Y613D02*
X960Y613D01*
X990Y613D02*
X1011Y613D01*
X1040Y613D02*
X1060Y613D01*
X1090Y613D02*
X1111Y613D01*
X1140Y613D02*
X1160Y613D01*
X1191Y613D02*
X1211Y613D01*
X1240Y613D02*
X1260Y613D01*
X1291Y613D02*
X1311Y613D01*
X1340Y613D02*
X1361Y613D01*
X1391Y613D02*
X1411Y613D01*
X1440Y613D02*
X1461Y613D01*
X1491Y613D02*
X1511Y613D01*
X1540Y613D02*
X1561Y613D01*
X1591Y613D02*
X1611Y613D01*
X1641Y613D02*
X1661Y613D01*
X1691Y613D02*
X1712Y613D01*
X1741Y613D02*
X1761Y613D01*
X1791Y613D02*
X1812Y613D01*
X1841Y613D02*
X1861Y613D01*
X1892Y613D02*
X1912Y613D01*
X1941Y613D02*
X1961Y613D01*
X1992Y613D02*
X2012Y613D01*
X2041Y613D02*
X2061Y613D01*
X2092Y613D02*
X2112Y613D01*
X2141Y613D02*
X2162Y613D01*
X2192Y613D02*
X2212Y613D01*
X2241Y613D02*
X2262Y613D01*
X790Y612D02*
X810Y612D01*
X840Y612D02*
X860Y612D01*
X890Y612D02*
X910Y612D01*
X940Y612D02*
X960Y612D01*
X990Y612D02*
X1010Y612D01*
X1041Y612D02*
X1060Y612D01*
X1090Y612D02*
X1110Y612D01*
X1141Y612D02*
X1161Y612D01*
X1190Y612D02*
X1210Y612D01*
X1241Y612D02*
X1261Y612D01*
X1290Y612D02*
X1310Y612D01*
X1341Y612D02*
X1361Y612D01*
X1391Y612D02*
X1410Y612D01*
X1441Y612D02*
X1461Y612D01*
X1491Y612D02*
X1510Y612D01*
X1541Y612D02*
X1561Y612D01*
X1591Y612D02*
X1611Y612D01*
X1641Y612D02*
X1661Y612D01*
X1691Y612D02*
X1711Y612D01*
X1741Y612D02*
X1761Y612D01*
X1791Y612D02*
X1811Y612D01*
X1842Y612D02*
X1861Y612D01*
X1891Y612D02*
X1911Y612D01*
X1942Y612D02*
X1962Y612D01*
X1991Y612D02*
X2011Y612D01*
X2042Y612D02*
X2062Y612D01*
X2091Y612D02*
X2111Y612D01*
X2142Y612D02*
X2162Y612D01*
X2192Y612D02*
X2211Y612D01*
X2242Y612D02*
X2262Y612D01*
X790Y611D02*
X809Y611D01*
X841Y611D02*
X860Y611D01*
X890Y611D02*
X909Y611D01*
X941Y611D02*
X961Y611D01*
X990Y611D02*
X1009Y611D01*
X1041Y611D02*
X1061Y611D01*
X1090Y611D02*
X1109Y611D01*
X1141Y611D02*
X1161Y611D01*
X1190Y611D02*
X1210Y611D01*
X1241Y611D02*
X1261Y611D01*
X1290Y611D02*
X1310Y611D01*
X1342Y611D02*
X1361Y611D01*
X1390Y611D02*
X1410Y611D01*
X1442Y611D02*
X1461Y611D01*
X1490Y611D02*
X1510Y611D01*
X1542Y611D02*
X1561Y611D01*
X1591Y611D02*
X1610Y611D01*
X1642Y611D02*
X1661Y611D01*
X1691Y611D02*
X1710Y611D01*
X1742Y611D02*
X1762Y611D01*
X1791Y611D02*
X1810Y611D01*
X1842Y611D02*
X1862Y611D01*
X1891Y611D02*
X1910Y611D01*
X1942Y611D02*
X1962Y611D01*
X1991Y611D02*
X2011Y611D01*
X2042Y611D02*
X2062Y611D01*
X2091Y611D02*
X2111Y611D01*
X2143Y611D02*
X2162Y611D01*
X2191Y611D02*
X2211Y611D01*
X2243Y611D02*
X2262Y611D01*
X789Y610D02*
X808Y610D01*
X841Y610D02*
X861Y610D01*
X889Y610D02*
X909Y610D01*
X942Y610D02*
X961Y610D01*
X990Y610D02*
X1009Y610D01*
X1042Y610D02*
X1061Y610D01*
X1090Y610D02*
X1109Y610D01*
X1142Y610D02*
X1161Y610D01*
X1190Y610D02*
X1209Y610D01*
X1242Y610D02*
X1261Y610D01*
X1290Y610D02*
X1309Y610D01*
X1342Y610D02*
X1361Y610D01*
X1390Y610D02*
X1409Y610D01*
X1442Y610D02*
X1461Y610D01*
X1490Y610D02*
X1509Y610D01*
X1542Y610D02*
X1562Y610D01*
X1590Y610D02*
X1609Y610D01*
X1643Y610D02*
X1662Y610D01*
X1690Y610D02*
X1710Y610D01*
X1743Y610D02*
X1762Y610D01*
X1791Y610D02*
X1810Y610D01*
X1843Y610D02*
X1862Y610D01*
X1891Y610D02*
X1910Y610D01*
X1943Y610D02*
X1962Y610D01*
X1991Y610D02*
X2010Y610D01*
X2043Y610D02*
X2062Y610D01*
X2091Y610D02*
X2110Y610D01*
X2143Y610D02*
X2162Y610D01*
X2191Y610D02*
X2210Y610D01*
X2243Y610D02*
X2262Y610D01*
X789Y609D02*
X808Y609D01*
X842Y609D02*
X861Y609D01*
X889Y609D02*
X908Y609D01*
X942Y609D02*
X961Y609D01*
X989Y609D02*
X1008Y609D01*
X1042Y609D02*
X1061Y609D01*
X1089Y609D02*
X1108Y609D01*
X1142Y609D02*
X1161Y609D01*
X1190Y609D02*
X1209Y609D01*
X1242Y609D02*
X1261Y609D01*
X1290Y609D02*
X1309Y609D01*
X1343Y609D02*
X1361Y609D01*
X1390Y609D02*
X1409Y609D01*
X1443Y609D02*
X1462Y609D01*
X1490Y609D02*
X1509Y609D01*
X1543Y609D02*
X1562Y609D01*
X1590Y609D02*
X1609Y609D01*
X1643Y609D02*
X1662Y609D01*
X1690Y609D02*
X1709Y609D01*
X1743Y609D02*
X1762Y609D01*
X1790Y609D02*
X1809Y609D01*
X1843Y609D02*
X1862Y609D01*
X1891Y609D02*
X1909Y609D01*
X1943Y609D02*
X1962Y609D01*
X1991Y609D02*
X2010Y609D01*
X2043Y609D02*
X2062Y609D01*
X2091Y609D02*
X2110Y609D01*
X2144Y609D02*
X2163Y609D01*
X2191Y609D02*
X2210Y609D01*
X2244Y609D02*
X2263Y609D01*
X789Y608D02*
X808Y608D01*
X842Y608D02*
X861Y608D01*
X889Y608D02*
X908Y608D01*
X942Y608D02*
X961Y608D01*
X989Y608D02*
X1008Y608D01*
X1042Y608D02*
X1061Y608D01*
X1089Y608D02*
X1108Y608D01*
X1143Y608D02*
X1161Y608D01*
X1189Y608D02*
X1208Y608D01*
X1243Y608D02*
X1262Y608D01*
X1290Y608D02*
X1308Y608D01*
X1343Y608D02*
X1362Y608D01*
X1390Y608D02*
X1409Y608D01*
X1443Y608D02*
X1462Y608D01*
X1490Y608D02*
X1509Y608D01*
X1543Y608D02*
X1562Y608D01*
X1590Y608D02*
X1609Y608D01*
X1643Y608D02*
X1662Y608D01*
X1690Y608D02*
X1709Y608D01*
X1743Y608D02*
X1762Y608D01*
X1790Y608D02*
X1809Y608D01*
X1844Y608D02*
X1862Y608D01*
X1890Y608D02*
X1909Y608D01*
X1944Y608D02*
X1962Y608D01*
X1990Y608D02*
X2009Y608D01*
X2044Y608D02*
X2063Y608D01*
X2091Y608D02*
X2109Y608D01*
X2144Y608D02*
X2163Y608D01*
X2191Y608D02*
X2210Y608D01*
X2244Y608D02*
X2263Y608D01*
X789Y607D02*
X807Y607D01*
X843Y607D02*
X861Y607D01*
X889Y607D02*
X908Y607D01*
X943Y607D02*
X961Y607D01*
X989Y607D02*
X1008Y607D01*
X1043Y607D02*
X1061Y607D01*
X1089Y607D02*
X1108Y607D01*
X1143Y607D02*
X1162Y607D01*
X1189Y607D02*
X1208Y607D01*
X1243Y607D02*
X1262Y607D01*
X1289Y607D02*
X1308Y607D01*
X1343Y607D02*
X1362Y607D01*
X1390Y607D02*
X1408Y607D01*
X1443Y607D02*
X1462Y607D01*
X1490Y607D02*
X1508Y607D01*
X1543Y607D02*
X1562Y607D01*
X1590Y607D02*
X1608Y607D01*
X1644Y607D02*
X1662Y607D01*
X1690Y607D02*
X1709Y607D01*
X1744Y607D02*
X1762Y607D01*
X1790Y607D02*
X1809Y607D01*
X1844Y607D02*
X1862Y607D01*
X1890Y607D02*
X1909Y607D01*
X1944Y607D02*
X1963Y607D01*
X1990Y607D02*
X2009Y607D01*
X2044Y607D02*
X2063Y607D01*
X2090Y607D02*
X2109Y607D01*
X2144Y607D02*
X2163Y607D01*
X2191Y607D02*
X2209Y607D01*
X2244Y607D02*
X2263Y607D01*
X789Y606D02*
X807Y606D01*
X843Y606D02*
X861Y606D01*
X889Y606D02*
X907Y606D01*
X943Y606D02*
X961Y606D01*
X989Y606D02*
X1007Y606D01*
X1043Y606D02*
X1062Y606D01*
X1089Y606D02*
X1108Y606D01*
X1143Y606D02*
X1162Y606D01*
X1189Y606D02*
X1208Y606D01*
X1243Y606D02*
X1262Y606D01*
X1289Y606D02*
X1308Y606D01*
X1343Y606D02*
X1362Y606D01*
X1389Y606D02*
X1408Y606D01*
X1443Y606D02*
X1462Y606D01*
X1490Y606D02*
X1508Y606D01*
X1544Y606D02*
X1562Y606D01*
X1590Y606D02*
X1608Y606D01*
X1644Y606D02*
X1662Y606D01*
X1690Y606D02*
X1708Y606D01*
X1744Y606D02*
X1762Y606D01*
X1790Y606D02*
X1809Y606D01*
X1844Y606D02*
X1863Y606D01*
X1890Y606D02*
X1909Y606D01*
X1944Y606D02*
X1963Y606D01*
X1990Y606D02*
X2009Y606D01*
X2044Y606D02*
X2063Y606D01*
X2090Y606D02*
X2109Y606D01*
X2144Y606D02*
X2163Y606D01*
X2190Y606D02*
X2209Y606D01*
X2245Y606D02*
X2263Y606D01*
X789Y605D02*
X807Y605D01*
X843Y605D02*
X861Y605D01*
X889Y605D02*
X907Y605D01*
X943Y605D02*
X962Y605D01*
X989Y605D02*
X1007Y605D01*
X1043Y605D02*
X1062Y605D01*
X1089Y605D02*
X1108Y605D01*
X1143Y605D02*
X1162Y605D01*
X1189Y605D02*
X1208Y605D01*
X1243Y605D02*
X1262Y605D01*
X1289Y605D02*
X1308Y605D01*
X1343Y605D02*
X1362Y605D01*
X1389Y605D02*
X1408Y605D01*
X1444Y605D02*
X1462Y605D01*
X1489Y605D02*
X1508Y605D01*
X1544Y605D02*
X1562Y605D01*
X1590Y605D02*
X1608Y605D01*
X1644Y605D02*
X1662Y605D01*
X1690Y605D02*
X1708Y605D01*
X1744Y605D02*
X1763Y605D01*
X1790Y605D02*
X1808Y605D01*
X1844Y605D02*
X1863Y605D01*
X1890Y605D02*
X1909Y605D01*
X1944Y605D02*
X1963Y605D01*
X1990Y605D02*
X2009Y605D01*
X2044Y605D02*
X2063Y605D01*
X2090Y605D02*
X2109Y605D01*
X2144Y605D02*
X2163Y605D01*
X2190Y605D02*
X2209Y605D01*
X2245Y605D02*
X2263Y605D01*
X789Y604D02*
X807Y604D01*
X843Y604D02*
X861Y604D01*
X889Y604D02*
X907Y604D01*
X943Y604D02*
X962Y604D01*
X989Y604D02*
X1007Y604D01*
X1043Y604D02*
X1062Y604D01*
X1089Y604D02*
X1107Y604D01*
X1143Y604D02*
X1162Y604D01*
X1189Y604D02*
X1208Y604D01*
X1243Y604D02*
X1262Y604D01*
X1289Y604D02*
X1308Y604D01*
X1344Y604D02*
X1362Y604D01*
X1389Y604D02*
X1408Y604D01*
X1444Y604D02*
X1462Y604D01*
X1489Y604D02*
X1508Y604D01*
X1544Y604D02*
X1562Y604D01*
X1590Y604D02*
X1608Y604D01*
X1644Y604D02*
X1662Y604D01*
X1690Y604D02*
X1708Y604D01*
X1744Y604D02*
X1763Y604D01*
X1790Y604D02*
X1808Y604D01*
X1844Y604D02*
X1863Y604D01*
X1890Y604D02*
X1908Y604D01*
X1944Y604D02*
X1963Y604D01*
X1990Y604D02*
X2009Y604D01*
X2044Y604D02*
X2063Y604D01*
X2090Y604D02*
X2109Y604D01*
X2145Y604D02*
X2163Y604D01*
X2190Y604D02*
X2209Y604D01*
X2245Y604D02*
X2263Y604D01*
X788Y603D02*
X807Y603D01*
X843Y603D02*
X862Y603D01*
X889Y603D02*
X907Y603D01*
X943Y603D02*
X962Y603D01*
X989Y603D02*
X1007Y603D01*
X1043Y603D02*
X1062Y603D01*
X1089Y603D02*
X1107Y603D01*
X1143Y603D02*
X1162Y603D01*
X1189Y603D02*
X1208Y603D01*
X1243Y603D02*
X1262Y603D01*
X1289Y603D02*
X1308Y603D01*
X1344Y603D02*
X1362Y603D01*
X1389Y603D02*
X1408Y603D01*
X1444Y603D02*
X1462Y603D01*
X1489Y603D02*
X1508Y603D01*
X1544Y603D02*
X1562Y603D01*
X1589Y603D02*
X1608Y603D01*
X1644Y603D02*
X1663Y603D01*
X1690Y603D02*
X1708Y603D01*
X1744Y603D02*
X1763Y603D01*
X1790Y603D02*
X1808Y603D01*
X1844Y603D02*
X1863Y603D01*
X1890Y603D02*
X1908Y603D01*
X1944Y603D02*
X1963Y603D01*
X1990Y603D02*
X2009Y603D01*
X2044Y603D02*
X2063Y603D01*
X2090Y603D02*
X2109Y603D01*
X2145Y603D02*
X2163Y603D01*
X2190Y603D02*
X2209Y603D01*
X2245Y603D02*
X2263Y603D01*
X788Y602D02*
X807Y602D01*
X843Y602D02*
X861Y602D01*
X889Y602D02*
X907Y602D01*
X943Y602D02*
X962Y602D01*
X989Y602D02*
X1007Y602D01*
X1043Y602D02*
X1062Y602D01*
X1089Y602D02*
X1107Y602D01*
X1143Y602D02*
X1162Y602D01*
X1189Y602D02*
X1208Y602D01*
X1243Y602D02*
X1262Y602D01*
X1289Y602D02*
X1308Y602D01*
X1344Y602D02*
X1362Y602D01*
X1389Y602D02*
X1408Y602D01*
X1444Y602D02*
X1462Y602D01*
X1489Y602D02*
X1508Y602D01*
X1544Y602D02*
X1562Y602D01*
X1589Y602D02*
X1608Y602D01*
X1644Y602D02*
X1663Y602D01*
X1690Y602D02*
X1708Y602D01*
X1744Y602D02*
X1763Y602D01*
X1790Y602D02*
X1808Y602D01*
X1844Y602D02*
X1863Y602D01*
X1890Y602D02*
X1908Y602D01*
X1944Y602D02*
X1963Y602D01*
X1990Y602D02*
X2009Y602D01*
X2044Y602D02*
X2063Y602D01*
X2090Y602D02*
X2109Y602D01*
X2145Y602D02*
X2163Y602D01*
X2190Y602D02*
X2209Y602D01*
X2245Y602D02*
X2263Y602D01*
X789Y601D02*
X807Y601D01*
X843Y601D02*
X861Y601D01*
X889Y601D02*
X907Y601D01*
X943Y601D02*
X962Y601D01*
X989Y601D02*
X1007Y601D01*
X1043Y601D02*
X1062Y601D01*
X1089Y601D02*
X1107Y601D01*
X1143Y601D02*
X1162Y601D01*
X1189Y601D02*
X1208Y601D01*
X1243Y601D02*
X1262Y601D01*
X1289Y601D02*
X1308Y601D01*
X1344Y601D02*
X1362Y601D01*
X1389Y601D02*
X1408Y601D01*
X1444Y601D02*
X1462Y601D01*
X1489Y601D02*
X1508Y601D01*
X1544Y601D02*
X1562Y601D01*
X1590Y601D02*
X1608Y601D01*
X1644Y601D02*
X1662Y601D01*
X1690Y601D02*
X1708Y601D01*
X1744Y601D02*
X1763Y601D01*
X1790Y601D02*
X1808Y601D01*
X1844Y601D02*
X1863Y601D01*
X1890Y601D02*
X1908Y601D01*
X1944Y601D02*
X1963Y601D01*
X1990Y601D02*
X2009Y601D01*
X2044Y601D02*
X2063Y601D01*
X2090Y601D02*
X2109Y601D01*
X2145Y601D02*
X2163Y601D01*
X2190Y601D02*
X2209Y601D01*
X2245Y601D02*
X2263Y601D01*
X789Y600D02*
X807Y600D01*
X843Y600D02*
X861Y600D01*
X889Y600D02*
X907Y600D01*
X943Y600D02*
X962Y600D01*
X989Y600D02*
X1007Y600D01*
X1043Y600D02*
X1062Y600D01*
X1089Y600D02*
X1108Y600D01*
X1143Y600D02*
X1162Y600D01*
X1189Y600D02*
X1208Y600D01*
X1243Y600D02*
X1262Y600D01*
X1289Y600D02*
X1308Y600D01*
X1343Y600D02*
X1362Y600D01*
X1389Y600D02*
X1408Y600D01*
X1444Y600D02*
X1462Y600D01*
X1489Y600D02*
X1508Y600D01*
X1544Y600D02*
X1562Y600D01*
X1590Y600D02*
X1608Y600D01*
X1644Y600D02*
X1662Y600D01*
X1690Y600D02*
X1708Y600D01*
X1744Y600D02*
X1763Y600D01*
X1790Y600D02*
X1808Y600D01*
X1844Y600D02*
X1863Y600D01*
X1890Y600D02*
X1909Y600D01*
X1944Y600D02*
X1963Y600D01*
X1990Y600D02*
X2009Y600D01*
X2044Y600D02*
X2063Y600D01*
X2090Y600D02*
X2109Y600D01*
X2144Y600D02*
X2163Y600D01*
X2190Y600D02*
X2209Y600D01*
X2245Y600D02*
X2263Y600D01*
X789Y599D02*
X807Y599D01*
X843Y599D02*
X861Y599D01*
X889Y599D02*
X907Y599D01*
X943Y599D02*
X961Y599D01*
X989Y599D02*
X1008Y599D01*
X1043Y599D02*
X1062Y599D01*
X1089Y599D02*
X1108Y599D01*
X1143Y599D02*
X1162Y599D01*
X1189Y599D02*
X1208Y599D01*
X1243Y599D02*
X1262Y599D01*
X1289Y599D02*
X1308Y599D01*
X1343Y599D02*
X1362Y599D01*
X1389Y599D02*
X1408Y599D01*
X1443Y599D02*
X1462Y599D01*
X1490Y599D02*
X1508Y599D01*
X1544Y599D02*
X1562Y599D01*
X1590Y599D02*
X1608Y599D01*
X1644Y599D02*
X1662Y599D01*
X1690Y599D02*
X1708Y599D01*
X1744Y599D02*
X1762Y599D01*
X1790Y599D02*
X1809Y599D01*
X1844Y599D02*
X1863Y599D01*
X1890Y599D02*
X1909Y599D01*
X1944Y599D02*
X1963Y599D01*
X1990Y599D02*
X2009Y599D01*
X2044Y599D02*
X2063Y599D01*
X2090Y599D02*
X2109Y599D01*
X2144Y599D02*
X2163Y599D01*
X2190Y599D02*
X2209Y599D01*
X2244Y599D02*
X2263Y599D01*
X789Y598D02*
X807Y598D01*
X842Y598D02*
X861Y598D01*
X889Y598D02*
X908Y598D01*
X943Y598D02*
X961Y598D01*
X989Y598D02*
X1008Y598D01*
X1043Y598D02*
X1061Y598D01*
X1089Y598D02*
X1108Y598D01*
X1143Y598D02*
X1162Y598D01*
X1189Y598D02*
X1208Y598D01*
X1243Y598D02*
X1262Y598D01*
X1289Y598D02*
X1308Y598D01*
X1343Y598D02*
X1362Y598D01*
X1390Y598D02*
X1408Y598D01*
X1443Y598D02*
X1462Y598D01*
X1490Y598D02*
X1508Y598D01*
X1543Y598D02*
X1562Y598D01*
X1590Y598D02*
X1609Y598D01*
X1643Y598D02*
X1662Y598D01*
X1690Y598D02*
X1709Y598D01*
X1744Y598D02*
X1762Y598D01*
X1790Y598D02*
X1809Y598D01*
X1844Y598D02*
X1862Y598D01*
X1890Y598D02*
X1909Y598D01*
X1944Y598D02*
X1963Y598D01*
X1990Y598D02*
X2009Y598D01*
X2044Y598D02*
X2063Y598D01*
X2090Y598D02*
X2109Y598D01*
X2144Y598D02*
X2163Y598D01*
X2191Y598D02*
X2209Y598D01*
X2244Y598D02*
X2263Y598D01*
X789Y597D02*
X808Y597D01*
X842Y597D02*
X861Y597D01*
X889Y597D02*
X908Y597D01*
X942Y597D02*
X961Y597D01*
X989Y597D02*
X1008Y597D01*
X1042Y597D02*
X1061Y597D01*
X1089Y597D02*
X1108Y597D01*
X1143Y597D02*
X1161Y597D01*
X1189Y597D02*
X1208Y597D01*
X1243Y597D02*
X1262Y597D01*
X1290Y597D02*
X1308Y597D01*
X1343Y597D02*
X1362Y597D01*
X1390Y597D02*
X1409Y597D01*
X1443Y597D02*
X1462Y597D01*
X1490Y597D02*
X1509Y597D01*
X1543Y597D02*
X1562Y597D01*
X1590Y597D02*
X1609Y597D01*
X1643Y597D02*
X1662Y597D01*
X1690Y597D02*
X1709Y597D01*
X1743Y597D02*
X1762Y597D01*
X1790Y597D02*
X1809Y597D01*
X1843Y597D02*
X1862Y597D01*
X1890Y597D02*
X1909Y597D01*
X1944Y597D02*
X1962Y597D01*
X1990Y597D02*
X2009Y597D01*
X2044Y597D02*
X2063Y597D01*
X2091Y597D02*
X2109Y597D01*
X2144Y597D02*
X2163Y597D01*
X2191Y597D02*
X2210Y597D01*
X2244Y597D02*
X2263Y597D01*
X789Y596D02*
X808Y596D01*
X842Y596D02*
X861Y596D01*
X889Y596D02*
X908Y596D01*
X942Y596D02*
X961Y596D01*
X989Y596D02*
X1008Y596D01*
X1042Y596D02*
X1061Y596D01*
X1090Y596D02*
X1108Y596D01*
X1142Y596D02*
X1161Y596D01*
X1190Y596D02*
X1209Y596D01*
X1242Y596D02*
X1261Y596D01*
X1290Y596D02*
X1309Y596D01*
X1343Y596D02*
X1361Y596D01*
X1390Y596D02*
X1409Y596D01*
X1443Y596D02*
X1462Y596D01*
X1490Y596D02*
X1509Y596D01*
X1543Y596D02*
X1562Y596D01*
X1590Y596D02*
X1609Y596D01*
X1643Y596D02*
X1662Y596D01*
X1690Y596D02*
X1709Y596D01*
X1743Y596D02*
X1762Y596D01*
X1790Y596D02*
X1809Y596D01*
X1843Y596D02*
X1862Y596D01*
X1891Y596D02*
X1909Y596D01*
X1943Y596D02*
X1962Y596D01*
X1991Y596D02*
X2010Y596D01*
X2043Y596D02*
X2062Y596D01*
X2091Y596D02*
X2110Y596D01*
X2144Y596D02*
X2162Y596D01*
X2191Y596D02*
X2210Y596D01*
X2244Y596D02*
X2263Y596D01*
X789Y595D02*
X809Y595D01*
X841Y595D02*
X861Y595D01*
X889Y595D02*
X909Y595D01*
X942Y595D02*
X961Y595D01*
X990Y595D02*
X1009Y595D01*
X1042Y595D02*
X1061Y595D01*
X1090Y595D02*
X1109Y595D01*
X1142Y595D02*
X1161Y595D01*
X1190Y595D02*
X1209Y595D01*
X1242Y595D02*
X1261Y595D01*
X1290Y595D02*
X1309Y595D01*
X1342Y595D02*
X1361Y595D01*
X1390Y595D02*
X1409Y595D01*
X1442Y595D02*
X1461Y595D01*
X1490Y595D02*
X1509Y595D01*
X1542Y595D02*
X1562Y595D01*
X1590Y595D02*
X1610Y595D01*
X1642Y595D02*
X1662Y595D01*
X1690Y595D02*
X1710Y595D01*
X1743Y595D02*
X1762Y595D01*
X1791Y595D02*
X1810Y595D01*
X1843Y595D02*
X1862Y595D01*
X1891Y595D02*
X1910Y595D01*
X1943Y595D02*
X1962Y595D01*
X1991Y595D02*
X2010Y595D01*
X2043Y595D02*
X2062Y595D01*
X2091Y595D02*
X2110Y595D01*
X2143Y595D02*
X2162Y595D01*
X2191Y595D02*
X2210Y595D01*
X2243Y595D02*
X2262Y595D01*
X790Y594D02*
X809Y594D01*
X841Y594D02*
X860Y594D01*
X890Y594D02*
X909Y594D01*
X941Y594D02*
X960Y594D01*
X990Y594D02*
X1009Y594D01*
X1041Y594D02*
X1061Y594D01*
X1090Y594D02*
X1110Y594D01*
X1141Y594D02*
X1161Y594D01*
X1190Y594D02*
X1210Y594D01*
X1241Y594D02*
X1261Y594D01*
X1290Y594D02*
X1310Y594D01*
X1341Y594D02*
X1361Y594D01*
X1390Y594D02*
X1410Y594D01*
X1442Y594D02*
X1461Y594D01*
X1490Y594D02*
X1510Y594D01*
X1542Y594D02*
X1561Y594D01*
X1591Y594D02*
X1610Y594D01*
X1642Y594D02*
X1661Y594D01*
X1691Y594D02*
X1710Y594D01*
X1742Y594D02*
X1762Y594D01*
X1791Y594D02*
X1810Y594D01*
X1842Y594D02*
X1862Y594D01*
X1891Y594D02*
X1911Y594D01*
X1942Y594D02*
X1962Y594D01*
X1991Y594D02*
X2011Y594D01*
X2042Y594D02*
X2062Y594D01*
X2091Y594D02*
X2111Y594D01*
X2142Y594D02*
X2162Y594D01*
X2191Y594D02*
X2211Y594D01*
X2243Y594D02*
X2262Y594D01*
X790Y593D02*
X810Y593D01*
X840Y593D02*
X860Y593D01*
X890Y593D02*
X910Y593D01*
X940Y593D02*
X960Y593D01*
X990Y593D02*
X1010Y593D01*
X1040Y593D02*
X1060Y593D01*
X1090Y593D02*
X1110Y593D01*
X1141Y593D02*
X1160Y593D01*
X1190Y593D02*
X1210Y593D01*
X1241Y593D02*
X1261Y593D01*
X1291Y593D02*
X1310Y593D01*
X1341Y593D02*
X1361Y593D01*
X1391Y593D02*
X1410Y593D01*
X1441Y593D02*
X1461Y593D01*
X1491Y593D02*
X1511Y593D01*
X1541Y593D02*
X1561Y593D01*
X1591Y593D02*
X1611Y593D01*
X1641Y593D02*
X1661Y593D01*
X1691Y593D02*
X1711Y593D01*
X1741Y593D02*
X1761Y593D01*
X1791Y593D02*
X1811Y593D01*
X1842Y593D02*
X1861Y593D01*
X1891Y593D02*
X1911Y593D01*
X1942Y593D02*
X1961Y593D01*
X1991Y593D02*
X2011Y593D01*
X2042Y593D02*
X2062Y593D01*
X2092Y593D02*
X2111Y593D01*
X2142Y593D02*
X2162Y593D01*
X2192Y593D02*
X2212Y593D01*
X2242Y593D02*
X2262Y593D01*
X790Y592D02*
X811Y592D01*
X839Y592D02*
X860Y592D01*
X890Y592D02*
X911Y592D01*
X940Y592D02*
X960Y592D01*
X990Y592D02*
X1011Y592D01*
X1040Y592D02*
X1060Y592D01*
X1091Y592D02*
X1111Y592D01*
X1140Y592D02*
X1160Y592D01*
X1191Y592D02*
X1211Y592D01*
X1240Y592D02*
X1260Y592D01*
X1291Y592D02*
X1311Y592D01*
X1340Y592D02*
X1360Y592D01*
X1391Y592D02*
X1411Y592D01*
X1440Y592D02*
X1461Y592D01*
X1491Y592D02*
X1511Y592D01*
X1540Y592D02*
X1561Y592D01*
X1591Y592D02*
X1612Y592D01*
X1640Y592D02*
X1661Y592D01*
X1691Y592D02*
X1712Y592D01*
X1741Y592D02*
X1761Y592D01*
X1791Y592D02*
X1812Y592D01*
X1841Y592D02*
X1861Y592D01*
X1892Y592D02*
X1912Y592D01*
X1941Y592D02*
X1961Y592D01*
X1992Y592D02*
X2012Y592D01*
X2041Y592D02*
X2061Y592D01*
X2092Y592D02*
X2112Y592D01*
X2141Y592D02*
X2161Y592D01*
X2192Y592D02*
X2212Y592D01*
X2241Y592D02*
X2262Y592D01*
X790Y591D02*
X811Y591D01*
X839Y591D02*
X859Y591D01*
X891Y591D02*
X912Y591D01*
X939Y591D02*
X960Y591D01*
X991Y591D02*
X1012Y591D01*
X1039Y591D02*
X1060Y591D01*
X1091Y591D02*
X1112Y591D01*
X1139Y591D02*
X1160Y591D01*
X1191Y591D02*
X1212Y591D01*
X1239Y591D02*
X1260Y591D01*
X1291Y591D02*
X1312Y591D01*
X1339Y591D02*
X1360Y591D01*
X1391Y591D02*
X1412Y591D01*
X1439Y591D02*
X1460Y591D01*
X1491Y591D02*
X1512Y591D01*
X1539Y591D02*
X1560Y591D01*
X1592Y591D02*
X1612Y591D01*
X1640Y591D02*
X1660Y591D01*
X1692Y591D02*
X1713Y591D01*
X1740Y591D02*
X1761Y591D01*
X1792Y591D02*
X1813Y591D01*
X1840Y591D02*
X1861Y591D01*
X1892Y591D02*
X1913Y591D01*
X1940Y591D02*
X1961Y591D01*
X1992Y591D02*
X2013Y591D01*
X2040Y591D02*
X2061Y591D01*
X2092Y591D02*
X2113Y591D01*
X2140Y591D02*
X2161Y591D01*
X2192Y591D02*
X2213Y591D01*
X2240Y591D02*
X2261Y591D01*
X791Y590D02*
X812Y590D01*
X838Y590D02*
X859Y590D01*
X891Y590D02*
X912Y590D01*
X938Y590D02*
X959Y590D01*
X991Y590D02*
X1013Y590D01*
X1038Y590D02*
X1059Y590D01*
X1091Y590D02*
X1113Y590D01*
X1138Y590D02*
X1159Y590D01*
X1191Y590D02*
X1213Y590D01*
X1238Y590D02*
X1260Y590D01*
X1292Y590D02*
X1313Y590D01*
X1338Y590D02*
X1360Y590D01*
X1392Y590D02*
X1413Y590D01*
X1438Y590D02*
X1460Y590D01*
X1492Y590D02*
X1513Y590D01*
X1539Y590D02*
X1560Y590D01*
X1592Y590D02*
X1613Y590D01*
X1639Y590D02*
X1660Y590D01*
X1692Y590D02*
X1713Y590D01*
X1739Y590D02*
X1760Y590D01*
X1792Y590D02*
X1814Y590D01*
X1839Y590D02*
X1860Y590D01*
X1892Y590D02*
X1914Y590D01*
X1939Y590D02*
X1961Y590D01*
X1992Y590D02*
X2014Y590D01*
X2039Y590D02*
X2061Y590D01*
X2093Y590D02*
X2114Y590D01*
X2139Y590D02*
X2161Y590D01*
X2193Y590D02*
X2214Y590D01*
X2239Y590D02*
X2261Y590D01*
X791Y589D02*
X813Y589D01*
X836Y589D02*
X859Y589D01*
X891Y589D02*
X914Y589D01*
X937Y589D02*
X959Y589D01*
X991Y589D02*
X1014Y589D01*
X1037Y589D02*
X1059Y589D01*
X1092Y589D02*
X1114Y589D01*
X1137Y589D02*
X1159Y589D01*
X1192Y589D02*
X1214Y589D01*
X1237Y589D02*
X1259Y589D01*
X1292Y589D02*
X1314Y589D01*
X1337Y589D02*
X1359Y589D01*
X1392Y589D02*
X1414Y589D01*
X1437Y589D02*
X1460Y589D01*
X1492Y589D02*
X1514Y589D01*
X1537Y589D02*
X1560Y589D01*
X1592Y589D02*
X1614Y589D01*
X1638Y589D02*
X1660Y589D01*
X1692Y589D02*
X1715Y589D01*
X1738Y589D02*
X1760Y589D01*
X1793Y589D02*
X1815Y589D01*
X1838Y589D02*
X1860Y589D01*
X1893Y589D02*
X1915Y589D01*
X1938Y589D02*
X1960Y589D01*
X1993Y589D02*
X2015Y589D01*
X2038Y589D02*
X2060Y589D01*
X2093Y589D02*
X2115Y589D01*
X2138Y589D02*
X2160Y589D01*
X2193Y589D02*
X2215Y589D01*
X2238Y589D02*
X2261Y589D01*
X792Y588D02*
X815Y588D01*
X835Y588D02*
X858Y588D01*
X892Y588D02*
X915Y588D01*
X935Y588D02*
X958Y588D01*
X992Y588D02*
X1015Y588D01*
X1036Y588D02*
X1059Y588D01*
X1092Y588D02*
X1115Y588D01*
X1136Y588D02*
X1159Y588D01*
X1192Y588D02*
X1215Y588D01*
X1236Y588D02*
X1259Y588D01*
X1292Y588D02*
X1315Y588D01*
X1336Y588D02*
X1359Y588D01*
X1392Y588D02*
X1415Y588D01*
X1436Y588D02*
X1459Y588D01*
X1493Y588D02*
X1516Y588D01*
X1536Y588D02*
X1559Y588D01*
X1593Y588D02*
X1616Y588D01*
X1636Y588D02*
X1659Y588D01*
X1693Y588D02*
X1716Y588D01*
X1736Y588D02*
X1759Y588D01*
X1793Y588D02*
X1816Y588D01*
X1837Y588D02*
X1860Y588D01*
X1893Y588D02*
X1916Y588D01*
X1937Y588D02*
X1960Y588D01*
X1993Y588D02*
X2016Y588D01*
X2037Y588D02*
X2060Y588D01*
X2093Y588D02*
X2116Y588D01*
X2137Y588D02*
X2160Y588D01*
X2193Y588D02*
X2216Y588D01*
X2237Y588D02*
X2260Y588D01*
X792Y587D02*
X816Y587D01*
X834Y587D02*
X858Y587D01*
X892Y587D02*
X916Y587D01*
X934Y587D02*
X958Y587D01*
X992Y587D02*
X1017Y587D01*
X1034Y587D02*
X1058Y587D01*
X1092Y587D02*
X1117Y587D01*
X1134Y587D02*
X1158Y587D01*
X1193Y587D02*
X1217Y587D01*
X1234Y587D02*
X1258Y587D01*
X1293Y587D02*
X1317Y587D01*
X1334Y587D02*
X1358Y587D01*
X1393Y587D02*
X1417Y587D01*
X1434Y587D02*
X1459Y587D01*
X1493Y587D02*
X1517Y587D01*
X1535Y587D02*
X1559Y587D01*
X1593Y587D02*
X1617Y587D01*
X1635Y587D02*
X1659Y587D01*
X1693Y587D02*
X1717Y587D01*
X1735Y587D02*
X1759Y587D01*
X1793Y587D02*
X1818Y587D01*
X1835Y587D02*
X1859Y587D01*
X1894Y587D02*
X1918Y587D01*
X1935Y587D02*
X1959Y587D01*
X1994Y587D02*
X2018Y587D01*
X2035Y587D02*
X2059Y587D01*
X2094Y587D02*
X2118Y587D01*
X2135Y587D02*
X2160Y587D01*
X2194Y587D02*
X2218Y587D01*
X2235Y587D02*
X2260Y587D01*
X793Y586D02*
X819Y586D01*
X831Y586D02*
X857Y586D01*
X893Y586D02*
X919Y586D01*
X932Y586D02*
X958Y586D01*
X993Y586D02*
X1019Y586D01*
X1032Y586D02*
X1058Y586D01*
X1093Y586D02*
X1119Y586D01*
X1132Y586D02*
X1158Y586D01*
X1193Y586D02*
X1219Y586D01*
X1232Y586D02*
X1258Y586D01*
X1293Y586D02*
X1319Y586D01*
X1332Y586D02*
X1358Y586D01*
X1393Y586D02*
X1419Y586D01*
X1432Y586D02*
X1458Y586D01*
X1493Y586D02*
X1519Y586D01*
X1532Y586D02*
X1558Y586D01*
X1594Y586D02*
X1620Y586D01*
X1632Y586D02*
X1658Y586D01*
X1694Y586D02*
X1720Y586D01*
X1733Y586D02*
X1759Y586D01*
X1794Y586D02*
X1820Y586D01*
X1833Y586D02*
X1859Y586D01*
X1894Y586D02*
X1920Y586D01*
X1933Y586D02*
X1959Y586D01*
X1994Y586D02*
X2020Y586D01*
X2033Y586D02*
X2059Y586D01*
X2094Y586D02*
X2120Y586D01*
X2133Y586D02*
X2159Y586D01*
X2194Y586D02*
X2220Y586D01*
X2233Y586D02*
X2259Y586D01*
X793Y585D02*
X857Y585D01*
X893Y585D02*
X957Y585D01*
X993Y585D02*
X1057Y585D01*
X1093Y585D02*
X1157Y585D01*
X1194Y585D02*
X1257Y585D01*
X1294Y585D02*
X1358Y585D01*
X1394Y585D02*
X1458Y585D01*
X1494Y585D02*
X1558Y585D01*
X1594Y585D02*
X1658Y585D01*
X1694Y585D02*
X1758Y585D01*
X1794Y585D02*
X1858Y585D01*
X1894Y585D02*
X1958Y585D01*
X1995Y585D02*
X2058Y585D01*
X2095Y585D02*
X2159Y585D01*
X2195Y585D02*
X2259Y585D01*
X794Y584D02*
X856Y584D01*
X894Y584D02*
X956Y584D01*
X994Y584D02*
X1057Y584D01*
X1094Y584D02*
X1157Y584D01*
X1194Y584D02*
X1257Y584D01*
X1294Y584D02*
X1357Y584D01*
X1394Y584D02*
X1457Y584D01*
X1495Y584D02*
X1557Y584D01*
X1595Y584D02*
X1657Y584D01*
X1695Y584D02*
X1757Y584D01*
X1795Y584D02*
X1858Y584D01*
X1895Y584D02*
X1958Y584D01*
X1995Y584D02*
X2058Y584D01*
X2095Y584D02*
X2158Y584D01*
X2195Y584D02*
X2258Y584D01*
X794Y583D02*
X856Y583D01*
X894Y583D02*
X956Y583D01*
X994Y583D02*
X1056Y583D01*
X1095Y583D02*
X1156Y583D01*
X1195Y583D02*
X1256Y583D01*
X1295Y583D02*
X1356Y583D01*
X1395Y583D02*
X1457Y583D01*
X1495Y583D02*
X1557Y583D01*
X1595Y583D02*
X1657Y583D01*
X1695Y583D02*
X1757Y583D01*
X1796Y583D02*
X1857Y583D01*
X1896Y583D02*
X1957Y583D01*
X1996Y583D02*
X2057Y583D01*
X2096Y583D02*
X2157Y583D01*
X2196Y583D02*
X2258Y583D01*
X795Y582D02*
X855Y582D01*
X895Y582D02*
X955Y582D01*
X995Y582D02*
X1055Y582D01*
X1095Y582D02*
X1156Y582D01*
X1195Y582D02*
X1256Y582D01*
X1295Y582D02*
X1356Y582D01*
X1396Y582D02*
X1456Y582D01*
X1496Y582D02*
X1556Y582D01*
X1596Y582D02*
X1656Y582D01*
X1696Y582D02*
X1756Y582D01*
X1796Y582D02*
X1856Y582D01*
X1896Y582D02*
X1957Y582D01*
X1996Y582D02*
X2057Y582D01*
X2096Y582D02*
X2157Y582D01*
X2197Y582D02*
X2257Y582D01*
X796Y581D02*
X854Y581D01*
X896Y581D02*
X955Y581D01*
X996Y581D02*
X1055Y581D01*
X1096Y581D02*
X1155Y581D01*
X1196Y581D02*
X1255Y581D01*
X1296Y581D02*
X1355Y581D01*
X1396Y581D02*
X1455Y581D01*
X1496Y581D02*
X1555Y581D01*
X1597Y581D02*
X1655Y581D01*
X1697Y581D02*
X1756Y581D01*
X1797Y581D02*
X1856Y581D01*
X1897Y581D02*
X1956Y581D01*
X1997Y581D02*
X2056Y581D01*
X2097Y581D02*
X2156Y581D01*
X2197Y581D02*
X2256Y581D01*
X796Y580D02*
X854Y580D01*
X896Y580D02*
X954Y580D01*
X996Y580D02*
X1054Y580D01*
X1097Y580D02*
X1154Y580D01*
X1197Y580D02*
X1254Y580D01*
X1297Y580D02*
X1354Y580D01*
X1397Y580D02*
X1454Y580D01*
X1497Y580D02*
X1555Y580D01*
X1597Y580D02*
X1655Y580D01*
X1697Y580D02*
X1755Y580D01*
X1798Y580D02*
X1855Y580D01*
X1898Y580D02*
X1955Y580D01*
X1998Y580D02*
X2055Y580D01*
X2098Y580D02*
X2155Y580D01*
X2198Y580D02*
X2256Y580D01*
X797Y579D02*
X853Y579D01*
X897Y579D02*
X953Y579D01*
X997Y579D02*
X1053Y579D01*
X1097Y579D02*
X1153Y579D01*
X1197Y579D02*
X1253Y579D01*
X1298Y579D02*
X1354Y579D01*
X1398Y579D02*
X1454Y579D01*
X1498Y579D02*
X1554Y579D01*
X1598Y579D02*
X1654Y579D01*
X1698Y579D02*
X1754Y579D01*
X1798Y579D02*
X1854Y579D01*
X1898Y579D02*
X1954Y579D01*
X1999Y579D02*
X2055Y579D01*
X2099Y579D02*
X2155Y579D01*
X2199Y579D02*
X2255Y579D01*
X798Y578D02*
X852Y578D01*
X898Y578D02*
X952Y578D01*
X998Y578D02*
X1052Y578D01*
X1098Y578D02*
X1153Y578D01*
X1198Y578D02*
X1253Y578D01*
X1298Y578D02*
X1353Y578D01*
X1399Y578D02*
X1453Y578D01*
X1499Y578D02*
X1553Y578D01*
X1599Y578D02*
X1653Y578D01*
X1699Y578D02*
X1753Y578D01*
X1799Y578D02*
X1853Y578D01*
X1899Y578D02*
X1954Y578D01*
X1999Y578D02*
X2054Y578D01*
X2100Y578D02*
X2154Y578D01*
X2200Y578D02*
X2254Y578D01*
X799Y577D02*
X851Y577D01*
X899Y577D02*
X951Y577D01*
X999Y577D02*
X1051Y577D01*
X1099Y577D02*
X1152Y577D01*
X1199Y577D02*
X1252Y577D01*
X1299Y577D02*
X1352Y577D01*
X1399Y577D02*
X1452Y577D01*
X1500Y577D02*
X1552Y577D01*
X1600Y577D02*
X1652Y577D01*
X1700Y577D02*
X1752Y577D01*
X1800Y577D02*
X1853Y577D01*
X1900Y577D02*
X1953Y577D01*
X2000Y577D02*
X2053Y577D01*
X2100Y577D02*
X2153Y577D01*
X2201Y577D02*
X2253Y577D01*
X800Y576D02*
X850Y576D01*
X900Y576D02*
X950Y576D01*
X1000Y576D02*
X1051Y576D01*
X1100Y576D02*
X1151Y576D01*
X1200Y576D02*
X1251Y576D01*
X1300Y576D02*
X1351Y576D01*
X1400Y576D02*
X1451Y576D01*
X1501Y576D02*
X1551Y576D01*
X1601Y576D02*
X1651Y576D01*
X1701Y576D02*
X1751Y576D01*
X1801Y576D02*
X1852Y576D01*
X1901Y576D02*
X1952Y576D01*
X2001Y576D02*
X2052Y576D01*
X2101Y576D02*
X2152Y576D01*
X2201Y576D02*
X2252Y576D01*
X801Y575D02*
X849Y575D01*
X901Y575D02*
X949Y575D01*
X1001Y575D02*
X1049Y575D01*
X1101Y575D02*
X1150Y575D01*
X1201Y575D02*
X1250Y575D01*
X1301Y575D02*
X1350Y575D01*
X1402Y575D02*
X1450Y575D01*
X1502Y575D02*
X1550Y575D01*
X1602Y575D02*
X1650Y575D01*
X1702Y575D02*
X1750Y575D01*
X1802Y575D02*
X1850Y575D01*
X1902Y575D02*
X1951Y575D01*
X2002Y575D02*
X2051Y575D01*
X2102Y575D02*
X2151Y575D01*
X2203Y575D02*
X2251Y575D01*
X802Y574D02*
X848Y574D01*
X902Y574D02*
X948Y574D01*
X1002Y574D02*
X1048Y574D01*
X1102Y574D02*
X1148Y574D01*
X1203Y574D02*
X1248Y574D01*
X1303Y574D02*
X1349Y574D01*
X1403Y574D02*
X1449Y574D01*
X1503Y574D02*
X1549Y574D01*
X1603Y574D02*
X1649Y574D01*
X1703Y574D02*
X1749Y574D01*
X1803Y574D02*
X1849Y574D01*
X1903Y574D02*
X1949Y574D01*
X2004Y574D02*
X2049Y574D01*
X2104Y574D02*
X2150Y574D01*
X2204Y574D02*
X2250Y574D01*
X803Y573D02*
X847Y573D01*
X903Y573D02*
X947Y573D01*
X1004Y573D02*
X1047Y573D01*
X1104Y573D02*
X1147Y573D01*
X1204Y573D02*
X1247Y573D01*
X1304Y573D02*
X1347Y573D01*
X1404Y573D02*
X1447Y573D01*
X1504Y573D02*
X1547Y573D01*
X1604Y573D02*
X1648Y573D01*
X1705Y573D02*
X1748Y573D01*
X1805Y573D02*
X1848Y573D01*
X1905Y573D02*
X1948Y573D01*
X2005Y573D02*
X2048Y573D01*
X2105Y573D02*
X2148Y573D01*
X2205Y573D02*
X2248Y573D01*
X805Y572D02*
X845Y572D01*
X905Y572D02*
X945Y572D01*
X1005Y572D02*
X1045Y572D01*
X1105Y572D02*
X1146Y572D01*
X1205Y572D02*
X1246Y572D01*
X1305Y572D02*
X1346Y572D01*
X1406Y572D02*
X1446Y572D01*
X1506Y572D02*
X1546Y572D01*
X1606Y572D02*
X1646Y572D01*
X1706Y572D02*
X1746Y572D01*
X1806Y572D02*
X1846Y572D01*
X1906Y572D02*
X1947Y572D01*
X2006Y572D02*
X2047Y572D01*
X2106Y572D02*
X2147Y572D01*
X2207Y572D02*
X2247Y572D01*
X806Y571D02*
X844Y571D01*
X907Y571D02*
X944Y571D01*
X1007Y571D02*
X1044Y571D01*
X1107Y571D02*
X1144Y571D01*
X1207Y571D02*
X1244Y571D01*
X1307Y571D02*
X1344Y571D01*
X1407Y571D02*
X1444Y571D01*
X1507Y571D02*
X1544Y571D01*
X1607Y571D02*
X1645Y571D01*
X1708Y571D02*
X1745Y571D01*
X1808Y571D02*
X1845Y571D01*
X1908Y571D02*
X1945Y571D01*
X2008Y571D02*
X2045Y571D01*
X2108Y571D02*
X2145Y571D01*
X2208Y571D02*
X2245Y571D01*
X808Y570D02*
X842Y570D01*
X908Y570D02*
X942Y570D01*
X1008Y570D02*
X1042Y570D01*
X1109Y570D02*
X1142Y570D01*
X1209Y570D02*
X1242Y570D01*
X1309Y570D02*
X1342Y570D01*
X1409Y570D02*
X1443Y570D01*
X1509Y570D02*
X1543Y570D01*
X1609Y570D02*
X1643Y570D01*
X1709Y570D02*
X1743Y570D01*
X1810Y570D02*
X1843Y570D01*
X1910Y570D02*
X1943Y570D01*
X2010Y570D02*
X2043Y570D01*
X2110Y570D02*
X2143Y570D01*
X2210Y570D02*
X2244Y570D01*
X810Y569D02*
X840Y569D01*
X910Y569D02*
X940Y569D01*
X1011Y569D02*
X1040Y569D01*
X1111Y569D02*
X1140Y569D01*
X1211Y569D02*
X1240Y569D01*
X1311Y569D02*
X1340Y569D01*
X1411Y569D02*
X1440Y569D01*
X1511Y569D02*
X1541Y569D01*
X1611Y569D02*
X1641Y569D01*
X1711Y569D02*
X1741Y569D01*
X1812Y569D02*
X1841Y569D01*
X1912Y569D02*
X1941Y569D01*
X2012Y569D02*
X2041Y569D01*
X2112Y569D02*
X2141Y569D01*
X2212Y569D02*
X2241Y569D01*
X813Y568D02*
X837Y568D01*
X913Y568D02*
X937Y568D01*
X1013Y568D02*
X1037Y568D01*
X1113Y568D02*
X1138Y568D01*
X1213Y568D02*
X1238Y568D01*
X1313Y568D02*
X1338Y568D01*
X1414Y568D02*
X1438Y568D01*
X1514Y568D02*
X1538Y568D01*
X1614Y568D02*
X1638Y568D01*
X1714Y568D02*
X1738Y568D01*
X1814Y568D02*
X1838Y568D01*
X1914Y568D02*
X1939Y568D01*
X2014Y568D02*
X2039Y568D01*
X2114Y568D02*
X2139Y568D01*
X2215Y568D02*
X2239Y568D01*
X816Y567D02*
X834Y567D01*
X916Y567D02*
X934Y567D01*
X1016Y567D02*
X1034Y567D01*
X1116Y567D02*
X1135Y567D01*
X1216Y567D02*
X1235Y567D01*
X1316Y567D02*
X1335Y567D01*
X1417Y567D02*
X1435Y567D01*
X1517Y567D02*
X1535Y567D01*
X1617Y567D02*
X1635Y567D01*
X1717Y567D02*
X1735Y567D01*
X1817Y567D02*
X1835Y567D01*
X1917Y567D02*
X1936Y567D01*
X2017Y567D02*
X2036Y567D01*
X2117Y567D02*
X2136Y567D01*
X2218Y567D02*
X2236Y567D01*
X820Y566D02*
X830Y566D01*
X920Y566D02*
X930Y566D01*
X1021Y566D02*
X1030Y566D01*
X1121Y566D02*
X1130Y566D01*
X1221Y566D02*
X1230Y566D01*
X1321Y566D02*
X1330Y566D01*
X1421Y566D02*
X1430Y566D01*
X1521Y566D02*
X1531Y566D01*
X1621Y566D02*
X1631Y566D01*
X1721Y566D02*
X1731Y566D01*
X1822Y566D02*
X1831Y566D01*
X1922Y566D02*
X1931Y566D01*
X2022Y566D02*
X2031Y566D01*
X2122Y566D02*
X2131Y566D01*
X2222Y566D02*
X2231Y566D01*
D02*
G04 End of Copper0*
M02*